<?xml version="1.0" encoding="UTF-8" standalone="no"?>
<!DOCTYPE svg PUBLIC "-//W3C//DTD SVG 1.1//EN"
 "http://www.w3.org/Graphics/SVG/1.1/DTD/svg11.dtd">
<!-- Generated by graphviz version 2.43.0 (0)
 -->
<!-- Title: courses/bowsers_castle/course_displaylists.inc.h Pages: 1 -->
<svg width="783pt" height="269pt"
 viewBox="0.00 0.00 782.50 269.00" xmlns="http://www.w3.org/2000/svg" xmlns:xlink="http://www.w3.org/1999/xlink">
<g id="graph0" class="graph" transform="scale(1 1) rotate(0) translate(4 265)">
<title>courses/bowsers_castle/course_displaylists.inc.h</title>
<!-- Node1 -->
<g id="Node000001" class="node">
<title>Node1</title>
<g id="a_Node000001"><a xlink:title=" ">
<polygon fill="#999999" stroke="#666666" points="572.5,-261 433.5,-261 433.5,-231 572.5,-231 572.5,-261"/>
<text text-anchor="start" x="441.5" y="-249" font-family="Helvetica,sans-Serif" font-size="10.00">courses/bowsers_castle</text>
<text text-anchor="middle" x="503" y="-238" font-family="Helvetica,sans-Serif" font-size="10.00">/course_displaylists.inc.h</text>
</a>
</g>
</g>
<!-- Node2 -->
<g id="Node000002" class="node">
<title>Node2</title>
<g id="a_Node000002"><a xlink:href="all__course__packed_8h.html" target="_top" xlink:title=" ">
<polygon fill="white" stroke="#666666" points="418.5,-195 311.5,-195 311.5,-165 418.5,-165 418.5,-195"/>
<text text-anchor="start" x="319.5" y="-183" font-family="Helvetica,sans-Serif" font-size="10.00">courses/all_course</text>
<text text-anchor="middle" x="365" y="-172" font-family="Helvetica,sans-Serif" font-size="10.00">_packed.h</text>
</a>
</g>
</g>
<!-- Node1&#45;&gt;Node2 -->
<g id="edge1_Node000001_Node000002" class="edge">
<title>Node1&#45;&gt;Node2</title>
<g id="a_edge1_Node000001_Node000002"><a xlink:title=" ">
<path fill="none" stroke="#63b8ff" d="M463.43,-226.65C441.73,-216.58 415.24,-204.3 395.21,-195.01"/>
<polygon fill="#63b8ff" stroke="#63b8ff" points="462.17,-229.92 472.72,-230.95 465.12,-223.57 462.17,-229.92"/>
</a>
</g>
</g>
<!-- Node10 -->
<g id="Node000010" class="node">
<title>Node10</title>
<g id="a_Node000010"><a xlink:href="bowsers__castle_2course__data_8inc_8c.html" target="_top" xlink:title=" ">
<polygon fill="white" stroke="#666666" points="569,-195 437,-195 437,-165 569,-165 569,-195"/>
<text text-anchor="start" x="445" y="-183" font-family="Helvetica,sans-Serif" font-size="10.00">courses/bowsers_castle</text>
<text text-anchor="middle" x="503" y="-172" font-family="Helvetica,sans-Serif" font-size="10.00">/course_data.inc.c</text>
</a>
</g>
</g>
<!-- Node1&#45;&gt;Node10 -->
<g id="edge9_Node000001_Node000010" class="edge">
<title>Node1&#45;&gt;Node10</title>
<g id="a_edge9_Node000001_Node000010"><a xlink:title=" ">
<path fill="none" stroke="#63b8ff" d="M503,-220.54C503,-211.96 503,-202.61 503,-195.16"/>
<polygon fill="#63b8ff" stroke="#63b8ff" points="499.5,-220.8 503,-230.8 506.5,-220.8 499.5,-220.8"/>
</a>
</g>
</g>
<!-- Node11 -->
<g id="Node000011" class="node">
<title>Node11</title>
<g id="a_Node000011"><a xlink:href="bowsers__castle_2course__displaylists_8inc_8c.html" target="_top" xlink:title=" ">
<polygon fill="white" stroke="#666666" points="725,-195 587,-195 587,-165 725,-165 725,-195"/>
<text text-anchor="start" x="595" y="-183" font-family="Helvetica,sans-Serif" font-size="10.00">courses/bowsers_castle</text>
<text text-anchor="middle" x="656" y="-172" font-family="Helvetica,sans-Serif" font-size="10.00">/course_displaylists.inc.c</text>
</a>
</g>
</g>
<!-- Node1&#45;&gt;Node11 -->
<g id="edge10_Node000001_Node000011" class="edge">
<title>Node1&#45;&gt;Node11</title>
<g id="a_edge10_Node000001_Node000011"><a xlink:title=" ">
<path fill="none" stroke="#63b8ff" d="M545.9,-227.05C570.14,-216.91 600,-204.43 622.5,-195.01"/>
<polygon fill="#63b8ff" stroke="#63b8ff" points="544.45,-223.87 536.58,-230.95 547.15,-230.32 544.45,-223.87"/>
</a>
</g>
</g>
<!-- Node3 -->
<g id="Node000003" class="node">
<title>Node3</title>
<g id="a_Node000003"><a xlink:href="courseTable_8inc_8c.html" target="_top" xlink:title=" ">
<polygon fill="white" stroke="#666666" points="140,-129 0,-129 0,-110 140,-110 140,-129"/>
<text text-anchor="middle" x="70" y="-117" font-family="Helvetica,sans-Serif" font-size="10.00">courses/courseTable.inc.c</text>
</a>
</g>
</g>
<!-- Node2&#45;&gt;Node3 -->
<g id="edge2_Node000002_Node000003" class="edge">
<title>Node2&#45;&gt;Node3</title>
<g id="a_edge2_Node000002_Node000003"><a xlink:title=" ">
<path fill="none" stroke="#63b8ff" d="M301.25,-166.36C244.28,-155.06 162.37,-138.82 112.87,-129"/>
<polygon fill="#63b8ff" stroke="#63b8ff" points="300.75,-169.83 311.24,-168.34 302.11,-162.96 300.75,-169.83"/>
</a>
</g>
</g>
<!-- Node4 -->
<g id="Node000004" class="node">
<title>Node4</title>
<g id="a_Node000004"><a xlink:href="code__800029B0_8c.html" target="_top" xlink:title=" ">
<polygon fill="white" stroke="#666666" points="277.5,-129 158.5,-129 158.5,-110 277.5,-110 277.5,-129"/>
<text text-anchor="middle" x="218" y="-117" font-family="Helvetica,sans-Serif" font-size="10.00">src/code_800029B0.c</text>
</a>
</g>
</g>
<!-- Node2&#45;&gt;Node4 -->
<g id="edge3_Node000002_Node000004" class="edge">
<title>Node2&#45;&gt;Node4</title>
<g id="a_edge3_Node000002_Node000004"><a xlink:title=" ">
<path fill="none" stroke="#63b8ff" d="M320.26,-161.19C293.55,-150.57 260.83,-137.54 239.71,-129.14"/>
<polygon fill="#63b8ff" stroke="#63b8ff" points="319.2,-164.54 329.79,-164.99 321.79,-158.04 319.2,-164.54"/>
</a>
</g>
</g>
<!-- Node5 -->
<g id="Node000005" class="node">
<title>Node5</title>
<g id="a_Node000005"><a xlink:href="all__variables_8h.html" target="_top" xlink:title=" ">
<polygon fill="white" stroke="#666666" points="434,-129 296,-129 296,-110 434,-110 434,-129"/>
<text text-anchor="middle" x="365" y="-117" font-family="Helvetica,sans-Serif" font-size="10.00">src/debug/all_variables.h</text>
</a>
</g>
</g>
<!-- Node2&#45;&gt;Node5 -->
<g id="edge4_Node000002_Node000005" class="edge">
<title>Node2&#45;&gt;Node5</title>
<g id="a_edge4_Node000002_Node000005"><a xlink:title=" ">
<path fill="none" stroke="#63b8ff" d="M365,-154.75C365,-145.72 365,-136.03 365,-129.27"/>
<polygon fill="#63b8ff" stroke="#63b8ff" points="361.5,-154.84 365,-164.84 368.5,-154.84 361.5,-154.84"/>
</a>
</g>
</g>
<!-- Node8 -->
<g id="Node000008" class="node">
<title>Node8</title>
<g id="a_Node000008"><a xlink:href="code__80281780_8c.html" target="_top" xlink:title=" ">
<polygon fill="white" stroke="#666666" points="607.5,-129 452.5,-129 452.5,-110 607.5,-110 607.5,-129"/>
<text text-anchor="middle" x="530" y="-117" font-family="Helvetica,sans-Serif" font-size="10.00">src/ending/code_80281780.c</text>
</a>
</g>
</g>
<!-- Node2&#45;&gt;Node8 -->
<g id="edge7_Node000002_Node000008" class="edge">
<title>Node2&#45;&gt;Node8</title>
<g id="a_edge7_Node000002_Node000008"><a xlink:title=" ">
<path fill="none" stroke="#63b8ff" d="M414.04,-161.61C444.23,-150.91 481.61,-137.65 505.63,-129.14"/>
<polygon fill="#63b8ff" stroke="#63b8ff" points="412.78,-158.35 404.52,-164.99 415.12,-164.94 412.78,-158.35"/>
</a>
</g>
</g>
<!-- Node9 -->
<g id="Node000009" class="node">
<title>Node9</title>
<g id="a_Node000009"><a xlink:href="render__courses_8c.html" target="_top" xlink:title=" ">
<polygon fill="white" stroke="#666666" points="774.5,-129 625.5,-129 625.5,-110 774.5,-110 774.5,-129"/>
<text text-anchor="middle" x="700" y="-117" font-family="Helvetica,sans-Serif" font-size="10.00">src/racing/render_courses.c</text>
</a>
</g>
</g>
<!-- Node2&#45;&gt;Node9 -->
<g id="edge8_Node000002_Node000009" class="edge">
<title>Node2&#45;&gt;Node9</title>
<g id="a_edge8_Node000002_Node000009"><a xlink:title=" ">
<path fill="none" stroke="#63b8ff" d="M428.79,-164.92C508.48,-149.73 589.08,-137.01 642,-129.02"/>
<polygon fill="#63b8ff" stroke="#63b8ff" points="427.73,-161.56 418.57,-166.88 429.05,-168.43 427.73,-161.56"/>
</a>
</g>
</g>
<!-- Node6 -->
<g id="Node000006" class="node">
<title>Node6</title>
<g id="a_Node000006"><a xlink:href="debug_8inc_8c.html" target="_top" xlink:title=" ">
<polygon fill="white" stroke="#666666" points="426,-74 304,-74 304,-55 426,-55 426,-74"/>
<text text-anchor="middle" x="365" y="-62" font-family="Helvetica,sans-Serif" font-size="10.00">src/debug/debug.inc.c</text>
</a>
</g>
</g>
<!-- Node5&#45;&gt;Node6 -->
<g id="edge5_Node000005_Node000006" class="edge">
<title>Node5&#45;&gt;Node6</title>
<g id="a_edge5_Node000005_Node000006"><a xlink:title=" ">
<path fill="none" stroke="#63b8ff" d="M365,-99.66C365,-90.93 365,-80.99 365,-74.09"/>
<polygon fill="#63b8ff" stroke="#63b8ff" points="361.5,-99.75 365,-109.75 368.5,-99.75 361.5,-99.75"/>
</a>
</g>
</g>
<!-- Node7 -->
<g id="Node000007" class="node">
<title>Node7</title>
<g id="a_Node000007"><a xlink:href="debug_8c.html" target="_top" xlink:title=" ">
<polygon fill="white" stroke="#666666" points="417.5,-19 312.5,-19 312.5,0 417.5,0 417.5,-19"/>
<text text-anchor="middle" x="365" y="-7" font-family="Helvetica,sans-Serif" font-size="10.00">src/debug/debug.c</text>
</a>
</g>
</g>
<!-- Node6&#45;&gt;Node7 -->
<g id="edge6_Node000006_Node000007" class="edge">
<title>Node6&#45;&gt;Node7</title>
<g id="a_edge6_Node000006_Node000007"><a xlink:title=" ">
<path fill="none" stroke="#63b8ff" d="M365,-44.66C365,-35.93 365,-25.99 365,-19.09"/>
<polygon fill="#63b8ff" stroke="#63b8ff" points="361.5,-44.75 365,-54.75 368.5,-44.75 361.5,-44.75"/>
</a>
</g>
</g>
</g>
</svg>
