<?xml version="1.0" encoding="UTF-8" standalone="no"?>
<!DOCTYPE svg PUBLIC "-//W3C//DTD SVG 1.1//EN"
 "http://www.w3.org/Graphics/SVG/1.1/DTD/svg11.dtd">
<!-- Generated by graphviz version 2.43.0 (0)
 -->
<!-- Title: courses/choco_mountain/course_data.inc.h Pages: 1 -->
<svg width="1285pt" height="269pt"
 viewBox="0.00 0.00 1285.00 269.00" xmlns="http://www.w3.org/2000/svg" xmlns:xlink="http://www.w3.org/1999/xlink">
<g id="graph0" class="graph" transform="scale(1 1) rotate(0) translate(4 265)">
<title>courses/choco_mountain/course_data.inc.h</title>
<!-- Node1 -->
<g id="Node000001" class="node">
<title>Node1</title>
<g id="a_Node000001"><a xlink:title=" ">
<polygon fill="#999999" stroke="#666666" points="758,-261 621,-261 621,-231 758,-231 758,-261"/>
<text text-anchor="start" x="629" y="-249" font-family="Helvetica,sans-Serif" font-size="10.00">courses/choco_mountain</text>
<text text-anchor="middle" x="689.5" y="-238" font-family="Helvetica,sans-Serif" font-size="10.00">/course_data.inc.h</text>
</a>
</g>
</g>
<!-- Node2 -->
<g id="Node000002" class="node">
<title>Node2</title>
<g id="a_Node000002"><a xlink:href="all__course__data_8h.html" target="_top" xlink:title=" ">
<polygon fill="white" stroke="#666666" points="673,-195 566,-195 566,-165 673,-165 673,-195"/>
<text text-anchor="start" x="574" y="-183" font-family="Helvetica,sans-Serif" font-size="10.00">courses/all_course</text>
<text text-anchor="middle" x="619.5" y="-172" font-family="Helvetica,sans-Serif" font-size="10.00">_data.h</text>
</a>
</g>
</g>
<!-- Node1&#45;&gt;Node2 -->
<g id="edge1_Node000001_Node000002" class="edge">
<title>Node1&#45;&gt;Node2</title>
<g id="a_edge1_Node000001_Node000002"><a xlink:title=" ">
<path fill="none" stroke="#63b8ff" d="M666.45,-223.92C656.13,-214.49 644.23,-203.61 634.99,-195.16"/>
<polygon fill="#63b8ff" stroke="#63b8ff" points="664.22,-226.63 673.96,-230.8 668.95,-221.47 664.22,-226.63"/>
</a>
</g>
</g>
<!-- Node14 -->
<g id="Node000014" class="node">
<title>Node14</title>
<g id="a_Node000014"><a xlink:href="choco__mountain_2course__offsets_8inc_8c.html" target="_top" xlink:title=" ">
<polygon fill="white" stroke="#666666" points="828,-195 691,-195 691,-165 828,-165 828,-195"/>
<text text-anchor="start" x="699" y="-183" font-family="Helvetica,sans-Serif" font-size="10.00">courses/choco_mountain</text>
<text text-anchor="middle" x="759.5" y="-172" font-family="Helvetica,sans-Serif" font-size="10.00">/course_offsets.inc.c</text>
</a>
</g>
</g>
<!-- Node1&#45;&gt;Node14 -->
<g id="edge13_Node000001_Node000014" class="edge">
<title>Node1&#45;&gt;Node14</title>
<g id="a_edge13_Node000001_Node000014"><a xlink:title=" ">
<path fill="none" stroke="#63b8ff" d="M712.55,-223.92C722.87,-214.49 734.77,-203.61 744.01,-195.16"/>
<polygon fill="#63b8ff" stroke="#63b8ff" points="710.05,-221.47 705.04,-230.8 714.78,-226.63 710.05,-221.47"/>
</a>
</g>
</g>
<!-- Node3 -->
<g id="Node000003" class="node">
<title>Node3</title>
<g id="a_Node000003"><a xlink:href="code__800029B0_8c.html" target="_top" xlink:title=" ">
<polygon fill="white" stroke="#666666" points="119,-129 0,-129 0,-110 119,-110 119,-129"/>
<text text-anchor="middle" x="59.5" y="-117" font-family="Helvetica,sans-Serif" font-size="10.00">src/code_800029B0.c</text>
</a>
</g>
</g>
<!-- Node2&#45;&gt;Node3 -->
<g id="edge2_Node000002_Node000003" class="edge">
<title>Node2&#45;&gt;Node3</title>
<g id="a_edge2_Node000002_Node000003"><a xlink:title=" ">
<path fill="none" stroke="#63b8ff" d="M555.52,-172.92C461.76,-163.91 281.56,-146.22 128.5,-129 125.5,-128.66 122.43,-128.31 119.33,-127.95"/>
<polygon fill="#63b8ff" stroke="#63b8ff" points="555.41,-176.42 565.7,-173.9 556.08,-169.46 555.41,-176.42"/>
</a>
</g>
</g>
<!-- Node4 -->
<g id="Node000004" class="node">
<title>Node4</title>
<g id="a_Node000004"><a xlink:href="code__80005FD0_8c.html" target="_top" xlink:title=" ">
<polygon fill="white" stroke="#666666" points="257.5,-129 137.5,-129 137.5,-110 257.5,-110 257.5,-129"/>
<text text-anchor="middle" x="197.5" y="-117" font-family="Helvetica,sans-Serif" font-size="10.00">src/code_80005FD0.c</text>
</a>
</g>
</g>
<!-- Node2&#45;&gt;Node4 -->
<g id="edge3_Node000002_Node000004" class="edge">
<title>Node2&#45;&gt;Node4</title>
<g id="a_edge3_Node000002_Node000004"><a xlink:title=" ">
<path fill="none" stroke="#63b8ff" d="M555.57,-170.14C474.7,-158.93 336.48,-139.77 257.52,-128.82"/>
<polygon fill="#63b8ff" stroke="#63b8ff" points="555.24,-173.63 565.62,-171.53 556.2,-166.69 555.24,-173.63"/>
</a>
</g>
</g>
<!-- Node5 -->
<g id="Node000005" class="node">
<title>Node5</title>
<g id="a_Node000005"><a xlink:href="code__8006E9C0_8c.html" target="_top" xlink:title=" ">
<polygon fill="white" stroke="#666666" points="395,-129 276,-129 276,-110 395,-110 395,-129"/>
<text text-anchor="middle" x="335.5" y="-117" font-family="Helvetica,sans-Serif" font-size="10.00">src/code_8006E9C0.c</text>
</a>
</g>
</g>
<!-- Node2&#45;&gt;Node5 -->
<g id="edge4_Node000002_Node000005" class="edge">
<title>Node2&#45;&gt;Node5</title>
<g id="a_edge4_Node000002_Node000005"><a xlink:title=" ">
<path fill="none" stroke="#63b8ff" d="M555.82,-165.88C501.19,-154.63 424.06,-138.74 377.04,-129.06"/>
<polygon fill="#63b8ff" stroke="#63b8ff" points="555.25,-169.34 565.75,-167.93 556.66,-162.48 555.25,-169.34"/>
</a>
</g>
</g>
<!-- Node6 -->
<g id="Node000006" class="node">
<title>Node6</title>
<g id="a_Node000006"><a xlink:href="code__80071F00_8c.html" target="_top" xlink:title=" ">
<polygon fill="white" stroke="#666666" points="532,-129 413,-129 413,-110 532,-110 532,-129"/>
<text text-anchor="middle" x="472.5" y="-117" font-family="Helvetica,sans-Serif" font-size="10.00">src/code_80071F00.c</text>
</a>
</g>
</g>
<!-- Node2&#45;&gt;Node6 -->
<g id="edge5_Node000002_Node000006" class="edge">
<title>Node2&#45;&gt;Node6</title>
<g id="a_edge5_Node000002_Node000006"><a xlink:title=" ">
<path fill="none" stroke="#63b8ff" d="M574.76,-161.19C548.05,-150.57 515.33,-137.54 494.21,-129.14"/>
<polygon fill="#63b8ff" stroke="#63b8ff" points="573.7,-164.54 584.29,-164.99 576.29,-158.04 573.7,-164.54"/>
</a>
</g>
</g>
<!-- Node7 -->
<g id="Node000007" class="node">
<title>Node7</title>
<g id="a_Node000007"><a xlink:href="all__variables_8h.html" target="_top" xlink:title=" ">
<polygon fill="white" stroke="#666666" points="688.5,-129 550.5,-129 550.5,-110 688.5,-110 688.5,-129"/>
<text text-anchor="middle" x="619.5" y="-117" font-family="Helvetica,sans-Serif" font-size="10.00">src/debug/all_variables.h</text>
</a>
</g>
</g>
<!-- Node2&#45;&gt;Node7 -->
<g id="edge6_Node000002_Node000007" class="edge">
<title>Node2&#45;&gt;Node7</title>
<g id="a_edge6_Node000002_Node000007"><a xlink:title=" ">
<path fill="none" stroke="#63b8ff" d="M619.5,-154.75C619.5,-145.72 619.5,-136.03 619.5,-129.27"/>
<polygon fill="#63b8ff" stroke="#63b8ff" points="616,-154.84 619.5,-164.84 623,-154.84 616,-154.84"/>
</a>
</g>
</g>
<!-- Node10 -->
<g id="Node000010" class="node">
<title>Node10</title>
<g id="a_Node000010"><a xlink:href="code__80281780_8c.html" target="_top" xlink:title=" ">
<polygon fill="white" stroke="#666666" points="862,-129 707,-129 707,-110 862,-110 862,-129"/>
<text text-anchor="middle" x="784.5" y="-117" font-family="Helvetica,sans-Serif" font-size="10.00">src/ending/code_80281780.c</text>
</a>
</g>
</g>
<!-- Node2&#45;&gt;Node10 -->
<g id="edge9_Node000002_Node000010" class="edge">
<title>Node2&#45;&gt;Node10</title>
<g id="a_edge9_Node000002_Node000010"><a xlink:title=" ">
<path fill="none" stroke="#63b8ff" d="M668.54,-161.61C698.73,-150.91 736.11,-137.65 760.13,-129.14"/>
<polygon fill="#63b8ff" stroke="#63b8ff" points="667.28,-158.35 659.02,-164.99 669.62,-164.94 667.28,-158.35"/>
</a>
</g>
</g>
<!-- Node11 -->
<g id="Node000011" class="node">
<title>Node11</title>
<g id="a_Node000011"><a xlink:href="hud__renderer_8c.html" target="_top" xlink:title=" ">
<polygon fill="white" stroke="#666666" points="986.5,-129 880.5,-129 880.5,-110 986.5,-110 986.5,-129"/>
<text text-anchor="middle" x="933.5" y="-117" font-family="Helvetica,sans-Serif" font-size="10.00">src/hud_renderer.c</text>
</a>
</g>
</g>
<!-- Node2&#45;&gt;Node11 -->
<g id="edge10_Node000002_Node000011" class="edge">
<title>Node2&#45;&gt;Node11</title>
<g id="a_edge10_Node000002_Node000011"><a xlink:title=" ">
<path fill="none" stroke="#63b8ff" d="M683.14,-164.92C757.85,-150.14 832.8,-137.2 881.46,-129.05"/>
<polygon fill="#63b8ff" stroke="#63b8ff" points="682.21,-161.54 673.08,-166.93 683.57,-168.41 682.21,-161.54"/>
</a>
</g>
</g>
<!-- Node12 -->
<g id="Node000012" class="node">
<title>Node12</title>
<g id="a_Node000012"><a xlink:href="actors_8c.html" target="_top" xlink:title=" ">
<polygon fill="white" stroke="#666666" points="1110,-129 1005,-129 1005,-110 1110,-110 1110,-129"/>
<text text-anchor="middle" x="1057.5" y="-117" font-family="Helvetica,sans-Serif" font-size="10.00">src/racing/actors.c</text>
</a>
</g>
</g>
<!-- Node2&#45;&gt;Node12 -->
<g id="edge11_Node000002_Node000012" class="edge">
<title>Node2&#45;&gt;Node12</title>
<g id="a_edge11_Node000002_Node000012"><a xlink:title=" ">
<path fill="none" stroke="#63b8ff" d="M683.24,-165C822.33,-141.99 859.83,-146.1 995.5,-129 998.52,-128.62 1001.62,-128.22 1004.75,-127.81"/>
<polygon fill="#63b8ff" stroke="#63b8ff" points="682.33,-161.6 673.04,-166.7 683.48,-168.51 682.33,-161.6"/>
</a>
</g>
</g>
<!-- Node13 -->
<g id="Node000013" class="node">
<title>Node13</title>
<g id="a_Node000013"><a xlink:href="render__courses_8c.html" target="_top" xlink:title=" ">
<polygon fill="white" stroke="#666666" points="1277,-129 1128,-129 1128,-110 1277,-110 1277,-129"/>
<text text-anchor="middle" x="1202.5" y="-117" font-family="Helvetica,sans-Serif" font-size="10.00">src/racing/render_courses.c</text>
</a>
</g>
</g>
<!-- Node2&#45;&gt;Node13 -->
<g id="edge12_Node000002_Node000013" class="edge">
<title>Node2&#45;&gt;Node13</title>
<g id="a_edge12_Node000002_Node000013"><a xlink:title=" ">
<path fill="none" stroke="#63b8ff" d="M682.97,-165.09C876.89,-136.16 928.67,-146.63 1119.5,-129 1122.24,-128.75 1125.03,-128.48 1127.85,-128.22"/>
<polygon fill="#63b8ff" stroke="#63b8ff" points="682.39,-161.63 673.02,-166.58 683.43,-168.55 682.39,-161.63"/>
</a>
</g>
</g>
<!-- Node8 -->
<g id="Node000008" class="node">
<title>Node8</title>
<g id="a_Node000008"><a xlink:href="debug_8inc_8c.html" target="_top" xlink:title=" ">
<polygon fill="white" stroke="#666666" points="680.5,-74 558.5,-74 558.5,-55 680.5,-55 680.5,-74"/>
<text text-anchor="middle" x="619.5" y="-62" font-family="Helvetica,sans-Serif" font-size="10.00">src/debug/debug.inc.c</text>
</a>
</g>
</g>
<!-- Node7&#45;&gt;Node8 -->
<g id="edge7_Node000007_Node000008" class="edge">
<title>Node7&#45;&gt;Node8</title>
<g id="a_edge7_Node000007_Node000008"><a xlink:title=" ">
<path fill="none" stroke="#63b8ff" d="M619.5,-99.66C619.5,-90.93 619.5,-80.99 619.5,-74.09"/>
<polygon fill="#63b8ff" stroke="#63b8ff" points="616,-99.75 619.5,-109.75 623,-99.75 616,-99.75"/>
</a>
</g>
</g>
<!-- Node9 -->
<g id="Node000009" class="node">
<title>Node9</title>
<g id="a_Node000009"><a xlink:href="debug_8c.html" target="_top" xlink:title=" ">
<polygon fill="white" stroke="#666666" points="672,-19 567,-19 567,0 672,0 672,-19"/>
<text text-anchor="middle" x="619.5" y="-7" font-family="Helvetica,sans-Serif" font-size="10.00">src/debug/debug.c</text>
</a>
</g>
</g>
<!-- Node8&#45;&gt;Node9 -->
<g id="edge8_Node000008_Node000009" class="edge">
<title>Node8&#45;&gt;Node9</title>
<g id="a_edge8_Node000008_Node000009"><a xlink:title=" ">
<path fill="none" stroke="#63b8ff" d="M619.5,-44.66C619.5,-35.93 619.5,-25.99 619.5,-19.09"/>
<polygon fill="#63b8ff" stroke="#63b8ff" points="616,-44.75 619.5,-54.75 623,-44.75 616,-44.75"/>
</a>
</g>
</g>
</g>
</svg>
