<?xml version="1.0" encoding="UTF-8" standalone="no"?>
<!DOCTYPE svg PUBLIC "-//W3C//DTD SVG 1.1//EN"
 "http://www.w3.org/Graphics/SVG/1.1/DTD/svg11.dtd">
<!-- Generated by graphviz version 2.43.0 (0)
 -->
<!-- Title: src/code_80004740.h Pages: 1 -->
<svg width="1938pt" height="324pt"
 viewBox="0.00 0.00 1937.56 324.00" xmlns="http://www.w3.org/2000/svg" xmlns:xlink="http://www.w3.org/1999/xlink">
<g id="graph0" class="graph" transform="scale(1 1) rotate(0) translate(4 320)">
<title>src/code_80004740.h</title>
<!-- Node1 -->
<g id="Node000001" class="node">
<title>Node1</title>
<g id="a_Node000001"><a xlink:title=" ">
<polygon fill="#999999" stroke="#666666" points="1287.5,-316 1168.5,-316 1168.5,-297 1287.5,-297 1287.5,-316"/>
<text text-anchor="middle" x="1228" y="-304" font-family="Helvetica,sans-Serif" font-size="10.00">src/code_80004740.h</text>
</a>
</g>
</g>
<!-- Node2 -->
<g id="Node000002" class="node">
<title>Node2</title>
<g id="a_Node000002"><a xlink:href="koopa__troopa__beach_2course__data_8inc_8c.html" target="_top" xlink:title=" ">
<polygon fill="white" stroke="#666666" points="257.5,-261 118.5,-261 118.5,-231 257.5,-231 257.5,-261"/>
<text text-anchor="start" x="126.5" y="-249" font-family="Helvetica,sans-Serif" font-size="10.00">courses/koopa_troopa</text>
<text text-anchor="middle" x="188" y="-238" font-family="Helvetica,sans-Serif" font-size="10.00">_beach/course_data.inc.c</text>
</a>
</g>
</g>
<!-- Node1&#45;&gt;Node2 -->
<g id="edge1_Node000001_Node000002" class="edge">
<title>Node1&#45;&gt;Node2</title>
<g id="a_edge1_Node000001_Node000002"><a xlink:title=" ">
<path fill="none" stroke="#63b8ff" d="M1158.17,-305.08C1000,-303.52 602.42,-296.1 272,-261 267.3,-260.5 262.45,-259.91 257.58,-259.25"/>
<polygon fill="#63b8ff" stroke="#63b8ff" points="1158.21,-308.58 1168.24,-305.18 1158.28,-301.58 1158.21,-308.58"/>
</a>
</g>
</g>
<!-- Node3 -->
<g id="Node000003" class="node">
<title>Node3</title>
<g id="a_Node000003"><a xlink:href="koopa__troopa__beach_2course__data_8inc_8h.html" target="_top" xlink:title=" ">
<polygon fill="white" stroke="#666666" points="937,-261 797,-261 797,-231 937,-231 937,-261"/>
<text text-anchor="start" x="805" y="-249" font-family="Helvetica,sans-Serif" font-size="10.00">courses/koopa_troopa</text>
<text text-anchor="middle" x="867" y="-238" font-family="Helvetica,sans-Serif" font-size="10.00">_beach/course_data.inc.h</text>
</a>
</g>
</g>
<!-- Node1&#45;&gt;Node3 -->
<g id="edge2_Node000001_Node000003" class="edge">
<title>Node1&#45;&gt;Node3</title>
<g id="a_edge2_Node000001_Node000003"><a xlink:title=" ">
<path fill="none" stroke="#63b8ff" d="M1162.04,-295.45C1104.86,-286.65 1019.9,-273.38 946,-261 943.12,-260.52 940.17,-260.02 937.2,-259.51"/>
<polygon fill="#63b8ff" stroke="#63b8ff" points="1161.62,-298.93 1172.04,-296.99 1162.68,-292.01 1161.62,-298.93"/>
</a>
</g>
</g>
<!-- Node9 -->
<g id="Node000009" class="node">
<title>Node9</title>
<g id="a_Node000009"><a xlink:href="all__variables_8h.html" target="_top" xlink:title=" ">
<polygon fill="white" stroke="#666666" points="1842,-129 1704,-129 1704,-110 1842,-110 1842,-129"/>
<text text-anchor="middle" x="1773" y="-117" font-family="Helvetica,sans-Serif" font-size="10.00">src/debug/all_variables.h</text>
</a>
</g>
</g>
<!-- Node1&#45;&gt;Node9 -->
<g id="edge48_Node000001_Node000009" class="edge">
<title>Node1&#45;&gt;Node9</title>
<g id="a_edge48_Node000001_Node000009"><a xlink:title=" ">
<path fill="none" stroke="#63b8ff" d="M1297.91,-306.27C1464.9,-307.39 1876.23,-305.55 1918,-261 1966.91,-208.83 1845.79,-150.59 1794.57,-129.08"/>
<polygon fill="#63b8ff" stroke="#63b8ff" points="1297.77,-302.77 1287.75,-306.2 1297.72,-309.77 1297.77,-302.77"/>
</a>
</g>
</g>
<!-- Node13 -->
<g id="Node000013" class="node">
<title>Node13</title>
<g id="a_Node000013"><a xlink:href="hud__renderer_8c.html" target="_top" xlink:title=" ">
<polygon fill="white" stroke="#666666" points="106,-129 0,-129 0,-110 106,-110 106,-129"/>
<text text-anchor="middle" x="53" y="-117" font-family="Helvetica,sans-Serif" font-size="10.00">src/hud_renderer.c</text>
</a>
</g>
</g>
<!-- Node1&#45;&gt;Node13 -->
<g id="edge49_Node000001_Node000013" class="edge">
<title>Node1&#45;&gt;Node13</title>
<g id="a_edge49_Node000001_Node000013"><a xlink:title=" ">
<path fill="none" stroke="#63b8ff" d="M1158.08,-302.59C1049.14,-297.5 832.44,-285.15 650,-261 493.07,-240.23 453.77,-232.58 300,-195 217.77,-174.91 122.33,-143.87 78,-129.01"/>
<polygon fill="#63b8ff" stroke="#63b8ff" points="1158.13,-306.1 1168.28,-303.06 1158.45,-299.11 1158.13,-306.1"/>
</a>
</g>
</g>
<!-- Node16 -->
<g id="Node000016" class="node">
<title>Node16</title>
<g id="a_Node000016"><a xlink:href="rainbow__road_2course__data_8inc_8c.html" target="_top" xlink:title=" ">
<polygon fill="white" stroke="#666666" points="1078.5,-261 955.5,-261 955.5,-231 1078.5,-231 1078.5,-261"/>
<text text-anchor="start" x="963.5" y="-249" font-family="Helvetica,sans-Serif" font-size="10.00">courses/rainbow_road</text>
<text text-anchor="middle" x="1017" y="-238" font-family="Helvetica,sans-Serif" font-size="10.00">/course_data.inc.c</text>
</a>
</g>
</g>
<!-- Node1&#45;&gt;Node16 -->
<g id="edge15_Node000001_Node000016" class="edge">
<title>Node1&#45;&gt;Node16</title>
<g id="a_edge15_Node000001_Node000016"><a xlink:title=" ">
<path fill="none" stroke="#63b8ff" d="M1187.68,-294.32C1153.57,-284.86 1104.5,-271.26 1067.73,-261.06"/>
<polygon fill="#63b8ff" stroke="#63b8ff" points="1186.75,-297.69 1197.32,-296.99 1188.62,-290.95 1186.75,-297.69"/>
</a>
</g>
</g>
<!-- Node17 -->
<g id="Node000017" class="node">
<title>Node17</title>
<g id="a_Node000017"><a xlink:href="rainbow__road_2course__data_8inc_8h.html" target="_top" xlink:title=" ">
<polygon fill="white" stroke="#666666" points="1219.5,-261 1096.5,-261 1096.5,-231 1219.5,-231 1219.5,-261"/>
<text text-anchor="start" x="1104.5" y="-249" font-family="Helvetica,sans-Serif" font-size="10.00">courses/rainbow_road</text>
<text text-anchor="middle" x="1158" y="-238" font-family="Helvetica,sans-Serif" font-size="10.00">/course_data.inc.h</text>
</a>
</g>
</g>
<!-- Node1&#45;&gt;Node17 -->
<g id="edge16_Node000001_Node000017" class="edge">
<title>Node1&#45;&gt;Node17</title>
<g id="a_edge16_Node000001_Node000017"><a xlink:title=" ">
<path fill="none" stroke="#63b8ff" d="M1209.73,-290.23C1198.96,-281.23 1185.42,-269.91 1174.89,-261.11"/>
<polygon fill="#63b8ff" stroke="#63b8ff" points="1207.75,-293.14 1217.67,-296.87 1212.24,-287.77 1207.75,-293.14"/>
</a>
</g>
</g>
<!-- Node18 -->
<g id="Node000018" class="node">
<title>Node18</title>
<g id="a_Node000018"><a xlink:href="sherbet__land_2course__data_8inc_8c.html" target="_top" xlink:title=" ">
<polygon fill="white" stroke="#666666" points="1358,-261 1238,-261 1238,-231 1358,-231 1358,-261"/>
<text text-anchor="start" x="1246" y="-249" font-family="Helvetica,sans-Serif" font-size="10.00">courses/sherbet_land</text>
<text text-anchor="middle" x="1298" y="-238" font-family="Helvetica,sans-Serif" font-size="10.00">/course_data.inc.c</text>
</a>
</g>
</g>
<!-- Node1&#45;&gt;Node18 -->
<g id="edge18_Node000001_Node000018" class="edge">
<title>Node1&#45;&gt;Node18</title>
<g id="a_edge18_Node000001_Node000018"><a xlink:title=" ">
<path fill="none" stroke="#63b8ff" d="M1246.27,-290.23C1257.04,-281.23 1270.58,-269.91 1281.11,-261.11"/>
<polygon fill="#63b8ff" stroke="#63b8ff" points="1243.76,-287.77 1238.33,-296.87 1248.25,-293.14 1243.76,-287.77"/>
</a>
</g>
</g>
<!-- Node19 -->
<g id="Node000019" class="node">
<title>Node19</title>
<g id="a_Node000019"><a xlink:href="sherbet__land_2course__data_8inc_8h.html" target="_top" xlink:title=" ">
<polygon fill="white" stroke="#666666" points="1771,-261 1651,-261 1651,-231 1771,-231 1771,-261"/>
<text text-anchor="start" x="1659" y="-249" font-family="Helvetica,sans-Serif" font-size="10.00">courses/sherbet_land</text>
<text text-anchor="middle" x="1711" y="-238" font-family="Helvetica,sans-Serif" font-size="10.00">/course_data.inc.h</text>
</a>
</g>
</g>
<!-- Node1&#45;&gt;Node19 -->
<g id="edge19_Node000001_Node000019" class="edge">
<title>Node1&#45;&gt;Node19</title>
<g id="a_edge19_Node000001_Node000019"><a xlink:title=" ">
<path fill="none" stroke="#63b8ff" d="M1297.53,-300.02C1380,-293.05 1521.48,-279.66 1642,-261 1644.9,-260.55 1647.86,-260.06 1650.85,-259.55"/>
<polygon fill="#63b8ff" stroke="#63b8ff" points="1297.2,-296.53 1287.53,-300.85 1297.79,-303.51 1297.2,-296.53"/>
</a>
</g>
</g>
<!-- Node21 -->
<g id="Node000021" class="node">
<title>Node21</title>
<g id="a_Node000021"><a xlink:href="yoshi__valley_2course__data_8inc_8c.html" target="_top" xlink:title=" ">
<polygon fill="white" stroke="#666666" points="1632.5,-261 1513.5,-261 1513.5,-231 1632.5,-231 1632.5,-261"/>
<text text-anchor="start" x="1521.5" y="-249" font-family="Helvetica,sans-Serif" font-size="10.00">courses/yoshi_valley</text>
<text text-anchor="middle" x="1573" y="-238" font-family="Helvetica,sans-Serif" font-size="10.00">/course_data.inc.c</text>
</a>
</g>
</g>
<!-- Node1&#45;&gt;Node21 -->
<g id="edge22_Node000001_Node000021" class="edge">
<title>Node1&#45;&gt;Node21</title>
<g id="a_edge22_Node000001_Node000021"><a xlink:title=" ">
<path fill="none" stroke="#63b8ff" d="M1295.87,-295.44C1352.03,-286.92 1433.85,-274.03 1505,-261 1507.73,-260.5 1510.51,-259.98 1513.32,-259.44"/>
<polygon fill="#63b8ff" stroke="#63b8ff" points="1295.05,-292.03 1285.69,-296.98 1296.1,-298.95 1295.05,-292.03"/>
</a>
</g>
</g>
<!-- Node22 -->
<g id="Node000022" class="node">
<title>Node22</title>
<g id="a_Node000022"><a xlink:href="yoshi__valley_2course__data_8inc_8h.html" target="_top" xlink:title=" ">
<polygon fill="white" stroke="#666666" points="1495.5,-261 1376.5,-261 1376.5,-231 1495.5,-231 1495.5,-261"/>
<text text-anchor="start" x="1384.5" y="-249" font-family="Helvetica,sans-Serif" font-size="10.00">courses/yoshi_valley</text>
<text text-anchor="middle" x="1436" y="-238" font-family="Helvetica,sans-Serif" font-size="10.00">/course_data.inc.h</text>
</a>
</g>
</g>
<!-- Node1&#45;&gt;Node22 -->
<g id="edge23_Node000001_Node000022" class="edge">
<title>Node1&#45;&gt;Node22</title>
<g id="a_edge23_Node000001_Node000022"><a xlink:title=" ">
<path fill="none" stroke="#63b8ff" d="M1268.18,-294.2C1301.79,-284.75 1349.9,-271.22 1385.99,-261.06"/>
<polygon fill="#63b8ff" stroke="#63b8ff" points="1266.92,-290.92 1258.24,-296.99 1268.82,-297.66 1266.92,-290.92"/>
</a>
</g>
</g>
<!-- Node23 -->
<g id="Node000023" class="node">
<title>Node23</title>
<g id="a_Node000023"><a xlink:href="code__80004740_8c.html" target="_top" xlink:title=" ">
<polygon fill="white" stroke="#666666" points="1908.5,-255.5 1789.5,-255.5 1789.5,-236.5 1908.5,-236.5 1908.5,-255.5"/>
<text text-anchor="middle" x="1849" y="-243.5" font-family="Helvetica,sans-Serif" font-size="10.00">src/code_80004740.c</text>
</a>
</g>
</g>
<!-- Node1&#45;&gt;Node23 -->
<g id="edge25_Node000001_Node000023" class="edge">
<title>Node1&#45;&gt;Node23</title>
<g id="a_edge25_Node000001_Node000023"><a xlink:title=" ">
<path fill="none" stroke="#63b8ff" d="M1298.05,-302.54C1403.16,-297.5 1607.71,-285.33 1780,-261 1790.17,-259.56 1801.09,-257.56 1811.18,-255.52"/>
<polygon fill="#63b8ff" stroke="#63b8ff" points="1297.71,-299.06 1287.89,-303.02 1298.04,-306.05 1297.71,-299.06"/>
</a>
</g>
</g>
<!-- Node24 -->
<g id="Node000024" class="node">
<title>Node24</title>
<g id="a_Node000024"><a xlink:href="code__80071F00_8h.html" target="_top" xlink:title=" ">
<polygon fill="white" stroke="#666666" points="778.5,-255.5 659.5,-255.5 659.5,-236.5 778.5,-236.5 778.5,-255.5"/>
<text text-anchor="middle" x="719" y="-243.5" font-family="Helvetica,sans-Serif" font-size="10.00">src/code_80071F00.h</text>
</a>
</g>
</g>
<!-- Node1&#45;&gt;Node24 -->
<g id="edge26_Node000001_Node000024" class="edge">
<title>Node1&#45;&gt;Node24</title>
<g id="a_edge26_Node000001_Node000024"><a xlink:title=" ">
<path fill="none" stroke="#63b8ff" d="M1158.32,-300.6C1071.34,-294 918.16,-280.74 788,-261 778.09,-259.5 767.45,-257.52 757.56,-255.53"/>
<polygon fill="#63b8ff" stroke="#63b8ff" points="1158.1,-304.1 1168.34,-301.36 1158.63,-297.12 1158.1,-304.1"/>
</a>
</g>
</g>
<!-- Node4 -->
<g id="Node000004" class="node">
<title>Node4</title>
<g id="a_Node000004"><a xlink:href="all__course__data_8h.html" target="_top" xlink:title=" ">
<polygon fill="white" stroke="#666666" points="1250.5,-195 1143.5,-195 1143.5,-165 1250.5,-165 1250.5,-195"/>
<text text-anchor="start" x="1151.5" y="-183" font-family="Helvetica,sans-Serif" font-size="10.00">courses/all_course</text>
<text text-anchor="middle" x="1197" y="-172" font-family="Helvetica,sans-Serif" font-size="10.00">_data.h</text>
</a>
</g>
</g>
<!-- Node3&#45;&gt;Node4 -->
<g id="edge3_Node000003_Node000004" class="edge">
<title>Node3&#45;&gt;Node4</title>
<g id="a_edge3_Node000003_Node000004"><a xlink:title=" ">
<path fill="none" stroke="#63b8ff" d="M947.35,-229.42C1008.22,-217.61 1090.16,-201.72 1143.28,-191.42"/>
<polygon fill="#63b8ff" stroke="#63b8ff" points="946.54,-226.01 937.39,-231.35 947.87,-232.88 946.54,-226.01"/>
</a>
</g>
</g>
<!-- Node5 -->
<g id="Node000005" class="node">
<title>Node5</title>
<g id="a_Node000005"><a xlink:href="code__800029B0_8c.html" target="_top" xlink:title=" ">
<polygon fill="white" stroke="#666666" points="982.5,-129 863.5,-129 863.5,-110 982.5,-110 982.5,-129"/>
<text text-anchor="middle" x="923" y="-117" font-family="Helvetica,sans-Serif" font-size="10.00">src/code_800029B0.c</text>
</a>
</g>
</g>
<!-- Node4&#45;&gt;Node5 -->
<g id="edge4_Node000004_Node000005" class="edge">
<title>Node4&#45;&gt;Node5</title>
<g id="a_edge4_Node000004_Node000005"><a xlink:title=" ">
<path fill="none" stroke="#63b8ff" d="M1133.29,-165.4C1080.67,-154.16 1007.61,-138.56 962.91,-129.02"/>
<polygon fill="#63b8ff" stroke="#63b8ff" points="1132.68,-168.85 1143.19,-167.51 1134.14,-162 1132.68,-168.85"/>
</a>
</g>
</g>
<!-- Node6 -->
<g id="Node000006" class="node">
<title>Node6</title>
<g id="a_Node000006"><a xlink:href="code__80005FD0_8c.html" target="_top" xlink:title=" ">
<polygon fill="white" stroke="#666666" points="1395,-129 1275,-129 1275,-110 1395,-110 1395,-129"/>
<text text-anchor="middle" x="1335" y="-117" font-family="Helvetica,sans-Serif" font-size="10.00">src/code_80005FD0.c</text>
</a>
</g>
</g>
<!-- Node4&#45;&gt;Node6 -->
<g id="edge5_Node000004_Node000006" class="edge">
<title>Node4&#45;&gt;Node6</title>
<g id="a_edge5_Node000004_Node000006"><a xlink:title=" ">
<path fill="none" stroke="#63b8ff" d="M1239.34,-161.05C1264.35,-150.45 1294.88,-137.51 1314.62,-129.14"/>
<polygon fill="#63b8ff" stroke="#63b8ff" points="1237.9,-157.86 1230.05,-164.99 1240.63,-164.31 1237.9,-157.86"/>
</a>
</g>
</g>
<!-- Node7 -->
<g id="Node000007" class="node">
<title>Node7</title>
<g id="a_Node000007"><a xlink:href="code__8006E9C0_8c.html" target="_top" xlink:title=" ">
<polygon fill="white" stroke="#666666" points="1119.5,-129 1000.5,-129 1000.5,-110 1119.5,-110 1119.5,-129"/>
<text text-anchor="middle" x="1060" y="-117" font-family="Helvetica,sans-Serif" font-size="10.00">src/code_8006E9C0.c</text>
</a>
</g>
</g>
<!-- Node4&#45;&gt;Node7 -->
<g id="edge6_Node000004_Node000007" class="edge">
<title>Node4&#45;&gt;Node7</title>
<g id="a_edge6_Node000004_Node000007"><a xlink:title=" ">
<path fill="none" stroke="#63b8ff" d="M1154.97,-161.05C1130.14,-150.45 1099.83,-137.51 1080.23,-129.14"/>
<polygon fill="#63b8ff" stroke="#63b8ff" points="1153.61,-164.28 1164.19,-164.99 1156.36,-157.84 1153.61,-164.28"/>
</a>
</g>
</g>
<!-- Node8 -->
<g id="Node000008" class="node">
<title>Node8</title>
<g id="a_Node000008"><a xlink:href="code__80071F00_8c.html" target="_top" xlink:title=" ">
<polygon fill="white" stroke="#666666" points="1256.5,-129 1137.5,-129 1137.5,-110 1256.5,-110 1256.5,-129"/>
<text text-anchor="middle" x="1197" y="-117" font-family="Helvetica,sans-Serif" font-size="10.00">src/code_80071F00.c</text>
</a>
</g>
</g>
<!-- Node4&#45;&gt;Node8 -->
<g id="edge7_Node000004_Node000008" class="edge">
<title>Node4&#45;&gt;Node8</title>
<g id="a_edge7_Node000004_Node000008"><a xlink:title=" ">
<path fill="none" stroke="#63b8ff" d="M1197,-154.75C1197,-145.72 1197,-136.03 1197,-129.27"/>
<polygon fill="#63b8ff" stroke="#63b8ff" points="1193.5,-154.84 1197,-164.84 1200.5,-154.84 1193.5,-154.84"/>
</a>
</g>
</g>
<!-- Node4&#45;&gt;Node9 -->
<g id="edge8_Node000004_Node000009" class="edge">
<title>Node4&#45;&gt;Node9</title>
<g id="a_edge8_Node000004_Node000009"><a xlink:title=" ">
<path fill="none" stroke="#63b8ff" d="M1260.81,-172.77C1355.57,-163.47 1539.07,-145.32 1695,-129 1697.85,-128.7 1700.75,-128.4 1703.68,-128.08"/>
<polygon fill="#63b8ff" stroke="#63b8ff" points="1260.42,-169.29 1250.81,-173.75 1261.11,-176.26 1260.42,-169.29"/>
</a>
</g>
</g>
<!-- Node12 -->
<g id="Node000012" class="node">
<title>Node12</title>
<g id="a_Node000012"><a xlink:href="code__80281780_8c.html" target="_top" xlink:title=" ">
<polygon fill="white" stroke="#666666" points="845.5,-129 690.5,-129 690.5,-110 845.5,-110 845.5,-129"/>
<text text-anchor="middle" x="768" y="-117" font-family="Helvetica,sans-Serif" font-size="10.00">src/ending/code_80281780.c</text>
</a>
</g>
</g>
<!-- Node4&#45;&gt;Node12 -->
<g id="edge11_Node000004_Node000012" class="edge">
<title>Node4&#45;&gt;Node12</title>
<g id="a_edge11_Node000004_Node000012"><a xlink:title=" ">
<path fill="none" stroke="#63b8ff" d="M1132.96,-170.27C1051.34,-159.14 911.16,-140.02 830.36,-129"/>
<polygon fill="#63b8ff" stroke="#63b8ff" points="1132.72,-173.77 1143.1,-171.65 1133.67,-166.83 1132.72,-173.77"/>
</a>
</g>
</g>
<!-- Node4&#45;&gt;Node13 -->
<g id="edge12_Node000004_Node000013" class="edge">
<title>Node4&#45;&gt;Node13</title>
<g id="a_edge12_Node000004_Node000013"><a xlink:title=" ">
<path fill="none" stroke="#63b8ff" d="M1133.23,-169.82C1118.41,-167.97 1102.68,-166.21 1088,-165 656.73,-129.4 546.12,-166.43 115,-129 112.08,-128.75 109.08,-128.45 106.06,-128.13"/>
<polygon fill="#63b8ff" stroke="#63b8ff" points="1132.96,-173.32 1143.32,-171.12 1133.85,-166.37 1132.96,-173.32"/>
</a>
</g>
</g>
<!-- Node14 -->
<g id="Node000014" class="node">
<title>Node14</title>
<g id="a_Node000014"><a xlink:href="actors_8c.html" target="_top" xlink:title=" ">
<polygon fill="white" stroke="#666666" points="1685.5,-129 1580.5,-129 1580.5,-110 1685.5,-110 1685.5,-129"/>
<text text-anchor="middle" x="1633" y="-117" font-family="Helvetica,sans-Serif" font-size="10.00">src/racing/actors.c</text>
</a>
</g>
</g>
<!-- Node4&#45;&gt;Node14 -->
<g id="edge13_Node000004_Node000014" class="edge">
<title>Node4&#45;&gt;Node14</title>
<g id="a_edge13_Node000004_Node000014"><a xlink:title=" ">
<path fill="none" stroke="#63b8ff" d="M1260.91,-170.6C1335.56,-160.75 1462.76,-143.89 1572,-129 1574.75,-128.62 1577.58,-128.24 1580.43,-127.85"/>
<polygon fill="#63b8ff" stroke="#63b8ff" points="1260.19,-167.16 1250.73,-171.94 1261.1,-174.1 1260.19,-167.16"/>
</a>
</g>
</g>
<!-- Node15 -->
<g id="Node000015" class="node">
<title>Node15</title>
<g id="a_Node000015"><a xlink:href="render__courses_8c.html" target="_top" xlink:title=" ">
<polygon fill="white" stroke="#666666" points="1562.5,-129 1413.5,-129 1413.5,-110 1562.5,-110 1562.5,-129"/>
<text text-anchor="middle" x="1488" y="-117" font-family="Helvetica,sans-Serif" font-size="10.00">src/racing/render_courses.c</text>
</a>
</g>
</g>
<!-- Node4&#45;&gt;Node15 -->
<g id="edge14_Node000004_Node000015" class="edge">
<title>Node4&#45;&gt;Node15</title>
<g id="a_edge14_Node000004_Node000015"><a xlink:title=" ">
<path fill="none" stroke="#63b8ff" d="M1260.54,-166.23C1316.62,-154.95 1396.8,-138.83 1445.47,-129.05"/>
<polygon fill="#63b8ff" stroke="#63b8ff" points="1259.83,-162.8 1250.71,-168.2 1261.21,-169.66 1259.83,-162.8"/>
</a>
</g>
</g>
<!-- Node10 -->
<g id="Node000010" class="node">
<title>Node10</title>
<g id="a_Node000010"><a xlink:href="debug_8inc_8c.html" target="_top" xlink:title=" ">
<polygon fill="white" stroke="#666666" points="1834,-74 1712,-74 1712,-55 1834,-55 1834,-74"/>
<text text-anchor="middle" x="1773" y="-62" font-family="Helvetica,sans-Serif" font-size="10.00">src/debug/debug.inc.c</text>
</a>
</g>
</g>
<!-- Node9&#45;&gt;Node10 -->
<g id="edge9_Node000009_Node000010" class="edge">
<title>Node9&#45;&gt;Node10</title>
<g id="a_edge9_Node000009_Node000010"><a xlink:title=" ">
<path fill="none" stroke="#63b8ff" d="M1773,-99.66C1773,-90.93 1773,-80.99 1773,-74.09"/>
<polygon fill="#63b8ff" stroke="#63b8ff" points="1769.5,-99.75 1773,-109.75 1776.5,-99.75 1769.5,-99.75"/>
</a>
</g>
</g>
<!-- Node11 -->
<g id="Node000011" class="node">
<title>Node11</title>
<g id="a_Node000011"><a xlink:href="debug_8c.html" target="_top" xlink:title=" ">
<polygon fill="white" stroke="#666666" points="1825.5,-19 1720.5,-19 1720.5,0 1825.5,0 1825.5,-19"/>
<text text-anchor="middle" x="1773" y="-7" font-family="Helvetica,sans-Serif" font-size="10.00">src/debug/debug.c</text>
</a>
</g>
</g>
<!-- Node10&#45;&gt;Node11 -->
<g id="edge10_Node000010_Node000011" class="edge">
<title>Node10&#45;&gt;Node11</title>
<g id="a_edge10_Node000010_Node000011"><a xlink:title=" ">
<path fill="none" stroke="#63b8ff" d="M1773,-44.66C1773,-35.93 1773,-25.99 1773,-19.09"/>
<polygon fill="#63b8ff" stroke="#63b8ff" points="1769.5,-44.75 1773,-54.75 1776.5,-44.75 1769.5,-44.75"/>
</a>
</g>
</g>
<!-- Node17&#45;&gt;Node4 -->
<g id="edge17_Node000017_Node000004" class="edge">
<title>Node17&#45;&gt;Node4</title>
<g id="a_edge17_Node000017_Node000004"><a xlink:title=" ">
<path fill="none" stroke="#63b8ff" d="M1171.87,-222.24C1177.37,-213.21 1183.53,-203.11 1188.37,-195.16"/>
<polygon fill="#63b8ff" stroke="#63b8ff" points="1168.87,-220.44 1166.66,-230.8 1174.85,-224.08 1168.87,-220.44"/>
</a>
</g>
</g>
<!-- Node19&#45;&gt;Node4 -->
<g id="edge20_Node000019_Node000004" class="edge">
<title>Node19&#45;&gt;Node4</title>
<g id="a_edge20_Node000019_Node000004"><a xlink:title=" ">
<path fill="none" stroke="#63b8ff" d="M1640.75,-230.89C1494,-208.17 1332.57,-192.68 1250.63,-185.49"/>
<polygon fill="#63b8ff" stroke="#63b8ff" points="1640.43,-234.38 1650.85,-232.47 1641.51,-227.47 1640.43,-234.38"/>
</a>
</g>
</g>
<!-- Node20 -->
<g id="Node000020" class="node">
<title>Node20</title>
<g id="a_Node000020"><a xlink:href="sherbet__land_2course__offsets_8inc_8c.html" target="_top" xlink:title=" ">
<polygon fill="white" stroke="#666666" points="1771,-195 1651,-195 1651,-165 1771,-165 1771,-195"/>
<text text-anchor="start" x="1659" y="-183" font-family="Helvetica,sans-Serif" font-size="10.00">courses/sherbet_land</text>
<text text-anchor="middle" x="1711" y="-172" font-family="Helvetica,sans-Serif" font-size="10.00">/course_offsets.inc.c</text>
</a>
</g>
</g>
<!-- Node19&#45;&gt;Node20 -->
<g id="edge21_Node000019_Node000020" class="edge">
<title>Node19&#45;&gt;Node20</title>
<g id="a_edge21_Node000019_Node000020"><a xlink:title=" ">
<path fill="none" stroke="#63b8ff" d="M1711,-220.54C1711,-211.96 1711,-202.61 1711,-195.16"/>
<polygon fill="#63b8ff" stroke="#63b8ff" points="1707.5,-220.8 1711,-230.8 1714.5,-220.8 1707.5,-220.8"/>
</a>
</g>
</g>
<!-- Node22&#45;&gt;Node4 -->
<g id="edge24_Node000022_Node000004" class="edge">
<title>Node22&#45;&gt;Node4</title>
<g id="a_edge24_Node000022_Node000004"><a xlink:title=" ">
<path fill="none" stroke="#63b8ff" d="M1373.46,-228.25C1334.85,-217.91 1285.88,-204.8 1249.33,-195.01"/>
<polygon fill="#63b8ff" stroke="#63b8ff" points="1372.99,-231.75 1383.55,-230.95 1374.8,-224.99 1372.99,-231.75"/>
</a>
</g>
</g>
<!-- Node24&#45;&gt;Node6 -->
<g id="edge27_Node000024_Node000006" class="edge">
<title>Node24&#45;&gt;Node6</title>
<g id="a_edge27_Node000024_Node000006"><a xlink:title=" ">
<path fill="none" stroke="#63b8ff" d="M768.47,-234.26C816.32,-223.48 885.15,-206.82 910,-195 930.39,-185.3 929.97,-173.23 951,-165 1081.81,-113.82 1125.5,-145.47 1265,-129 1268.16,-128.63 1271.4,-128.24 1274.67,-127.85"/>
<polygon fill="#63b8ff" stroke="#63b8ff" points="767.59,-230.87 758.6,-236.47 769.12,-237.7 767.59,-230.87"/>
</a>
</g>
</g>
<!-- Node24&#45;&gt;Node7 -->
<g id="edge29_Node000024_Node000007" class="edge">
<title>Node24&#45;&gt;Node7</title>
<g id="a_edge29_Node000024_Node000007"><a xlink:title=" ">
<path fill="none" stroke="#63b8ff" d="M752.61,-232.91C776.71,-223.73 809.62,-210.14 837,-195 857.39,-183.73 858.78,-174.62 880,-165 919.28,-147.18 966.76,-135.83 1003.09,-129.05"/>
<polygon fill="#63b8ff" stroke="#63b8ff" points="751.33,-229.66 743.19,-236.45 753.78,-236.21 751.33,-229.66"/>
</a>
</g>
</g>
<!-- Node24&#45;&gt;Node8 -->
<g id="edge41_Node000024_Node000008" class="edge">
<title>Node24&#45;&gt;Node8</title>
<g id="a_edge41_Node000024_Node000008"><a xlink:title=" ">
<path fill="none" stroke="#63b8ff" d="M764.09,-233.88C795.48,-225.3 837.84,-212.02 873,-195 894.63,-184.52 895.62,-173.76 918,-165 938.01,-157.17 1061.37,-139.2 1137.21,-128.65"/>
<polygon fill="#63b8ff" stroke="#63b8ff" points="763.06,-230.53 754.31,-236.5 764.87,-237.29 763.06,-230.53"/>
</a>
</g>
</g>
<!-- Node24&#45;&gt;Node9 -->
<g id="edge43_Node000024_Node000009" class="edge">
<title>Node24&#45;&gt;Node9</title>
<g id="a_edge43_Node000024_Node000009"><a xlink:title=" ">
<path fill="none" stroke="#63b8ff" d="M766.7,-234.44C773.81,-233.12 781.08,-231.92 788,-231 1038.76,-197.77 1104.87,-225.29 1356,-195 1496,-178.11 1660.23,-144.73 1733.84,-129.03"/>
<polygon fill="#63b8ff" stroke="#63b8ff" points="765.59,-231.09 756.44,-236.43 766.93,-237.96 765.59,-231.09"/>
</a>
</g>
</g>
<!-- Node24&#45;&gt;Node13 -->
<g id="edge44_Node000024_Node000013" class="edge">
<title>Node24&#45;&gt;Node13</title>
<g id="a_edge44_Node000024_Node000013"><a xlink:title=" ">
<path fill="none" stroke="#63b8ff" d="M649.1,-245.47C571.7,-243.79 444.48,-234.44 343,-195 321.28,-186.56 321.52,-173.94 300,-165 282.4,-157.69 173.44,-139.58 106.25,-128.85"/>
<polygon fill="#63b8ff" stroke="#63b8ff" points="649.15,-248.97 659.21,-245.65 649.28,-241.97 649.15,-248.97"/>
</a>
</g>
</g>
<!-- Node24&#45;&gt;Node14 -->
<g id="edge45_Node000024_Node000014" class="edge">
<title>Node24&#45;&gt;Node14</title>
<g id="a_edge45_Node000024_Node000014"><a xlink:title=" ">
<path fill="none" stroke="#63b8ff" d="M766.96,-234.47C773.99,-233.16 781.17,-231.95 788,-231 995.94,-202.07 1051.01,-223.56 1259,-195 1384.61,-177.75 1531.57,-144.62 1597.66,-129.02"/>
<polygon fill="#63b8ff" stroke="#63b8ff" points="765.96,-231.1 756.82,-236.45 767.3,-237.97 765.96,-231.1"/>
</a>
</g>
</g>
<!-- Node25 -->
<g id="Node000025" class="node">
<title>Node25</title>
<g id="a_Node000025"><a xlink:href="code__80057C60_8c.html" target="_top" xlink:title=" ">
<polygon fill="white" stroke="#666666" points="243.5,-129 124.5,-129 124.5,-110 243.5,-110 243.5,-129"/>
<text text-anchor="middle" x="184" y="-117" font-family="Helvetica,sans-Serif" font-size="10.00">src/code_80057C60.c</text>
</a>
</g>
</g>
<!-- Node24&#45;&gt;Node25 -->
<g id="edge28_Node000024_Node000025" class="edge">
<title>Node24&#45;&gt;Node25</title>
<g id="a_edge28_Node000024_Node000025"><a xlink:title=" ">
<path fill="none" stroke="#63b8ff" d="M711.27,-226.98C702.06,-207.98 684.76,-178.9 660,-165 580.64,-120.43 342.51,-138.65 252,-129 249.28,-128.71 246.5,-128.4 243.69,-128.09"/>
<polygon fill="#63b8ff" stroke="#63b8ff" points="708.21,-228.7 715.54,-236.34 714.57,-225.79 708.21,-228.7"/>
</a>
</g>
</g>
<!-- Node26 -->
<g id="Node000026" class="node">
<title>Node26</title>
<g id="a_Node000026"><a xlink:href="code__8006E9C0_8h.html" target="_top" xlink:title=" ">
<polygon fill="white" stroke="#666666" points="828,-189.5 708,-189.5 708,-170.5 828,-170.5 828,-189.5"/>
<text text-anchor="middle" x="768" y="-177.5" font-family="Helvetica,sans-Serif" font-size="10.00">src/code_8006E9C0.h</text>
</a>
</g>
</g>
<!-- Node24&#45;&gt;Node26 -->
<g id="edge30_Node000024_Node000026" class="edge">
<title>Node24&#45;&gt;Node26</title>
<g id="a_edge30_Node000024_Node000026"><a xlink:title=" ">
<path fill="none" stroke="#63b8ff" d="M731.81,-228.27C741.21,-215.99 753.61,-199.8 761.18,-189.91"/>
<polygon fill="#63b8ff" stroke="#63b8ff" points="728.91,-226.3 725.61,-236.37 734.47,-230.56 728.91,-226.3"/>
</a>
</g>
</g>
<!-- Node30 -->
<g id="Node000030" class="node">
<title>Node30</title>
<g id="a_Node000030"><a xlink:href="code__80086E70_8c.html" target="_top" xlink:title=" ">
<polygon fill="white" stroke="#666666" points="1079.5,-189.5 960.5,-189.5 960.5,-170.5 1079.5,-170.5 1079.5,-189.5"/>
<text text-anchor="middle" x="1020" y="-177.5" font-family="Helvetica,sans-Serif" font-size="10.00">src/code_80086E70.c</text>
</a>
</g>
</g>
<!-- Node24&#45;&gt;Node30 -->
<g id="edge42_Node000024_Node000030" class="edge">
<title>Node24&#45;&gt;Node30</title>
<g id="a_edge42_Node000024_Node000030"><a xlink:title=" ">
<path fill="none" stroke="#63b8ff" d="M769.16,-234.34C828.34,-221.75 925.57,-201.08 979.96,-189.51"/>
<polygon fill="#63b8ff" stroke="#63b8ff" points="768.34,-230.93 759.28,-236.44 769.79,-237.78 768.34,-230.93"/>
</a>
</g>
</g>
<!-- Node31 -->
<g id="Node000031" class="node">
<title>Node31</title>
<g id="a_Node000031"><a xlink:href="actors__extended_8c.html" target="_top" xlink:title=" ">
<polygon fill="white" stroke="#666666" points="508,-189.5 352,-189.5 352,-170.5 508,-170.5 508,-189.5"/>
<text text-anchor="middle" x="430" y="-177.5" font-family="Helvetica,sans-Serif" font-size="10.00">src/racing/actors_extended.c</text>
</a>
</g>
</g>
<!-- Node24&#45;&gt;Node31 -->
<g id="edge46_Node000024_Node000031" class="edge">
<title>Node24&#45;&gt;Node31</title>
<g id="a_edge46_Node000024_Node000031"><a xlink:title=" ">
<path fill="none" stroke="#63b8ff" d="M670.49,-234.26C613.63,-221.67 520.56,-201.06 468.45,-189.51"/>
<polygon fill="#63b8ff" stroke="#63b8ff" points="669.8,-237.69 680.32,-236.44 671.32,-230.86 669.8,-237.69"/>
</a>
</g>
</g>
<!-- Node32 -->
<g id="Node000032" class="node">
<title>Node32</title>
<g id="a_Node000032"><a xlink:href="race__logic_8c.html" target="_top" xlink:title=" ">
<polygon fill="white" stroke="#666666" points="651.5,-189.5 526.5,-189.5 526.5,-170.5 651.5,-170.5 651.5,-189.5"/>
<text text-anchor="middle" x="589" y="-177.5" font-family="Helvetica,sans-Serif" font-size="10.00">src/racing/race_logic.c</text>
</a>
</g>
</g>
<!-- Node24&#45;&gt;Node32 -->
<g id="edge47_Node000024_Node000032" class="edge">
<title>Node24&#45;&gt;Node32</title>
<g id="a_edge47_Node000024_Node000032"><a xlink:title=" ">
<path fill="none" stroke="#63b8ff" d="M692.31,-231.86C666.7,-219.25 628.74,-200.56 606.67,-189.7"/>
<polygon fill="#63b8ff" stroke="#63b8ff" points="690.95,-235.09 701.47,-236.37 694.04,-228.81 690.95,-235.09"/>
</a>
</g>
</g>
<!-- Node26&#45;&gt;Node5 -->
<g id="edge31_Node000026_Node000005" class="edge">
<title>Node26&#45;&gt;Node5</title>
<g id="a_edge31_Node000026_Node000005"><a xlink:title=" ">
<path fill="none" stroke="#63b8ff" d="M800.12,-166.88C830.08,-155.57 874.02,-138.99 900.43,-129.02"/>
<polygon fill="#63b8ff" stroke="#63b8ff" points="798.66,-163.69 790.54,-170.49 801.13,-170.24 798.66,-163.69"/>
</a>
</g>
</g>
<!-- Node26&#45;&gt;Node7 -->
<g id="edge33_Node000026_Node000007" class="edge">
<title>Node26&#45;&gt;Node7</title>
<g id="a_edge33_Node000026_Node000007"><a xlink:title=" ">
<path fill="none" stroke="#63b8ff" d="M820.6,-168.46C876.96,-157.17 965.35,-139.46 1017.49,-129.02"/>
<polygon fill="#63b8ff" stroke="#63b8ff" points="819.58,-165.1 810.46,-170.49 820.95,-171.96 819.58,-165.1"/>
</a>
</g>
</g>
<!-- Node26&#45;&gt;Node8 -->
<g id="edge34_Node000026_Node000008" class="edge">
<title>Node26&#45;&gt;Node8</title>
<g id="a_edge34_Node000026_Node000008"><a xlink:title=" ">
<path fill="none" stroke="#63b8ff" d="M838.23,-169.42C921.53,-158.06 1058.92,-139.33 1137.3,-128.64"/>
<polygon fill="#63b8ff" stroke="#63b8ff" points="837.54,-165.99 828.1,-170.8 838.48,-172.92 837.54,-165.99"/>
</a>
</g>
</g>
<!-- Node26&#45;&gt;Node9 -->
<g id="edge36_Node000026_Node000009" class="edge">
<title>Node26&#45;&gt;Node9</title>
<g id="a_edge36_Node000026_Node000009"><a xlink:title=" ">
<path fill="none" stroke="#63b8ff" d="M838.44,-173.15C872.44,-170.44 913.82,-167.32 951,-165 1281.41,-144.37 1364.96,-154.94 1695,-129 1697.85,-128.78 1700.76,-128.53 1703.7,-128.27"/>
<polygon fill="#63b8ff" stroke="#63b8ff" points="837.83,-169.69 828.14,-173.97 838.39,-176.66 837.83,-169.69"/>
</a>
</g>
</g>
<!-- Node26&#45;&gt;Node12 -->
<g id="edge38_Node000026_Node000012" class="edge">
<title>Node26&#45;&gt;Node12</title>
<g id="a_edge38_Node000026_Node000012"><a xlink:title=" ">
<path fill="none" stroke="#63b8ff" d="M768,-160.16C768,-149.74 768,-137.3 768,-129.17"/>
<polygon fill="#63b8ff" stroke="#63b8ff" points="764.5,-160.37 768,-170.37 771.5,-160.37 764.5,-160.37"/>
</a>
</g>
</g>
<!-- Node26&#45;&gt;Node13 -->
<g id="edge39_Node000026_Node000013" class="edge">
<title>Node26&#45;&gt;Node13</title>
<g id="a_edge39_Node000026_Node000013"><a xlink:title=" ">
<path fill="none" stroke="#63b8ff" d="M697.83,-169.25C685.25,-167.69 672.25,-166.2 660,-165 418.4,-141.39 356.51,-153.5 115,-129 112.08,-128.7 109.09,-128.38 106.07,-128.03"/>
<polygon fill="#63b8ff" stroke="#63b8ff" points="697.45,-172.73 707.81,-170.52 698.33,-165.79 697.45,-172.73"/>
</a>
</g>
</g>
<!-- Node26&#45;&gt;Node25 -->
<g id="edge32_Node000026_Node000025" class="edge">
<title>Node26&#45;&gt;Node25</title>
<g id="a_edge32_Node000026_Node000025"><a xlink:title=" ">
<path fill="none" stroke="#63b8ff" d="M717.05,-168.63C709.35,-167.27 701.48,-166.01 694,-165 498.68,-138.64 448.05,-149.23 252,-129 249.28,-128.72 246.5,-128.42 243.69,-128.11"/>
<polygon fill="#63b8ff" stroke="#63b8ff" points="716.56,-172.1 727.03,-170.45 717.82,-165.21 716.56,-172.1"/>
</a>
</g>
</g>
<!-- Node27 -->
<g id="Node000027" class="node">
<title>Node27</title>
<g id="a_Node000027"><a xlink:href="code__80091750_8c.html" target="_top" xlink:title=" ">
<polygon fill="white" stroke="#666666" points="553.5,-129 434.5,-129 434.5,-110 553.5,-110 553.5,-129"/>
<text text-anchor="middle" x="494" y="-117" font-family="Helvetica,sans-Serif" font-size="10.00">src/code_80091750.c</text>
</a>
</g>
</g>
<!-- Node26&#45;&gt;Node27 -->
<g id="edge35_Node000026_Node000027" class="edge">
<title>Node26&#45;&gt;Node27</title>
<g id="a_edge35_Node000026_Node000027"><a xlink:title=" ">
<path fill="none" stroke="#63b8ff" d="M718.32,-168.39C665.41,-157.1 582.72,-139.44 533.89,-129.02"/>
<polygon fill="#63b8ff" stroke="#63b8ff" points="717.65,-171.83 728.16,-170.49 719.11,-164.98 717.65,-171.83"/>
</a>
</g>
</g>
<!-- Node28 -->
<g id="Node000028" class="node">
<title>Node28</title>
<g id="a_Node000028"><a xlink:href="code__80280000_8c.html" target="_top" xlink:title=" ">
<polygon fill="white" stroke="#666666" points="416.5,-129 261.5,-129 261.5,-110 416.5,-110 416.5,-129"/>
<text text-anchor="middle" x="339" y="-117" font-family="Helvetica,sans-Serif" font-size="10.00">src/ending/code_80280000.c</text>
</a>
</g>
</g>
<!-- Node26&#45;&gt;Node28 -->
<g id="edge37_Node000026_Node000028" class="edge">
<title>Node26&#45;&gt;Node28</title>
<g id="a_edge37_Node000026_Node000028"><a xlink:title=" ">
<path fill="none" stroke="#63b8ff" d="M715.15,-168.59C708.05,-167.31 700.86,-166.08 694,-165 598.89,-150.06 488.81,-136.9 416.76,-128.84"/>
<polygon fill="#63b8ff" stroke="#63b8ff" points="714.96,-172.11 725.43,-170.48 716.22,-165.23 714.96,-172.11"/>
</a>
</g>
</g>
<!-- Node29 -->
<g id="Node000029" class="node">
<title>Node29</title>
<g id="a_Node000029"><a xlink:href="staff__ghosts_8c.html" target="_top" xlink:title=" ">
<polygon fill="white" stroke="#666666" points="672.5,-129 571.5,-129 571.5,-110 672.5,-110 672.5,-129"/>
<text text-anchor="middle" x="622" y="-117" font-family="Helvetica,sans-Serif" font-size="10.00">src/staff_ghosts.c</text>
</a>
</g>
</g>
<!-- Node26&#45;&gt;Node29 -->
<g id="edge40_Node000026_Node000029" class="edge">
<title>Node26&#45;&gt;Node29</title>
<g id="a_edge40_Node000026_Node000029"><a xlink:title=" ">
<path fill="none" stroke="#63b8ff" d="M737.38,-166.73C709.16,-155.42 668.03,-138.94 643.26,-129.02"/>
<polygon fill="#63b8ff" stroke="#63b8ff" points="736.19,-170.02 746.77,-170.49 738.79,-163.53 736.19,-170.02"/>
</a>
</g>
</g>
</g>
</svg>
