<?xml version="1.0" encoding="UTF-8" standalone="no"?>
<!DOCTYPE svg PUBLIC "-//W3C//DTD SVG 1.1//EN"
 "http://www.w3.org/Graphics/SVG/1.1/DTD/svg11.dtd">
<!-- Generated by graphviz version 2.43.0 (0)
 -->
<!-- Title: func_800098FC Pages: 1 -->
<svg width="438pt" height="273pt"
 viewBox="0.00 0.00 438.00 272.50" xmlns="http://www.w3.org/2000/svg" xmlns:xlink="http://www.w3.org/1999/xlink">

<svg id="main" version="1.1" xmlns="http://www.w3.org/2000/svg" xmlns:xlink="http://www.w3.org/1999/xlink" xml:space="preserve" onload="init(evt)">
<style type="text/css"><![CDATA[
.node, .edge {opacity: 0.7;}
.node.selected, .edge.selected {opacity: 1;}
.edge:hover path { stroke: red; }
.edge:hover polygon { stroke: red; fill: red; }
]]></style>
<script type="application/ecmascript" xlink:href="svg.min.js"/>
<svg id="graph" class="graph">
<g id="graph0" class="graph" transform="scale(1 1) rotate(0) translate(4 268.5)">
<title>func_800098FC</title>
<!-- Node1 -->
<g id="Node000001" class="node">
<title>Node1</title>
<g id="a_Node000001"><a xlink:title=" ">
<polygon fill="#999999" stroke="#666666" points="430,-141 338,-141 338,-122 430,-122 430,-141"/>
<text text-anchor="middle" x="384" y="-129" font-family="Helvetica,sans-Serif" font-size="10.00">func_800098FC</text>
</a>
</g>
</g>
<!-- Node2 -->
<g id="Node000002" class="node">
<title>Node2</title>
<g id="a_Node000002"><a xlink:href="effects_8c.html#a4db388444870e3607555465cde8d2b69" target="_top" xlink:title=" ">
<polygon fill="white" stroke="#666666" points="302,-264.5 161,-264.5 161,-234.5 302,-234.5 302,-264.5"/>
<text text-anchor="start" x="169" y="-252.5" font-family="Helvetica,sans-Serif" font-size="10.00">apply_hit_by_item_sound</text>
<text text-anchor="middle" x="231.5" y="-241.5" font-family="Helvetica,sans-Serif" font-size="10.00">_effect</text>
</a>
</g>
</g>
<!-- Node1&#45;&gt;Node2 -->
<g id="edge1_Node000001_Node000002" class="edge">
<title>Node1&#45;&gt;Node2</title>
<g id="a_edge1_Node000001_Node000002"><a xlink:title=" ">
<path fill="none" stroke="#63b8ff" d="M371.54,-149.9C357.55,-170.95 331.99,-205.16 302,-225.5 297.03,-228.87 291.55,-231.81 285.9,-234.36"/>
<polygon fill="#63b8ff" stroke="#63b8ff" points="374.65,-151.54 377.13,-141.24 368.77,-147.74 374.65,-151.54"/>
</a>
</g>
</g>
<!-- Node3 -->
<g id="Node000003" class="node">
<title>Node3</title>
<g id="a_Node000003"><a xlink:href="effects_8c.html#aece20fae49c1ae118b247aec04f52f83" target="_top" xlink:title=" ">
<polygon fill="white" stroke="#666666" points="284,-216.5 179,-216.5 179,-186.5 284,-186.5 284,-216.5"/>
<text text-anchor="start" x="187" y="-204.5" font-family="Helvetica,sans-Serif" font-size="10.00">apply_hit_rotating</text>
<text text-anchor="middle" x="231.5" y="-193.5" font-family="Helvetica,sans-Serif" font-size="10.00">_sound_effect</text>
</a>
</g>
</g>
<!-- Node1&#45;&gt;Node3 -->
<g id="edge2_Node000001_Node000003" class="edge">
<title>Node1&#45;&gt;Node3</title>
<g id="a_edge2_Node000001_Node000003"><a xlink:title=" ">
<path fill="none" stroke="#63b8ff" d="M359.59,-146.32C343.73,-155.98 322.08,-168.42 302,-177.5 295.02,-180.65 287.5,-183.65 280.06,-186.38"/>
<polygon fill="#63b8ff" stroke="#63b8ff" points="361.54,-149.23 368.21,-141 357.86,-143.28 361.54,-149.23"/>
</a>
</g>
</g>
<!-- Node4 -->
<g id="Node000004" class="node">
<title>Node4</title>
<g id="a_Node000004"><a xlink:href="effects_8c.html#a5332b3e2f6c9720f7fd0eea6b7af3359" target="_top" xlink:title=" ">
<polygon fill="white" stroke="#666666" points="291.5,-168.5 171.5,-168.5 171.5,-138.5 291.5,-138.5 291.5,-168.5"/>
<text text-anchor="start" x="179.5" y="-156.5" font-family="Helvetica,sans-Serif" font-size="10.00">apply_reverse_sound</text>
<text text-anchor="middle" x="231.5" y="-145.5" font-family="Helvetica,sans-Serif" font-size="10.00">_effect</text>
</a>
</g>
</g>
<!-- Node1&#45;&gt;Node4 -->
<g id="edge3_Node000001_Node000004" class="edge">
<title>Node1&#45;&gt;Node4</title>
<g id="a_edge3_Node000001_Node000004"><a xlink:title=" ">
<path fill="none" stroke="#63b8ff" d="M327.71,-139.58C315.94,-141.3 303.47,-143.13 291.56,-144.87"/>
<polygon fill="#63b8ff" stroke="#63b8ff" points="328.46,-143.01 337.85,-138.1 327.44,-136.08 328.46,-143.01"/>
</a>
</g>
</g>
<!-- Node5 -->
<g id="Node000005" class="node">
<title>Node5</title>
<g id="a_Node000005"><a xlink:href="effects_8c.html#a6fc4c8f6786be15941bfce0c8575b7cf" target="_top" xlink:title=" ">
<polygon fill="white" stroke="#666666" points="277.5,-120 185.5,-120 185.5,-101 277.5,-101 277.5,-120"/>
<text text-anchor="middle" x="231.5" y="-108" font-family="Helvetica,sans-Serif" font-size="10.00">func_8008C528</text>
</a>
</g>
</g>
<!-- Node1&#45;&gt;Node5 -->
<g id="edge4_Node000001_Node000005" class="edge">
<title>Node1&#45;&gt;Node5</title>
<g id="a_edge4_Node000001_Node000005"><a xlink:title=" ">
<path fill="none" stroke="#63b8ff" d="M327.78,-123.8C311.28,-121.49 293.39,-119 277.62,-116.8"/>
<polygon fill="#63b8ff" stroke="#63b8ff" points="327.46,-127.28 337.85,-125.2 328.42,-120.35 327.46,-127.28"/>
</a>
</g>
</g>
<!-- Node6 -->
<g id="Node000006" class="node">
<title>Node6</title>
<g id="a_Node000006"><a xlink:href="effects_8c.html#af25de8f70a7ecb552619235df793b951" target="_top" xlink:title=" ">
<polygon fill="white" stroke="#666666" points="277.5,-83 185.5,-83 185.5,-64 277.5,-64 277.5,-83"/>
<text text-anchor="middle" x="231.5" y="-71" font-family="Helvetica,sans-Serif" font-size="10.00">func_8008C73C</text>
</a>
</g>
</g>
<!-- Node1&#45;&gt;Node6 -->
<g id="edge5_Node000001_Node000006" class="edge">
<title>Node1&#45;&gt;Node6</title>
<g id="a_edge5_Node000001_Node000006"><a xlink:title=" ">
<path fill="none" stroke="#63b8ff" d="M356.36,-117.16C340.81,-109.17 320.64,-99.47 302,-92.5 292.51,-88.95 282.07,-85.75 272.22,-83.02"/>
<polygon fill="#63b8ff" stroke="#63b8ff" points="354.91,-120.35 365.39,-121.87 358.14,-114.14 354.91,-120.35"/>
</a>
</g>
</g>
<!-- Node10 -->
<g id="Node000010" class="node">
<title>Node10</title>
<g id="a_Node000010"><a xlink:href="effects_8c.html#a91101066503279f64d1972e074533e32" target="_top" xlink:title=" ">
<polygon fill="white" stroke="#666666" points="279,-37 184,-37 184,-18 279,-18 279,-37"/>
<text text-anchor="middle" x="231.5" y="-25" font-family="Helvetica,sans-Serif" font-size="10.00">func_8008DABC</text>
</a>
</g>
</g>
<!-- Node1&#45;&gt;Node10 -->
<g id="edge9_Node000001_Node000010" class="edge">
<title>Node1&#45;&gt;Node10</title>
<g id="a_edge9_Node000001_Node000010"><a xlink:title=" ">
<path fill="none" stroke="#63b8ff" d="M367.88,-113.95C352.64,-97.13 327.74,-71.94 302,-55.5 290.05,-47.87 275.68,-41.66 263.11,-37.05"/>
<polygon fill="#63b8ff" stroke="#63b8ff" points="365.67,-116.73 374.92,-121.89 370.91,-112.09 365.67,-116.73"/>
</a>
</g>
</g>
<!-- Node7 -->
<g id="Node000007" class="node">
<title>Node7</title>
<g id="a_Node000007"><a xlink:href="effects_8c.html#abeb13f8e836713bdee19de586bb6adb9" target="_top" xlink:title=" ">
<polygon fill="white" stroke="#666666" points="109.5,-130 15.5,-130 15.5,-111 109.5,-111 109.5,-130"/>
<text text-anchor="middle" x="62.5" y="-118" font-family="Helvetica,sans-Serif" font-size="10.00">func_8008CDC0</text>
</a>
</g>
</g>
<!-- Node6&#45;&gt;Node7 -->
<g id="edge6_Node000006_Node000007" class="edge">
<title>Node6&#45;&gt;Node7</title>
<g id="a_edge6_Node000006_Node000007"><a xlink:title=" ">
<path fill="none" stroke="#63b8ff" d="M185.39,-85.74C177.27,-87.97 168.88,-90.29 161,-92.5 139.46,-98.54 115.3,-105.47 96.42,-110.93"/>
<polygon fill="#63b8ff" stroke="#63b8ff" points="186.4,-89.09 195.12,-83.08 184.55,-82.34 186.4,-89.09"/>
</a>
</g>
</g>
<!-- Node8 -->
<g id="Node000008" class="node">
<title>Node8</title>
<g id="a_Node000008"><a xlink:href="effects_8c.html#af0e482103261c24d9986452a89c08547" target="_top" xlink:title=" ">
<polygon fill="white" stroke="#666666" points="108.5,-93 16.5,-93 16.5,-74 108.5,-74 108.5,-93"/>
<text text-anchor="middle" x="62.5" y="-81" font-family="Helvetica,sans-Serif" font-size="10.00">func_8008CEB0</text>
</a>
</g>
</g>
<!-- Node6&#45;&gt;Node8 -->
<g id="edge7_Node000006_Node000008" class="edge">
<title>Node6&#45;&gt;Node8</title>
<g id="a_edge7_Node000006_Node000008"><a xlink:title=" ">
<path fill="none" stroke="#63b8ff" d="M175.29,-76.81C153.7,-78.1 129.25,-79.56 108.73,-80.79"/>
<polygon fill="#63b8ff" stroke="#63b8ff" points="175.53,-80.3 185.31,-76.21 175.12,-73.31 175.53,-80.3"/>
</a>
</g>
</g>
<!-- Node9 -->
<g id="Node000009" class="node">
<title>Node9</title>
<g id="a_Node000009"><a xlink:href="effects_8c.html#af88bb4cbfc59690890829535fc793551" target="_top" xlink:title=" ">
<polygon fill="white" stroke="#666666" points="108.5,-56 16.5,-56 16.5,-37 108.5,-37 108.5,-56"/>
<text text-anchor="middle" x="62.5" y="-44" font-family="Helvetica,sans-Serif" font-size="10.00">func_8008D170</text>
</a>
</g>
</g>
<!-- Node6&#45;&gt;Node9 -->
<g id="edge8_Node000006_Node000009" class="edge">
<title>Node6&#45;&gt;Node9</title>
<g id="a_edge8_Node000006_Node000009"><a xlink:title=" ">
<path fill="none" stroke="#63b8ff" d="M175.29,-64.57C153.7,-61.08 129.25,-57.13 108.73,-53.81"/>
<polygon fill="#63b8ff" stroke="#63b8ff" points="174.88,-68.05 185.31,-66.19 175.99,-61.14 174.88,-68.05"/>
</a>
</g>
</g>
<!-- Node11 -->
<g id="Node000011" class="node">
<title>Node11</title>
<g id="a_Node000011"><a xlink:href="effects_8c.html#afcd934606edb08e59bff1545a7e447f7" target="_top" xlink:title=" ">
<polygon fill="white" stroke="#666666" points="125,-19 0,-19 0,0 125,0 125,-19"/>
<text text-anchor="middle" x="62.5" y="-7" font-family="Helvetica,sans-Serif" font-size="10.00">apply_lightning_effect</text>
</a>
</g>
</g>
<!-- Node10&#45;&gt;Node11 -->
<g id="edge10_Node000010_Node000011" class="edge">
<title>Node10&#45;&gt;Node11</title>
<g id="a_edge10_Node000010_Node000011"><a xlink:title=" ">
<path fill="none" stroke="#63b8ff" d="M173.89,-21.4C158.18,-19.71 141.05,-17.86 125.07,-16.14"/>
<polygon fill="#63b8ff" stroke="#63b8ff" points="173.66,-24.89 183.98,-22.49 174.41,-17.93 173.66,-24.89"/>
</a>
</g>
</g>
</g>
</svg>
</svg>

<style type='text/css'>
<![CDATA[
[data-mouse-over-selected='false'] { opacity: 0.7; }
[data-mouse-over-selected='true']  { opacity: 1.0; }
]]>
</style>
<script type="application/ecmascript"><![CDATA[
document.addEventListener('DOMContentLoaded', (event) => {
  highlightEdges();
  highlightAdjacentNodes();
});
]]></script>
</svg>
