<?xml version="1.0" encoding="UTF-8" standalone="no"?>
<!DOCTYPE svg PUBLIC "-//W3C//DTD SVG 1.1//EN"
 "http://www.w3.org/Graphics/SVG/1.1/DTD/svg11.dtd">
<!-- Generated by graphviz version 2.43.0 (0)
 -->
<!-- Title: func_8006B8B4 Pages: 1 -->
<!--zoomable 819 -->

<svg id="main" version="1.1" xmlns="http://www.w3.org/2000/svg" xmlns:xlink="http://www.w3.org/1999/xlink" xml:space="preserve" onload="init(evt)">
<style type="text/css"><![CDATA[
.node, .edge {opacity: 0.7;}
.node.selected, .edge.selected {opacity: 1;}
.edge:hover path { stroke: red; }
.edge:hover polygon { stroke: red; fill: red; }
]]></style>

<defs>
  <circle id="rim" cx="0" cy="0" r="7"/>
  <circle id="rim2" cx="0" cy="0" r="3.5"/>
  <g id="zoomPlus">
    <use xlink:href="#rim" fill="#404040"><set attributeName="fill" to="#808080" begin="zoomplus.mouseover" end="zoomplus.mouseout"/></use>
    <path d="M-4,0h8M0,-4v8" fill="none" stroke="white" stroke-width="1.5" pointer-events="none"/>
  </g>
  <g id="zoomMin">
    <use xlink:href="#rim" fill="#404040"><set attributeName="fill" to="#808080" begin="zoomminus.mouseover" end="zoomminus.mouseout"/></use>
    <path d="M-4,0h8" fill="none" stroke="white" stroke-width="1.5" pointer-events="none"/>
  </g>
  <g id="arrowUp" transform="translate(30 24)">
    <use xlink:href="#rim"/>
    <path pointer-events="none" fill="none" stroke="white" stroke-width="1.5" d="M0,-3.0v7 M-2.5,-0.5L0,-3.0L2.5,-0.5"/>
  </g>
  <g id="arrowRight" transform="rotate(90) translate(36 -43)">
    <use xlink:href="#rim"/>
    <path pointer-events="none" fill="none" stroke="white" stroke-width="1.5" d="M0,-3.0v7 M-2.5,-0.5L0,-3.0L2.5,-0.5"/>
  </g>
  <g id="arrowDown" transform="rotate(180) translate(-30 -48)">
    <use xlink:href="#rim"/>
    <path pointer-events="none" fill="none" stroke="white" stroke-width="1.5" d="M0,-3.0v7 M-2.5,-0.5L0,-3.0L2.5,-0.5"/>
  </g>
  <g id="arrowLeft" transform="rotate(270) translate(-36 17)">
    <use xlink:href="#rim"/>
    <path pointer-events="none" fill="none" stroke="white" stroke-width="1.5" d="M0,-3.0v7 M-2.5,-0.5L0,-3.0L2.5,-0.5"/>
  </g>
  <g id="resetDef">
    <use xlink:href="#rim2" fill="#404040"><set attributeName="fill" to="#808080" begin="reset.mouseover" end="reset.mouseout"/></use>
  </g>
</defs>
<script type="application/ecmascript">
var viewWidth = 733;
var viewHeight = 819;
var sectionId = 'dynsection-267';
</script>
<script type="application/ecmascript" xlink:href="svg.min.js"/>
<svg id="graph" class="graph">
<g id="viewport">
<title>func_8006B8B4</title>
<!-- Node1 -->
<g id="Node000001" class="node">
<title>Node1</title>
<g id="a_Node000001"><a xlink:title=" ">
<polygon fill="#999999" stroke="#666666" points="725,-475.16 633,-475.16 633,-456.16 725,-456.16 725,-475.16"/>
<text text-anchor="middle" x="679" y="-463.16" font-family="Helvetica,sans-Serif" font-size="10.00">func_8006B8B4</text>
</a>
</g>
</g>
<!-- Node2 -->
<g id="Node000002" class="node">
<title>Node2</title>
<g id="a_Node000002"><a xlink:href="effects_8c.html#a004a9764c488a698126b5206f64a027b" target="_top" xlink:title=" ">
<polygon fill="white" stroke="#666666" points="597,-588.16 457,-588.16 457,-569.16 597,-569.16 597,-588.16"/>
<text text-anchor="middle" x="527" y="-576.16" font-family="Helvetica,sans-Serif" font-size="10.00">apply_hit_by_item_effect</text>
</a>
</g>
</g>
<!-- Node1&#45;&gt;Node2 -->
<g id="edge1_Node000001_Node000002" class="edge">
<title>Node1&#45;&gt;Node2</title>
<g id="a_edge1_Node000001_Node000002"><a xlink:title=" ">
<path fill="none" stroke="#63b8ff" d="M665.87,-483.65C651.56,-503.6 626.03,-535.49 597,-554.66 587.79,-560.74 576.87,-565.45 566.47,-569.04"/>
<polygon fill="#63b8ff" stroke="#63b8ff" points="668.76,-485.62 671.62,-475.42 663.02,-481.61 668.76,-485.62"/>
</a>
</g>
</g>
<!-- Node3 -->
<g id="Node000003" class="node">
<title>Node3</title>
<g id="a_Node000003"><a xlink:href="effects_8c.html#aece20fae49c1ae118b247aec04f52f83" target="_top" xlink:title=" ">
<polygon fill="white" stroke="#666666" points="287.5,-810.66 182.5,-810.66 182.5,-780.66 287.5,-780.66 287.5,-810.66"/>
<text text-anchor="start" x="190.5" y="-798.66" font-family="Helvetica,sans-Serif" font-size="10.00">apply_hit_rotating</text>
<text text-anchor="middle" x="235" y="-787.66" font-family="Helvetica,sans-Serif" font-size="10.00">_sound_effect</text>
</a>
</g>
</g>
<!-- Node1&#45;&gt;Node3 -->
<g id="edge2_Node000001_Node000003" class="edge">
<title>Node1&#45;&gt;Node3</title>
<g id="a_edge2_Node000001_Node000003"><a xlink:title=" ">
<path fill="none" stroke="#63b8ff" d="M658.43,-481.58C642.66,-493.74 619.48,-510.15 597,-520.66 538.38,-548.07 509.72,-523.12 457,-560.66 363.69,-627.09 400.99,-703.4 309,-771.66 302.57,-776.42 295.15,-780.28 287.55,-783.38"/>
<polygon fill="#63b8ff" stroke="#63b8ff" points="660.68,-484.26 666.38,-475.32 656.35,-478.76 660.68,-484.26"/>
</a>
</g>
</g>
<!-- Node4 -->
<g id="Node000004" class="node">
<title>Node4</title>
<g id="a_Node000004"><a xlink:href="effects_8c.html#a471c72ada7ef4c346a9eba5997b1d861" target="_top" xlink:title=" ">
<polygon fill="white" stroke="#666666" points="573,-512.16 481,-512.16 481,-493.16 573,-493.16 573,-512.16"/>
<text text-anchor="middle" x="527" y="-500.16" font-family="Helvetica,sans-Serif" font-size="10.00">func_8008C62C</text>
</a>
</g>
</g>
<!-- Node1&#45;&gt;Node4 -->
<g id="edge3_Node000001_Node000004" class="edge">
<title>Node1&#45;&gt;Node4</title>
<g id="a_edge3_Node000001_Node000004"><a xlink:title=" ">
<path fill="none" stroke="#63b8ff" d="M629.66,-477.58C609.31,-482.6 585.95,-488.36 566.76,-493.09"/>
<polygon fill="#63b8ff" stroke="#63b8ff" points="630.5,-480.98 639.37,-475.18 628.82,-474.18 630.5,-480.98"/>
</a>
</g>
</g>
<!-- Node5 -->
<g id="Node000005" class="node">
<title>Node5</title>
<g id="a_Node000005"><a xlink:href="effects_8c.html#a41dee69311b24e28d2d9df5c6499acbf" target="_top" xlink:title=" ">
<polygon fill="white" stroke="#666666" points="573,-475.16 481,-475.16 481,-456.16 573,-456.16 573,-475.16"/>
<text text-anchor="middle" x="527" y="-463.16" font-family="Helvetica,sans-Serif" font-size="10.00">func_8008C9EC</text>
</a>
</g>
</g>
<!-- Node1&#45;&gt;Node5 -->
<g id="edge4_Node000001_Node000005" class="edge">
<title>Node1&#45;&gt;Node5</title>
<g id="a_edge4_Node000001_Node000005"><a xlink:title=" ">
<path fill="none" stroke="#63b8ff" d="M622.55,-465.66C606.31,-465.66 588.76,-465.66 573.23,-465.66"/>
<polygon fill="#63b8ff" stroke="#63b8ff" points="623,-469.16 633,-465.66 623,-462.16 623,-469.16"/>
</a>
</g>
</g>
<!-- Node6 -->
<g id="Node000006" class="node">
<title>Node6</title>
<g id="a_Node000006"><a xlink:href="effects_8c.html#ae3b372f370b3ce39bf3cdc9b031ebf08" target="_top" xlink:title=" ">
<polygon fill="white" stroke="#666666" points="573,-438.16 481,-438.16 481,-419.16 573,-419.16 573,-438.16"/>
<text text-anchor="middle" x="527" y="-426.16" font-family="Helvetica,sans-Serif" font-size="10.00">func_8008E4A4</text>
</a>
</g>
</g>
<!-- Node1&#45;&gt;Node6 -->
<g id="edge5_Node000001_Node000006" class="edge">
<title>Node1&#45;&gt;Node6</title>
<g id="a_edge5_Node000001_Node000006"><a xlink:title=" ">
<path fill="none" stroke="#63b8ff" d="M629.66,-453.73C609.31,-448.71 585.95,-442.95 566.76,-438.22"/>
<polygon fill="#63b8ff" stroke="#63b8ff" points="628.82,-457.13 639.37,-456.13 630.5,-450.33 628.82,-457.13"/>
</a>
</g>
</g>
<!-- Node7 -->
<g id="Node000007" class="node">
<title>Node7</title>
<g id="a_Node000007"><a xlink:href="effects_8c.html#afcf39ca15166fb7561402462930cd979" target="_top" xlink:title=" ">
<polygon fill="white" stroke="#666666" points="573,-401.16 481,-401.16 481,-382.16 573,-382.16 573,-401.16"/>
<text text-anchor="middle" x="527" y="-389.16" font-family="Helvetica,sans-Serif" font-size="10.00">func_8008F5A4</text>
</a>
</g>
</g>
<!-- Node1&#45;&gt;Node7 -->
<g id="edge6_Node000001_Node000007" class="edge">
<title>Node1&#45;&gt;Node7</title>
<g id="a_edge6_Node000001_Node000007"><a xlink:title=" ">
<path fill="none" stroke="#63b8ff" d="M659.08,-449.71C643.37,-437.19 619.94,-420.18 597,-409.66 589.57,-406.25 581.39,-403.4 573.33,-401.05"/>
<polygon fill="#63b8ff" stroke="#63b8ff" points="657.01,-452.53 666.97,-456.13 661.43,-447.1 657.01,-452.53"/>
</a>
</g>
</g>
<!-- Node27 -->
<g id="Node000027" class="node">
<title>Node27</title>
<g id="a_Node000027"><a xlink:href="effects_8c.html#a2f6824139333e232c4aad8621d00cdee" target="_top" xlink:title=" ">
<polygon fill="white" stroke="#666666" points="108,-84.16 17,-84.16 17,-65.16 108,-65.16 108,-84.16"/>
<text text-anchor="middle" x="62.5" y="-72.16" font-family="Helvetica,sans-Serif" font-size="10.00">func_80090970</text>
</a>
</g>
</g>
<!-- Node1&#45;&gt;Node27 -->
<g id="edge34_Node000001_Node000027" class="edge">
<title>Node1&#45;&gt;Node27</title>
<g id="a_edge34_Node000001_Node000027"><a xlink:title=" ">
<path fill="none" stroke="#63b8ff" d="M669.71,-446.41C636.99,-373.26 508.77,-111.92 309,-17.66 249.51,10.42 224.49,-0.46 161,-17.66 126.93,-26.88 92.57,-51.31 75.17,-65.01"/>
<polygon fill="#63b8ff" stroke="#63b8ff" points="666.61,-448.05 673.84,-455.79 673.01,-445.23 666.61,-448.05"/>
</a>
</g>
</g>
<!-- Node8 -->
<g id="Node000008" class="node">
<title>Node8</title>
<g id="a_Node000008"><a xlink:href="effects_8c.html#aeda67f98b2369b1c3952d9e4eb30b4d1" target="_top" xlink:title=" ">
<polygon fill="white" stroke="#666666" points="421,-401.16 345,-401.16 345,-382.16 421,-382.16 421,-401.16"/>
<text text-anchor="middle" x="383" y="-389.16" font-family="Helvetica,sans-Serif" font-size="10.00">clean_effect</text>
</a>
</g>
</g>
<!-- Node7&#45;&gt;Node8 -->
<g id="edge7_Node000007_Node000008" class="edge">
<title>Node7&#45;&gt;Node8</title>
<g id="a_edge7_Node000007_Node000008"><a xlink:title=" ">
<path fill="none" stroke="#63b8ff" d="M470.58,-391.66C454.06,-391.66 436.36,-391.66 421.29,-391.66"/>
<polygon fill="#63b8ff" stroke="#63b8ff" points="470.68,-395.16 480.68,-391.66 470.68,-388.16 470.68,-395.16"/>
</a>
</g>
</g>
<!-- Node8&#45;&gt;Node3 -->
<g id="edge13_Node000008_Node000003" class="edge">
<title>Node8&#45;&gt;Node3</title>
<g id="a_edge13_Node000008_Node000003"><a xlink:title=" ">
<path fill="none" stroke="#63b8ff" d="M375.85,-411.15C367.81,-437.23 353.73,-485.03 345,-526.66 333.71,-580.51 344.43,-729.55 309,-771.66 303.33,-778.39 295.73,-783.25 287.58,-786.75"/>
<polygon fill="#63b8ff" stroke="#63b8ff" points="379.26,-411.97 378.9,-401.38 372.58,-409.89 379.26,-411.97"/>
</a>
</g>
</g>
<!-- Node9 -->
<g id="Node000009" class="node">
<title>Node9</title>
<g id="a_Node000009"><a xlink:href="effects_8c.html#a6e21e42b0229fe1e1829bd8909527e2b" target="_top" xlink:title=" ">
<polygon fill="white" stroke="#666666" points="302,-688.16 168,-688.16 168,-669.16 302,-669.16 302,-688.16"/>
<text text-anchor="middle" x="235" y="-676.16" font-family="Helvetica,sans-Serif" font-size="10.00">apply_boo_sound_effect</text>
</a>
</g>
</g>
<!-- Node8&#45;&gt;Node9 -->
<g id="edge8_Node000008_Node000009" class="edge">
<title>Node8&#45;&gt;Node9</title>
<g id="a_edge8_Node000008_Node000009"><a xlink:title=" ">
<path fill="none" stroke="#63b8ff" d="M376.59,-411.32C369.36,-437.6 356.18,-485.62 345,-526.66 328.91,-585.74 352.51,-616.56 309,-659.66 305.09,-663.53 300.5,-666.64 295.56,-669.14"/>
<polygon fill="#63b8ff" stroke="#63b8ff" points="380.02,-412.05 379.3,-401.48 373.27,-410.19 380.02,-412.05"/>
</a>
</g>
</g>
<!-- Node10 -->
<g id="Node000010" class="node">
<title>Node10</title>
<g id="a_Node000010"><a xlink:href="effects_8c.html#a525127b997f2f6a0a48d4d9ecda6cdbb" target="_top" xlink:title=" ">
<polygon fill="white" stroke="#666666" points="309,-650.66 161,-650.66 161,-620.66 309,-620.66 309,-650.66"/>
<text text-anchor="start" x="169" y="-638.66" font-family="Helvetica,sans-Serif" font-size="10.00">apply_boost_ramp_asphalt</text>
<text text-anchor="middle" x="235" y="-627.66" font-family="Helvetica,sans-Serif" font-size="10.00">_sound_effect</text>
</a>
</g>
</g>
<!-- Node8&#45;&gt;Node10 -->
<g id="edge9_Node000008_Node000010" class="edge">
<title>Node8&#45;&gt;Node10</title>
<g id="a_edge9_Node000008_Node000010"><a xlink:title=" ">
<path fill="none" stroke="#63b8ff" d="M376.68,-410.92C362.48,-461.81 323.77,-596.93 309,-611.66 305.6,-615.05 301.71,-617.96 297.54,-620.46"/>
<polygon fill="#63b8ff" stroke="#63b8ff" points="380.09,-411.73 379.39,-401.16 373.34,-409.86 380.09,-411.73"/>
</a>
</g>
</g>
<!-- Node11 -->
<g id="Node000011" class="node">
<title>Node11</title>
<g id="a_Node000011"><a xlink:href="effects_8c.html#a595d8d70bde8a985884d02eba98a1b3d" target="_top" xlink:title=" ">
<polygon fill="white" stroke="#666666" points="304,-602.66 166,-602.66 166,-572.66 304,-572.66 304,-602.66"/>
<text text-anchor="start" x="174" y="-590.66" font-family="Helvetica,sans-Serif" font-size="10.00">apply_boost_ramp_wood</text>
<text text-anchor="middle" x="235" y="-579.66" font-family="Helvetica,sans-Serif" font-size="10.00">_sound_effect</text>
</a>
</g>
</g>
<!-- Node8&#45;&gt;Node11 -->
<g id="edge10_Node000008_Node000011" class="edge">
<title>Node8&#45;&gt;Node11</title>
<g id="a_edge10_Node000008_Node000011"><a xlink:title=" ">
<path fill="none" stroke="#63b8ff" d="M379.03,-411.52C372.68,-447.09 354.46,-521.85 309,-563.66 305.27,-567.09 301.04,-570.03 296.53,-572.55"/>
<polygon fill="#63b8ff" stroke="#63b8ff" points="382.52,-411.87 380.7,-401.44 375.61,-410.73 382.52,-411.87"/>
</a>
</g>
</g>
<!-- Node12 -->
<g id="Node000012" class="node">
<title>Node12</title>
<g id="a_Node000012"><a xlink:href="effects_8c.html#ab5250b798d170f8dd9f6012eff39743c" target="_top" xlink:title=" ">
<polygon fill="white" stroke="#666666" points="306.5,-554.16 163.5,-554.16 163.5,-535.16 306.5,-535.16 306.5,-554.16"/>
<text text-anchor="middle" x="235" y="-542.16" font-family="Helvetica,sans-Serif" font-size="10.00">apply_boost_sound_effect</text>
</a>
</g>
</g>
<!-- Node8&#45;&gt;Node12 -->
<g id="edge11_Node000008_Node000012" class="edge">
<title>Node8&#45;&gt;Node12</title>
<g id="a_edge11_Node000008_Node000012"><a xlink:title=" ">
<path fill="none" stroke="#63b8ff" d="M376.72,-411.44C367.81,-440.9 346.95,-496 309,-525.66 304.05,-529.53 298.38,-532.61 292.45,-535.07"/>
<polygon fill="#63b8ff" stroke="#63b8ff" points="380.17,-412.09 379.56,-401.51 373.44,-410.16 380.17,-412.09"/>
</a>
</g>
</g>
<!-- Node13 -->
<g id="Node000013" class="node">
<title>Node13</title>
<g id="a_Node000013"><a xlink:href="effects_8c.html#a4db388444870e3607555465cde8d2b69" target="_top" xlink:title=" ">
<polygon fill="white" stroke="#666666" points="305.5,-516.66 164.5,-516.66 164.5,-486.66 305.5,-486.66 305.5,-516.66"/>
<text text-anchor="start" x="172.5" y="-504.66" font-family="Helvetica,sans-Serif" font-size="10.00">apply_hit_by_item_sound</text>
<text text-anchor="middle" x="235" y="-493.66" font-family="Helvetica,sans-Serif" font-size="10.00">_effect</text>
</a>
</g>
</g>
<!-- Node8&#45;&gt;Node13 -->
<g id="edge12_Node000008_Node000013" class="edge">
<title>Node8&#45;&gt;Node13</title>
<g id="a_edge12_Node000008_Node000013"><a xlink:title=" ">
<path fill="none" stroke="#63b8ff" d="M371.05,-409.69C358.39,-429.1 335.81,-459.61 309,-477.66 303.91,-481.08 298.29,-484.05 292.5,-486.62"/>
<polygon fill="#63b8ff" stroke="#63b8ff" points="374.06,-411.48 376.44,-401.16 368.14,-407.74 374.06,-411.48"/>
</a>
</g>
</g>
<!-- Node14 -->
<g id="Node000014" class="node">
<title>Node14</title>
<g id="a_Node000014"><a xlink:href="effects_8c.html#a5332b3e2f6c9720f7fd0eea6b7af3359" target="_top" xlink:title=" ">
<polygon fill="white" stroke="#666666" points="295,-468.66 175,-468.66 175,-438.66 295,-438.66 295,-468.66"/>
<text text-anchor="start" x="183" y="-456.66" font-family="Helvetica,sans-Serif" font-size="10.00">apply_reverse_sound</text>
<text text-anchor="middle" x="235" y="-445.66" font-family="Helvetica,sans-Serif" font-size="10.00">_effect</text>
</a>
</g>
</g>
<!-- Node8&#45;&gt;Node14 -->
<g id="edge14_Node000008_Node000014" class="edge">
<title>Node8&#45;&gt;Node14</title>
<g id="a_edge14_Node000008_Node000014"><a xlink:title=" ">
<path fill="none" stroke="#63b8ff" d="M356.02,-405.93C342.26,-413.21 324.95,-421.92 309,-428.66 300.73,-432.15 291.79,-435.52 283.1,-438.6"/>
<polygon fill="#63b8ff" stroke="#63b8ff" points="357.75,-408.98 364.92,-401.17 354.45,-402.81 357.75,-408.98"/>
</a>
</g>
</g>
<!-- Node15 -->
<g id="Node000015" class="node">
<title>Node15</title>
<g id="a_Node000015"><a xlink:href="effects_8c.html#a1ae16ef10ed322ad47b3cff5a8efc83e" target="_top" xlink:title=" ">
<polygon fill="white" stroke="#666666" points="302.5,-420.16 167.5,-420.16 167.5,-401.16 302.5,-401.16 302.5,-420.16"/>
<text text-anchor="middle" x="235" y="-408.16" font-family="Helvetica,sans-Serif" font-size="10.00">apply_star_sound_effect</text>
</a>
</g>
</g>
<!-- Node8&#45;&gt;Node15 -->
<g id="edge15_Node000008_Node000015" class="edge">
<title>Node8&#45;&gt;Node15</title>
<g id="a_edge15_Node000008_Node000015"><a xlink:title=" ">
<path fill="none" stroke="#63b8ff" d="M334.82,-397.8C324.56,-399.13 313.52,-400.57 302.66,-401.98"/>
<polygon fill="#63b8ff" stroke="#63b8ff" points="335.32,-401.26 344.78,-396.5 334.41,-394.32 335.32,-401.26"/>
</a>
</g>
</g>
<!-- Node16 -->
<g id="Node000016" class="node">
<title>Node16</title>
<g id="a_Node000016"><a xlink:href="effects_8c.html#a6fc4c8f6786be15941bfce0c8575b7cf" target="_top" xlink:title=" ">
<polygon fill="white" stroke="#666666" points="281,-383.16 189,-383.16 189,-364.16 281,-364.16 281,-383.16"/>
<text text-anchor="middle" x="235" y="-371.16" font-family="Helvetica,sans-Serif" font-size="10.00">func_8008C528</text>
</a>
</g>
</g>
<!-- Node8&#45;&gt;Node16 -->
<g id="edge16_Node000008_Node000016" class="edge">
<title>Node8&#45;&gt;Node16</title>
<g id="a_edge16_Node000008_Node000016"><a xlink:title=" ">
<path fill="none" stroke="#63b8ff" d="M334.45,-385.79C317.35,-383.68 298.13,-381.31 281.23,-379.23"/>
<polygon fill="#63b8ff" stroke="#63b8ff" points="334.43,-389.32 344.78,-387.07 335.28,-382.37 334.43,-389.32"/>
</a>
</g>
</g>
<!-- Node17 -->
<g id="Node000017" class="node">
<title>Node17</title>
<g id="a_Node000017"><a xlink:href="effects_8c.html#af25de8f70a7ecb552619235df793b951" target="_top" xlink:title=" ">
<polygon fill="white" stroke="#666666" points="281,-307.16 189,-307.16 189,-288.16 281,-288.16 281,-307.16"/>
<text text-anchor="middle" x="235" y="-295.16" font-family="Helvetica,sans-Serif" font-size="10.00">func_8008C73C</text>
</a>
</g>
</g>
<!-- Node8&#45;&gt;Node17 -->
<g id="edge17_Node000008_Node000017" class="edge">
<title>Node8&#45;&gt;Node17</title>
<g id="a_edge17_Node000008_Node000017"><a xlink:title=" ">
<path fill="none" stroke="#63b8ff" d="M367.84,-374.19C354.24,-358.45 332.37,-335.69 309,-321.66 298.82,-315.54 286.9,-310.78 275.67,-307.16"/>
<polygon fill="#63b8ff" stroke="#63b8ff" points="365.38,-376.71 374.5,-382.11 370.74,-372.2 365.38,-376.71"/>
</a>
</g>
</g>
<!-- Node18 -->
<g id="Node000018" class="node">
<title>Node18</title>
<g id="a_Node000018"><a xlink:href="effects_8c.html#abeb13f8e836713bdee19de586bb6adb9" target="_top" xlink:title=" ">
<polygon fill="white" stroke="#666666" points="109.5,-345.16 15.5,-345.16 15.5,-326.16 109.5,-326.16 109.5,-345.16"/>
<text text-anchor="middle" x="62.5" y="-333.16" font-family="Helvetica,sans-Serif" font-size="10.00">func_8008CDC0</text>
</a>
</g>
</g>
<!-- Node8&#45;&gt;Node18 -->
<g id="edge21_Node000008_Node000018" class="edge">
<title>Node8&#45;&gt;Node18</title>
<g id="a_edge21_Node000008_Node000018"><a xlink:title=" ">
<path fill="none" stroke="#63b8ff" d="M358.49,-376.75C344.64,-368.75 326.45,-359.54 309,-354.66 241.49,-335.74 159.72,-333.26 109.67,-333.92"/>
<polygon fill="#63b8ff" stroke="#63b8ff" points="356.95,-379.91 367.33,-382.03 360.54,-373.9 356.95,-379.91"/>
</a>
</g>
</g>
<!-- Node21 -->
<g id="Node000021" class="node">
<title>Node21</title>
<g id="a_Node000021"><a xlink:href="effects_8c.html#af29c180e7533851648935dcc033afffc" target="_top" xlink:title=" ">
<polygon fill="white" stroke="#666666" points="281.5,-270.16 188.5,-270.16 188.5,-251.16 281.5,-251.16 281.5,-270.16"/>
<text text-anchor="middle" x="235" y="-258.16" font-family="Helvetica,sans-Serif" font-size="10.00">func_8008D0FC</text>
</a>
</g>
</g>
<!-- Node8&#45;&gt;Node21 -->
<g id="edge22_Node000008_Node000021" class="edge">
<title>Node8&#45;&gt;Node21</title>
<g id="a_edge22_Node000008_Node000021"><a xlink:title=" ">
<path fill="none" stroke="#63b8ff" d="M374.85,-372.38C364.39,-346.92 342.44,-302.51 309,-278.66 300.92,-272.9 291.21,-268.97 281.54,-266.29"/>
<polygon fill="#63b8ff" stroke="#63b8ff" points="371.72,-373.99 378.63,-382.02 378.24,-371.44 371.72,-373.99"/>
</a>
</g>
</g>
<!-- Node22 -->
<g id="Node000022" class="node">
<title>Node22</title>
<g id="a_Node000022"><a xlink:href="effects_8c.html#afeee12fd4248e8c5c1eeeba01d3a4d03" target="_top" xlink:title=" ">
<polygon fill="white" stroke="#666666" points="281,-233.16 189,-233.16 189,-214.16 281,-214.16 281,-233.16"/>
<text text-anchor="middle" x="235" y="-221.16" font-family="Helvetica,sans-Serif" font-size="10.00">func_8008D570</text>
</a>
</g>
</g>
<!-- Node8&#45;&gt;Node22 -->
<g id="edge23_Node000008_Node000022" class="edge">
<title>Node8&#45;&gt;Node22</title>
<g id="a_edge23_Node000008_Node000022"><a xlink:title=" ">
<path fill="none" stroke="#63b8ff" d="M378.02,-371.77C370.46,-339.4 350.91,-275.53 309,-241.66 301.08,-235.25 291.21,-231.08 281.31,-228.38"/>
<polygon fill="#63b8ff" stroke="#63b8ff" points="374.65,-372.78 380.2,-381.81 381.49,-371.29 374.65,-372.78"/>
</a>
</g>
</g>
<!-- Node23 -->
<g id="Node000023" class="node">
<title>Node23</title>
<g id="a_Node000023"><a xlink:href="effects_8c.html#a74d99f2170536bdd034d47b405aced48" target="_top" xlink:title=" ">
<polygon fill="white" stroke="#666666" points="281.5,-196.16 188.5,-196.16 188.5,-177.16 281.5,-177.16 281.5,-196.16"/>
<text text-anchor="middle" x="235" y="-184.16" font-family="Helvetica,sans-Serif" font-size="10.00">func_8008D7B0</text>
</a>
</g>
</g>
<!-- Node8&#45;&gt;Node23 -->
<g id="edge24_Node000008_Node000023" class="edge">
<title>Node8&#45;&gt;Node23</title>
<g id="a_edge24_Node000008_Node000023"><a xlink:title=" ">
<path fill="none" stroke="#63b8ff" d="M380.1,-371.33C375.38,-332.8 359.57,-249.02 309,-204.66 301.35,-197.94 291.58,-193.65 281.7,-190.92"/>
<polygon fill="#63b8ff" stroke="#63b8ff" points="376.67,-372.18 381.24,-381.74 383.63,-371.42 376.67,-372.18"/>
</a>
</g>
</g>
<!-- Node24 -->
<g id="Node000024" class="node">
<title>Node24</title>
<g id="a_Node000024"><a xlink:href="effects_8c.html#a91101066503279f64d1972e074533e32" target="_top" xlink:title=" ">
<polygon fill="white" stroke="#666666" points="282.5,-159.16 187.5,-159.16 187.5,-140.16 282.5,-140.16 282.5,-159.16"/>
<text text-anchor="middle" x="235" y="-147.16" font-family="Helvetica,sans-Serif" font-size="10.00">func_8008DABC</text>
</a>
</g>
</g>
<!-- Node8&#45;&gt;Node24 -->
<g id="edge25_Node000008_Node000024" class="edge">
<title>Node8&#45;&gt;Node24</title>
<g id="a_edge25_Node000008_Node000024"><a xlink:title=" ">
<path fill="none" stroke="#63b8ff" d="M381.63,-371.66C379.68,-327.89 368.68,-223.12 309,-167.66 301.73,-160.9 292.35,-156.57 282.74,-153.82"/>
<polygon fill="#63b8ff" stroke="#63b8ff" points="378.14,-371.97 381.96,-381.85 385.13,-371.74 378.14,-371.97"/>
</a>
</g>
</g>
<!-- Node26 -->
<g id="Node000026" class="node">
<title>Node26</title>
<g id="a_Node000026"><a xlink:href="effects_8c.html#ae77e5662a7ef9f09c2e2150a36883d04" target="_top" xlink:title=" ">
<polygon fill="white" stroke="#666666" points="280.5,-122.16 189.5,-122.16 189.5,-103.16 280.5,-103.16 280.5,-122.16"/>
<text text-anchor="middle" x="235" y="-110.16" font-family="Helvetica,sans-Serif" font-size="10.00">func_8008F104</text>
</a>
</g>
</g>
<!-- Node8&#45;&gt;Node26 -->
<g id="edge27_Node000008_Node000026" class="edge">
<title>Node8&#45;&gt;Node26</title>
<g id="a_edge27_Node000008_Node000026"><a xlink:title=" ">
<path fill="none" stroke="#63b8ff" d="M382.72,-371.76C383.33,-323.13 377.8,-197.36 309,-130.66 301.32,-123.2 291.06,-118.68 280.68,-115.97"/>
<polygon fill="#63b8ff" stroke="#63b8ff" points="379.22,-371.82 382.48,-381.9 386.22,-371.98 379.22,-371.82"/>
</a>
</g>
</g>
<!-- Node8&#45;&gt;Node27 -->
<g id="edge33_Node000008_Node000027" class="edge">
<title>Node8&#45;&gt;Node27</title>
<g id="a_edge33_Node000008_Node000027"><a xlink:title=" ">
<path fill="none" stroke="#63b8ff" d="M380.11,-371.78C373.92,-311.12 352.11,-130.25 309,-93.66 251.16,-44.55 155.5,-54.4 102.28,-65.07"/>
<polygon fill="#63b8ff" stroke="#63b8ff" points="376.65,-372.33 381.12,-381.94 383.62,-371.65 376.65,-372.33"/>
</a>
</g>
</g>
<!-- Node28 -->
<g id="Node000028" class="node">
<title>Node28</title>
<g id="a_Node000028"><a xlink:href="effects_8c.html#a71c3c746ea434e798865e3256180ee0a" target="_top" xlink:title=" ">
<polygon fill="white" stroke="#666666" points="280.5,-46.16 189.5,-46.16 189.5,-27.16 280.5,-27.16 280.5,-46.16"/>
<text text-anchor="middle" x="235" y="-34.16" font-family="Helvetica,sans-Serif" font-size="10.00">func_8008F494</text>
</a>
</g>
</g>
<!-- Node8&#45;&gt;Node28 -->
<g id="edge29_Node000008_Node000028" class="edge">
<title>Node8&#45;&gt;Node28</title>
<g id="a_edge29_Node000008_Node000028"><a xlink:title=" ">
<path fill="none" stroke="#63b8ff" d="M380.17,-371.77C373.9,-307.6 351.26,-107.4 309,-60.66 301.57,-52.44 291.29,-47.03 280.78,-43.47"/>
<polygon fill="#63b8ff" stroke="#63b8ff" points="376.73,-372.48 381.16,-382.11 383.7,-371.82 376.73,-372.48"/>
</a>
</g>
</g>
<!-- Node29 -->
<g id="Node000029" class="node">
<title>Node29</title>
<g id="a_Node000029"><a xlink:href="effects_8c.html#a8b726ee429a49fbdabd121d127eb8ee4" target="_top" xlink:title=" ">
<polygon fill="white" stroke="#666666" points="281,-762.16 189,-762.16 189,-743.16 281,-743.16 281,-762.16"/>
<text text-anchor="middle" x="235" y="-750.16" font-family="Helvetica,sans-Serif" font-size="10.00">func_8008FDF4</text>
</a>
</g>
</g>
<!-- Node8&#45;&gt;Node29 -->
<g id="edge30_Node000008_Node000029" class="edge">
<title>Node8&#45;&gt;Node29</title>
<g id="a_edge30_Node000008_Node000029"><a xlink:title=" ">
<path fill="none" stroke="#63b8ff" d="M376.01,-411.18C368.15,-437.3 354.26,-485.15 345,-526.66 324.58,-618.22 372.97,-666.02 309,-734.66 301.7,-742.49 291.59,-747.15 281.21,-749.86"/>
<polygon fill="#63b8ff" stroke="#63b8ff" points="379.43,-411.98 378.98,-401.4 372.73,-409.95 379.43,-411.98"/>
</a>
</g>
</g>
<!-- Node30 -->
<g id="Node000030" class="node">
<title>Node30</title>
<g id="a_Node000030"><a xlink:href="effects_8c.html#a17332237b5c2a4249328a35071e23bf7" target="_top" xlink:title=" ">
<polygon fill="white" stroke="#666666" points="280.5,-725.16 189.5,-725.16 189.5,-706.16 280.5,-706.16 280.5,-725.16"/>
<text text-anchor="middle" x="235" y="-713.16" font-family="Helvetica,sans-Serif" font-size="10.00">func_80090778</text>
</a>
</g>
</g>
<!-- Node8&#45;&gt;Node30 -->
<g id="edge31_Node000008_Node000030" class="edge">
<title>Node8&#45;&gt;Node30</title>
<g id="a_edge31_Node000008_Node000030"><a xlink:title=" ">
<path fill="none" stroke="#63b8ff" d="M376.24,-411.23C368.62,-437.41 355.01,-485.32 345,-526.66 326.73,-602.14 362.97,-641.8 309,-697.66 301.47,-705.45 291.15,-710.08 280.64,-712.78"/>
<polygon fill="#63b8ff" stroke="#63b8ff" points="379.66,-412.01 379.1,-401.43 372.94,-410.04 379.66,-412.01"/>
</a>
</g>
</g>
<!-- Node17&#45;&gt;Node18 -->
<g id="edge18_Node000017_Node000018" class="edge">
<title>Node17&#45;&gt;Node18</title>
<g id="a_edge18_Node000017_Node000018"><a xlink:title=" ">
<path fill="none" stroke="#63b8ff" d="M180.95,-309.48C156.91,-314.84 128.87,-321.09 106.21,-326.13"/>
<polygon fill="#63b8ff" stroke="#63b8ff" points="181.98,-312.84 190.98,-307.24 180.45,-306 181.98,-312.84"/>
</a>
</g>
</g>
<!-- Node19 -->
<g id="Node000019" class="node">
<title>Node19</title>
<g id="a_Node000019"><a xlink:href="effects_8c.html#af0e482103261c24d9986452a89c08547" target="_top" xlink:title=" ">
<polygon fill="white" stroke="#666666" points="108.5,-270.16 16.5,-270.16 16.5,-251.16 108.5,-251.16 108.5,-270.16"/>
<text text-anchor="middle" x="62.5" y="-258.16" font-family="Helvetica,sans-Serif" font-size="10.00">func_8008CEB0</text>
</a>
</g>
</g>
<!-- Node17&#45;&gt;Node19 -->
<g id="edge19_Node000017_Node000019" class="edge">
<title>Node17&#45;&gt;Node19</title>
<g id="a_edge19_Node000017_Node000019"><a xlink:title=" ">
<path fill="none" stroke="#63b8ff" d="M180.31,-286C156.89,-280.92 129.76,-275.04 107.56,-270.22"/>
<polygon fill="#63b8ff" stroke="#63b8ff" points="179.58,-289.43 190.09,-288.13 181.06,-282.59 179.58,-289.43"/>
</a>
</g>
</g>
<!-- Node20 -->
<g id="Node000020" class="node">
<title>Node20</title>
<g id="a_Node000020"><a xlink:href="effects_8c.html#af88bb4cbfc59690890829535fc793551" target="_top" xlink:title=" ">
<polygon fill="white" stroke="#666666" points="108.5,-307.16 16.5,-307.16 16.5,-288.16 108.5,-288.16 108.5,-307.16"/>
<text text-anchor="middle" x="62.5" y="-295.16" font-family="Helvetica,sans-Serif" font-size="10.00">func_8008D170</text>
</a>
</g>
</g>
<!-- Node17&#45;&gt;Node20 -->
<g id="edge20_Node000017_Node000020" class="edge">
<title>Node17&#45;&gt;Node20</title>
<g id="a_edge20_Node000017_Node000020"><a xlink:title=" ">
<path fill="none" stroke="#63b8ff" d="M178.61,-297.66C155.97,-297.66 130.12,-297.66 108.66,-297.66"/>
<polygon fill="#63b8ff" stroke="#63b8ff" points="178.76,-301.16 188.76,-297.66 178.76,-294.16 178.76,-301.16"/>
</a>
</g>
</g>
<!-- Node25 -->
<g id="Node000025" class="node">
<title>Node25</title>
<g id="a_Node000025"><a xlink:href="effects_8c.html#afcd934606edb08e59bff1545a7e447f7" target="_top" xlink:title=" ">
<polygon fill="white" stroke="#666666" points="125,-159.16 0,-159.16 0,-140.16 125,-140.16 125,-159.16"/>
<text text-anchor="middle" x="62.5" y="-147.16" font-family="Helvetica,sans-Serif" font-size="10.00">apply_lightning_effect</text>
</a>
</g>
</g>
<!-- Node24&#45;&gt;Node25 -->
<g id="edge26_Node000024_Node000025" class="edge">
<title>Node24&#45;&gt;Node25</title>
<g id="a_edge26_Node000024_Node000025"><a xlink:title=" ">
<path fill="none" stroke="#63b8ff" d="M177.23,-149.66C160.49,-149.66 142.1,-149.66 125.07,-149.66"/>
<polygon fill="#63b8ff" stroke="#63b8ff" points="177.41,-153.16 187.41,-149.66 177.41,-146.16 177.41,-153.16"/>
</a>
</g>
</g>
<!-- Node26&#45;&gt;Node27 -->
<g id="edge28_Node000026_Node000027" class="edge">
<title>Node26&#45;&gt;Node27</title>
<g id="a_edge28_Node000026_Node000027"><a xlink:title=" ">
<path fill="none" stroke="#63b8ff" d="M180.95,-100.83C156.91,-95.47 128.87,-89.22 106.21,-84.18"/>
<polygon fill="#63b8ff" stroke="#63b8ff" points="180.45,-104.31 190.98,-103.07 181.98,-97.47 180.45,-104.31"/>
</a>
</g>
</g>
<!-- Node31 -->
<g id="Node000031" class="node">
<title>Node31</title>
<g id="a_Node000031"><a xlink:href="effects_8c.html#afaeabb9e08b6568f56117c24edad5945" target="_top" xlink:title=" ">
<polygon fill="white" stroke="#666666" points="108,-725.16 17,-725.16 17,-706.16 108,-706.16 108,-725.16"/>
<text text-anchor="middle" x="62.5" y="-713.16" font-family="Helvetica,sans-Serif" font-size="10.00">func_8008F3F4</text>
</a>
</g>
</g>
<!-- Node30&#45;&gt;Node31 -->
<g id="edge32_Node000030_Node000031" class="edge">
<title>Node30&#45;&gt;Node31</title>
<g id="a_edge32_Node000030_Node000031"><a xlink:title=" ">
<path fill="none" stroke="#63b8ff" d="M178.97,-715.66C156.12,-715.66 129.94,-715.66 108.29,-715.66"/>
<polygon fill="#63b8ff" stroke="#63b8ff" points="179.2,-719.16 189.2,-715.66 179.2,-712.16 179.2,-719.16"/>
</a>
</g>
</g>
</g>
</svg>

<g id="navigator" transform="translate(0 0)" fill="#404254">
  <rect fill="#f2f5e9" fill-opacity="0.5" stroke="#606060" stroke-width=".5" x="0" y="0" width="60" height="60"/>
  <use id="zoomplus" xlink:href="#zoomPlus" x="17" y="9" onmousedown="handleZoom(evt,'in')"/>
  <use id="zoomminus" xlink:href="#zoomMin" x="42" y="9" onmousedown="handleZoom(evt,'out')"/>
  <use id="reset" xlink:href="#resetDef" x="30" y="36" onmousedown="handleReset()"/>
   <use id="arrowup" xlink:href="#arrowUp" x="0" y="0" onmousedown="handlePan(0,-1)"/>
  <use id="arrowright" xlink:href="#arrowRight" x="0" y="0" onmousedown="handlePan(1,0)"/>
  <use id="arrowdown" xlink:href="#arrowDown" x="0" y="0" onmousedown="handlePan(0,1)"/>
  <use id="arrowleft" xlink:href="#arrowLeft" x="0" y="0" onmousedown="handlePan(-1,0)"/>
</g>
<svg viewBox="0 0 15 15" width="100%" height="30px" preserveAspectRatio="xMaxYMin meet">
 <g id="arrow_out" transform="scale(0.3 0.3)">
  <a xlink:href="code__80057C60_8c_a0a55fae21abd30d3c618adef1a9f3ccd_icgraph_org.svg" target="_base">
   <rect id="button" ry="5" rx="5" y="6" x="6" height="38" width="38"
        fill="#f2f5e9" fill-opacity="0.5" stroke="#606060" stroke-width="1.0"/>
   <path id="arrow"
     d="M 11.500037,31.436501 C 11.940474,20.09759 22.043105,11.32322 32.158766,21.979434 L 37.068811,17.246167 C 37.068811,17.246167 37.088388,32 37.088388,32 L 22.160133,31.978069 C 22.160133,31.978069 26.997745,27.140456 26.997745,27.140456 C 18.528582,18.264221 13.291696,25.230495 11.500037,31.436501 z"
     style="fill:#404040;"/>
  </a>
 </g>
</svg>

<style type='text/css'>
<![CDATA[
[data-mouse-over-selected='false'] { opacity: 0.7; }
[data-mouse-over-selected='true']  { opacity: 1.0; }
]]>
</style>
<script type="application/ecmascript"><![CDATA[
document.addEventListener('DOMContentLoaded', (event) => {
  highlightEdges();
  highlightAdjacentNodes();
});
]]></script>
</svg>
