<?xml version="1.0" encoding="UTF-8" standalone="no"?>
<!DOCTYPE svg PUBLIC "-//W3C//DTD SVG 1.1//EN"
 "http://www.w3.org/Graphics/SVG/1.1/DTD/svg11.dtd">
<!-- Generated by graphviz version 2.43.0 (0)
 -->
<!-- Title: include/course_offsets.h Pages: 1 -->
<!--zoomable 203 -->

<svg id="main" version="1.1" xmlns="http://www.w3.org/2000/svg" xmlns:xlink="http://www.w3.org/1999/xlink" xml:space="preserve" onload="init(evt)">
<style type="text/css"><![CDATA[
.node, .edge {opacity: 0.7;}
.node.selected, .edge.selected {opacity: 1;}
.edge:hover path { stroke: red; }
.edge:hover polygon { stroke: red; fill: red; }
]]></style>

<defs>
  <circle id="rim" cx="0" cy="0" r="7"/>
  <circle id="rim2" cx="0" cy="0" r="3.5"/>
  <g id="zoomPlus">
    <use xlink:href="#rim" fill="#404040"><set attributeName="fill" to="#808080" begin="zoomplus.mouseover" end="zoomplus.mouseout"/></use>
    <path d="M-4,0h8M0,-4v8" fill="none" stroke="white" stroke-width="1.5" pointer-events="none"/>
  </g>
  <g id="zoomMin">
    <use xlink:href="#rim" fill="#404040"><set attributeName="fill" to="#808080" begin="zoomminus.mouseover" end="zoomminus.mouseout"/></use>
    <path d="M-4,0h8" fill="none" stroke="white" stroke-width="1.5" pointer-events="none"/>
  </g>
  <g id="arrowUp" transform="translate(30 24)">
    <use xlink:href="#rim"/>
    <path pointer-events="none" fill="none" stroke="white" stroke-width="1.5" d="M0,-3.0v7 M-2.5,-0.5L0,-3.0L2.5,-0.5"/>
  </g>
  <g id="arrowRight" transform="rotate(90) translate(36 -43)">
    <use xlink:href="#rim"/>
    <path pointer-events="none" fill="none" stroke="white" stroke-width="1.5" d="M0,-3.0v7 M-2.5,-0.5L0,-3.0L2.5,-0.5"/>
  </g>
  <g id="arrowDown" transform="rotate(180) translate(-30 -48)">
    <use xlink:href="#rim"/>
    <path pointer-events="none" fill="none" stroke="white" stroke-width="1.5" d="M0,-3.0v7 M-2.5,-0.5L0,-3.0L2.5,-0.5"/>
  </g>
  <g id="arrowLeft" transform="rotate(270) translate(-36 17)">
    <use xlink:href="#rim"/>
    <path pointer-events="none" fill="none" stroke="white" stroke-width="1.5" d="M0,-3.0v7 M-2.5,-0.5L0,-3.0L2.5,-0.5"/>
  </g>
  <g id="resetDef">
    <use xlink:href="#rim2" fill="#404040"><set attributeName="fill" to="#808080" begin="reset.mouseover" end="reset.mouseout"/></use>
  </g>
</defs>
<script type="application/ecmascript">
var viewWidth = 3385;
var viewHeight = 203;
var sectionId = 'dynsection-1';
</script>
<script type="application/ecmascript" xlink:href="svg.min.js"/>
<svg id="graph" class="graph">
<g id="viewport">
<title>include/course_offsets.h</title>
<!-- Node1 -->
<g id="Node000001" class="node">
<title>Node1</title>
<g id="a_Node000001"><a xlink:title=" ">
<polygon fill="#999999" stroke="#666666" points="1852.5,-195 1718.5,-195 1718.5,-176 1852.5,-176 1852.5,-195"/>
<text text-anchor="middle" x="1785.5" y="-183" font-family="Helvetica,sans-Serif" font-size="10.00">include/course_offsets.h</text>
</a>
</g>
</g>
<!-- Node2 -->
<g id="Node000002" class="node">
<title>Node2</title>
<g id="a_Node000002"><a xlink:href="all__course__offsets_8h.html" target="_top" xlink:title=" ">
<polygon fill="white" stroke="#666666" points="216,-140 109,-140 109,-110 216,-110 216,-140"/>
<text text-anchor="start" x="117" y="-128" font-family="Helvetica,sans-Serif" font-size="10.00">courses/all_course</text>
<text text-anchor="middle" x="162.5" y="-117" font-family="Helvetica,sans-Serif" font-size="10.00">_offsets.h</text>
</a>
</g>
</g>
<!-- Node1&#45;&gt;Node2 -->
<g id="edge1_Node000001_Node000002" class="edge">
<title>Node1&#45;&gt;Node2</title>
<g id="a_edge1_Node000001_Node000002"><a xlink:title=" ">
<path fill="none" stroke="#63b8ff" d="M1708.02,-184.28C1434.7,-183.17 516.3,-176.75 224.5,-140 221.76,-139.66 218.97,-139.24 216.16,-138.78"/>
<polygon fill="#63b8ff" stroke="#63b8ff" points="1708.23,-187.78 1718.24,-184.32 1708.26,-180.78 1708.23,-187.78"/>
</a>
</g>
</g>
<!-- Node5 -->
<g id="Node000005" class="node">
<title>Node5</title>
<g id="a_Node000005"><a xlink:href="banshee__boardwalk_2course__offsets_8inc_8c.html" target="_top" xlink:title=" ">
<polygon fill="white" stroke="#666666" points="389,-140 234,-140 234,-110 389,-110 389,-140"/>
<text text-anchor="start" x="242" y="-128" font-family="Helvetica,sans-Serif" font-size="10.00">courses/banshee_boardwalk</text>
<text text-anchor="middle" x="311.5" y="-117" font-family="Helvetica,sans-Serif" font-size="10.00">/course_offsets.inc.c</text>
</a>
</g>
</g>
<!-- Node1&#45;&gt;Node5 -->
<g id="edge4_Node000001_Node000005" class="edge">
<title>Node1&#45;&gt;Node5</title>
<g id="a_edge4_Node000001_Node000005"><a xlink:title=" ">
<path fill="none" stroke="#63b8ff" d="M1707.9,-183.31C1454.93,-179.24 655.59,-164.71 398.5,-140 395.45,-139.71 392.35,-139.37 389.22,-139.01"/>
<polygon fill="#63b8ff" stroke="#63b8ff" points="1708.05,-186.82 1718.11,-183.48 1708.16,-179.82 1708.05,-186.82"/>
</a>
</g>
</g>
<!-- Node6 -->
<g id="Node000006" class="node">
<title>Node6</title>
<g id="a_Node000006"><a xlink:href="big__donut_2course__offsets_8inc_8c.html" target="_top" xlink:title=" ">
<polygon fill="white" stroke="#666666" points="547.5,-140 407.5,-140 407.5,-110 547.5,-110 547.5,-140"/>
<text text-anchor="start" x="415.5" y="-128" font-family="Helvetica,sans-Serif" font-size="10.00">courses/big_donut/course</text>
<text text-anchor="middle" x="477.5" y="-117" font-family="Helvetica,sans-Serif" font-size="10.00">_offsets.inc.c</text>
</a>
</g>
</g>
<!-- Node1&#45;&gt;Node6 -->
<g id="edge5_Node000001_Node000006" class="edge">
<title>Node1&#45;&gt;Node6</title>
<g id="a_edge5_Node000001_Node000006"><a xlink:title=" ">
<path fill="none" stroke="#63b8ff" d="M1708.11,-183.11C1474.91,-178.69 781.26,-163.87 556.5,-140 553.59,-139.69 550.63,-139.34 547.64,-138.95"/>
<polygon fill="#63b8ff" stroke="#63b8ff" points="1708.14,-186.61 1718.2,-183.3 1708.27,-179.61 1708.14,-186.61"/>
</a>
</g>
</g>
<!-- Node7 -->
<g id="Node000007" class="node">
<title>Node7</title>
<g id="a_Node000007"><a xlink:href="block__fort_2course__offsets_8inc_8c.html" target="_top" xlink:title=" ">
<polygon fill="white" stroke="#666666" points="681.5,-140 565.5,-140 565.5,-110 681.5,-110 681.5,-140"/>
<text text-anchor="start" x="573.5" y="-128" font-family="Helvetica,sans-Serif" font-size="10.00">courses/block_fort</text>
<text text-anchor="middle" x="623.5" y="-117" font-family="Helvetica,sans-Serif" font-size="10.00">/course_offsets.inc.c</text>
</a>
</g>
</g>
<!-- Node1&#45;&gt;Node7 -->
<g id="edge6_Node000001_Node000007" class="edge">
<title>Node1&#45;&gt;Node7</title>
<g id="a_edge6_Node000001_Node000007"><a xlink:title=" ">
<path fill="none" stroke="#63b8ff" d="M1708.13,-183.02C1492.52,-178.63 887.77,-164.45 690.5,-140 687.55,-139.63 684.54,-139.21 681.51,-138.73"/>
<polygon fill="#63b8ff" stroke="#63b8ff" points="1708.34,-186.53 1718.41,-183.23 1708.48,-179.53 1708.34,-186.53"/>
</a>
</g>
</g>
<!-- Node8 -->
<g id="Node000008" class="node">
<title>Node8</title>
<g id="a_Node000008"><a xlink:href="bowsers__castle_2course__offsets_8inc_8c.html" target="_top" xlink:title=" ">
<polygon fill="white" stroke="#666666" points="831.5,-140 699.5,-140 699.5,-110 831.5,-110 831.5,-140"/>
<text text-anchor="start" x="707.5" y="-128" font-family="Helvetica,sans-Serif" font-size="10.00">courses/bowsers_castle</text>
<text text-anchor="middle" x="765.5" y="-117" font-family="Helvetica,sans-Serif" font-size="10.00">/course_offsets.inc.c</text>
</a>
</g>
</g>
<!-- Node1&#45;&gt;Node8 -->
<g id="edge7_Node000001_Node000008" class="edge">
<title>Node1&#45;&gt;Node8</title>
<g id="a_edge7_Node000001_Node000008"><a xlink:title=" ">
<path fill="none" stroke="#63b8ff" d="M1707.88,-184.45C1546.04,-183.55 1160.98,-177.28 840.5,-140 837.61,-139.66 834.65,-139.28 831.68,-138.86"/>
<polygon fill="#63b8ff" stroke="#63b8ff" points="1708.2,-187.95 1718.21,-184.5 1708.23,-180.95 1708.2,-187.95"/>
</a>
</g>
</g>
<!-- Node9 -->
<g id="Node000009" class="node">
<title>Node9</title>
<g id="a_Node000009"><a xlink:href="choco__mountain_2course__offsets_8inc_8c.html" target="_top" xlink:title=" ">
<polygon fill="white" stroke="#666666" points="987,-140 850,-140 850,-110 987,-110 987,-140"/>
<text text-anchor="start" x="858" y="-128" font-family="Helvetica,sans-Serif" font-size="10.00">courses/choco_mountain</text>
<text text-anchor="middle" x="918.5" y="-117" font-family="Helvetica,sans-Serif" font-size="10.00">/course_offsets.inc.c</text>
</a>
</g>
</g>
<!-- Node1&#45;&gt;Node9 -->
<g id="edge8_Node000001_Node000009" class="edge">
<title>Node1&#45;&gt;Node9</title>
<g id="a_edge8_Node000001_Node000009"><a xlink:title=" ">
<path fill="none" stroke="#63b8ff" d="M1708.09,-183.31C1566.28,-180.43 1255.51,-170.84 995.5,-140 992.8,-139.68 990.05,-139.32 987.28,-138.94"/>
<polygon fill="#63b8ff" stroke="#63b8ff" points="1708.34,-186.82 1718.41,-183.51 1708.48,-179.82 1708.34,-186.82"/>
</a>
</g>
</g>
<!-- Node10 -->
<g id="Node000010" class="node">
<title>Node10</title>
<g id="a_Node000010"><a xlink:href="dks__jungle__parkway_2course__offsets_8inc_8c.html" target="_top" xlink:title=" ">
<polygon fill="white" stroke="#666666" points="1168,-140 1005,-140 1005,-110 1168,-110 1168,-140"/>
<text text-anchor="start" x="1013" y="-128" font-family="Helvetica,sans-Serif" font-size="10.00">courses/dks_jungle</text>
<text text-anchor="middle" x="1086.5" y="-117" font-family="Helvetica,sans-Serif" font-size="10.00">_parkway/course_offsets.inc.c</text>
</a>
</g>
</g>
<!-- Node1&#45;&gt;Node10 -->
<g id="edge9_Node000001_Node000010" class="edge">
<title>Node1&#45;&gt;Node10</title>
<g id="a_edge9_Node000001_Node000010"><a xlink:title=" ">
<path fill="none" stroke="#63b8ff" d="M1708.01,-180.86C1592.12,-174.96 1366.93,-161.73 1176.5,-140 1173.83,-139.7 1171.12,-139.37 1168.38,-139.03"/>
<polygon fill="#63b8ff" stroke="#63b8ff" points="1708.03,-184.37 1718.2,-181.38 1708.39,-177.38 1708.03,-184.37"/>
</a>
</g>
</g>
<!-- Node11 -->
<g id="Node000011" class="node">
<title>Node11</title>
<g id="a_Node000011"><a xlink:href="double__deck_2course__offsets_8inc_8c.html" target="_top" xlink:title=" ">
<polygon fill="white" stroke="#666666" points="1305,-140 1186,-140 1186,-110 1305,-110 1305,-140"/>
<text text-anchor="start" x="1194" y="-128" font-family="Helvetica,sans-Serif" font-size="10.00">courses/double_deck</text>
<text text-anchor="middle" x="1245.5" y="-117" font-family="Helvetica,sans-Serif" font-size="10.00">/course_offsets.inc.c</text>
</a>
</g>
</g>
<!-- Node1&#45;&gt;Node11 -->
<g id="edge10_Node000001_Node000011" class="edge">
<title>Node1&#45;&gt;Node11</title>
<g id="a_edge10_Node000001_Node000011"><a xlink:title=" ">
<path fill="none" stroke="#63b8ff" d="M1707.92,-179.7C1614.31,-173.33 1452.33,-160.43 1314.5,-140 1311.48,-139.55 1308.39,-139.06 1305.27,-138.53"/>
<polygon fill="#63b8ff" stroke="#63b8ff" points="1707.94,-183.21 1718.15,-180.39 1708.41,-176.23 1707.94,-183.21"/>
</a>
</g>
</g>
<!-- Node12 -->
<g id="Node000012" class="node">
<title>Node12</title>
<g id="a_Node000012"><a xlink:href="frappe__snowland_2course__offsets_8inc_8c.html" target="_top" xlink:title=" ">
<polygon fill="white" stroke="#666666" points="1463.5,-140 1323.5,-140 1323.5,-110 1463.5,-110 1463.5,-140"/>
<text text-anchor="start" x="1331.5" y="-128" font-family="Helvetica,sans-Serif" font-size="10.00">courses/frappe_snowland</text>
<text text-anchor="middle" x="1393.5" y="-117" font-family="Helvetica,sans-Serif" font-size="10.00">/course_offsets.inc.c</text>
</a>
</g>
</g>
<!-- Node1&#45;&gt;Node12 -->
<g id="edge11_Node000001_Node000012" class="edge">
<title>Node1&#45;&gt;Node12</title>
<g id="a_edge11_Node000001_Node000012"><a xlink:title=" ">
<path fill="none" stroke="#63b8ff" d="M1711.04,-174.64C1647.55,-166.06 1553.92,-153 1472.5,-140 1469.61,-139.54 1466.67,-139.06 1463.69,-138.57"/>
<polygon fill="#63b8ff" stroke="#63b8ff" points="1710.58,-178.11 1720.96,-175.98 1711.52,-171.18 1710.58,-178.11"/>
</a>
</g>
</g>
<!-- Node13 -->
<g id="Node000013" class="node">
<title>Node13</title>
<g id="a_Node000013"><a xlink:href="kalimari__desert_2course__offsets_8inc_8c.html" target="_top" xlink:title=" ">
<polygon fill="white" stroke="#666666" points="1615,-140 1482,-140 1482,-110 1615,-110 1615,-140"/>
<text text-anchor="start" x="1490" y="-128" font-family="Helvetica,sans-Serif" font-size="10.00">courses/kalimari_desert</text>
<text text-anchor="middle" x="1548.5" y="-117" font-family="Helvetica,sans-Serif" font-size="10.00">/course_offsets.inc.c</text>
</a>
</g>
</g>
<!-- Node1&#45;&gt;Node13 -->
<g id="edge12_Node000001_Node000013" class="edge">
<title>Node1&#45;&gt;Node13</title>
<g id="a_edge12_Node000001_Node000013"><a xlink:title=" ">
<path fill="none" stroke="#63b8ff" d="M1741.19,-173.56C1702.84,-164.1 1647.14,-150.35 1605.48,-140.06"/>
<polygon fill="#63b8ff" stroke="#63b8ff" points="1740.49,-177 1751.04,-175.99 1742.17,-170.2 1740.49,-177"/>
</a>
</g>
</g>
<!-- Node14 -->
<g id="Node000014" class="node">
<title>Node14</title>
<g id="a_Node000014"><a xlink:href="koopa__troopa__beach_2course__offsets_8inc_8c.html" target="_top" xlink:title=" ">
<polygon fill="white" stroke="#666666" points="1783.5,-140 1633.5,-140 1633.5,-110 1783.5,-110 1783.5,-140"/>
<text text-anchor="start" x="1641.5" y="-128" font-family="Helvetica,sans-Serif" font-size="10.00">courses/koopa_troopa</text>
<text text-anchor="middle" x="1708.5" y="-117" font-family="Helvetica,sans-Serif" font-size="10.00">_beach/course_offsets.inc.c</text>
</a>
</g>
</g>
<!-- Node1&#45;&gt;Node14 -->
<g id="edge13_Node000001_Node000014" class="edge">
<title>Node1&#45;&gt;Node14</title>
<g id="a_edge13_Node000001_Node000014"><a xlink:title=" ">
<path fill="none" stroke="#63b8ff" d="M1766.11,-169.77C1754.15,-160.68 1738.89,-149.09 1727.08,-140.11"/>
<polygon fill="#63b8ff" stroke="#63b8ff" points="1764.06,-172.61 1774.14,-175.87 1768.29,-167.03 1764.06,-172.61"/>
</a>
</g>
</g>
<!-- Node15 -->
<g id="Node000015" class="node">
<title>Node15</title>
<g id="a_Node000015"><a xlink:href="luigi__raceway_2course__offsets_8inc_8c.html" target="_top" xlink:title=" ">
<polygon fill="white" stroke="#666666" points="1926,-140 1801,-140 1801,-110 1926,-110 1926,-140"/>
<text text-anchor="start" x="1809" y="-128" font-family="Helvetica,sans-Serif" font-size="10.00">courses/luigi_raceway</text>
<text text-anchor="middle" x="1863.5" y="-117" font-family="Helvetica,sans-Serif" font-size="10.00">/course_offsets.inc.c</text>
</a>
</g>
</g>
<!-- Node1&#45;&gt;Node15 -->
<g id="edge14_Node000001_Node000015" class="edge">
<title>Node1&#45;&gt;Node15</title>
<g id="a_edge14_Node000001_Node000015"><a xlink:title=" ">
<path fill="none" stroke="#63b8ff" d="M1805.14,-169.77C1817.26,-160.68 1832.72,-149.09 1844.68,-140.11"/>
<polygon fill="#63b8ff" stroke="#63b8ff" points="1802.91,-167.07 1797.01,-175.87 1807.11,-172.67 1802.91,-167.07"/>
</a>
</g>
</g>
<!-- Node16 -->
<g id="Node000016" class="node">
<title>Node16</title>
<g id="a_Node000016"><a xlink:href="mario__raceway_2course__offsets_8inc_8c.html" target="_top" xlink:title=" ">
<polygon fill="white" stroke="#666666" points="2076.5,-140 1944.5,-140 1944.5,-110 2076.5,-110 2076.5,-140"/>
<text text-anchor="start" x="1952.5" y="-128" font-family="Helvetica,sans-Serif" font-size="10.00">courses/mario_raceway</text>
<text text-anchor="middle" x="2010.5" y="-117" font-family="Helvetica,sans-Serif" font-size="10.00">/course_offsets.inc.c</text>
</a>
</g>
</g>
<!-- Node1&#45;&gt;Node16 -->
<g id="edge15_Node000001_Node000016" class="edge">
<title>Node1&#45;&gt;Node16</title>
<g id="a_edge15_Node000001_Node000016"><a xlink:title=" ">
<path fill="none" stroke="#63b8ff" d="M1828.03,-173.44C1864.42,-163.98 1917.02,-150.3 1956.41,-140.06"/>
<polygon fill="#63b8ff" stroke="#63b8ff" points="1827.01,-170.09 1818.22,-175.99 1828.78,-176.86 1827.01,-170.09"/>
</a>
</g>
</g>
<!-- Node17 -->
<g id="Node000017" class="node">
<title>Node17</title>
<g id="a_Node000017"><a xlink:href="moo__moo__farm_2course__offsets_8inc_8c.html" target="_top" xlink:title=" ">
<polygon fill="white" stroke="#666666" points="2228.5,-140 2094.5,-140 2094.5,-110 2228.5,-110 2228.5,-140"/>
<text text-anchor="start" x="2102.5" y="-128" font-family="Helvetica,sans-Serif" font-size="10.00">courses/moo_moo_farm</text>
<text text-anchor="middle" x="2161.5" y="-117" font-family="Helvetica,sans-Serif" font-size="10.00">/course_offsets.inc.c</text>
</a>
</g>
</g>
<!-- Node1&#45;&gt;Node17 -->
<g id="edge16_Node000001_Node000017" class="edge">
<title>Node1&#45;&gt;Node17</title>
<g id="a_edge16_Node000001_Node000017"><a xlink:title=" ">
<path fill="none" stroke="#63b8ff" d="M1857.63,-174.52C1918.47,-165.93 2007.8,-152.92 2085.5,-140 2088.41,-139.52 2091.38,-139.01 2094.39,-138.49"/>
<polygon fill="#63b8ff" stroke="#63b8ff" points="1856.78,-171.11 1847.36,-175.97 1857.75,-178.04 1856.78,-171.11"/>
</a>
</g>
</g>
<!-- Node18 -->
<g id="Node000018" class="node">
<title>Node18</title>
<g id="a_Node000018"><a xlink:href="rainbow__road_2course__offsets_8inc_8c.html" target="_top" xlink:title=" ">
<polygon fill="white" stroke="#666666" points="2370,-140 2247,-140 2247,-110 2370,-110 2370,-140"/>
<text text-anchor="start" x="2255" y="-128" font-family="Helvetica,sans-Serif" font-size="10.00">courses/rainbow_road</text>
<text text-anchor="middle" x="2308.5" y="-117" font-family="Helvetica,sans-Serif" font-size="10.00">/course_offsets.inc.c</text>
</a>
</g>
</g>
<!-- Node1&#45;&gt;Node18 -->
<g id="edge17_Node000001_Node000018" class="edge">
<title>Node1&#45;&gt;Node18</title>
<g id="a_edge17_Node000001_Node000018"><a xlink:title=" ">
<path fill="none" stroke="#63b8ff" d="M1862.9,-179.16C1953.14,-172.42 2106.62,-159.3 2237.5,-140 2240.61,-139.54 2243.78,-139.04 2246.99,-138.51"/>
<polygon fill="#63b8ff" stroke="#63b8ff" points="1862.47,-175.69 1852.76,-179.92 1862.99,-182.67 1862.47,-175.69"/>
</a>
</g>
</g>
<!-- Node19 -->
<g id="Node000019" class="node">
<title>Node19</title>
<g id="a_Node000019"><a xlink:href="royal__raceway_2course__offsets_8inc_8c.html" target="_top" xlink:title=" ">
<polygon fill="white" stroke="#666666" points="2516.5,-140 2388.5,-140 2388.5,-110 2516.5,-110 2516.5,-140"/>
<text text-anchor="start" x="2396.5" y="-128" font-family="Helvetica,sans-Serif" font-size="10.00">courses/royal_raceway</text>
<text text-anchor="middle" x="2452.5" y="-117" font-family="Helvetica,sans-Serif" font-size="10.00">/course_offsets.inc.c</text>
</a>
</g>
</g>
<!-- Node1&#45;&gt;Node19 -->
<g id="edge18_Node000001_Node000019" class="edge">
<title>Node1&#45;&gt;Node19</title>
<g id="a_edge18_Node000001_Node000019"><a xlink:title=" ">
<path fill="none" stroke="#63b8ff" d="M1863.22,-181.45C1976.8,-176.36 2194.62,-164.22 2378.5,-140 2381.74,-139.57 2385.05,-139.1 2388.4,-138.58"/>
<polygon fill="#63b8ff" stroke="#63b8ff" points="1862.73,-177.97 1852.9,-181.9 1863.04,-184.96 1862.73,-177.97"/>
</a>
</g>
</g>
<!-- Node20 -->
<g id="Node000020" class="node">
<title>Node20</title>
<g id="a_Node000020"><a xlink:href="sherbet__land_2course__offsets_8inc_8c.html" target="_top" xlink:title=" ">
<polygon fill="white" stroke="#666666" points="2654.5,-140 2534.5,-140 2534.5,-110 2654.5,-110 2654.5,-140"/>
<text text-anchor="start" x="2542.5" y="-128" font-family="Helvetica,sans-Serif" font-size="10.00">courses/sherbet_land</text>
<text text-anchor="middle" x="2594.5" y="-117" font-family="Helvetica,sans-Serif" font-size="10.00">/course_offsets.inc.c</text>
</a>
</g>
</g>
<!-- Node1&#45;&gt;Node20 -->
<g id="edge19_Node000001_Node000020" class="edge">
<title>Node1&#45;&gt;Node20</title>
<g id="a_edge19_Node000001_Node000020"><a xlink:title=" ">
<path fill="none" stroke="#63b8ff" d="M1862.87,-183.41C1997.91,-180.71 2285.14,-171.45 2525.5,-140 2528.41,-139.62 2531.38,-139.19 2534.37,-138.72"/>
<polygon fill="#63b8ff" stroke="#63b8ff" points="1862.56,-179.91 1852.63,-183.61 1862.7,-186.91 1862.56,-179.91"/>
</a>
</g>
</g>
<!-- Node21 -->
<g id="Node000021" class="node">
<title>Node21</title>
<g id="a_Node000021"><a xlink:href="skyscraper_2course__offsets_8inc_8c.html" target="_top" xlink:title=" ">
<polygon fill="white" stroke="#666666" points="2788.5,-140 2672.5,-140 2672.5,-110 2788.5,-110 2788.5,-140"/>
<text text-anchor="start" x="2680.5" y="-128" font-family="Helvetica,sans-Serif" font-size="10.00">courses/skyscraper</text>
<text text-anchor="middle" x="2730.5" y="-117" font-family="Helvetica,sans-Serif" font-size="10.00">/course_offsets.inc.c</text>
</a>
</g>
</g>
<!-- Node1&#45;&gt;Node21 -->
<g id="edge20_Node000001_Node000021" class="edge">
<title>Node1&#45;&gt;Node21</title>
<g id="a_edge20_Node000001_Node000021"><a xlink:title=" ">
<path fill="none" stroke="#63b8ff" d="M1862.99,-184.6C2016.45,-183.92 2369.59,-177.92 2663.5,-140 2666.45,-139.62 2669.46,-139.18 2672.49,-138.7"/>
<polygon fill="#63b8ff" stroke="#63b8ff" points="1862.72,-181.1 1852.73,-184.64 1862.74,-188.1 1862.72,-181.1"/>
</a>
</g>
</g>
<!-- Node22 -->
<g id="Node000022" class="node">
<title>Node22</title>
<g id="a_Node000022"><a xlink:href="toads__turnpike_2course__offsets_8inc_8c.html" target="_top" xlink:title=" ">
<polygon fill="white" stroke="#666666" points="2936,-140 2807,-140 2807,-110 2936,-110 2936,-140"/>
<text text-anchor="start" x="2815" y="-128" font-family="Helvetica,sans-Serif" font-size="10.00">courses/toads_turnpike</text>
<text text-anchor="middle" x="2871.5" y="-117" font-family="Helvetica,sans-Serif" font-size="10.00">/course_offsets.inc.c</text>
</a>
</g>
</g>
<!-- Node1&#45;&gt;Node22 -->
<g id="edge21_Node000001_Node000022" class="edge">
<title>Node1&#45;&gt;Node22</title>
<g id="a_edge21_Node000001_Node000022"><a xlink:title=" ">
<path fill="none" stroke="#63b8ff" d="M1862.76,-184.86C2032.48,-184.83 2450.4,-180.26 2797.5,-140 2800.49,-139.65 2803.54,-139.26 2806.61,-138.82"/>
<polygon fill="#63b8ff" stroke="#63b8ff" points="1862.67,-181.36 1852.67,-184.86 1862.67,-188.36 1862.67,-181.36"/>
</a>
</g>
</g>
<!-- Node23 -->
<g id="Node000023" class="node">
<title>Node23</title>
<g id="a_Node000023"><a xlink:href="wario__stadium_2course__offsets_8inc_8c.html" target="_top" xlink:title=" ">
<polygon fill="white" stroke="#666666" points="3083,-140 2954,-140 2954,-110 3083,-110 3083,-140"/>
<text text-anchor="start" x="2962" y="-128" font-family="Helvetica,sans-Serif" font-size="10.00">courses/wario_stadium</text>
<text text-anchor="middle" x="3018.5" y="-117" font-family="Helvetica,sans-Serif" font-size="10.00">/course_offsets.inc.c</text>
</a>
</g>
</g>
<!-- Node1&#45;&gt;Node23 -->
<g id="edge22_Node000001_Node000023" class="edge">
<title>Node1&#45;&gt;Node23</title>
<g id="a_edge22_Node000001_Node000023"><a xlink:title=" ">
<path fill="none" stroke="#63b8ff" d="M1862.71,-183.03C2086.69,-178.54 2734.02,-163.82 2944.5,-140 2947.49,-139.66 2950.54,-139.27 2953.61,-138.84"/>
<polygon fill="#63b8ff" stroke="#63b8ff" points="1862.62,-179.53 1852.69,-183.23 1862.76,-186.53 1862.62,-179.53"/>
</a>
</g>
</g>
<!-- Node24 -->
<g id="Node000024" class="node">
<title>Node24</title>
<g id="a_Node000024"><a xlink:href="yoshi__valley_2course__offsets_8inc_8c.html" target="_top" xlink:title=" ">
<polygon fill="white" stroke="#666666" points="3220,-140 3101,-140 3101,-110 3220,-110 3220,-140"/>
<text text-anchor="start" x="3109" y="-128" font-family="Helvetica,sans-Serif" font-size="10.00">courses/yoshi_valley</text>
<text text-anchor="middle" x="3160.5" y="-117" font-family="Helvetica,sans-Serif" font-size="10.00">/course_offsets.inc.c</text>
</a>
</g>
</g>
<!-- Node1&#45;&gt;Node24 -->
<g id="edge23_Node000001_Node000024" class="edge">
<title>Node1&#45;&gt;Node24</title>
<g id="a_edge23_Node000001_Node000024"><a xlink:title=" ">
<path fill="none" stroke="#63b8ff" d="M1862.71,-183.55C2105.46,-180.31 2851.33,-168.26 3091.5,-140 3094.53,-139.64 3097.64,-139.22 3100.76,-138.75"/>
<polygon fill="#63b8ff" stroke="#63b8ff" points="1862.52,-180.06 1852.56,-183.69 1862.61,-187.06 1862.52,-180.06"/>
</a>
</g>
</g>
<!-- Node25 -->
<g id="Node000025" class="node">
<title>Node25</title>
<g id="a_Node000025"><a xlink:href="all__variables_8h.html" target="_top" xlink:title=" ">
<polygon fill="white" stroke="#666666" points="3376.5,-134.5 3238.5,-134.5 3238.5,-115.5 3376.5,-115.5 3376.5,-134.5"/>
<text text-anchor="middle" x="3307.5" y="-122.5" font-family="Helvetica,sans-Serif" font-size="10.00">src/debug/all_variables.h</text>
</a>
</g>
</g>
<!-- Node1&#45;&gt;Node25 -->
<g id="edge24_Node000001_Node000025" class="edge">
<title>Node1&#45;&gt;Node25</title>
<g id="a_edge24_Node000001_Node000025"><a xlink:title=" ">
<path fill="none" stroke="#63b8ff" d="M1862.71,-183.59C2121.95,-180.31 2960.03,-167.78 3228.5,-140 3240.69,-138.74 3253.84,-136.69 3265.84,-134.54"/>
<polygon fill="#63b8ff" stroke="#63b8ff" points="1862.59,-180.09 1852.63,-183.72 1862.67,-187.09 1862.59,-180.09"/>
</a>
</g>
</g>
<!-- Node3 -->
<g id="Node000003" class="node">
<title>Node3</title>
<g id="a_Node000003"><a xlink:href="code__80281780_8c.html" target="_top" xlink:title=" ">
<polygon fill="white" stroke="#666666" points="155,-74 0,-74 0,-55 155,-55 155,-74"/>
<text text-anchor="middle" x="77.5" y="-62" font-family="Helvetica,sans-Serif" font-size="10.00">src/ending/code_80281780.c</text>
</a>
</g>
</g>
<!-- Node2&#45;&gt;Node3 -->
<g id="edge2_Node000002_Node000003" class="edge">
<title>Node2&#45;&gt;Node3</title>
<g id="a_edge2_Node000002_Node000003"><a xlink:title=" ">
<path fill="none" stroke="#63b8ff" d="M133.59,-104.1C118.84,-93.95 101.66,-82.13 90.24,-74.27"/>
<polygon fill="#63b8ff" stroke="#63b8ff" points="131.7,-107.05 141.92,-109.84 135.67,-101.29 131.7,-107.05"/>
</a>
</g>
</g>
<!-- Node4 -->
<g id="Node000004" class="node">
<title>Node4</title>
<g id="a_Node000004"><a xlink:href="render__courses_8c.html" target="_top" xlink:title=" ">
<polygon fill="white" stroke="#666666" points="322,-74 173,-74 173,-55 322,-55 322,-74"/>
<text text-anchor="middle" x="247.5" y="-62" font-family="Helvetica,sans-Serif" font-size="10.00">src/racing/render_courses.c</text>
</a>
</g>
</g>
<!-- Node2&#45;&gt;Node4 -->
<g id="edge3_Node000002_Node000004" class="edge">
<title>Node2&#45;&gt;Node4</title>
<g id="a_edge3_Node000002_Node000004"><a xlink:title=" ">
<path fill="none" stroke="#63b8ff" d="M191.41,-104.1C206.16,-93.95 223.34,-82.13 234.76,-74.27"/>
<polygon fill="#63b8ff" stroke="#63b8ff" points="189.33,-101.29 183.08,-109.84 193.3,-107.05 189.33,-101.29"/>
</a>
</g>
</g>
<!-- Node26 -->
<g id="Node000026" class="node">
<title>Node26</title>
<g id="a_Node000026"><a xlink:href="debug_8inc_8c.html" target="_top" xlink:title=" ">
<polygon fill="white" stroke="#666666" points="3368.5,-74 3246.5,-74 3246.5,-55 3368.5,-55 3368.5,-74"/>
<text text-anchor="middle" x="3307.5" y="-62" font-family="Helvetica,sans-Serif" font-size="10.00">src/debug/debug.inc.c</text>
</a>
</g>
</g>
<!-- Node25&#45;&gt;Node26 -->
<g id="edge25_Node000025_Node000026" class="edge">
<title>Node25&#45;&gt;Node26</title>
<g id="a_edge25_Node000025_Node000026"><a xlink:title=" ">
<path fill="none" stroke="#63b8ff" d="M3307.5,-105.16C3307.5,-94.74 3307.5,-82.3 3307.5,-74.17"/>
<polygon fill="#63b8ff" stroke="#63b8ff" points="3304,-105.37 3307.5,-115.37 3311,-105.37 3304,-105.37"/>
</a>
</g>
</g>
<!-- Node27 -->
<g id="Node000027" class="node">
<title>Node27</title>
<g id="a_Node000027"><a xlink:href="debug_8c.html" target="_top" xlink:title=" ">
<polygon fill="white" stroke="#666666" points="3360,-19 3255,-19 3255,0 3360,0 3360,-19"/>
<text text-anchor="middle" x="3307.5" y="-7" font-family="Helvetica,sans-Serif" font-size="10.00">src/debug/debug.c</text>
</a>
</g>
</g>
<!-- Node26&#45;&gt;Node27 -->
<g id="edge26_Node000026_Node000027" class="edge">
<title>Node26&#45;&gt;Node27</title>
<g id="a_edge26_Node000026_Node000027"><a xlink:title=" ">
<path fill="none" stroke="#63b8ff" d="M3307.5,-44.66C3307.5,-35.93 3307.5,-25.99 3307.5,-19.09"/>
<polygon fill="#63b8ff" stroke="#63b8ff" points="3304,-44.75 3307.5,-54.75 3311,-44.75 3304,-44.75"/>
</a>
</g>
</g>
</g>
</svg>

<g id="navigator" transform="translate(0 0)" fill="#404254">
  <rect fill="#f2f5e9" fill-opacity="0.5" stroke="#606060" stroke-width=".5" x="0" y="0" width="60" height="60"/>
  <use id="zoomplus" xlink:href="#zoomPlus" x="17" y="9" onmousedown="handleZoom(evt,'in')"/>
  <use id="zoomminus" xlink:href="#zoomMin" x="42" y="9" onmousedown="handleZoom(evt,'out')"/>
  <use id="reset" xlink:href="#resetDef" x="30" y="36" onmousedown="handleReset()"/>
   <use id="arrowup" xlink:href="#arrowUp" x="0" y="0" onmousedown="handlePan(0,-1)"/>
  <use id="arrowright" xlink:href="#arrowRight" x="0" y="0" onmousedown="handlePan(1,0)"/>
  <use id="arrowdown" xlink:href="#arrowDown" x="0" y="0" onmousedown="handlePan(0,1)"/>
  <use id="arrowleft" xlink:href="#arrowLeft" x="0" y="0" onmousedown="handlePan(-1,0)"/>
</g>
<svg viewBox="0 0 15 15" width="100%" height="30px" preserveAspectRatio="xMaxYMin meet">
 <g id="arrow_out" transform="scale(0.3 0.3)">
  <a xlink:href="course__offsets_8h__dep__incl_org.svg" target="_base">
   <rect id="button" ry="5" rx="5" y="6" x="6" height="38" width="38"
        fill="#f2f5e9" fill-opacity="0.5" stroke="#606060" stroke-width="1.0"/>
   <path id="arrow"
     d="M 11.500037,31.436501 C 11.940474,20.09759 22.043105,11.32322 32.158766,21.979434 L 37.068811,17.246167 C 37.068811,17.246167 37.088388,32 37.088388,32 L 22.160133,31.978069 C 22.160133,31.978069 26.997745,27.140456 26.997745,27.140456 C 18.528582,18.264221 13.291696,25.230495 11.500037,31.436501 z"
     style="fill:#404040;"/>
  </a>
 </g>
</svg>

<style type='text/css'>
<![CDATA[
[data-mouse-over-selected='false'] { opacity: 0.7; }
[data-mouse-over-selected='true']  { opacity: 1.0; }
]]>
</style>
<script type="application/ecmascript"><![CDATA[
document.addEventListener('DOMContentLoaded', (event) => {
  highlightEdges();
  highlightAdjacentNodes();
});
]]></script>
</svg>
