<?xml version="1.0" encoding="UTF-8" standalone="no"?>
<!DOCTYPE svg PUBLIC "-//W3C//DTD SVG 1.1//EN"
 "http://www.w3.org/Graphics/SVG/1.1/DTD/svg11.dtd">
<!-- Generated by graphviz version 2.43.0 (0)
 -->
<!-- Title: func_80090868 Pages: 1 -->
<svg width="1628pt" height="298pt"
 viewBox="0.00 0.00 1628.00 298.00" xmlns="http://www.w3.org/2000/svg" xmlns:xlink="http://www.w3.org/1999/xlink">
<g id="graph0" class="graph" transform="scale(1 1) rotate(0) translate(4 294)">
<title>func_80090868</title>
<!-- Node1 -->
<g id="Node000001" class="node">
<title>Node1</title>
<g id="a_Node000001"><a xlink:title=" ">
<polygon fill="#999999" stroke="#666666" points="1620,-86 1529,-86 1529,-67 1620,-67 1620,-86"/>
<text text-anchor="middle" x="1574.5" y="-74" font-family="Helvetica,sans-Serif" font-size="10.00">func_80090868</text>
</a>
</g>
</g>
<!-- Node2 -->
<g id="Node000002" class="node">
<title>Node2</title>
<g id="a_Node000002"><a xlink:href="player__controller_8c.html#aa3c944dd9f5b01d337472bdaa34389e1" target="_top" xlink:title=" ">
<polygon fill="white" stroke="#666666" points="1485.5,-153 1393.5,-153 1393.5,-134 1485.5,-134 1485.5,-153"/>
<text text-anchor="middle" x="1439.5" y="-141" font-family="Helvetica,sans-Serif" font-size="10.00">func_8002C4F8</text>
</a>
</g>
</g>
<!-- Node1&#45;&gt;Node2 -->
<g id="edge1_Node000001_Node000002" class="edge">
<title>Node1&#45;&gt;Node2</title>
<g id="a_edge1_Node000001_Node000002"><a xlink:title=" ">
<path fill="none" stroke="#63b8ff" d="M1550.87,-91.58C1535.08,-101.7 1513.28,-114.89 1493,-124.5 1485.73,-127.94 1477.65,-131.15 1470.06,-133.92"/>
<polygon fill="#63b8ff" stroke="#63b8ff" points="1552.94,-94.41 1559.41,-86.03 1549.12,-88.54 1552.94,-94.41"/>
</a>
</g>
</g>
<!-- Node25 -->
<g id="Node000025" class="node">
<title>Node25</title>
<g id="a_Node000025"><a xlink:href="effects_8c.html#afaeabb9e08b6568f56117c24edad5945" target="_top" xlink:title=" ">
<polygon fill="white" stroke="#666666" points="1485,-19 1394,-19 1394,0 1485,0 1485,-19"/>
<text text-anchor="middle" x="1439.5" y="-7" font-family="Helvetica,sans-Serif" font-size="10.00">func_8008F3F4</text>
</a>
</g>
</g>
<!-- Node1&#45;&gt;Node25 -->
<g id="edge35_Node000001_Node000025" class="edge">
<title>Node1&#45;&gt;Node25</title>
<g id="a_edge35_Node000001_Node000025"><a xlink:title=" ">
<path fill="none" stroke="#63b8ff" d="M1550.87,-61.42C1535.08,-51.3 1513.28,-38.11 1493,-28.5 1485.73,-25.06 1477.65,-21.85 1470.06,-19.08"/>
<polygon fill="#63b8ff" stroke="#63b8ff" points="1549.12,-64.46 1559.41,-66.97 1552.94,-58.59 1549.12,-64.46"/>
</a>
</g>
</g>
<!-- Node26 -->
<g id="Node000026" class="node">
<title>Node26</title>
<g id="a_Node000026"><a xlink:href="code__80071F00_8c.html#aa877563f476c1017e763b930b16a1e1a" target="_top" xlink:title=" ">
<polygon fill="white" stroke="#666666" points="1493,-67.5 1386,-67.5 1386,-37.5 1493,-37.5 1493,-67.5"/>
<text text-anchor="start" x="1394" y="-55.5" font-family="Helvetica,sans-Serif" font-size="10.00">update_obj_laikitu</text>
<text text-anchor="middle" x="1439.5" y="-44.5" font-family="Helvetica,sans-Serif" font-size="10.00">_fishing</text>
</a>
</g>
</g>
<!-- Node1&#45;&gt;Node26 -->
<g id="edge36_Node000001_Node000026" class="edge">
<title>Node1&#45;&gt;Node26</title>
<g id="a_edge36_Node000001_Node000026"><a xlink:title=" ">
<path fill="none" stroke="#63b8ff" d="M1518.97,-66.66C1510.42,-65.12 1501.6,-63.53 1493.09,-61.99"/>
<polygon fill="#63b8ff" stroke="#63b8ff" points="1518.38,-70.11 1528.84,-68.44 1519.62,-63.22 1518.38,-70.11"/>
</a>
</g>
</g>
<!-- Node32 -->
<g id="Node000032" class="node">
<title>Node32</title>
<g id="a_Node000032"><a xlink:href="code__80071F00_8c.html#ac65787e8ce499460590fe4aa7d12aad6" target="_top" xlink:title=" ">
<polygon fill="white" stroke="#666666" points="1493,-115.5 1386,-115.5 1386,-85.5 1493,-85.5 1493,-115.5"/>
<text text-anchor="start" x="1394" y="-103.5" font-family="Helvetica,sans-Serif" font-size="10.00">update_obj_laikitu</text>
<text text-anchor="middle" x="1439.5" y="-92.5" font-family="Helvetica,sans-Serif" font-size="10.00">_fishing2</text>
</a>
</g>
</g>
<!-- Node1&#45;&gt;Node32 -->
<g id="edge45_Node000001_Node000032" class="edge">
<title>Node1&#45;&gt;Node32</title>
<g id="a_edge45_Node000001_Node000032"><a xlink:title=" ">
<path fill="none" stroke="#63b8ff" d="M1518.97,-86.34C1510.42,-87.88 1501.6,-89.47 1493.09,-91.01"/>
<polygon fill="#63b8ff" stroke="#63b8ff" points="1519.62,-89.78 1528.84,-84.56 1518.38,-82.89 1519.62,-89.78"/>
</a>
</g>
</g>
<!-- Node3 -->
<g id="Node000003" class="node">
<title>Node3</title>
<g id="a_Node000003"><a xlink:href="player__controller_8c.html#aafe8b94ccd61104120a9bf0ee954a901" target="_top" xlink:title=" ">
<polygon fill="white" stroke="#666666" points="1342.5,-190 1250.5,-190 1250.5,-171 1342.5,-171 1342.5,-190"/>
<text text-anchor="middle" x="1296.5" y="-178" font-family="Helvetica,sans-Serif" font-size="10.00">func_8002D268</text>
</a>
</g>
</g>
<!-- Node2&#45;&gt;Node3 -->
<g id="edge2_Node000002_Node000003" class="edge">
<title>Node2&#45;&gt;Node3</title>
<g id="a_edge2_Node000002_Node000003"><a xlink:title=" ">
<path fill="none" stroke="#63b8ff" d="M1392.31,-155.62C1373.45,-160.57 1351.94,-166.22 1334.18,-170.88"/>
<polygon fill="#63b8ff" stroke="#63b8ff" points="1393.4,-158.95 1402.19,-153.03 1391.63,-152.18 1393.4,-158.95"/>
</a>
</g>
</g>
<!-- Node23 -->
<g id="Node000023" class="node">
<title>Node23</title>
<g id="a_Node000023"><a xlink:href="player__controller_8c.html#a5bc20a94d467b8daf131fe16ab6a83d7" target="_top" xlink:title=" ">
<polygon fill="white" stroke="#666666" points="1342,-153 1251,-153 1251,-134 1342,-134 1342,-153"/>
<text text-anchor="middle" x="1296.5" y="-141" font-family="Helvetica,sans-Serif" font-size="10.00">func_8002E594</text>
</a>
</g>
</g>
<!-- Node2&#45;&gt;Node23 -->
<g id="edge29_Node000002_Node000023" class="edge">
<title>Node2&#45;&gt;Node23</title>
<g id="a_edge29_Node000002_Node000023"><a xlink:title=" ">
<path fill="none" stroke="#63b8ff" d="M1383.25,-143.5C1369.6,-143.5 1355.15,-143.5 1342.07,-143.5"/>
<polygon fill="#63b8ff" stroke="#63b8ff" points="1383.5,-147 1393.5,-143.5 1383.5,-140 1383.5,-147"/>
</a>
</g>
</g>
<!-- Node24 -->
<g id="Node000024" class="node">
<title>Node24</title>
<g id="a_Node000024"><a xlink:href="player__controller_8c.html#a105e6b6fca9198633b8990b0da71cd25" target="_top" xlink:title=" ">
<polygon fill="white" stroke="#666666" points="1342.5,-111 1250.5,-111 1250.5,-92 1342.5,-92 1342.5,-111"/>
<text text-anchor="middle" x="1296.5" y="-99" font-family="Helvetica,sans-Serif" font-size="10.00">func_80038C6C</text>
</a>
</g>
</g>
<!-- Node2&#45;&gt;Node24 -->
<g id="edge33_Node000002_Node000024" class="edge">
<title>Node2&#45;&gt;Node24</title>
<g id="a_edge33_Node000002_Node000024"><a xlink:title=" ">
<path fill="none" stroke="#63b8ff" d="M1396.71,-131.05C1375.33,-124.68 1349.71,-117.05 1329.86,-111.14"/>
<polygon fill="#63b8ff" stroke="#63b8ff" points="1395.92,-134.47 1406.5,-133.97 1397.92,-127.76 1395.92,-134.47"/>
</a>
</g>
</g>
<!-- Node4 -->
<g id="Node000004" class="node">
<title>Node4</title>
<g id="a_Node000004"><a xlink:href="player__controller_8c.html#a9f21890266acabb27e962652c5ef4cfc" target="_top" xlink:title=" ">
<polygon fill="white" stroke="#666666" points="1206,-186 1115,-186 1115,-167 1206,-167 1206,-186"/>
<text text-anchor="middle" x="1160.5" y="-174" font-family="Helvetica,sans-Serif" font-size="10.00">func_80028864</text>
</a>
</g>
</g>
<!-- Node3&#45;&gt;Node4 -->
<g id="edge3_Node000003_Node000004" class="edge">
<title>Node3&#45;&gt;Node4</title>
<g id="a_edge3_Node000003_Node000004"><a xlink:title=" ">
<path fill="none" stroke="#63b8ff" d="M1240,-178.84C1228.8,-178.51 1217.15,-178.16 1206.36,-177.84"/>
<polygon fill="#63b8ff" stroke="#63b8ff" points="1240.03,-182.35 1250.13,-179.15 1240.24,-175.35 1240.03,-182.35"/>
</a>
</g>
</g>
<!-- Node16 -->
<g id="Node000016" class="node">
<title>Node16</title>
<g id="a_Node000016"><a xlink:href="player__controller_8c.html#a76e0206999fca6c9de4d4bef2c4620ce" target="_top" xlink:title=" ">
<polygon fill="white" stroke="#666666" points="1206.5,-149 1114.5,-149 1114.5,-130 1206.5,-130 1206.5,-149"/>
<text text-anchor="middle" x="1160.5" y="-137" font-family="Helvetica,sans-Serif" font-size="10.00">func_80028C44</text>
</a>
</g>
</g>
<!-- Node3&#45;&gt;Node16 -->
<g id="edge18_Node000003_Node000016" class="edge">
<title>Node3&#45;&gt;Node16</title>
<g id="a_edge18_Node000003_Node000016"><a xlink:title=" ">
<path fill="none" stroke="#63b8ff" d="M1254.7,-168.02C1234.84,-161.94 1211.32,-154.74 1192.87,-149.1"/>
<polygon fill="#63b8ff" stroke="#63b8ff" points="1253.83,-171.41 1264.42,-170.99 1255.88,-164.72 1253.83,-171.41"/>
</a>
</g>
</g>
<!-- Node17 -->
<g id="Node000017" class="node">
<title>Node17</title>
<g id="a_Node000017"><a xlink:href="player__controller_8c.html#ae531f1b044d00354a79cb3f88b81fa12" target="_top" xlink:title=" ">
<polygon fill="white" stroke="#666666" points="1207,-223 1114,-223 1114,-204 1207,-204 1207,-223"/>
<text text-anchor="middle" x="1160.5" y="-211" font-family="Helvetica,sans-Serif" font-size="10.00">func_80028D3C</text>
</a>
</g>
</g>
<!-- Node3&#45;&gt;Node17 -->
<g id="edge20_Node000003_Node000017" class="edge">
<title>Node3&#45;&gt;Node17</title>
<g id="a_edge20_Node000003_Node000017"><a xlink:title=" ">
<path fill="none" stroke="#63b8ff" d="M1246.88,-192.47C1231.51,-196.26 1214.75,-200.39 1200.17,-203.98"/>
<polygon fill="#63b8ff" stroke="#63b8ff" points="1247.87,-195.83 1256.74,-190.04 1246.19,-189.04 1247.87,-195.83"/>
</a>
</g>
</g>
<!-- Node18 -->
<g id="Node000018" class="node">
<title>Node18</title>
<g id="a_Node000018"><a xlink:href="spawn__players_8c.html#a786871d4fec99acdd5a14b48c1c38a7c" target="_top" xlink:title=" ">
<polygon fill="white" stroke="#666666" points="1207,-260 1114,-260 1114,-241 1207,-241 1207,-260"/>
<text text-anchor="middle" x="1160.5" y="-248" font-family="Helvetica,sans-Serif" font-size="10.00">func_8003CD98</text>
</a>
</g>
</g>
<!-- Node3&#45;&gt;Node18 -->
<g id="edge22_Node000003_Node000018" class="edge">
<title>Node3&#45;&gt;Node18</title>
<g id="a_edge22_Node000003_Node000018"><a xlink:title=" ">
<path fill="none" stroke="#63b8ff" d="M1272.4,-195.4C1254.85,-206.4 1229.91,-221.32 1207,-232.5 1200.89,-235.48 1194.16,-238.36 1187.79,-240.9"/>
<polygon fill="#63b8ff" stroke="#63b8ff" points="1274.28,-198.36 1280.85,-190.06 1270.53,-192.44 1274.28,-198.36"/>
</a>
</g>
</g>
<!-- Node5 -->
<g id="Node000005" class="node">
<title>Node5</title>
<g id="a_Node000005"><a xlink:href="player__controller_8c.html#af9d8e2fa807dab2737045c3c2517a46e" target="_top" xlink:title=" ">
<polygon fill="white" stroke="#666666" points="1077.5,-179 986.5,-179 986.5,-160 1077.5,-160 1077.5,-179"/>
<text text-anchor="middle" x="1032" y="-167" font-family="Helvetica,sans-Serif" font-size="10.00">func_80028E70</text>
</a>
</g>
</g>
<!-- Node4&#45;&gt;Node5 -->
<g id="edge4_Node000004_Node000005" class="edge">
<title>Node4&#45;&gt;Node5</title>
<g id="a_edge4_Node000004_Node000005"><a xlink:title=" ">
<path fill="none" stroke="#63b8ff" d="M1104.8,-173.47C1095.72,-172.97 1086.41,-172.46 1077.62,-171.97"/>
<polygon fill="#63b8ff" stroke="#63b8ff" points="1104.72,-176.97 1114.9,-174.03 1105.11,-169.98 1104.72,-176.97"/>
</a>
</g>
</g>
<!-- Node6 -->
<g id="Node000006" class="node">
<title>Node6</title>
<g id="a_Node000006"><a xlink:href="player__controller_8c.html#a60b22a77aa4cf0b2be0942a3e115a1eb" target="_top" xlink:title=" ">
<polygon fill="white" stroke="#666666" points="925.5,-142 834.5,-142 834.5,-123 925.5,-123 925.5,-142"/>
<text text-anchor="middle" x="880" y="-130" font-family="Helvetica,sans-Serif" font-size="10.00">func_80028F70</text>
</a>
</g>
</g>
<!-- Node5&#45;&gt;Node6 -->
<g id="edge5_Node000005_Node000006" class="edge">
<title>Node5&#45;&gt;Node6</title>
<g id="a_edge5_Node000005_Node000006"><a xlink:title=" ">
<path fill="none" stroke="#63b8ff" d="M982.66,-157.57C962.31,-152.56 938.95,-146.79 919.76,-142.06"/>
<polygon fill="#63b8ff" stroke="#63b8ff" points="981.82,-160.97 992.37,-159.97 983.5,-154.18 981.82,-160.97"/>
</a>
</g>
</g>
<!-- Node14 -->
<g id="Node000014" class="node">
<title>Node14</title>
<g id="a_Node000014"><a xlink:href="player__controller_8c.html#ac7bf3fa7a7efacb6f6bad44477c2c7ed" target="_top" xlink:title=" ">
<polygon fill="white" stroke="#666666" points="925.5,-179 834.5,-179 834.5,-160 925.5,-160 925.5,-179"/>
<text text-anchor="middle" x="880" y="-167" font-family="Helvetica,sans-Serif" font-size="10.00">func_80029060</text>
</a>
</g>
</g>
<!-- Node5&#45;&gt;Node14 -->
<g id="edge14_Node000005_Node000014" class="edge">
<title>Node5&#45;&gt;Node14</title>
<g id="a_edge14_Node000005_Node000014"><a xlink:title=" ">
<path fill="none" stroke="#63b8ff" d="M976.27,-169.5C959.64,-169.5 941.57,-169.5 925.69,-169.5"/>
<polygon fill="#63b8ff" stroke="#63b8ff" points="976.4,-173 986.4,-169.5 976.4,-166 976.4,-173"/>
</a>
</g>
</g>
<!-- Node15 -->
<g id="Node000015" class="node">
<title>Node15</title>
<g id="a_Node000015"><a xlink:href="player__controller_8c.html#a31f653813b5697d0af1bb9c16cdc4c76" target="_top" xlink:title=" ">
<polygon fill="white" stroke="#666666" points="925.5,-216 834.5,-216 834.5,-197 925.5,-197 925.5,-216"/>
<text text-anchor="middle" x="880" y="-204" font-family="Helvetica,sans-Serif" font-size="10.00">func_80029158</text>
</a>
</g>
</g>
<!-- Node5&#45;&gt;Node15 -->
<g id="edge16_Node000005_Node000015" class="edge">
<title>Node5&#45;&gt;Node15</title>
<g id="a_edge16_Node000005_Node000015"><a xlink:title=" ">
<path fill="none" stroke="#63b8ff" d="M982.66,-181.43C962.31,-186.44 938.95,-192.21 919.76,-196.94"/>
<polygon fill="#63b8ff" stroke="#63b8ff" points="983.5,-184.82 992.37,-179.03 981.82,-178.03 983.5,-184.82"/>
</a>
</g>
</g>
<!-- Node7 -->
<g id="Node000007" class="node">
<title>Node7</title>
<g id="a_Node000007"><a xlink:href="podium__ceremony__actors_8c.html#a7ea229c65f264670fc828b95e8321154" target="_top" xlink:title=" ">
<polygon fill="white" stroke="#666666" points="774,-123 640,-123 640,-104 774,-104 774,-123"/>
<text text-anchor="middle" x="707" y="-111" font-family="Helvetica,sans-Serif" font-size="10.00">podium_ceremony_loop</text>
</a>
</g>
</g>
<!-- Node6&#45;&gt;Node7 -->
<g id="edge6_Node000006_Node000007" class="edge">
<title>Node6&#45;&gt;Node7</title>
<g id="a_edge6_Node000006_Node000007"><a xlink:title=" ">
<path fill="none" stroke="#63b8ff" d="M823.92,-126.38C808.07,-124.62 790.63,-122.68 774.19,-120.85"/>
<polygon fill="#63b8ff" stroke="#63b8ff" points="823.75,-129.88 834.07,-127.51 824.52,-122.92 823.75,-129.88"/>
</a>
</g>
</g>
<!-- Node13 -->
<g id="Node000013" class="node">
<title>Node13</title>
<g id="a_Node000013"><a xlink:href="main_8c.html#afff87ffcbfee4f1f37d443110aa7b52a" target="_top" xlink:title=" ">
<polygon fill="white" stroke="#666666" points="753,-160 661,-160 661,-141 753,-141 753,-160"/>
<text text-anchor="middle" x="707" y="-148" font-family="Helvetica,sans-Serif" font-size="10.00">race_logic_loop</text>
</a>
</g>
</g>
<!-- Node6&#45;&gt;Node13 -->
<g id="edge12_Node000006_Node000013" class="edge">
<title>Node6&#45;&gt;Node13</title>
<g id="a_edge12_Node000006_Node000013"><a xlink:title=" ">
<path fill="none" stroke="#63b8ff" d="M823.85,-138.31C801.02,-140.71 774.89,-143.46 753.22,-145.74"/>
<polygon fill="#63b8ff" stroke="#63b8ff" points="824.49,-141.76 834.07,-137.23 823.76,-134.8 824.49,-141.76"/>
</a>
</g>
</g>
<!-- Node8 -->
<g id="Node000008" class="node">
<title>Node8</title>
<g id="a_Node000008"><a xlink:href="main_8c.html#ae04143ce8113cdafa007c642eb620bc8" target="_top" xlink:title=" ">
<polygon fill="white" stroke="#666666" points="604,-141 488,-141 488,-122 604,-122 604,-141"/>
<text text-anchor="middle" x="546" y="-129" font-family="Helvetica,sans-Serif" font-size="10.00">game_state_handler</text>
</a>
</g>
</g>
<!-- Node7&#45;&gt;Node8 -->
<g id="edge7_Node000007_Node000008" class="edge">
<title>Node7&#45;&gt;Node8</title>
<g id="a_edge7_Node000007_Node000008"><a xlink:title=" ">
<path fill="none" stroke="#63b8ff" d="M629.87,-122.12C621.24,-123.1 612.56,-124.08 604.24,-125.02"/>
<polygon fill="#63b8ff" stroke="#63b8ff" points="630.41,-125.58 639.95,-120.98 629.62,-118.62 630.41,-125.58"/>
</a>
</g>
</g>
<!-- Node9 -->
<g id="Node000009" class="node">
<title>Node9</title>
<g id="a_Node000009"><a xlink:href="main_8c.html#a633ed517e458daeb768f5361895dcac9" target="_top" xlink:title=" ">
<polygon fill="white" stroke="#666666" points="452,-160 339,-160 339,-141 452,-141 452,-160"/>
<text text-anchor="middle" x="395.5" y="-148" font-family="Helvetica,sans-Serif" font-size="10.00">thread5_game_loop</text>
</a>
</g>
</g>
<!-- Node8&#45;&gt;Node9 -->
<g id="edge8_Node000008_Node000009" class="edge">
<title>Node8&#45;&gt;Node9</title>
<g id="a_edge8_Node000008_Node000009"><a xlink:title=" ">
<path fill="none" stroke="#63b8ff" d="M477.42,-140.15C469.02,-141.22 460.5,-142.31 452.3,-143.36"/>
<polygon fill="#63b8ff" stroke="#63b8ff" points="478.11,-143.59 487.59,-138.85 477.22,-136.64 478.11,-143.59"/>
</a>
</g>
</g>
<!-- Node10 -->
<g id="Node000010" class="node">
<title>Node10</title>
<g id="a_Node000010"><a xlink:href="main_8c.html#a023b8f272e4efbd33f371e91ffff6b30" target="_top" xlink:title=" ">
<polygon fill="white" stroke="#666666" points="303,-160 217,-160 217,-141 303,-141 303,-160"/>
<text text-anchor="middle" x="260" y="-148" font-family="Helvetica,sans-Serif" font-size="10.00">thread3_video</text>
</a>
</g>
</g>
<!-- Node9&#45;&gt;Node10 -->
<g id="edge9_Node000009_Node000010" class="edge">
<title>Node9&#45;&gt;Node10</title>
<g id="a_edge9_Node000009_Node000010"><a xlink:title=" ">
<path fill="none" stroke="#63b8ff" d="M328.57,-150.5C319.94,-150.5 311.3,-150.5 303.21,-150.5"/>
<polygon fill="#63b8ff" stroke="#63b8ff" points="328.66,-154 338.66,-150.5 328.66,-147 328.66,-154"/>
</a>
</g>
</g>
<!-- Node11 -->
<g id="Node000011" class="node">
<title>Node11</title>
<g id="a_Node000011"><a xlink:href="main_8c.html#a1e35d2b842121e6aea373f09381616e5" target="_top" xlink:title=" ">
<polygon fill="white" stroke="#666666" points="181,-160 104,-160 104,-141 181,-141 181,-160"/>
<text text-anchor="middle" x="142.5" y="-148" font-family="Helvetica,sans-Serif" font-size="10.00">thread1_idle</text>
</a>
</g>
</g>
<!-- Node10&#45;&gt;Node11 -->
<g id="edge10_Node000010_Node000011" class="edge">
<title>Node10&#45;&gt;Node11</title>
<g id="a_edge10_Node000010_Node000011"><a xlink:title=" ">
<path fill="none" stroke="#63b8ff" d="M206.9,-150.5C198.2,-150.5 189.33,-150.5 181.09,-150.5"/>
<polygon fill="#63b8ff" stroke="#63b8ff" points="206.98,-154 216.98,-150.5 206.98,-147 206.98,-154"/>
</a>
</g>
</g>
<!-- Node12 -->
<g id="Node000012" class="node">
<title>Node12</title>
<g id="a_Node000012"><a xlink:href="main_8c.html#a4f87d43525fe95f60ea92bc8a3b70e62" target="_top" xlink:title=" ">
<polygon fill="white" stroke="#666666" points="68,-160 0,-160 0,-141 68,-141 68,-160"/>
<text text-anchor="middle" x="34" y="-148" font-family="Helvetica,sans-Serif" font-size="10.00">main_func</text>
</a>
</g>
</g>
<!-- Node11&#45;&gt;Node12 -->
<g id="edge11_Node000011_Node000012" class="edge">
<title>Node11&#45;&gt;Node12</title>
<g id="a_edge11_Node000011_Node000012"><a xlink:title=" ">
<path fill="none" stroke="#63b8ff" d="M93.95,-150.5C85.29,-150.5 76.44,-150.5 68.31,-150.5"/>
<polygon fill="#63b8ff" stroke="#63b8ff" points="93.95,-154 103.95,-150.5 93.95,-147 93.95,-154"/>
</a>
</g>
</g>
<!-- Node13&#45;&gt;Node8 -->
<g id="edge13_Node000013_Node000008" class="edge">
<title>Node13&#45;&gt;Node8</title>
<g id="a_edge13_Node000013_Node000008"><a xlink:title=" ">
<path fill="none" stroke="#63b8ff" d="M650.68,-143.89C635.64,-142.09 619.32,-140.14 604.18,-138.33"/>
<polygon fill="#63b8ff" stroke="#63b8ff" points="650.52,-147.39 660.86,-145.11 651.35,-140.44 650.52,-147.39"/>
</a>
</g>
</g>
<!-- Node14&#45;&gt;Node13 -->
<g id="edge15_Node000014_Node000013" class="edge">
<title>Node14&#45;&gt;Node13</title>
<g id="a_edge15_Node000014_Node000013"><a xlink:title=" ">
<path fill="none" stroke="#63b8ff" d="M823.85,-163.37C801.02,-160.84 774.89,-157.93 753.22,-155.52"/>
<polygon fill="#63b8ff" stroke="#63b8ff" points="823.75,-166.88 834.07,-164.51 824.52,-159.92 823.75,-166.88"/>
</a>
</g>
</g>
<!-- Node15&#45;&gt;Node13 -->
<g id="edge17_Node000015_Node000013" class="edge">
<title>Node15&#45;&gt;Node13</title>
<g id="a_edge17_Node000015_Node000013"><a xlink:title=" ">
<path fill="none" stroke="#63b8ff" d="M829.98,-194.37C823.24,-192.51 816.42,-190.53 810,-188.5 782.79,-179.91 752.19,-168.23 731.67,-160.1"/>
<polygon fill="#63b8ff" stroke="#63b8ff" points="829.19,-197.78 839.76,-197 831.01,-191.02 829.19,-197.78"/>
</a>
</g>
</g>
<!-- Node16&#45;&gt;Node5 -->
<g id="edge19_Node000016_Node000005" class="edge">
<title>Node16&#45;&gt;Node5</title>
<g id="a_edge19_Node000016_Node000005"><a xlink:title=" ">
<path fill="none" stroke="#63b8ff" d="M1109.31,-151.4C1097.4,-154.23 1084.84,-157.21 1073.42,-159.91"/>
<polygon fill="#63b8ff" stroke="#63b8ff" points="1110.2,-154.79 1119.13,-149.07 1108.59,-147.98 1110.2,-154.79"/>
</a>
</g>
</g>
<!-- Node17&#45;&gt;Node5 -->
<g id="edge21_Node000017_Node000005" class="edge">
<title>Node17&#45;&gt;Node5</title>
<g id="a_edge21_Node000017_Node000005"><a xlink:title=" ">
<path fill="none" stroke="#63b8ff" d="M1122.4,-200.59C1102.55,-193.69 1078.54,-185.34 1060.4,-179.03"/>
<polygon fill="#63b8ff" stroke="#63b8ff" points="1121.46,-203.97 1132.05,-203.95 1123.76,-197.36 1121.46,-203.97"/>
</a>
</g>
</g>
<!-- Node19 -->
<g id="Node000019" class="node">
<title>Node19</title>
<g id="a_Node000019"><a xlink:href="spawn__players_8c.html#ac1a9412b931cfa517a2382c2fc605399" target="_top" xlink:title=" ">
<polygon fill="white" stroke="#666666" points="1078,-260 986,-260 986,-241 1078,-241 1078,-260"/>
<text text-anchor="middle" x="1032" y="-248" font-family="Helvetica,sans-Serif" font-size="10.00">func_8003D080</text>
</a>
</g>
</g>
<!-- Node18&#45;&gt;Node19 -->
<g id="edge23_Node000018_Node000019" class="edge">
<title>Node18&#45;&gt;Node19</title>
<g id="a_edge23_Node000018_Node000019"><a xlink:title=" ">
<path fill="none" stroke="#63b8ff" d="M1103.59,-250.5C1095.09,-250.5 1086.41,-250.5 1078.18,-250.5"/>
<polygon fill="#63b8ff" stroke="#63b8ff" points="1103.83,-254 1113.83,-250.5 1103.83,-247 1103.83,-254"/>
</a>
</g>
</g>
<!-- Node20 -->
<g id="Node000020" class="node">
<title>Node20</title>
<g id="a_Node000020"><a xlink:href="code__80281780_8c.html#af227cfd0f1fd3d6adbe9a29ad59b4dc8" target="_top" xlink:title=" ">
<polygon fill="white" stroke="#666666" points="950,-290 810,-290 810,-271 950,-271 950,-290"/>
<text text-anchor="middle" x="880" y="-278" font-family="Helvetica,sans-Serif" font-size="10.00">load_ceremony_cutscene</text>
</a>
</g>
</g>
<!-- Node19&#45;&gt;Node20 -->
<g id="edge24_Node000019_Node000020" class="edge">
<title>Node19&#45;&gt;Node20</title>
<g id="a_edge24_Node000019_Node000020"><a xlink:title=" ">
<path fill="none" stroke="#63b8ff" d="M975.99,-261.5C960.44,-264.61 943.65,-267.97 928.58,-270.98"/>
<polygon fill="#63b8ff" stroke="#63b8ff" points="976.88,-264.89 986,-259.5 975.5,-258.03 976.88,-264.89"/>
</a>
</g>
</g>
<!-- Node22 -->
<g id="Node000022" class="node">
<title>Node22</title>
<g id="a_Node000022"><a xlink:href="code__800029B0_8c.html#aca6165112fc92e65ad6477e785a7098c" target="_top" xlink:title=" ">
<polygon fill="white" stroke="#666666" points="915,-253 845,-253 845,-234 915,-234 915,-253"/>
<text text-anchor="middle" x="880" y="-241" font-family="Helvetica,sans-Serif" font-size="10.00">setup_race</text>
</a>
</g>
</g>
<!-- Node19&#45;&gt;Node22 -->
<g id="edge27_Node000019_Node000022" class="edge">
<title>Node19&#45;&gt;Node22</title>
<g id="a_edge27_Node000019_Node000022"><a xlink:title=" ">
<path fill="none" stroke="#63b8ff" d="M975.87,-247.93C955.48,-246.98 932.97,-245.93 915,-245.09"/>
<polygon fill="#63b8ff" stroke="#63b8ff" points="975.84,-251.43 986,-248.4 976.17,-244.44 975.84,-251.43"/>
</a>
</g>
</g>
<!-- Node21 -->
<g id="Node000021" class="node">
<title>Node21</title>
<g id="a_Node000021"><a xlink:href="main_8c.html#ad0625ed56ac663d3ec7ae8f1ba50c735" target="_top" xlink:title=" ">
<polygon fill="white" stroke="#666666" points="761,-253 653,-253 653,-234 761,-234 761,-253"/>
<text text-anchor="middle" x="707" y="-241" font-family="Helvetica,sans-Serif" font-size="10.00">update_gamestate</text>
</a>
</g>
</g>
<!-- Node20&#45;&gt;Node21 -->
<g id="edge25_Node000020_Node000021" class="edge">
<title>Node20&#45;&gt;Node21</title>
<g id="a_edge25_Node000020_Node000021"><a xlink:title=" ">
<path fill="none" stroke="#63b8ff" d="M825.15,-268.85C801.66,-263.77 774.46,-257.88 752.18,-253.06"/>
<polygon fill="#63b8ff" stroke="#63b8ff" points="824.45,-272.28 834.96,-270.97 825.93,-265.44 824.45,-272.28"/>
</a>
</g>
</g>
<!-- Node21&#45;&gt;Node9 -->
<g id="edge26_Node000021_Node000009" class="edge">
<title>Node21&#45;&gt;Node9</title>
<g id="a_edge26_Node000021_Node000009"><a xlink:title=" ">
<path fill="none" stroke="#63b8ff" d="M664.4,-231C601.79,-212.19 484.68,-177 428.35,-160.07"/>
<polygon fill="#63b8ff" stroke="#63b8ff" points="663.75,-234.46 674.33,-233.98 665.76,-227.75 663.75,-234.46"/>
</a>
</g>
</g>
<!-- Node22&#45;&gt;Node21 -->
<g id="edge28_Node000022_Node000021" class="edge">
<title>Node22&#45;&gt;Node21</title>
<g id="a_edge28_Node000022_Node000021"><a xlink:title=" ">
<path fill="none" stroke="#63b8ff" d="M834.57,-243.5C812.18,-243.5 784.85,-243.5 761.33,-243.5"/>
<polygon fill="#63b8ff" stroke="#63b8ff" points="834.81,-247 844.81,-243.5 834.81,-240 834.81,-247"/>
</a>
</g>
</g>
<!-- Node23&#45;&gt;Node4 -->
<g id="edge30_Node000023_Node000004" class="edge">
<title>Node23&#45;&gt;Node4</title>
<g id="a_edge30_Node000023_Node000004"><a xlink:title=" ">
<path fill="none" stroke="#63b8ff" d="M1246.88,-155.47C1231.51,-159.26 1214.75,-163.39 1200.17,-166.98"/>
<polygon fill="#63b8ff" stroke="#63b8ff" points="1247.87,-158.83 1256.74,-153.04 1246.19,-152.04 1247.87,-158.83"/>
</a>
</g>
</g>
<!-- Node23&#45;&gt;Node16 -->
<g id="edge31_Node000023_Node000016" class="edge">
<title>Node23&#45;&gt;Node16</title>
<g id="a_edge31_Node000023_Node000016"><a xlink:title=" ">
<path fill="none" stroke="#63b8ff" d="M1240.71,-141.86C1229.45,-141.53 1217.72,-141.18 1206.84,-140.85"/>
<polygon fill="#63b8ff" stroke="#63b8ff" points="1240.78,-145.37 1250.88,-142.17 1240.99,-138.37 1240.78,-145.37"/>
</a>
</g>
</g>
<!-- Node23&#45;&gt;Node17 -->
<g id="edge32_Node000023_Node000017" class="edge">
<title>Node23&#45;&gt;Node17</title>
<g id="a_edge32_Node000023_Node000017"><a xlink:title=" ">
<path fill="none" stroke="#63b8ff" d="M1253.66,-156.9C1249.96,-158.6 1246.36,-160.47 1243,-162.5 1224.43,-173.74 1225.4,-183.98 1207,-195.5 1201.96,-198.66 1196.27,-201.43 1190.67,-203.8"/>
<polygon fill="#63b8ff" stroke="#63b8ff" points="1255.06,-160.11 1262.93,-153.02 1252.35,-153.66 1255.06,-160.11"/>
</a>
</g>
</g>
<!-- Node24&#45;&gt;Node5 -->
<g id="edge34_Node000024_Node000005" class="edge">
<title>Node24&#45;&gt;Node5</title>
<g id="a_edge34_Node000024_Node000005"><a xlink:title=" ">
<path fill="none" stroke="#63b8ff" d="M1240.36,-101.55C1203.7,-103.04 1154.95,-107.82 1114,-121.5 1087.64,-130.3 1060.57,-148.58 1045.36,-159.87"/>
<polygon fill="#63b8ff" stroke="#63b8ff" points="1240.49,-105.05 1250.36,-101.22 1240.25,-98.06 1240.49,-105.05"/>
</a>
</g>
</g>
<!-- Node27 -->
<g id="Node000027" class="node">
<title>Node27</title>
<g id="a_Node000027"><a xlink:href="code__80071F00_8c.html#acf901985295d306e8918b07b89422230" target="_top" xlink:title=" ">
<polygon fill="white" stroke="#666666" points="1350,-66 1243,-66 1243,-47 1350,-47 1350,-66"/>
<text text-anchor="middle" x="1296.5" y="-54" font-family="Helvetica,sans-Serif" font-size="10.00">update_obj_laikitu</text>
</a>
</g>
</g>
<!-- Node26&#45;&gt;Node27 -->
<g id="edge37_Node000026_Node000027" class="edge">
<title>Node26&#45;&gt;Node27</title>
<g id="a_edge37_Node000026_Node000027"><a xlink:title=" ">
<path fill="none" stroke="#63b8ff" d="M1375.95,-54.27C1367.3,-54.52 1358.49,-54.77 1350.05,-55.01"/>
<polygon fill="#63b8ff" stroke="#63b8ff" points="1376.1,-57.77 1386,-53.99 1375.9,-50.77 1376.1,-57.77"/>
</a>
</g>
</g>
<!-- Node28 -->
<g id="Node000028" class="node">
<title>Node28</title>
<g id="a_Node000028"><a xlink:href="code__80057C60_8c.html#ad9abd1f78c8153b6eb41db7e6378a78c" target="_top" xlink:title=" ">
<polygon fill="white" stroke="#666666" points="1206.5,-66 1114.5,-66 1114.5,-47 1206.5,-47 1206.5,-66"/>
<text text-anchor="middle" x="1160.5" y="-54" font-family="Helvetica,sans-Serif" font-size="10.00">func_80059A88</text>
</a>
</g>
</g>
<!-- Node27&#45;&gt;Node28 -->
<g id="edge38_Node000027_Node000028" class="edge">
<title>Node27&#45;&gt;Node28</title>
<g id="a_edge38_Node000027_Node000028"><a xlink:title=" ">
<path fill="none" stroke="#63b8ff" d="M1232.66,-56.5C1223.85,-56.5 1214.94,-56.5 1206.55,-56.5"/>
<polygon fill="#63b8ff" stroke="#63b8ff" points="1232.92,-60 1242.92,-56.5 1232.92,-53 1232.92,-60"/>
</a>
</g>
</g>
<!-- Node29 -->
<g id="Node000029" class="node">
<title>Node29</title>
<g id="a_Node000029"><a xlink:href="code__80057C60_8c.html#ae61bd9f49508d924387c00845cae4060" target="_top" xlink:title=" ">
<polygon fill="white" stroke="#666666" points="1078,-66 986,-66 986,-47 1078,-47 1078,-66"/>
<text text-anchor="middle" x="1032" y="-54" font-family="Helvetica,sans-Serif" font-size="10.00">func_80059AC8</text>
</a>
</g>
</g>
<!-- Node28&#45;&gt;Node29 -->
<g id="edge39_Node000028_Node000029" class="edge">
<title>Node28&#45;&gt;Node29</title>
<g id="a_edge39_Node000028_Node000029"><a xlink:title=" ">
<path fill="none" stroke="#63b8ff" d="M1103.93,-56.5C1095.4,-56.5 1086.69,-56.5 1078.42,-56.5"/>
<polygon fill="#63b8ff" stroke="#63b8ff" points="1104.19,-60 1114.19,-56.5 1104.19,-53 1104.19,-60"/>
</a>
</g>
</g>
<!-- Node29&#45;&gt;Node7 -->
<g id="edge43_Node000029_Node000007" class="edge">
<title>Node29&#45;&gt;Node7</title>
<g id="a_edge43_Node000029_Node000007"><a xlink:title=" ">
<path fill="none" stroke="#63b8ff" d="M975.56,-59.37C930.56,-62.45 865.67,-68.6 810,-80.5 783.06,-86.26 753.18,-96.39 732.76,-103.91"/>
<polygon fill="#63b8ff" stroke="#63b8ff" points="975.95,-62.85 985.7,-58.7 975.5,-55.86 975.95,-62.85"/>
</a>
</g>
</g>
<!-- Node29&#45;&gt;Node13 -->
<g id="edge44_Node000029_Node000013" class="edge">
<title>Node29&#45;&gt;Node13</title>
<g id="a_edge44_Node000029_Node000013"><a xlink:title=" ">
<path fill="none" stroke="#63b8ff" d="M990.04,-69.07C977.25,-72.87 963.07,-76.98 950,-80.5 888.17,-97.16 870.13,-92.49 810,-114.5 793.2,-120.65 790.71,-126.12 774,-132.5 765.68,-135.68 756.57,-138.54 747.85,-141"/>
<polygon fill="#63b8ff" stroke="#63b8ff" points="991.37,-72.32 999.95,-66.1 989.36,-65.62 991.37,-72.32"/>
</a>
</g>
</g>
<!-- Node30 -->
<g id="Node000030" class="node">
<title>Node30</title>
<g id="a_Node000030"><a xlink:href="code__80280000_8c.html#a4d9b0156b64d7a67e4cb21cde391ca43" target="_top" xlink:title=" ">
<polygon fill="white" stroke="#666666" points="925.5,-28 834.5,-28 834.5,-9 925.5,-9 925.5,-28"/>
<text text-anchor="middle" x="880" y="-16" font-family="Helvetica,sans-Serif" font-size="10.00">func_80280000</text>
</a>
</g>
</g>
<!-- Node29&#45;&gt;Node30 -->
<g id="edge40_Node000029_Node000030" class="edge">
<title>Node29&#45;&gt;Node30</title>
<g id="a_edge40_Node000029_Node000030"><a xlink:title=" ">
<path fill="none" stroke="#63b8ff" d="M983.19,-44.39C962.3,-39.1 938.15,-32.98 918.58,-28.02"/>
<polygon fill="#63b8ff" stroke="#63b8ff" points="982.6,-47.85 993.15,-46.91 984.31,-41.06 982.6,-47.85"/>
</a>
</g>
</g>
<!-- Node31 -->
<g id="Node000031" class="node">
<title>Node31</title>
<g id="a_Node000031"><a xlink:href="code__80280000_8c.html#aa28a69be4eda3b8667366c6c7b556024" target="_top" xlink:title=" ">
<polygon fill="white" stroke="#666666" points="745,-66 669,-66 669,-47 745,-47 745,-66"/>
<text text-anchor="middle" x="707" y="-54" font-family="Helvetica,sans-Serif" font-size="10.00">credits_loop</text>
</a>
</g>
</g>
<!-- Node30&#45;&gt;Node31 -->
<g id="edge41_Node000030_Node000031" class="edge">
<title>Node30&#45;&gt;Node31</title>
<g id="a_edge41_Node000030_Node000031"><a xlink:title=" ">
<path fill="none" stroke="#63b8ff" d="M826.05,-30.27C799.79,-36.1 768.72,-43.01 745.05,-48.27"/>
<polygon fill="#63b8ff" stroke="#63b8ff" points="826.85,-33.68 835.85,-28.09 825.33,-26.84 826.85,-33.68"/>
</a>
</g>
</g>
<!-- Node31&#45;&gt;Node8 -->
<g id="edge42_Node000031_Node000008" class="edge">
<title>Node31&#45;&gt;Node8</title>
<g id="a_edge42_Node000031_Node000008"><a xlink:title=" ">
<path fill="none" stroke="#63b8ff" d="M676.29,-70.51C644.53,-85.5 595.01,-108.85 567.38,-121.89"/>
<polygon fill="#63b8ff" stroke="#63b8ff" points="677.99,-73.58 685.54,-66.15 675,-67.25 677.99,-73.58"/>
</a>
</g>
</g>
<!-- Node32&#45;&gt;Node27 -->
<g id="edge46_Node000032_Node000027" class="edge">
<title>Node32&#45;&gt;Node27</title>
<g id="a_edge46_Node000032_Node000027"><a xlink:title=" ">
<path fill="none" stroke="#63b8ff" d="M1380.54,-82.41C1362.6,-76.81 1343.53,-70.86 1328.19,-66.08"/>
<polygon fill="#63b8ff" stroke="#63b8ff" points="1379.78,-85.84 1390.37,-85.48 1381.87,-79.16 1379.78,-85.84"/>
</a>
</g>
</g>
</g>
</svg>
