<?xml version="1.0" encoding="UTF-8" standalone="no"?>
<!DOCTYPE svg PUBLIC "-//W3C//DTD SVG 1.1//EN"
 "http://www.w3.org/Graphics/SVG/1.1/DTD/svg11.dtd">
<!-- Generated by graphviz version 2.43.0 (0)
 -->
<!-- Title: func_8008F5A4 Pages: 1 -->
<svg width="1559pt" height="976pt"
 viewBox="0.00 0.00 1559.00 976.00" xmlns="http://www.w3.org/2000/svg" xmlns:xlink="http://www.w3.org/1999/xlink">
<g id="graph0" class="graph" transform="scale(1 1) rotate(0) translate(4 972)">
<title>func_8008F5A4</title>
<!-- Node1 -->
<g id="Node000001" class="node">
<title>Node1</title>
<g id="a_Node000001"><a xlink:title=" ">
<polygon fill="#999999" stroke="#666666" points="1551,-149 1459,-149 1459,-130 1551,-130 1551,-149"/>
<text text-anchor="middle" x="1505" y="-137" font-family="Helvetica,sans-Serif" font-size="10.00">func_8008F5A4</text>
</a>
</g>
</g>
<!-- Node2 -->
<g id="Node000002" class="node">
<title>Node2</title>
<g id="a_Node000002"><a xlink:href="effects_8c.html#aeda67f98b2369b1c3952d9e4eb30b4d1" target="_top" xlink:title=" ">
<polygon fill="white" stroke="#666666" points="1415,-594 1339,-594 1339,-575 1415,-575 1415,-594"/>
<text text-anchor="middle" x="1377" y="-582" font-family="Helvetica,sans-Serif" font-size="10.00">clean_effect</text>
</a>
</g>
</g>
<!-- Node1&#45;&gt;Node2 -->
<g id="edge1_Node000001_Node000002" class="edge">
<title>Node1&#45;&gt;Node2</title>
<g id="a_edge1_Node000001_Node000002"><a xlink:title=" ">
<path fill="none" stroke="#63b8ff" d="M1498.46,-159.08C1476.56,-236.42 1396.5,-519.17 1380.71,-574.92"/>
<polygon fill="#63b8ff" stroke="#63b8ff" points="1501.89,-159.78 1501.25,-149.21 1495.16,-157.88 1501.89,-159.78"/>
</a>
</g>
</g>
<!-- Node27 -->
<g id="Node000027" class="node">
<title>Node27</title>
<g id="a_Node000027"><a xlink:href="player__controller_8c.html#aafe8b94ccd61104120a9bf0ee954a901" target="_top" xlink:title=" ">
<polygon fill="white" stroke="#666666" points="1423,-112 1331,-112 1331,-93 1423,-93 1423,-112"/>
<text text-anchor="middle" x="1377" y="-100" font-family="Helvetica,sans-Serif" font-size="10.00">func_8002D268</text>
</a>
</g>
</g>
<!-- Node1&#45;&gt;Node27 -->
<g id="edge28_Node000001_Node000027" class="edge">
<title>Node1&#45;&gt;Node27</title>
<g id="a_edge28_Node000001_Node000027"><a xlink:title=" ">
<path fill="none" stroke="#63b8ff" d="M1461.56,-127.04C1444.98,-122.17 1426.28,-116.68 1410.78,-112.12"/>
<polygon fill="#63b8ff" stroke="#63b8ff" points="1460.97,-130.51 1471.55,-129.97 1462.94,-123.8 1460.97,-130.51"/>
</a>
</g>
</g>
<!-- Node47 -->
<g id="Node000047" class="node">
<title>Node47</title>
<g id="a_Node000047"><a xlink:href="player__controller_8c.html#a5bc20a94d467b8daf131fe16ab6a83d7" target="_top" xlink:title=" ">
<polygon fill="white" stroke="#666666" points="1422.5,-149 1331.5,-149 1331.5,-130 1422.5,-130 1422.5,-149"/>
<text text-anchor="middle" x="1377" y="-137" font-family="Helvetica,sans-Serif" font-size="10.00">func_8002E594</text>
</a>
</g>
</g>
<!-- Node1&#45;&gt;Node47 -->
<g id="edge55_Node000001_Node000047" class="edge">
<title>Node1&#45;&gt;Node47</title>
<g id="a_edge55_Node000001_Node000047"><a xlink:title=" ">
<path fill="none" stroke="#63b8ff" d="M1448.8,-139.5C1440.12,-139.5 1431.23,-139.5 1422.82,-139.5"/>
<polygon fill="#63b8ff" stroke="#63b8ff" points="1448.87,-143 1458.87,-139.5 1448.87,-136 1448.87,-143"/>
</a>
</g>
</g>
<!-- Node3 -->
<g id="Node000003" class="node">
<title>Node3</title>
<g id="a_Node000003"><a xlink:href="effects_8c.html#a6e21e42b0229fe1e1829bd8909527e2b" target="_top" xlink:title=" ">
<polygon fill="white" stroke="#666666" points="1288,-520 1154,-520 1154,-501 1288,-501 1288,-520"/>
<text text-anchor="middle" x="1221" y="-508" font-family="Helvetica,sans-Serif" font-size="10.00">apply_boo_sound_effect</text>
</a>
</g>
</g>
<!-- Node2&#45;&gt;Node3 -->
<g id="edge2_Node000002_Node000003" class="edge">
<title>Node2&#45;&gt;Node3</title>
<g id="a_edge2_Node000002_Node000003"><a xlink:title=" ">
<path fill="none" stroke="#63b8ff" d="M1356.77,-568.64C1341.03,-556.38 1317.73,-539.8 1295,-529.5 1286.65,-525.72 1277.41,-522.58 1268.39,-520.02"/>
<polygon fill="#63b8ff" stroke="#63b8ff" points="1354.68,-571.45 1364.68,-574.94 1359.04,-565.98 1354.68,-571.45"/>
</a>
</g>
</g>
<!-- Node4 -->
<g id="Node000004" class="node">
<title>Node4</title>
<g id="a_Node000004"><a xlink:href="effects_8c.html#a525127b997f2f6a0a48d4d9ecda6cdbb" target="_top" xlink:title=" ">
<polygon fill="white" stroke="#666666" points="1295,-482.5 1147,-482.5 1147,-452.5 1295,-452.5 1295,-482.5"/>
<text text-anchor="start" x="1155" y="-470.5" font-family="Helvetica,sans-Serif" font-size="10.00">apply_boost_ramp_asphalt</text>
<text text-anchor="middle" x="1221" y="-459.5" font-family="Helvetica,sans-Serif" font-size="10.00">_sound_effect</text>
</a>
</g>
</g>
<!-- Node2&#45;&gt;Node4 -->
<g id="edge3_Node000002_Node000004" class="edge">
<title>Node2&#45;&gt;Node4</title>
<g id="a_edge3_Node000002_Node000004"><a xlink:title=" ">
<path fill="none" stroke="#63b8ff" d="M1364.46,-566.49C1350.39,-545.88 1324.76,-512.4 1295,-492.5 1289.32,-488.7 1283.01,-485.43 1276.54,-482.61"/>
<polygon fill="#63b8ff" stroke="#63b8ff" points="1361.64,-568.57 1370.09,-574.96 1367.47,-564.7 1361.64,-568.57"/>
</a>
</g>
</g>
<!-- Node5 -->
<g id="Node000005" class="node">
<title>Node5</title>
<g id="a_Node000005"><a xlink:href="effects_8c.html#a595d8d70bde8a985884d02eba98a1b3d" target="_top" xlink:title=" ">
<polygon fill="white" stroke="#666666" points="1290,-434.5 1152,-434.5 1152,-404.5 1290,-404.5 1290,-434.5"/>
<text text-anchor="start" x="1160" y="-422.5" font-family="Helvetica,sans-Serif" font-size="10.00">apply_boost_ramp_wood</text>
<text text-anchor="middle" x="1221" y="-411.5" font-family="Helvetica,sans-Serif" font-size="10.00">_sound_effect</text>
</a>
</g>
</g>
<!-- Node2&#45;&gt;Node5 -->
<g id="edge4_Node000002_Node000005" class="edge">
<title>Node2&#45;&gt;Node5</title>
<g id="a_edge4_Node000002_Node000005"><a xlink:title=" ">
<path fill="none" stroke="#63b8ff" d="M1369.85,-564.84C1359.36,-534.46 1335.16,-476.21 1295,-443.5 1290.76,-440.05 1286,-437.08 1281.01,-434.54"/>
<polygon fill="#63b8ff" stroke="#63b8ff" points="1366.64,-566.27 1373.1,-574.67 1373.28,-564.07 1366.64,-566.27"/>
</a>
</g>
</g>
<!-- Node6 -->
<g id="Node000006" class="node">
<title>Node6</title>
<g id="a_Node000006"><a xlink:href="effects_8c.html#ab5250b798d170f8dd9f6012eff39743c" target="_top" xlink:title=" ">
<polygon fill="white" stroke="#666666" points="1292.5,-386 1149.5,-386 1149.5,-367 1292.5,-367 1292.5,-386"/>
<text text-anchor="middle" x="1221" y="-374" font-family="Helvetica,sans-Serif" font-size="10.00">apply_boost_sound_effect</text>
</a>
</g>
</g>
<!-- Node2&#45;&gt;Node6 -->
<g id="edge5_Node000002_Node000006" class="edge">
<title>Node2&#45;&gt;Node6</title>
<g id="a_edge5_Node000002_Node000006"><a xlink:title=" ">
<path fill="none" stroke="#63b8ff" d="M1373.36,-565.02C1367.11,-526.59 1347.72,-440.84 1295,-395.5 1290.53,-391.66 1285.38,-388.58 1279.92,-386.11"/>
<polygon fill="#63b8ff" stroke="#63b8ff" points="1369.91,-565.56 1374.85,-574.93 1376.83,-564.52 1369.91,-565.56"/>
</a>
</g>
</g>
<!-- Node7 -->
<g id="Node000007" class="node">
<title>Node7</title>
<g id="a_Node000007"><a xlink:href="effects_8c.html#a4db388444870e3607555465cde8d2b69" target="_top" xlink:title=" ">
<polygon fill="white" stroke="#666666" points="1291.5,-348.5 1150.5,-348.5 1150.5,-318.5 1291.5,-318.5 1291.5,-348.5"/>
<text text-anchor="start" x="1158.5" y="-336.5" font-family="Helvetica,sans-Serif" font-size="10.00">apply_hit_by_item_sound</text>
<text text-anchor="middle" x="1221" y="-325.5" font-family="Helvetica,sans-Serif" font-size="10.00">_effect</text>
</a>
</g>
</g>
<!-- Node2&#45;&gt;Node7 -->
<g id="edge6_Node000002_Node000007" class="edge">
<title>Node2&#45;&gt;Node7</title>
<g id="a_edge6_Node000002_Node000007"><a xlink:title=" ">
<path fill="none" stroke="#63b8ff" d="M1374.54,-564.67C1370.28,-521.2 1354.12,-416.79 1295,-358.5 1291.09,-354.64 1286.56,-351.38 1281.71,-348.62"/>
<polygon fill="#63b8ff" stroke="#63b8ff" points="1371.06,-565.12 1375.42,-574.78 1378.04,-564.52 1371.06,-565.12"/>
</a>
</g>
</g>
<!-- Node8 -->
<g id="Node000008" class="node">
<title>Node8</title>
<g id="a_Node000008"><a xlink:href="effects_8c.html#aece20fae49c1ae118b247aec04f52f83" target="_top" xlink:title=" ">
<polygon fill="white" stroke="#666666" points="1273.5,-300.5 1168.5,-300.5 1168.5,-270.5 1273.5,-270.5 1273.5,-300.5"/>
<text text-anchor="start" x="1176.5" y="-288.5" font-family="Helvetica,sans-Serif" font-size="10.00">apply_hit_rotating</text>
<text text-anchor="middle" x="1221" y="-277.5" font-family="Helvetica,sans-Serif" font-size="10.00">_sound_effect</text>
</a>
</g>
</g>
<!-- Node2&#45;&gt;Node8 -->
<g id="edge7_Node000002_Node000008" class="edge">
<title>Node2&#45;&gt;Node8</title>
<g id="a_edge7_Node000002_Node000008"><a xlink:title=" ">
<path fill="none" stroke="#63b8ff" d="M1376.09,-564.85C1375.24,-515.07 1366.02,-382.77 1295,-309.5 1289.06,-303.37 1281.52,-298.8 1273.57,-295.4"/>
<polygon fill="#63b8ff" stroke="#63b8ff" points="1372.59,-564.94 1376.16,-574.91 1379.59,-564.89 1372.59,-564.94"/>
</a>
</g>
</g>
<!-- Node9 -->
<g id="Node000009" class="node">
<title>Node9</title>
<g id="a_Node000009"><a xlink:href="effects_8c.html#a5332b3e2f6c9720f7fd0eea6b7af3359" target="_top" xlink:title=" ">
<polygon fill="white" stroke="#666666" points="1281,-252.5 1161,-252.5 1161,-222.5 1281,-222.5 1281,-252.5"/>
<text text-anchor="start" x="1169" y="-240.5" font-family="Helvetica,sans-Serif" font-size="10.00">apply_reverse_sound</text>
<text text-anchor="middle" x="1221" y="-229.5" font-family="Helvetica,sans-Serif" font-size="10.00">_effect</text>
</a>
</g>
</g>
<!-- Node2&#45;&gt;Node9 -->
<g id="edge8_Node000002_Node000009" class="edge">
<title>Node2&#45;&gt;Node9</title>
<g id="a_edge8_Node000002_Node000009"><a xlink:title=" ">
<path fill="none" stroke="#63b8ff" d="M1373.54,-564.66C1365.35,-501.52 1337.08,-306.72 1295,-261.5 1291,-257.2 1286.22,-253.67 1281.04,-250.78"/>
<polygon fill="#63b8ff" stroke="#63b8ff" points="1370.11,-565.37 1374.84,-574.85 1377.05,-564.49 1370.11,-565.37"/>
</a>
</g>
</g>
<!-- Node10 -->
<g id="Node000010" class="node">
<title>Node10</title>
<g id="a_Node000010"><a xlink:href="effects_8c.html#a1ae16ef10ed322ad47b3cff5a8efc83e" target="_top" xlink:title=" ">
<polygon fill="white" stroke="#666666" points="1288.5,-204 1153.5,-204 1153.5,-185 1288.5,-185 1288.5,-204"/>
<text text-anchor="middle" x="1221" y="-192" font-family="Helvetica,sans-Serif" font-size="10.00">apply_star_sound_effect</text>
</a>
</g>
</g>
<!-- Node2&#45;&gt;Node10 -->
<g id="edge9_Node000002_Node000010" class="edge">
<title>Node2&#45;&gt;Node10</title>
<g id="a_edge9_Node000002_Node000010"><a xlink:title=" ">
<path fill="none" stroke="#63b8ff" d="M1374.38,-564.81C1368.29,-495.62 1344.55,-265.05 1295,-213.5 1291.28,-209.63 1286.88,-206.51 1282.11,-204"/>
<polygon fill="#63b8ff" stroke="#63b8ff" points="1370.89,-565.14 1375.23,-574.81 1377.87,-564.54 1370.89,-565.14"/>
</a>
</g>
</g>
<!-- Node11 -->
<g id="Node000011" class="node">
<title>Node11</title>
<g id="a_Node000011"><a xlink:href="effects_8c.html#a6fc4c8f6786be15941bfce0c8575b7cf" target="_top" xlink:title=" ">
<polygon fill="white" stroke="#666666" points="1267,-968 1175,-968 1175,-949 1267,-949 1267,-968"/>
<text text-anchor="middle" x="1221" y="-956" font-family="Helvetica,sans-Serif" font-size="10.00">func_8008C528</text>
</a>
</g>
</g>
<!-- Node2&#45;&gt;Node11 -->
<g id="edge10_Node000002_Node000011" class="edge">
<title>Node2&#45;&gt;Node11</title>
<g id="a_edge10_Node000002_Node000011"><a xlink:title=" ">
<path fill="none" stroke="#63b8ff" d="M1374.2,-604.28C1367.66,-671.79 1342.97,-891.66 1295,-940.5 1287.59,-948.04 1277.56,-952.62 1267.31,-955.34"/>
<polygon fill="#63b8ff" stroke="#63b8ff" points="1377.7,-604.44 1375.15,-594.15 1370.73,-603.78 1377.7,-604.44"/>
</a>
</g>
</g>
<!-- Node12 -->
<g id="Node000012" class="node">
<title>Node12</title>
<g id="a_Node000012"><a xlink:href="effects_8c.html#af25de8f70a7ecb552619235df793b951" target="_top" xlink:title=" ">
<polygon fill="white" stroke="#666666" points="1267,-744 1175,-744 1175,-725 1267,-725 1267,-744"/>
<text text-anchor="middle" x="1221" y="-732" font-family="Helvetica,sans-Serif" font-size="10.00">func_8008C73C</text>
</a>
</g>
</g>
<!-- Node2&#45;&gt;Node12 -->
<g id="edge11_Node000002_Node000012" class="edge">
<title>Node2&#45;&gt;Node12</title>
<g id="a_edge11_Node000002_Node000012"><a xlink:title=" ">
<path fill="none" stroke="#63b8ff" d="M1368.61,-603.65C1357.03,-631.2 1332.02,-681.85 1295,-710.5 1286.88,-716.79 1277.03,-721.46 1267.24,-724.93"/>
<polygon fill="#63b8ff" stroke="#63b8ff" points="1371.88,-604.89 1372.39,-594.31 1365.39,-602.27 1371.88,-604.89"/>
</a>
</g>
</g>
<!-- Node13 -->
<g id="Node000013" class="node">
<title>Node13</title>
<g id="a_Node000013"><a xlink:href="effects_8c.html#abeb13f8e836713bdee19de586bb6adb9" target="_top" xlink:title=" ">
<polygon fill="white" stroke="#666666" points="1095.5,-706 1001.5,-706 1001.5,-687 1095.5,-687 1095.5,-706"/>
<text text-anchor="middle" x="1048.5" y="-694" font-family="Helvetica,sans-Serif" font-size="10.00">func_8008CDC0</text>
</a>
</g>
</g>
<!-- Node2&#45;&gt;Node13 -->
<g id="edge15_Node000002_Node000013" class="edge">
<title>Node2&#45;&gt;Node13</title>
<g id="a_edge15_Node000002_Node000013"><a xlink:title=" ">
<path fill="none" stroke="#63b8ff" d="M1366.1,-602.78C1353.04,-624.83 1327.83,-661 1295,-677.5 1231.6,-709.37 1147.19,-707.9 1095.68,-702.92"/>
<polygon fill="#63b8ff" stroke="#63b8ff" points="1369.18,-604.45 1371.08,-594.02 1363.09,-600.98 1369.18,-604.45"/>
</a>
</g>
</g>
<!-- Node16 -->
<g id="Node000016" class="node">
<title>Node16</title>
<g id="a_Node000016"><a xlink:href="effects_8c.html#af29c180e7533851648935dcc033afffc" target="_top" xlink:title=" ">
<polygon fill="white" stroke="#666666" points="1267.5,-855 1174.5,-855 1174.5,-836 1267.5,-836 1267.5,-855"/>
<text text-anchor="middle" x="1221" y="-843" font-family="Helvetica,sans-Serif" font-size="10.00">func_8008D0FC</text>
</a>
</g>
</g>
<!-- Node2&#45;&gt;Node16 -->
<g id="edge16_Node000002_Node000016" class="edge">
<title>Node2&#45;&gt;Node16</title>
<g id="a_edge16_Node000002_Node000016"><a xlink:title=" ">
<path fill="none" stroke="#63b8ff" d="M1375.52,-604.32C1373.27,-650.63 1360.97,-766.61 1295,-827.5 1287.42,-834.49 1277.57,-838.89 1267.57,-841.62"/>
<polygon fill="#63b8ff" stroke="#63b8ff" points="1379.02,-604.25 1375.9,-594.12 1372.03,-603.98 1379.02,-604.25"/>
</a>
</g>
</g>
<!-- Node17 -->
<g id="Node000017" class="node">
<title>Node17</title>
<g id="a_Node000017"><a xlink:href="effects_8c.html#afeee12fd4248e8c5c1eeeba01d3a4d03" target="_top" xlink:title=" ">
<polygon fill="white" stroke="#666666" points="1267,-818 1175,-818 1175,-799 1267,-799 1267,-818"/>
<text text-anchor="middle" x="1221" y="-806" font-family="Helvetica,sans-Serif" font-size="10.00">func_8008D570</text>
</a>
</g>
</g>
<!-- Node2&#45;&gt;Node17 -->
<g id="edge17_Node000002_Node000017" class="edge">
<title>Node2&#45;&gt;Node17</title>
<g id="a_edge17_Node000002_Node000017"><a xlink:title=" ">
<path fill="none" stroke="#63b8ff" d="M1374.19,-604.06C1369.3,-645.11 1352.09,-740.53 1295,-790.5 1287.24,-797.29 1277.32,-801.61 1267.31,-804.32"/>
<polygon fill="#63b8ff" stroke="#63b8ff" points="1377.68,-604.33 1375.26,-594.01 1370.72,-603.58 1377.68,-604.33"/>
</a>
</g>
</g>
<!-- Node18 -->
<g id="Node000018" class="node">
<title>Node18</title>
<g id="a_Node000018"><a xlink:href="effects_8c.html#a74d99f2170536bdd034d47b405aced48" target="_top" xlink:title=" ">
<polygon fill="white" stroke="#666666" points="1267.5,-781 1174.5,-781 1174.5,-762 1267.5,-762 1267.5,-781"/>
<text text-anchor="middle" x="1221" y="-769" font-family="Helvetica,sans-Serif" font-size="10.00">func_8008D7B0</text>
</a>
</g>
</g>
<!-- Node2&#45;&gt;Node18 -->
<g id="edge18_Node000002_Node000018" class="edge">
<title>Node2&#45;&gt;Node18</title>
<g id="a_edge18_Node000002_Node000018"><a xlink:title=" ">
<path fill="none" stroke="#63b8ff" d="M1372.24,-604.41C1364.44,-639.99 1343.06,-714.41 1295,-753.5 1287.2,-759.84 1277.49,-764 1267.72,-766.71"/>
<polygon fill="#63b8ff" stroke="#63b8ff" points="1375.73,-604.81 1374.31,-594.31 1368.87,-603.41 1375.73,-604.81"/>
</a>
</g>
</g>
<!-- Node19 -->
<g id="Node000019" class="node">
<title>Node19</title>
<g id="a_Node000019"><a xlink:href="effects_8c.html#a91101066503279f64d1972e074533e32" target="_top" xlink:title=" ">
<polygon fill="white" stroke="#666666" points="1268.5,-668 1173.5,-668 1173.5,-649 1268.5,-649 1268.5,-668"/>
<text text-anchor="middle" x="1221" y="-656" font-family="Helvetica,sans-Serif" font-size="10.00">func_8008DABC</text>
</a>
</g>
</g>
<!-- Node2&#45;&gt;Node19 -->
<g id="edge19_Node000002_Node000019" class="edge">
<title>Node2&#45;&gt;Node19</title>
<g id="a_edge19_Node000002_Node000019"><a xlink:title=" ">
<path fill="none" stroke="#63b8ff" d="M1357.12,-600.53C1341.43,-613.09 1318.02,-630.13 1295,-640.5 1286.79,-644.2 1277.7,-647.21 1268.8,-649.64"/>
<polygon fill="#63b8ff" stroke="#63b8ff" points="1359.48,-603.12 1365,-594.08 1355.04,-597.71 1359.48,-603.12"/>
</a>
</g>
</g>
<!-- Node21 -->
<g id="Node000021" class="node">
<title>Node21</title>
<g id="a_Node000021"><a xlink:href="effects_8c.html#ae77e5662a7ef9f09c2e2150a36883d04" target="_top" xlink:title=" ">
<polygon fill="white" stroke="#666666" points="1266.5,-931 1175.5,-931 1175.5,-912 1266.5,-912 1266.5,-931"/>
<text text-anchor="middle" x="1221" y="-919" font-family="Helvetica,sans-Serif" font-size="10.00">func_8008F104</text>
</a>
</g>
</g>
<!-- Node2&#45;&gt;Node21 -->
<g id="edge21_Node000002_Node000021" class="edge">
<title>Node2&#45;&gt;Node21</title>
<g id="a_edge21_Node000002_Node000021"><a xlink:title=" ">
<path fill="none" stroke="#63b8ff" d="M1373.4,-604.14C1364.87,-665.76 1335.93,-853.84 1295,-897.5 1287.43,-905.58 1277.09,-910.94 1266.58,-914.5"/>
<polygon fill="#63b8ff" stroke="#63b8ff" points="1376.88,-604.54 1374.75,-594.16 1369.94,-603.6 1376.88,-604.54"/>
</a>
</g>
</g>
<!-- Node22 -->
<g id="Node000022" class="node">
<title>Node22</title>
<g id="a_Node000022"><a xlink:href="effects_8c.html#a2f6824139333e232c4aad8621d00cdee" target="_top" xlink:title=" ">
<polygon fill="white" stroke="#666666" points="1094,-912 1003,-912 1003,-893 1094,-893 1094,-912"/>
<text text-anchor="middle" x="1048.5" y="-900" font-family="Helvetica,sans-Serif" font-size="10.00">func_80090970</text>
</a>
</g>
</g>
<!-- Node2&#45;&gt;Node22 -->
<g id="edge27_Node000002_Node000022" class="edge">
<title>Node2&#45;&gt;Node22</title>
<g id="a_edge27_Node000002_Node000022"><a xlink:title=" ">
<path fill="none" stroke="#63b8ff" d="M1373.08,-604.2C1364.1,-661.99 1335.08,-829.25 1295,-864.5 1265.89,-890.1 1156.63,-898.48 1094.12,-901.21"/>
<polygon fill="#63b8ff" stroke="#63b8ff" points="1376.56,-604.58 1374.6,-594.17 1369.64,-603.53 1376.56,-604.58"/>
</a>
</g>
</g>
<!-- Node23 -->
<g id="Node000023" class="node">
<title>Node23</title>
<g id="a_Node000023"><a xlink:href="effects_8c.html#a71c3c746ea434e798865e3256180ee0a" target="_top" xlink:title=" ">
<polygon fill="white" stroke="#666666" points="1266.5,-631 1175.5,-631 1175.5,-612 1266.5,-612 1266.5,-631"/>
<text text-anchor="middle" x="1221" y="-619" font-family="Helvetica,sans-Serif" font-size="10.00">func_8008F494</text>
</a>
</g>
</g>
<!-- Node2&#45;&gt;Node23 -->
<g id="edge23_Node000002_Node000023" class="edge">
<title>Node2&#45;&gt;Node23</title>
<g id="a_edge23_Node000002_Node000023"><a xlink:title=" ">
<path fill="none" stroke="#63b8ff" d="M1328.81,-595.84C1307.31,-601 1282.13,-607.05 1261.63,-611.98"/>
<polygon fill="#63b8ff" stroke="#63b8ff" points="1329.82,-599.2 1338.72,-593.46 1328.18,-592.39 1329.82,-599.2"/>
</a>
</g>
</g>
<!-- Node24 -->
<g id="Node000024" class="node">
<title>Node24</title>
<g id="a_Node000024"><a xlink:href="effects_8c.html#a8b726ee429a49fbdabd121d127eb8ee4" target="_top" xlink:title=" ">
<polygon fill="white" stroke="#666666" points="1267,-594 1175,-594 1175,-575 1267,-575 1267,-594"/>
<text text-anchor="middle" x="1221" y="-582" font-family="Helvetica,sans-Serif" font-size="10.00">func_8008FDF4</text>
</a>
</g>
</g>
<!-- Node2&#45;&gt;Node24 -->
<g id="edge24_Node000002_Node000024" class="edge">
<title>Node2&#45;&gt;Node24</title>
<g id="a_edge24_Node000002_Node000024"><a xlink:title=" ">
<path fill="none" stroke="#63b8ff" d="M1328.51,-584.5C1308.98,-584.5 1286.46,-584.5 1267.17,-584.5"/>
<polygon fill="#63b8ff" stroke="#63b8ff" points="1328.72,-588 1338.72,-584.5 1328.72,-581 1328.72,-588"/>
</a>
</g>
</g>
<!-- Node25 -->
<g id="Node000025" class="node">
<title>Node25</title>
<g id="a_Node000025"><a xlink:href="effects_8c.html#a17332237b5c2a4249328a35071e23bf7" target="_top" xlink:title=" ">
<polygon fill="white" stroke="#666666" points="1266.5,-557 1175.5,-557 1175.5,-538 1266.5,-538 1266.5,-557"/>
<text text-anchor="middle" x="1221" y="-545" font-family="Helvetica,sans-Serif" font-size="10.00">func_80090778</text>
</a>
</g>
</g>
<!-- Node2&#45;&gt;Node25 -->
<g id="edge25_Node000002_Node000025" class="edge">
<title>Node2&#45;&gt;Node25</title>
<g id="a_edge25_Node000002_Node000025"><a xlink:title=" ">
<path fill="none" stroke="#63b8ff" d="M1328.81,-573.16C1307.31,-568 1282.13,-561.95 1261.63,-557.02"/>
<polygon fill="#63b8ff" stroke="#63b8ff" points="1328.18,-576.61 1338.72,-575.54 1329.82,-569.8 1328.18,-576.61"/>
</a>
</g>
</g>
<!-- Node12&#45;&gt;Node13 -->
<g id="edge12_Node000012_Node000013" class="edge">
<title>Node12&#45;&gt;Node13</title>
<g id="a_edge12_Node000012_Node000013"><a xlink:title=" ">
<path fill="none" stroke="#63b8ff" d="M1166.95,-722.68C1142.91,-717.32 1114.87,-711.07 1092.21,-706.02"/>
<polygon fill="#63b8ff" stroke="#63b8ff" points="1166.45,-726.15 1176.98,-724.91 1167.98,-719.32 1166.45,-726.15"/>
</a>
</g>
</g>
<!-- Node14 -->
<g id="Node000014" class="node">
<title>Node14</title>
<g id="a_Node000014"><a xlink:href="effects_8c.html#af0e482103261c24d9986452a89c08547" target="_top" xlink:title=" ">
<polygon fill="white" stroke="#666666" points="1094.5,-744 1002.5,-744 1002.5,-725 1094.5,-725 1094.5,-744"/>
<text text-anchor="middle" x="1048.5" y="-732" font-family="Helvetica,sans-Serif" font-size="10.00">func_8008CEB0</text>
</a>
</g>
</g>
<!-- Node12&#45;&gt;Node14 -->
<g id="edge13_Node000012_Node000014" class="edge">
<title>Node12&#45;&gt;Node14</title>
<g id="a_edge13_Node000012_Node000014"><a xlink:title=" ">
<path fill="none" stroke="#63b8ff" d="M1164.61,-734.5C1141.97,-734.5 1116.12,-734.5 1094.66,-734.5"/>
<polygon fill="#63b8ff" stroke="#63b8ff" points="1164.76,-738 1174.76,-734.5 1164.76,-731 1164.76,-738"/>
</a>
</g>
</g>
<!-- Node15 -->
<g id="Node000015" class="node">
<title>Node15</title>
<g id="a_Node000015"><a xlink:href="effects_8c.html#af88bb4cbfc59690890829535fc793551" target="_top" xlink:title=" ">
<polygon fill="white" stroke="#666666" points="1094.5,-781 1002.5,-781 1002.5,-762 1094.5,-762 1094.5,-781"/>
<text text-anchor="middle" x="1048.5" y="-769" font-family="Helvetica,sans-Serif" font-size="10.00">func_8008D170</text>
</a>
</g>
</g>
<!-- Node12&#45;&gt;Node15 -->
<g id="edge14_Node000012_Node000015" class="edge">
<title>Node12&#45;&gt;Node15</title>
<g id="a_edge14_Node000012_Node000015"><a xlink:title=" ">
<path fill="none" stroke="#63b8ff" d="M1166.31,-746.15C1142.89,-751.23 1115.76,-757.12 1093.56,-761.94"/>
<polygon fill="#63b8ff" stroke="#63b8ff" points="1167.06,-749.57 1176.09,-744.03 1165.58,-742.73 1167.06,-749.57"/>
</a>
</g>
</g>
<!-- Node20 -->
<g id="Node000020" class="node">
<title>Node20</title>
<g id="a_Node000020"><a xlink:href="effects_8c.html#afcd934606edb08e59bff1545a7e447f7" target="_top" xlink:title=" ">
<polygon fill="white" stroke="#666666" points="1111,-668 986,-668 986,-649 1111,-649 1111,-668"/>
<text text-anchor="middle" x="1048.5" y="-656" font-family="Helvetica,sans-Serif" font-size="10.00">apply_lightning_effect</text>
</a>
</g>
</g>
<!-- Node19&#45;&gt;Node20 -->
<g id="edge20_Node000019_Node000020" class="edge">
<title>Node19&#45;&gt;Node20</title>
<g id="a_edge20_Node000019_Node000020"><a xlink:title=" ">
<path fill="none" stroke="#63b8ff" d="M1163.23,-658.5C1146.49,-658.5 1128.1,-658.5 1111.07,-658.5"/>
<polygon fill="#63b8ff" stroke="#63b8ff" points="1163.41,-662 1173.41,-658.5 1163.41,-655 1163.41,-662"/>
</a>
</g>
</g>
<!-- Node21&#45;&gt;Node22 -->
<g id="edge22_Node000021_Node000022" class="edge">
<title>Node21&#45;&gt;Node22</title>
<g id="a_edge22_Node000021_Node000022"><a xlink:title=" ">
<path fill="none" stroke="#63b8ff" d="M1164.97,-915.37C1142.12,-912.82 1115.94,-909.9 1094.29,-907.49"/>
<polygon fill="#63b8ff" stroke="#63b8ff" points="1164.88,-918.88 1175.2,-916.51 1165.65,-911.92 1164.88,-918.88"/>
</a>
</g>
</g>
<!-- Node26 -->
<g id="Node000026" class="node">
<title>Node26</title>
<g id="a_Node000026"><a xlink:href="effects_8c.html#afaeabb9e08b6568f56117c24edad5945" target="_top" xlink:title=" ">
<polygon fill="white" stroke="#666666" points="1094,-557 1003,-557 1003,-538 1094,-538 1094,-557"/>
<text text-anchor="middle" x="1048.5" y="-545" font-family="Helvetica,sans-Serif" font-size="10.00">func_8008F3F4</text>
</a>
</g>
</g>
<!-- Node25&#45;&gt;Node26 -->
<g id="edge26_Node000025_Node000026" class="edge">
<title>Node25&#45;&gt;Node26</title>
<g id="a_edge26_Node000025_Node000026"><a xlink:title=" ">
<path fill="none" stroke="#63b8ff" d="M1164.97,-547.5C1142.12,-547.5 1115.94,-547.5 1094.29,-547.5"/>
<polygon fill="#63b8ff" stroke="#63b8ff" points="1165.2,-551 1175.2,-547.5 1165.2,-544 1165.2,-551"/>
</a>
</g>
</g>
<!-- Node28 -->
<g id="Node000028" class="node">
<title>Node28</title>
<g id="a_Node000028"><a xlink:href="player__controller_8c.html#a9f21890266acabb27e962652c5ef4cfc" target="_top" xlink:title=" ">
<polygon fill="white" stroke="#666666" points="1266.5,-167 1175.5,-167 1175.5,-148 1266.5,-148 1266.5,-167"/>
<text text-anchor="middle" x="1221" y="-155" font-family="Helvetica,sans-Serif" font-size="10.00">func_80028864</text>
</a>
</g>
</g>
<!-- Node27&#45;&gt;Node28 -->
<g id="edge29_Node000027_Node000028" class="edge">
<title>Node27&#45;&gt;Node28</title>
<g id="a_edge29_Node000027_Node000028"><a xlink:title=" ">
<path fill="none" stroke="#63b8ff" d="M1343.11,-116.1C1339.02,-117.88 1334.9,-119.7 1331,-121.5 1314.75,-128.98 1311.79,-133.32 1295,-139.5 1286.06,-142.79 1276.28,-145.67 1266.87,-148.1"/>
<polygon fill="#63b8ff" stroke="#63b8ff" points="1344.7,-119.23 1352.52,-112.08 1341.95,-112.79 1344.7,-119.23"/>
</a>
</g>
</g>
<!-- Node40 -->
<g id="Node000040" class="node">
<title>Node40</title>
<g id="a_Node000040"><a xlink:href="player__controller_8c.html#a76e0206999fca6c9de4d4bef2c4620ce" target="_top" xlink:title=" ">
<polygon fill="white" stroke="#666666" points="1267,-130 1175,-130 1175,-111 1267,-111 1267,-130"/>
<text text-anchor="middle" x="1221" y="-118" font-family="Helvetica,sans-Serif" font-size="10.00">func_80028C44</text>
</a>
</g>
</g>
<!-- Node27&#45;&gt;Node40 -->
<g id="edge44_Node000027_Node000040" class="edge">
<title>Node27&#45;&gt;Node40</title>
<g id="a_edge44_Node000027_Node000040"><a xlink:title=" ">
<path fill="none" stroke="#63b8ff" d="M1320.51,-108.99C1302.95,-111.04 1283.78,-113.28 1267.05,-115.23"/>
<polygon fill="#63b8ff" stroke="#63b8ff" points="1321.1,-112.44 1330.63,-107.8 1320.29,-105.49 1321.1,-112.44"/>
</a>
</g>
</g>
<!-- Node41 -->
<g id="Node000041" class="node">
<title>Node41</title>
<g id="a_Node000041"><a xlink:href="player__controller_8c.html#ae531f1b044d00354a79cb3f88b81fa12" target="_top" xlink:title=" ">
<polygon fill="white" stroke="#666666" points="1267.5,-93 1174.5,-93 1174.5,-74 1267.5,-74 1267.5,-93"/>
<text text-anchor="middle" x="1221" y="-81" font-family="Helvetica,sans-Serif" font-size="10.00">func_80028D3C</text>
</a>
</g>
</g>
<!-- Node27&#45;&gt;Node41 -->
<g id="edge46_Node000027_Node000041" class="edge">
<title>Node27&#45;&gt;Node41</title>
<g id="a_edge46_Node000027_Node000041"><a xlink:title=" ">
<path fill="none" stroke="#63b8ff" d="M1320.6,-95.67C1303.21,-93.52 1284.21,-91.18 1267.58,-89.12"/>
<polygon fill="#63b8ff" stroke="#63b8ff" points="1320.27,-99.15 1330.63,-96.9 1321.13,-92.2 1320.27,-99.15"/>
</a>
</g>
</g>
<!-- Node42 -->
<g id="Node000042" class="node">
<title>Node42</title>
<g id="a_Node000042"><a xlink:href="spawn__players_8c.html#a786871d4fec99acdd5a14b48c1c38a7c" target="_top" xlink:title=" ">
<polygon fill="white" stroke="#666666" points="1267.5,-56 1174.5,-56 1174.5,-37 1267.5,-37 1267.5,-56"/>
<text text-anchor="middle" x="1221" y="-44" font-family="Helvetica,sans-Serif" font-size="10.00">func_8003CD98</text>
</a>
</g>
</g>
<!-- Node27&#45;&gt;Node42 -->
<g id="edge48_Node000027_Node000042" class="edge">
<title>Node27&#45;&gt;Node42</title>
<g id="a_edge48_Node000027_Node000042"><a xlink:title=" ">
<path fill="none" stroke="#63b8ff" d="M1349.08,-88.24C1333.58,-80.44 1313.55,-71.07 1295,-64.5 1286.02,-61.32 1276.22,-58.49 1266.81,-56.07"/>
<polygon fill="#63b8ff" stroke="#63b8ff" points="1347.6,-91.41 1358.09,-92.85 1350.79,-85.18 1347.6,-91.41"/>
</a>
</g>
</g>
<!-- Node29 -->
<g id="Node000029" class="node">
<title>Node29</title>
<g id="a_Node000029"><a xlink:href="player__controller_8c.html#af9d8e2fa807dab2737045c3c2517a46e" target="_top" xlink:title=" ">
<polygon fill="white" stroke="#666666" points="1094,-130 1003,-130 1003,-111 1094,-111 1094,-130"/>
<text text-anchor="middle" x="1048.5" y="-118" font-family="Helvetica,sans-Serif" font-size="10.00">func_80028E70</text>
</a>
</g>
</g>
<!-- Node28&#45;&gt;Node29 -->
<g id="edge30_Node000028_Node000029" class="edge">
<title>Node28&#45;&gt;Node29</title>
<g id="a_edge30_Node000028_Node000029"><a xlink:title=" ">
<path fill="none" stroke="#63b8ff" d="M1166.31,-145.85C1142.89,-140.77 1115.76,-134.88 1093.56,-130.06"/>
<polygon fill="#63b8ff" stroke="#63b8ff" points="1165.58,-149.27 1176.09,-147.97 1167.06,-142.43 1165.58,-149.27"/>
</a>
</g>
</g>
<!-- Node30 -->
<g id="Node000030" class="node">
<title>Node30</title>
<g id="a_Node000030"><a xlink:href="player__controller_8c.html#a60b22a77aa4cf0b2be0942a3e115a1eb" target="_top" xlink:title=" ">
<polygon fill="white" stroke="#666666" points="925.5,-167 834.5,-167 834.5,-148 925.5,-148 925.5,-167"/>
<text text-anchor="middle" x="880" y="-155" font-family="Helvetica,sans-Serif" font-size="10.00">func_80028F70</text>
</a>
</g>
</g>
<!-- Node29&#45;&gt;Node30 -->
<g id="edge31_Node000029_Node000030" class="edge">
<title>Node29&#45;&gt;Node30</title>
<g id="a_edge31_Node000029_Node000030"><a xlink:title=" ">
<path fill="none" stroke="#63b8ff" d="M994.76,-132.22C971.96,-137.29 945.61,-143.14 924.02,-147.94"/>
<polygon fill="#63b8ff" stroke="#63b8ff" points="995.62,-135.61 1004.62,-130.03 994.1,-128.78 995.62,-135.61"/>
</a>
</g>
</g>
<!-- Node38 -->
<g id="Node000038" class="node">
<title>Node38</title>
<g id="a_Node000038"><a xlink:href="player__controller_8c.html#ac7bf3fa7a7efacb6f6bad44477c2c7ed" target="_top" xlink:title=" ">
<polygon fill="white" stroke="#666666" points="925.5,-130 834.5,-130 834.5,-111 925.5,-111 925.5,-130"/>
<text text-anchor="middle" x="880" y="-118" font-family="Helvetica,sans-Serif" font-size="10.00">func_80029060</text>
</a>
</g>
</g>
<!-- Node29&#45;&gt;Node38 -->
<g id="edge40_Node000029_Node000038" class="edge">
<title>Node29&#45;&gt;Node38</title>
<g id="a_edge40_Node000029_Node000038"><a xlink:title=" ">
<path fill="none" stroke="#63b8ff" d="M992.8,-120.5C971.07,-120.5 946.38,-120.5 925.74,-120.5"/>
<polygon fill="#63b8ff" stroke="#63b8ff" points="992.88,-124 1002.88,-120.5 992.88,-117 992.88,-124"/>
</a>
</g>
</g>
<!-- Node39 -->
<g id="Node000039" class="node">
<title>Node39</title>
<g id="a_Node000039"><a xlink:href="player__controller_8c.html#a31f653813b5697d0af1bb9c16cdc4c76" target="_top" xlink:title=" ">
<polygon fill="white" stroke="#666666" points="925.5,-93 834.5,-93 834.5,-74 925.5,-74 925.5,-93"/>
<text text-anchor="middle" x="880" y="-81" font-family="Helvetica,sans-Serif" font-size="10.00">func_80029158</text>
</a>
</g>
</g>
<!-- Node29&#45;&gt;Node39 -->
<g id="edge42_Node000029_Node000039" class="edge">
<title>Node29&#45;&gt;Node39</title>
<g id="a_edge42_Node000029_Node000039"><a xlink:title=" ">
<path fill="none" stroke="#63b8ff" d="M994.76,-108.78C971.96,-103.71 945.61,-97.86 924.02,-93.06"/>
<polygon fill="#63b8ff" stroke="#63b8ff" points="994.1,-112.22 1004.62,-110.97 995.62,-105.39 994.1,-112.22"/>
</a>
</g>
</g>
<!-- Node31 -->
<g id="Node000031" class="node">
<title>Node31</title>
<g id="a_Node000031"><a xlink:href="podium__ceremony__actors_8c.html#a7ea229c65f264670fc828b95e8321154" target="_top" xlink:title=" ">
<polygon fill="white" stroke="#666666" points="774,-167 640,-167 640,-148 774,-148 774,-167"/>
<text text-anchor="middle" x="707" y="-155" font-family="Helvetica,sans-Serif" font-size="10.00">podium_ceremony_loop</text>
</a>
</g>
</g>
<!-- Node30&#45;&gt;Node31 -->
<g id="edge32_Node000030_Node000031" class="edge">
<title>Node30&#45;&gt;Node31</title>
<g id="a_edge32_Node000030_Node000031"><a xlink:title=" ">
<path fill="none" stroke="#63b8ff" d="M823.92,-157.5C808.07,-157.5 790.63,-157.5 774.19,-157.5"/>
<polygon fill="#63b8ff" stroke="#63b8ff" points="824.07,-161 834.07,-157.5 824.07,-154 824.07,-161"/>
</a>
</g>
</g>
<!-- Node37 -->
<g id="Node000037" class="node">
<title>Node37</title>
<g id="a_Node000037"><a xlink:href="main_8c.html#afff87ffcbfee4f1f37d443110aa7b52a" target="_top" xlink:title=" ">
<polygon fill="white" stroke="#666666" points="753,-130 661,-130 661,-111 753,-111 753,-130"/>
<text text-anchor="middle" x="707" y="-118" font-family="Helvetica,sans-Serif" font-size="10.00">race_logic_loop</text>
</a>
</g>
</g>
<!-- Node30&#45;&gt;Node37 -->
<g id="edge38_Node000030_Node000037" class="edge">
<title>Node30&#45;&gt;Node37</title>
<g id="a_edge38_Node000030_Node000037"><a xlink:title=" ">
<path fill="none" stroke="#63b8ff" d="M825.15,-145.85C801.66,-140.77 774.46,-134.88 752.18,-130.06"/>
<polygon fill="#63b8ff" stroke="#63b8ff" points="824.45,-149.28 834.96,-147.97 825.93,-142.44 824.45,-149.28"/>
</a>
</g>
</g>
<!-- Node32 -->
<g id="Node000032" class="node">
<title>Node32</title>
<g id="a_Node000032"><a xlink:href="main_8c.html#ae04143ce8113cdafa007c642eb620bc8" target="_top" xlink:title=" ">
<polygon fill="white" stroke="#666666" points="604,-130 488,-130 488,-111 604,-111 604,-130"/>
<text text-anchor="middle" x="546" y="-118" font-family="Helvetica,sans-Serif" font-size="10.00">game_state_handler</text>
</a>
</g>
</g>
<!-- Node31&#45;&gt;Node32 -->
<g id="edge33_Node000031_Node000032" class="edge">
<title>Node31&#45;&gt;Node32</title>
<g id="a_edge33_Node000031_Node000032"><a xlink:title=" ">
<path fill="none" stroke="#63b8ff" d="M655.05,-145.64C633.41,-140.61 608.52,-134.82 588.08,-130.06"/>
<polygon fill="#63b8ff" stroke="#63b8ff" points="654.52,-149.11 665.05,-147.97 656.11,-142.3 654.52,-149.11"/>
</a>
</g>
</g>
<!-- Node33 -->
<g id="Node000033" class="node">
<title>Node33</title>
<g id="a_Node000033"><a xlink:href="main_8c.html#a633ed517e458daeb768f5361895dcac9" target="_top" xlink:title=" ">
<polygon fill="white" stroke="#666666" points="452,-93 339,-93 339,-74 452,-74 452,-93"/>
<text text-anchor="middle" x="395.5" y="-81" font-family="Helvetica,sans-Serif" font-size="10.00">thread5_game_loop</text>
</a>
</g>
</g>
<!-- Node32&#45;&gt;Node33 -->
<g id="edge34_Node000032_Node000033" class="edge">
<title>Node32&#45;&gt;Node33</title>
<g id="a_edge34_Node000032_Node000033"><a xlink:title=" ">
<path fill="none" stroke="#63b8ff" d="M496.86,-108.51C476.78,-103.5 453.78,-97.77 434.87,-93.06"/>
<polygon fill="#63b8ff" stroke="#63b8ff" points="496.21,-111.95 506.76,-110.97 497.9,-105.16 496.21,-111.95"/>
</a>
</g>
</g>
<!-- Node34 -->
<g id="Node000034" class="node">
<title>Node34</title>
<g id="a_Node000034"><a xlink:href="main_8c.html#a023b8f272e4efbd33f371e91ffff6b30" target="_top" xlink:title=" ">
<polygon fill="white" stroke="#666666" points="303,-93 217,-93 217,-74 303,-74 303,-93"/>
<text text-anchor="middle" x="260" y="-81" font-family="Helvetica,sans-Serif" font-size="10.00">thread3_video</text>
</a>
</g>
</g>
<!-- Node33&#45;&gt;Node34 -->
<g id="edge35_Node000033_Node000034" class="edge">
<title>Node33&#45;&gt;Node34</title>
<g id="a_edge35_Node000033_Node000034"><a xlink:title=" ">
<path fill="none" stroke="#63b8ff" d="M328.57,-83.5C319.94,-83.5 311.3,-83.5 303.21,-83.5"/>
<polygon fill="#63b8ff" stroke="#63b8ff" points="328.66,-87 338.66,-83.5 328.66,-80 328.66,-87"/>
</a>
</g>
</g>
<!-- Node35 -->
<g id="Node000035" class="node">
<title>Node35</title>
<g id="a_Node000035"><a xlink:href="main_8c.html#a1e35d2b842121e6aea373f09381616e5" target="_top" xlink:title=" ">
<polygon fill="white" stroke="#666666" points="181,-93 104,-93 104,-74 181,-74 181,-93"/>
<text text-anchor="middle" x="142.5" y="-81" font-family="Helvetica,sans-Serif" font-size="10.00">thread1_idle</text>
</a>
</g>
</g>
<!-- Node34&#45;&gt;Node35 -->
<g id="edge36_Node000034_Node000035" class="edge">
<title>Node34&#45;&gt;Node35</title>
<g id="a_edge36_Node000034_Node000035"><a xlink:title=" ">
<path fill="none" stroke="#63b8ff" d="M206.9,-83.5C198.2,-83.5 189.33,-83.5 181.09,-83.5"/>
<polygon fill="#63b8ff" stroke="#63b8ff" points="206.98,-87 216.98,-83.5 206.98,-80 206.98,-87"/>
</a>
</g>
</g>
<!-- Node36 -->
<g id="Node000036" class="node">
<title>Node36</title>
<g id="a_Node000036"><a xlink:href="main_8c.html#a4f87d43525fe95f60ea92bc8a3b70e62" target="_top" xlink:title=" ">
<polygon fill="white" stroke="#666666" points="68,-93 0,-93 0,-74 68,-74 68,-93"/>
<text text-anchor="middle" x="34" y="-81" font-family="Helvetica,sans-Serif" font-size="10.00">main_func</text>
</a>
</g>
</g>
<!-- Node35&#45;&gt;Node36 -->
<g id="edge37_Node000035_Node000036" class="edge">
<title>Node35&#45;&gt;Node36</title>
<g id="a_edge37_Node000035_Node000036"><a xlink:title=" ">
<path fill="none" stroke="#63b8ff" d="M93.95,-83.5C85.29,-83.5 76.44,-83.5 68.31,-83.5"/>
<polygon fill="#63b8ff" stroke="#63b8ff" points="93.95,-87 103.95,-83.5 93.95,-80 93.95,-87"/>
</a>
</g>
</g>
<!-- Node37&#45;&gt;Node32 -->
<g id="edge39_Node000037_Node000032" class="edge">
<title>Node37&#45;&gt;Node32</title>
<g id="a_edge39_Node000037_Node000032"><a xlink:title=" ">
<path fill="none" stroke="#63b8ff" d="M650.68,-120.5C635.64,-120.5 619.32,-120.5 604.18,-120.5"/>
<polygon fill="#63b8ff" stroke="#63b8ff" points="650.86,-124 660.86,-120.5 650.86,-117 650.86,-124"/>
</a>
</g>
</g>
<!-- Node38&#45;&gt;Node37 -->
<g id="edge41_Node000038_Node000037" class="edge">
<title>Node38&#45;&gt;Node37</title>
<g id="a_edge41_Node000038_Node000037"><a xlink:title=" ">
<path fill="none" stroke="#63b8ff" d="M823.85,-120.5C801.02,-120.5 774.89,-120.5 753.22,-120.5"/>
<polygon fill="#63b8ff" stroke="#63b8ff" points="824.07,-124 834.07,-120.5 824.07,-117 824.07,-124"/>
</a>
</g>
</g>
<!-- Node39&#45;&gt;Node37 -->
<g id="edge43_Node000039_Node000037" class="edge">
<title>Node39&#45;&gt;Node37</title>
<g id="a_edge43_Node000039_Node000037"><a xlink:title=" ">
<path fill="none" stroke="#63b8ff" d="M825.15,-95.15C801.66,-100.23 774.46,-106.12 752.18,-110.94"/>
<polygon fill="#63b8ff" stroke="#63b8ff" points="825.93,-98.56 834.96,-93.03 824.45,-91.72 825.93,-98.56"/>
</a>
</g>
</g>
<!-- Node40&#45;&gt;Node29 -->
<g id="edge45_Node000040_Node000029" class="edge">
<title>Node40&#45;&gt;Node29</title>
<g id="a_edge45_Node000040_Node000029"><a xlink:title=" ">
<path fill="none" stroke="#63b8ff" d="M1164.53,-120.5C1141.7,-120.5 1115.62,-120.5 1094.07,-120.5"/>
<polygon fill="#63b8ff" stroke="#63b8ff" points="1164.76,-124 1174.76,-120.5 1164.76,-117 1164.76,-124"/>
</a>
</g>
</g>
<!-- Node41&#45;&gt;Node29 -->
<g id="edge47_Node000041_Node000029" class="edge">
<title>Node41&#45;&gt;Node29</title>
<g id="a_edge47_Node000041_Node000029"><a xlink:title=" ">
<path fill="none" stroke="#63b8ff" d="M1166.31,-95.15C1142.89,-100.23 1115.76,-106.12 1093.56,-110.94"/>
<polygon fill="#63b8ff" stroke="#63b8ff" points="1167.06,-98.57 1176.09,-93.03 1165.58,-91.73 1167.06,-98.57"/>
</a>
</g>
</g>
<!-- Node43 -->
<g id="Node000043" class="node">
<title>Node43</title>
<g id="a_Node000043"><a xlink:href="spawn__players_8c.html#ac1a9412b931cfa517a2382c2fc605399" target="_top" xlink:title=" ">
<polygon fill="white" stroke="#666666" points="1094.5,-56 1002.5,-56 1002.5,-37 1094.5,-37 1094.5,-56"/>
<text text-anchor="middle" x="1048.5" y="-44" font-family="Helvetica,sans-Serif" font-size="10.00">func_8003D080</text>
</a>
</g>
</g>
<!-- Node42&#45;&gt;Node43 -->
<g id="edge49_Node000042_Node000043" class="edge">
<title>Node42&#45;&gt;Node43</title>
<g id="a_edge49_Node000042_Node000043"><a xlink:title=" ">
<path fill="none" stroke="#63b8ff" d="M1164.21,-46.5C1141.69,-46.5 1116.05,-46.5 1094.73,-46.5"/>
<polygon fill="#63b8ff" stroke="#63b8ff" points="1164.31,-50 1174.31,-46.5 1164.31,-43 1164.31,-50"/>
</a>
</g>
</g>
<!-- Node44 -->
<g id="Node000044" class="node">
<title>Node44</title>
<g id="a_Node000044"><a xlink:href="code__80281780_8c.html#af227cfd0f1fd3d6adbe9a29ad59b4dc8" target="_top" xlink:title=" ">
<polygon fill="white" stroke="#666666" points="950,-56 810,-56 810,-37 950,-37 950,-56"/>
<text text-anchor="middle" x="880" y="-44" font-family="Helvetica,sans-Serif" font-size="10.00">load_ceremony_cutscene</text>
</a>
</g>
</g>
<!-- Node43&#45;&gt;Node44 -->
<g id="edge50_Node000043_Node000044" class="edge">
<title>Node43&#45;&gt;Node44</title>
<g id="a_edge50_Node000043_Node000044"><a xlink:title=" ">
<path fill="none" stroke="#63b8ff" d="M992.37,-46.5C978.87,-46.5 964.26,-46.5 950.2,-46.5"/>
<polygon fill="#63b8ff" stroke="#63b8ff" points="992.44,-50 1002.44,-46.5 992.44,-43 992.44,-50"/>
</a>
</g>
</g>
<!-- Node46 -->
<g id="Node000046" class="node">
<title>Node46</title>
<g id="a_Node000046"><a xlink:href="code__800029B0_8c.html#aca6165112fc92e65ad6477e785a7098c" target="_top" xlink:title=" ">
<polygon fill="white" stroke="#666666" points="915,-19 845,-19 845,0 915,0 915,-19"/>
<text text-anchor="middle" x="880" y="-7" font-family="Helvetica,sans-Serif" font-size="10.00">setup_race</text>
</a>
</g>
</g>
<!-- Node43&#45;&gt;Node46 -->
<g id="edge53_Node000043_Node000046" class="edge">
<title>Node43&#45;&gt;Node46</title>
<g id="a_edge53_Node000043_Node000046"><a xlink:title=" ">
<path fill="none" stroke="#63b8ff" d="M994.53,-34.73C968.52,-28.95 937.94,-22.15 915.08,-17.07"/>
<polygon fill="#63b8ff" stroke="#63b8ff" points="994.1,-38.22 1004.62,-36.97 995.62,-31.39 994.1,-38.22"/>
</a>
</g>
</g>
<!-- Node45 -->
<g id="Node000045" class="node">
<title>Node45</title>
<g id="a_Node000045"><a xlink:href="main_8c.html#ad0625ed56ac663d3ec7ae8f1ba50c735" target="_top" xlink:title=" ">
<polygon fill="white" stroke="#666666" points="761,-56 653,-56 653,-37 761,-37 761,-56"/>
<text text-anchor="middle" x="707" y="-44" font-family="Helvetica,sans-Serif" font-size="10.00">update_gamestate</text>
</a>
</g>
</g>
<!-- Node44&#45;&gt;Node45 -->
<g id="edge51_Node000044_Node000045" class="edge">
<title>Node44&#45;&gt;Node45</title>
<g id="a_edge51_Node000044_Node000045"><a xlink:title=" ">
<path fill="none" stroke="#63b8ff" d="M799.92,-46.5C786.73,-46.5 773.34,-46.5 761.01,-46.5"/>
<polygon fill="#63b8ff" stroke="#63b8ff" points="799.94,-50 809.94,-46.5 799.94,-43 799.94,-50"/>
</a>
</g>
</g>
<!-- Node45&#45;&gt;Node33 -->
<g id="edge52_Node000045_Node000033" class="edge">
<title>Node45&#45;&gt;Node33</title>
<g id="a_edge52_Node000045_Node000033"><a xlink:title=" ">
<path fill="none" stroke="#63b8ff" d="M642.64,-54.07C586.62,-60.77 505.7,-70.44 452.14,-76.85"/>
<polygon fill="#63b8ff" stroke="#63b8ff" points="643.28,-57.52 652.8,-52.86 642.45,-50.57 643.28,-57.52"/>
</a>
</g>
</g>
<!-- Node46&#45;&gt;Node45 -->
<g id="edge54_Node000046_Node000045" class="edge">
<title>Node46&#45;&gt;Node45</title>
<g id="a_edge54_Node000046_Node000045"><a xlink:title=" ">
<path fill="none" stroke="#63b8ff" d="M834.71,-19.08C809.33,-24.58 777.58,-31.45 752.21,-36.93"/>
<polygon fill="#63b8ff" stroke="#63b8ff" points="835.77,-22.43 844.81,-16.9 834.29,-15.59 835.77,-22.43"/>
</a>
</g>
</g>
<!-- Node47&#45;&gt;Node28 -->
<g id="edge56_Node000047_Node000028" class="edge">
<title>Node47&#45;&gt;Node28</title>
<g id="a_edge56_Node000047_Node000028"><a xlink:title=" ">
<path fill="none" stroke="#63b8ff" d="M1321.43,-145.88C1303.51,-147.97 1283.81,-150.28 1266.71,-152.27"/>
<polygon fill="#63b8ff" stroke="#63b8ff" points="1321.93,-149.34 1331.46,-144.71 1321.12,-142.39 1321.93,-149.34"/>
</a>
</g>
</g>
<!-- Node47&#45;&gt;Node40 -->
<g id="edge57_Node000047_Node000040" class="edge">
<title>Node47&#45;&gt;Node40</title>
<g id="a_edge57_Node000047_Node000040"><a xlink:title=" ">
<path fill="none" stroke="#63b8ff" d="M1321.27,-132.75C1303.58,-130.56 1284.17,-128.17 1267.24,-126.08"/>
<polygon fill="#63b8ff" stroke="#63b8ff" points="1321.1,-136.25 1331.46,-134 1321.96,-129.31 1321.1,-136.25"/>
</a>
</g>
</g>
<!-- Node47&#45;&gt;Node41 -->
<g id="edge58_Node000047_Node000041" class="edge">
<title>Node47&#45;&gt;Node41</title>
<g id="a_edge58_Node000047_Node000041"><a xlink:title=" ">
<path fill="none" stroke="#63b8ff" d="M1341.03,-125.93C1337.62,-124.48 1334.23,-122.99 1331,-121.5 1314.58,-113.91 1311.87,-109.04 1295,-102.5 1285.6,-98.85 1275.25,-95.68 1265.37,-93.03"/>
<polygon fill="#63b8ff" stroke="#63b8ff" points="1339.99,-129.29 1350.57,-129.87 1342.66,-122.82 1339.99,-129.29"/>
</a>
</g>
</g>
</g>
</svg>
