<?xml version="1.0" encoding="UTF-8" standalone="no"?>
<!DOCTYPE svg PUBLIC "-//W3C//DTD SVG 1.1//EN"
 "http://www.w3.org/Graphics/SVG/1.1/DTD/svg11.dtd">
<!-- Generated by graphviz version 2.43.0 (0)
 -->
<!-- Title: func_80090778 Pages: 1 -->
<svg width="1710pt" height="231pt"
 viewBox="0.00 0.00 1710.00 231.00" xmlns="http://www.w3.org/2000/svg" xmlns:xlink="http://www.w3.org/1999/xlink">
<g id="graph0" class="graph" transform="scale(1 1) rotate(0) translate(4 227)">
<title>func_80090778</title>
<!-- Node1 -->
<g id="Node000001" class="node">
<title>Node1</title>
<g id="a_Node000001"><a xlink:title=" ">
<polygon fill="#999999" stroke="#666666" points="1702,-56 1611,-56 1611,-37 1702,-37 1702,-56"/>
<text text-anchor="middle" x="1656.5" y="-44" font-family="Helvetica,sans-Serif" font-size="10.00">func_80090778</text>
</a>
</g>
</g>
<!-- Node2 -->
<g id="Node000002" class="node">
<title>Node2</title>
<g id="a_Node000002"><a xlink:href="player__controller_8c.html#aa3c944dd9f5b01d337472bdaa34389e1" target="_top" xlink:title=" ">
<polygon fill="white" stroke="#666666" points="1575,-121 1483,-121 1483,-102 1575,-102 1575,-121"/>
<text text-anchor="middle" x="1529" y="-109" font-family="Helvetica,sans-Serif" font-size="10.00">func_8002C4F8</text>
</a>
</g>
</g>
<!-- Node1&#45;&gt;Node2 -->
<g id="edge1_Node000001_Node000002" class="edge">
<title>Node1&#45;&gt;Node2</title>
<g id="a_edge1_Node000001_Node000002"><a xlink:title=" ">
<path fill="none" stroke="#63b8ff" d="M1627.99,-60.75C1603.9,-73.22 1569.57,-91 1548.59,-101.87"/>
<polygon fill="#63b8ff" stroke="#63b8ff" points="1629.71,-63.8 1636.98,-56.09 1626.49,-57.58 1629.71,-63.8"/>
</a>
</g>
</g>
<!-- Node25 -->
<g id="Node000025" class="node">
<title>Node25</title>
<g id="a_Node000025"><a xlink:href="code__80071F00_8c.html#a31147e0e1c7b87bb3f17f11ed1aec1fe" target="_top" xlink:title=" ">
<polygon fill="white" stroke="#666666" points="1574.5,-56 1483.5,-56 1483.5,-37 1574.5,-37 1574.5,-56"/>
<text text-anchor="middle" x="1529" y="-44" font-family="Helvetica,sans-Serif" font-size="10.00">func_80079860</text>
</a>
</g>
</g>
<!-- Node1&#45;&gt;Node25 -->
<g id="edge35_Node000001_Node000025" class="edge">
<title>Node1&#45;&gt;Node25</title>
<g id="a_edge35_Node000001_Node000025"><a xlink:title=" ">
<path fill="none" stroke="#63b8ff" d="M1600.85,-46.5C1592.18,-46.5 1583.3,-46.5 1574.88,-46.5"/>
<polygon fill="#63b8ff" stroke="#63b8ff" points="1600.9,-50 1610.9,-46.5 1600.9,-43 1600.9,-50"/>
</a>
</g>
</g>
<!-- Node32 -->
<g id="Node000032" class="node">
<title>Node32</title>
<g id="a_Node000032"><a xlink:href="effects_8c.html#afaeabb9e08b6568f56117c24edad5945" target="_top" xlink:title=" ">
<polygon fill="white" stroke="#666666" points="1574.5,-19 1483.5,-19 1483.5,0 1574.5,0 1574.5,-19"/>
<text text-anchor="middle" x="1529" y="-7" font-family="Helvetica,sans-Serif" font-size="10.00">func_8008F3F4</text>
</a>
</g>
</g>
<!-- Node1&#45;&gt;Node32 -->
<g id="edge45_Node000001_Node000032" class="edge">
<title>Node1&#45;&gt;Node32</title>
<g id="a_edge45_Node000001_Node000032"><a xlink:title=" ">
<path fill="none" stroke="#63b8ff" d="M1613.22,-34.04C1596.72,-29.17 1578.09,-23.68 1562.65,-19.12"/>
<polygon fill="#63b8ff" stroke="#63b8ff" points="1612.6,-37.5 1623.18,-36.97 1614.58,-30.79 1612.6,-37.5"/>
</a>
</g>
</g>
<!-- Node3 -->
<g id="Node000003" class="node">
<title>Node3</title>
<g id="a_Node000003"><a xlink:href="player__controller_8c.html#aafe8b94ccd61104120a9bf0ee954a901" target="_top" xlink:title=" ">
<polygon fill="white" stroke="#666666" points="1447,-149 1355,-149 1355,-130 1447,-130 1447,-149"/>
<text text-anchor="middle" x="1401" y="-137" font-family="Helvetica,sans-Serif" font-size="10.00">func_8002D268</text>
</a>
</g>
</g>
<!-- Node2&#45;&gt;Node3 -->
<g id="edge2_Node000002_Node000003" class="edge">
<title>Node2&#45;&gt;Node3</title>
<g id="a_edge2_Node000002_Node000003"><a xlink:title=" ">
<path fill="none" stroke="#63b8ff" d="M1475.06,-123.26C1464.98,-125.51 1454.54,-127.82 1444.82,-129.99"/>
<polygon fill="#63b8ff" stroke="#63b8ff" points="1475.99,-126.64 1484.99,-121.06 1474.47,-119.81 1475.99,-126.64"/>
</a>
</g>
</g>
<!-- Node23 -->
<g id="Node000023" class="node">
<title>Node23</title>
<g id="a_Node000023"><a xlink:href="player__controller_8c.html#a5bc20a94d467b8daf131fe16ab6a83d7" target="_top" xlink:title=" ">
<polygon fill="white" stroke="#666666" points="1446.5,-186 1355.5,-186 1355.5,-167 1446.5,-167 1446.5,-186"/>
<text text-anchor="middle" x="1401" y="-174" font-family="Helvetica,sans-Serif" font-size="10.00">func_8002E594</text>
</a>
</g>
</g>
<!-- Node2&#45;&gt;Node23 -->
<g id="edge29_Node000002_Node000023" class="edge">
<title>Node2&#45;&gt;Node23</title>
<g id="a_edge29_Node000002_Node000023"><a xlink:title=" ">
<path fill="none" stroke="#63b8ff" d="M1504.49,-126.36C1488.58,-136.11 1466.92,-148.8 1447,-158.5 1440.95,-161.45 1434.28,-164.31 1427.98,-166.85"/>
<polygon fill="#63b8ff" stroke="#63b8ff" points="1506.47,-129.25 1513.13,-121.01 1502.79,-123.3 1506.47,-129.25"/>
</a>
</g>
</g>
<!-- Node24 -->
<g id="Node000024" class="node">
<title>Node24</title>
<g id="a_Node000024"><a xlink:href="player__controller_8c.html#a105e6b6fca9198633b8990b0da71cd25" target="_top" xlink:title=" ">
<polygon fill="white" stroke="#666666" points="1447,-93 1355,-93 1355,-74 1447,-74 1447,-93"/>
<text text-anchor="middle" x="1401" y="-81" font-family="Helvetica,sans-Serif" font-size="10.00">func_80038C6C</text>
</a>
</g>
</g>
<!-- Node2&#45;&gt;Node24 -->
<g id="edge33_Node000002_Node000024" class="edge">
<title>Node2&#45;&gt;Node24</title>
<g id="a_edge33_Node000002_Node000024"><a xlink:title=" ">
<path fill="none" stroke="#63b8ff" d="M1475.06,-99.74C1464.98,-97.49 1454.54,-95.18 1444.82,-93.01"/>
<polygon fill="#63b8ff" stroke="#63b8ff" points="1474.47,-103.19 1484.99,-101.94 1475.99,-96.36 1474.47,-103.19"/>
</a>
</g>
</g>
<!-- Node4 -->
<g id="Node000004" class="node">
<title>Node4</title>
<g id="a_Node000004"><a xlink:href="player__controller_8c.html#a9f21890266acabb27e962652c5ef4cfc" target="_top" xlink:title=" ">
<polygon fill="white" stroke="#666666" points="1318,-223 1227,-223 1227,-204 1318,-204 1318,-223"/>
<text text-anchor="middle" x="1272.5" y="-211" font-family="Helvetica,sans-Serif" font-size="10.00">func_80028864</text>
</a>
</g>
</g>
<!-- Node3&#45;&gt;Node4 -->
<g id="edge3_Node000003_Node000004" class="edge">
<title>Node3&#45;&gt;Node4</title>
<g id="a_edge3_Node000003_Node000004"><a xlink:title=" ">
<path fill="none" stroke="#63b8ff" d="M1363.19,-153.56C1360.34,-155.09 1357.58,-156.74 1355,-158.5 1336.05,-171.44 1338.09,-182.77 1319,-195.5 1314.19,-198.7 1308.73,-201.48 1303.3,-203.82"/>
<polygon fill="#63b8ff" stroke="#63b8ff" points="1364.97,-156.59 1372.44,-149.08 1361.91,-150.29 1364.97,-156.59"/>
</a>
</g>
</g>
<!-- Node16 -->
<g id="Node000016" class="node">
<title>Node16</title>
<g id="a_Node000016"><a xlink:href="player__controller_8c.html#a76e0206999fca6c9de4d4bef2c4620ce" target="_top" xlink:title=" ">
<polygon fill="white" stroke="#666666" points="1318.5,-186 1226.5,-186 1226.5,-167 1318.5,-167 1318.5,-186"/>
<text text-anchor="middle" x="1272.5" y="-174" font-family="Helvetica,sans-Serif" font-size="10.00">func_80028C44</text>
</a>
</g>
</g>
<!-- Node3&#45;&gt;Node16 -->
<g id="edge18_Node000003_Node000016" class="edge">
<title>Node3&#45;&gt;Node16</title>
<g id="a_edge18_Node000003_Node000016"><a xlink:title=" ">
<path fill="none" stroke="#63b8ff" d="M1357.39,-151.96C1340.75,-156.83 1321.97,-162.32 1306.41,-166.88"/>
<polygon fill="#63b8ff" stroke="#63b8ff" points="1358.81,-155.2 1367.42,-149.03 1356.84,-148.48 1358.81,-155.2"/>
</a>
</g>
</g>
<!-- Node17 -->
<g id="Node000017" class="node">
<title>Node17</title>
<g id="a_Node000017"><a xlink:href="player__controller_8c.html#ae531f1b044d00354a79cb3f88b81fa12" target="_top" xlink:title=" ">
<polygon fill="white" stroke="#666666" points="1319,-149 1226,-149 1226,-130 1319,-130 1319,-149"/>
<text text-anchor="middle" x="1272.5" y="-137" font-family="Helvetica,sans-Serif" font-size="10.00">func_80028D3C</text>
</a>
</g>
</g>
<!-- Node3&#45;&gt;Node17 -->
<g id="edge20_Node000003_Node000017" class="edge">
<title>Node3&#45;&gt;Node17</title>
<g id="a_edge20_Node000003_Node000017"><a xlink:title=" ">
<path fill="none" stroke="#63b8ff" d="M1344.55,-139.5C1336.14,-139.5 1327.53,-139.5 1319.35,-139.5"/>
<polygon fill="#63b8ff" stroke="#63b8ff" points="1344.69,-143 1354.69,-139.5 1344.69,-136 1344.69,-143"/>
</a>
</g>
</g>
<!-- Node18 -->
<g id="Node000018" class="node">
<title>Node18</title>
<g id="a_Node000018"><a xlink:href="spawn__players_8c.html#a786871d4fec99acdd5a14b48c1c38a7c" target="_top" xlink:title=" ">
<polygon fill="white" stroke="#666666" points="1319,-112 1226,-112 1226,-93 1319,-93 1319,-112"/>
<text text-anchor="middle" x="1272.5" y="-100" font-family="Helvetica,sans-Serif" font-size="10.00">func_8003CD98</text>
</a>
</g>
</g>
<!-- Node3&#45;&gt;Node18 -->
<g id="edge22_Node000003_Node000018" class="edge">
<title>Node3&#45;&gt;Node18</title>
<g id="a_edge22_Node000003_Node000018"><a xlink:title=" ">
<path fill="none" stroke="#63b8ff" d="M1357.39,-127.04C1340.75,-122.17 1321.97,-116.68 1306.41,-112.12"/>
<polygon fill="#63b8ff" stroke="#63b8ff" points="1356.84,-130.52 1367.42,-129.97 1358.81,-123.8 1356.84,-130.52"/>
</a>
</g>
</g>
<!-- Node5 -->
<g id="Node000005" class="node">
<title>Node5</title>
<g id="a_Node000005"><a xlink:href="player__controller_8c.html#af9d8e2fa807dab2737045c3c2517a46e" target="_top" xlink:title=" ">
<polygon fill="white" stroke="#666666" points="1189.5,-167 1098.5,-167 1098.5,-148 1189.5,-148 1189.5,-167"/>
<text text-anchor="middle" x="1144" y="-155" font-family="Helvetica,sans-Serif" font-size="10.00">func_80028E70</text>
</a>
</g>
</g>
<!-- Node4&#45;&gt;Node5 -->
<g id="edge4_Node000004_Node000005" class="edge">
<title>Node4&#45;&gt;Node5</title>
<g id="a_edge4_Node000004_Node000005"><a xlink:title=" ">
<path fill="none" stroke="#63b8ff" d="M1236.78,-200.02C1233.13,-198.53 1229.48,-197 1226,-195.5 1204.75,-186.32 1180.8,-174.96 1164.49,-167.06"/>
<polygon fill="#63b8ff" stroke="#63b8ff" points="1235.77,-203.39 1246.35,-203.87 1238.38,-196.89 1235.77,-203.39"/>
</a>
</g>
</g>
<!-- Node6 -->
<g id="Node000006" class="node">
<title>Node6</title>
<g id="a_Node000006"><a xlink:href="player__controller_8c.html#a60b22a77aa4cf0b2be0942a3e115a1eb" target="_top" xlink:title=" ">
<polygon fill="white" stroke="#666666" points="1037.5,-130 946.5,-130 946.5,-111 1037.5,-111 1037.5,-130"/>
<text text-anchor="middle" x="992" y="-118" font-family="Helvetica,sans-Serif" font-size="10.00">func_80028F70</text>
</a>
</g>
</g>
<!-- Node5&#45;&gt;Node6 -->
<g id="edge5_Node000005_Node000006" class="edge">
<title>Node5&#45;&gt;Node6</title>
<g id="a_edge5_Node000005_Node000006"><a xlink:title=" ">
<path fill="none" stroke="#63b8ff" d="M1094.66,-145.57C1074.31,-140.56 1050.95,-134.79 1031.76,-130.06"/>
<polygon fill="#63b8ff" stroke="#63b8ff" points="1093.82,-148.97 1104.37,-147.97 1095.5,-142.18 1093.82,-148.97"/>
</a>
</g>
</g>
<!-- Node14 -->
<g id="Node000014" class="node">
<title>Node14</title>
<g id="a_Node000014"><a xlink:href="player__controller_8c.html#ac7bf3fa7a7efacb6f6bad44477c2c7ed" target="_top" xlink:title=" ">
<polygon fill="white" stroke="#666666" points="1037.5,-204 946.5,-204 946.5,-185 1037.5,-185 1037.5,-204"/>
<text text-anchor="middle" x="992" y="-192" font-family="Helvetica,sans-Serif" font-size="10.00">func_80029060</text>
</a>
</g>
</g>
<!-- Node5&#45;&gt;Node14 -->
<g id="edge14_Node000005_Node000014" class="edge">
<title>Node5&#45;&gt;Node14</title>
<g id="a_edge14_Node000005_Node000014"><a xlink:title=" ">
<path fill="none" stroke="#63b8ff" d="M1094.66,-169.43C1074.31,-174.44 1050.95,-180.21 1031.76,-184.94"/>
<polygon fill="#63b8ff" stroke="#63b8ff" points="1095.5,-172.82 1104.37,-167.03 1093.82,-166.03 1095.5,-172.82"/>
</a>
</g>
</g>
<!-- Node15 -->
<g id="Node000015" class="node">
<title>Node15</title>
<g id="a_Node000015"><a xlink:href="player__controller_8c.html#a31f653813b5697d0af1bb9c16cdc4c76" target="_top" xlink:title=" ">
<polygon fill="white" stroke="#666666" points="1037.5,-167 946.5,-167 946.5,-148 1037.5,-148 1037.5,-167"/>
<text text-anchor="middle" x="992" y="-155" font-family="Helvetica,sans-Serif" font-size="10.00">func_80029158</text>
</a>
</g>
</g>
<!-- Node5&#45;&gt;Node15 -->
<g id="edge16_Node000005_Node000015" class="edge">
<title>Node5&#45;&gt;Node15</title>
<g id="a_edge16_Node000005_Node000015"><a xlink:title=" ">
<path fill="none" stroke="#63b8ff" d="M1088.27,-157.5C1071.64,-157.5 1053.57,-157.5 1037.69,-157.5"/>
<polygon fill="#63b8ff" stroke="#63b8ff" points="1088.4,-161 1098.4,-157.5 1088.4,-154 1088.4,-161"/>
</a>
</g>
</g>
<!-- Node7 -->
<g id="Node000007" class="node">
<title>Node7</title>
<g id="a_Node000007"><a xlink:href="podium__ceremony__actors_8c.html#a7ea229c65f264670fc828b95e8321154" target="_top" xlink:title=" ">
<polygon fill="white" stroke="#666666" points="886,-130 752,-130 752,-111 886,-111 886,-130"/>
<text text-anchor="middle" x="819" y="-118" font-family="Helvetica,sans-Serif" font-size="10.00">podium_ceremony_loop</text>
</a>
</g>
</g>
<!-- Node6&#45;&gt;Node7 -->
<g id="edge6_Node000006_Node000007" class="edge">
<title>Node6&#45;&gt;Node7</title>
<g id="a_edge6_Node000006_Node000007"><a xlink:title=" ">
<path fill="none" stroke="#63b8ff" d="M935.92,-120.5C920.07,-120.5 902.63,-120.5 886.19,-120.5"/>
<polygon fill="#63b8ff" stroke="#63b8ff" points="936.07,-124 946.07,-120.5 936.07,-117 936.07,-124"/>
</a>
</g>
</g>
<!-- Node13 -->
<g id="Node000013" class="node">
<title>Node13</title>
<g id="a_Node000013"><a xlink:href="main_8c.html#afff87ffcbfee4f1f37d443110aa7b52a" target="_top" xlink:title=" ">
<polygon fill="white" stroke="#666666" points="865,-167 773,-167 773,-148 865,-148 865,-167"/>
<text text-anchor="middle" x="819" y="-155" font-family="Helvetica,sans-Serif" font-size="10.00">race_logic_loop</text>
</a>
</g>
</g>
<!-- Node6&#45;&gt;Node13 -->
<g id="edge12_Node000006_Node000013" class="edge">
<title>Node6&#45;&gt;Node13</title>
<g id="a_edge12_Node000006_Node000013"><a xlink:title=" ">
<path fill="none" stroke="#63b8ff" d="M937.15,-132.15C913.66,-137.23 886.46,-143.12 864.18,-147.94"/>
<polygon fill="#63b8ff" stroke="#63b8ff" points="937.93,-135.56 946.96,-130.03 936.45,-128.72 937.93,-135.56"/>
</a>
</g>
</g>
<!-- Node8 -->
<g id="Node000008" class="node">
<title>Node8</title>
<g id="a_Node000008"><a xlink:href="main_8c.html#ae04143ce8113cdafa007c642eb620bc8" target="_top" xlink:title=" ">
<polygon fill="white" stroke="#666666" points="604,-111 488,-111 488,-92 604,-92 604,-111"/>
<text text-anchor="middle" x="546" y="-99" font-family="Helvetica,sans-Serif" font-size="10.00">game_state_handler</text>
</a>
</g>
</g>
<!-- Node7&#45;&gt;Node8 -->
<g id="edge7_Node000007_Node000008" class="edge">
<title>Node7&#45;&gt;Node8</title>
<g id="a_edge7_Node000007_Node000008"><a xlink:title=" ">
<path fill="none" stroke="#63b8ff" d="M741.71,-115.15C698.11,-112.09 644.33,-108.32 604.35,-105.52"/>
<polygon fill="#63b8ff" stroke="#63b8ff" points="741.49,-118.64 751.71,-115.85 741.98,-111.66 741.49,-118.64"/>
</a>
</g>
</g>
<!-- Node9 -->
<g id="Node000009" class="node">
<title>Node9</title>
<g id="a_Node000009"><a xlink:href="main_8c.html#a633ed517e458daeb768f5361895dcac9" target="_top" xlink:title=" ">
<polygon fill="white" stroke="#666666" points="452,-73 339,-73 339,-54 452,-54 452,-73"/>
<text text-anchor="middle" x="395.5" y="-61" font-family="Helvetica,sans-Serif" font-size="10.00">thread5_game_loop</text>
</a>
</g>
</g>
<!-- Node8&#45;&gt;Node9 -->
<g id="edge8_Node000008_Node000009" class="edge">
<title>Node8&#45;&gt;Node9</title>
<g id="a_edge8_Node000008_Node000009"><a xlink:title=" ">
<path fill="none" stroke="#63b8ff" d="M497.67,-89.39C476.99,-84.1 453.08,-77.98 433.7,-73.02"/>
<polygon fill="#63b8ff" stroke="#63b8ff" points="496.97,-92.82 507.53,-91.91 498.71,-86.04 496.97,-92.82"/>
</a>
</g>
</g>
<!-- Node10 -->
<g id="Node000010" class="node">
<title>Node10</title>
<g id="a_Node000010"><a xlink:href="main_8c.html#a023b8f272e4efbd33f371e91ffff6b30" target="_top" xlink:title=" ">
<polygon fill="white" stroke="#666666" points="303,-73 217,-73 217,-54 303,-54 303,-73"/>
<text text-anchor="middle" x="260" y="-61" font-family="Helvetica,sans-Serif" font-size="10.00">thread3_video</text>
</a>
</g>
</g>
<!-- Node9&#45;&gt;Node10 -->
<g id="edge9_Node000009_Node000010" class="edge">
<title>Node9&#45;&gt;Node10</title>
<g id="a_edge9_Node000009_Node000010"><a xlink:title=" ">
<path fill="none" stroke="#63b8ff" d="M328.57,-63.5C319.94,-63.5 311.3,-63.5 303.21,-63.5"/>
<polygon fill="#63b8ff" stroke="#63b8ff" points="328.66,-67 338.66,-63.5 328.66,-60 328.66,-67"/>
</a>
</g>
</g>
<!-- Node11 -->
<g id="Node000011" class="node">
<title>Node11</title>
<g id="a_Node000011"><a xlink:href="main_8c.html#a1e35d2b842121e6aea373f09381616e5" target="_top" xlink:title=" ">
<polygon fill="white" stroke="#666666" points="181,-73 104,-73 104,-54 181,-54 181,-73"/>
<text text-anchor="middle" x="142.5" y="-61" font-family="Helvetica,sans-Serif" font-size="10.00">thread1_idle</text>
</a>
</g>
</g>
<!-- Node10&#45;&gt;Node11 -->
<g id="edge10_Node000010_Node000011" class="edge">
<title>Node10&#45;&gt;Node11</title>
<g id="a_edge10_Node000010_Node000011"><a xlink:title=" ">
<path fill="none" stroke="#63b8ff" d="M206.9,-63.5C198.2,-63.5 189.33,-63.5 181.09,-63.5"/>
<polygon fill="#63b8ff" stroke="#63b8ff" points="206.98,-67 216.98,-63.5 206.98,-60 206.98,-67"/>
</a>
</g>
</g>
<!-- Node12 -->
<g id="Node000012" class="node">
<title>Node12</title>
<g id="a_Node000012"><a xlink:href="main_8c.html#a4f87d43525fe95f60ea92bc8a3b70e62" target="_top" xlink:title=" ">
<polygon fill="white" stroke="#666666" points="68,-73 0,-73 0,-54 68,-54 68,-73"/>
<text text-anchor="middle" x="34" y="-61" font-family="Helvetica,sans-Serif" font-size="10.00">main_func</text>
</a>
</g>
</g>
<!-- Node11&#45;&gt;Node12 -->
<g id="edge11_Node000011_Node000012" class="edge">
<title>Node11&#45;&gt;Node12</title>
<g id="a_edge11_Node000011_Node000012"><a xlink:title=" ">
<path fill="none" stroke="#63b8ff" d="M93.95,-63.5C85.29,-63.5 76.44,-63.5 68.31,-63.5"/>
<polygon fill="#63b8ff" stroke="#63b8ff" points="93.95,-67 103.95,-63.5 93.95,-60 93.95,-67"/>
</a>
</g>
</g>
<!-- Node13&#45;&gt;Node8 -->
<g id="edge13_Node000013_Node000008" class="edge">
<title>Node13&#45;&gt;Node8</title>
<g id="a_edge13_Node000013_Node000008"><a xlink:title=" ">
<path fill="none" stroke="#63b8ff" d="M762.78,-148.13C727.54,-141.94 680.96,-133.35 640,-124.5 621.3,-120.46 600.64,-115.41 583.55,-111.07"/>
<polygon fill="#63b8ff" stroke="#63b8ff" points="762.41,-151.62 772.86,-149.89 763.61,-144.72 762.41,-151.62"/>
</a>
</g>
</g>
<!-- Node14&#45;&gt;Node13 -->
<g id="edge15_Node000014_Node000013" class="edge">
<title>Node14&#45;&gt;Node13</title>
<g id="a_edge15_Node000014_Node000013"><a xlink:title=" ">
<path fill="none" stroke="#63b8ff" d="M937.15,-182.85C913.66,-177.77 886.46,-171.88 864.18,-167.06"/>
<polygon fill="#63b8ff" stroke="#63b8ff" points="936.45,-186.28 946.96,-184.97 937.93,-179.44 936.45,-186.28"/>
</a>
</g>
</g>
<!-- Node15&#45;&gt;Node13 -->
<g id="edge17_Node000015_Node000013" class="edge">
<title>Node15&#45;&gt;Node13</title>
<g id="a_edge17_Node000015_Node000013"><a xlink:title=" ">
<path fill="none" stroke="#63b8ff" d="M935.85,-157.5C913.02,-157.5 886.89,-157.5 865.22,-157.5"/>
<polygon fill="#63b8ff" stroke="#63b8ff" points="936.07,-161 946.07,-157.5 936.07,-154 936.07,-161"/>
</a>
</g>
</g>
<!-- Node16&#45;&gt;Node5 -->
<g id="edge19_Node000016_Node000005" class="edge">
<title>Node16&#45;&gt;Node5</title>
<g id="a_edge19_Node000016_Node000005"><a xlink:title=" ">
<path fill="none" stroke="#63b8ff" d="M1216.25,-168.2C1207.33,-166.86 1198.2,-165.49 1189.57,-164.19"/>
<polygon fill="#63b8ff" stroke="#63b8ff" points="1215.78,-171.67 1226.19,-169.69 1216.82,-164.75 1215.78,-171.67"/>
</a>
</g>
</g>
<!-- Node17&#45;&gt;Node5 -->
<g id="edge21_Node000017_Node000005" class="edge">
<title>Node17&#45;&gt;Node5</title>
<g id="a_edge21_Node000017_Node000005"><a xlink:title=" ">
<path fill="none" stroke="#63b8ff" d="M1215.75,-147.43C1207.05,-148.67 1198.16,-149.94 1189.75,-151.13"/>
<polygon fill="#63b8ff" stroke="#63b8ff" points="1216.42,-150.87 1225.83,-146 1215.44,-143.94 1216.42,-150.87"/>
</a>
</g>
</g>
<!-- Node19 -->
<g id="Node000019" class="node">
<title>Node19</title>
<g id="a_Node000019"><a xlink:href="spawn__players_8c.html#ac1a9412b931cfa517a2382c2fc605399" target="_top" xlink:title=" ">
<polygon fill="white" stroke="#666666" points="1190,-56 1098,-56 1098,-37 1190,-37 1190,-56"/>
<text text-anchor="middle" x="1144" y="-44" font-family="Helvetica,sans-Serif" font-size="10.00">func_8003D080</text>
</a>
</g>
</g>
<!-- Node18&#45;&gt;Node19 -->
<g id="edge23_Node000018_Node000019" class="edge">
<title>Node18&#45;&gt;Node19</title>
<g id="a_edge23_Node000018_Node000019"><a xlink:title=" ">
<path fill="none" stroke="#63b8ff" d="M1241.31,-88.56C1225.98,-81.55 1207.05,-72.97 1190,-65.5 1182.85,-62.37 1175.03,-59.04 1167.94,-56.05"/>
<polygon fill="#63b8ff" stroke="#63b8ff" points="1240.25,-91.93 1250.8,-92.92 1243.17,-85.57 1240.25,-91.93"/>
</a>
</g>
</g>
<!-- Node20 -->
<g id="Node000020" class="node">
<title>Node20</title>
<g id="a_Node000020"><a xlink:href="code__80281780_8c.html#af227cfd0f1fd3d6adbe9a29ad59b4dc8" target="_top" xlink:title=" ">
<polygon fill="white" stroke="#666666" points="1062,-19 922,-19 922,0 1062,0 1062,-19"/>
<text text-anchor="middle" x="992" y="-7" font-family="Helvetica,sans-Serif" font-size="10.00">load_ceremony_cutscene</text>
</a>
</g>
</g>
<!-- Node19&#45;&gt;Node20 -->
<g id="edge24_Node000019_Node000020" class="edge">
<title>Node19&#45;&gt;Node20</title>
<g id="a_edge24_Node000019_Node000020"><a xlink:title=" ">
<path fill="none" stroke="#63b8ff" d="M1094.66,-34.57C1074.31,-29.56 1050.95,-23.79 1031.76,-19.06"/>
<polygon fill="#63b8ff" stroke="#63b8ff" points="1093.82,-37.97 1104.37,-36.97 1095.5,-31.18 1093.82,-37.97"/>
</a>
</g>
</g>
<!-- Node22 -->
<g id="Node000022" class="node">
<title>Node22</title>
<g id="a_Node000022"><a xlink:href="code__800029B0_8c.html#aca6165112fc92e65ad6477e785a7098c" target="_top" xlink:title=" ">
<polygon fill="white" stroke="#666666" points="1027,-56 957,-56 957,-37 1027,-37 1027,-56"/>
<text text-anchor="middle" x="992" y="-44" font-family="Helvetica,sans-Serif" font-size="10.00">setup_race</text>
</a>
</g>
</g>
<!-- Node19&#45;&gt;Node22 -->
<g id="edge27_Node000019_Node000022" class="edge">
<title>Node19&#45;&gt;Node22</title>
<g id="a_edge27_Node000019_Node000022"><a xlink:title=" ">
<path fill="none" stroke="#63b8ff" d="M1087.87,-46.5C1067.48,-46.5 1044.97,-46.5 1027,-46.5"/>
<polygon fill="#63b8ff" stroke="#63b8ff" points="1088,-50 1098,-46.5 1088,-43 1088,-50"/>
</a>
</g>
</g>
<!-- Node21 -->
<g id="Node000021" class="node">
<title>Node21</title>
<g id="a_Node000021"><a xlink:href="main_8c.html#ad0625ed56ac663d3ec7ae8f1ba50c735" target="_top" xlink:title=" ">
<polygon fill="white" stroke="#666666" points="873,-54 765,-54 765,-35 873,-35 873,-54"/>
<text text-anchor="middle" x="819" y="-42" font-family="Helvetica,sans-Serif" font-size="10.00">update_gamestate</text>
</a>
</g>
</g>
<!-- Node20&#45;&gt;Node21 -->
<g id="edge25_Node000020_Node000021" class="edge">
<title>Node20&#45;&gt;Node21</title>
<g id="a_edge25_Node000020_Node000021"><a xlink:title=" ">
<path fill="none" stroke="#63b8ff" d="M934.41,-21.08C912.44,-25.58 887.59,-30.67 866.67,-34.95"/>
<polygon fill="#63b8ff" stroke="#63b8ff" points="935.18,-24.5 944.27,-19.06 933.77,-17.64 935.18,-24.5"/>
</a>
</g>
</g>
<!-- Node21&#45;&gt;Node9 -->
<g id="edge26_Node000021_Node000009" class="edge">
<title>Node21&#45;&gt;Node9</title>
<g id="a_edge26_Node000021_Node000009"><a xlink:title=" ">
<path fill="none" stroke="#63b8ff" d="M754.4,-47.37C672.17,-51.07 530.27,-57.47 452.13,-60.99"/>
<polygon fill="#63b8ff" stroke="#63b8ff" points="754.78,-50.85 764.62,-46.91 754.47,-43.86 754.78,-50.85"/>
</a>
</g>
</g>
<!-- Node22&#45;&gt;Node21 -->
<g id="edge28_Node000022_Node000021" class="edge">
<title>Node22&#45;&gt;Node21</title>
<g id="a_edge28_Node000022_Node000021"><a xlink:title=" ">
<path fill="none" stroke="#63b8ff" d="M946.57,-45.98C924.18,-45.72 896.85,-45.4 873.33,-45.12"/>
<polygon fill="#63b8ff" stroke="#63b8ff" points="946.77,-49.48 956.81,-46.1 946.85,-42.48 946.77,-49.48"/>
</a>
</g>
</g>
<!-- Node23&#45;&gt;Node4 -->
<g id="edge30_Node000023_Node000004" class="edge">
<title>Node23&#45;&gt;Node4</title>
<g id="a_edge30_Node000023_Node000004"><a xlink:title=" ">
<path fill="none" stroke="#63b8ff" d="M1357.39,-188.96C1340.75,-193.83 1321.97,-199.32 1306.41,-203.88"/>
<polygon fill="#63b8ff" stroke="#63b8ff" points="1358.81,-192.2 1367.42,-186.03 1356.84,-185.48 1358.81,-192.2"/>
</a>
</g>
</g>
<!-- Node23&#45;&gt;Node16 -->
<g id="edge31_Node000023_Node000016" class="edge">
<title>Node23&#45;&gt;Node16</title>
<g id="a_edge31_Node000023_Node000016"><a xlink:title=" ">
<path fill="none" stroke="#63b8ff" d="M1345.13,-176.5C1336.25,-176.5 1327.16,-176.5 1318.55,-176.5"/>
<polygon fill="#63b8ff" stroke="#63b8ff" points="1345.4,-180 1355.4,-176.5 1345.4,-173 1345.4,-180"/>
</a>
</g>
</g>
<!-- Node23&#45;&gt;Node17 -->
<g id="edge32_Node000023_Node000017" class="edge">
<title>Node23&#45;&gt;Node17</title>
<g id="a_edge32_Node000023_Node000017"><a xlink:title=" ">
<path fill="none" stroke="#63b8ff" d="M1357.39,-164.04C1340.75,-159.17 1321.97,-153.68 1306.41,-149.12"/>
<polygon fill="#63b8ff" stroke="#63b8ff" points="1356.84,-167.52 1367.42,-166.97 1358.81,-160.8 1356.84,-167.52"/>
</a>
</g>
</g>
<!-- Node24&#45;&gt;Node5 -->
<g id="edge34_Node000024_Node000005" class="edge">
<title>Node24&#45;&gt;Node5</title>
<g id="a_edge34_Node000024_Node000005"><a xlink:title=" ">
<path fill="none" stroke="#63b8ff" d="M1344.67,-73.98C1309.51,-70.29 1263.69,-69.9 1226,-84.5 1192.64,-97.43 1164.39,-131.06 1151.88,-147.77"/>
<polygon fill="#63b8ff" stroke="#63b8ff" points="1344.41,-77.48 1354.75,-75.16 1345.22,-70.53 1344.41,-77.48"/>
</a>
</g>
</g>
<!-- Node26 -->
<g id="Node000026" class="node">
<title>Node26</title>
<g id="a_Node000026"><a xlink:href="code__80071F00_8c.html#ac2ef76567c814c21e149a422ac6606d6" target="_top" xlink:title=" ">
<polygon fill="white" stroke="#666666" points="1447,-56 1355,-56 1355,-37 1447,-37 1447,-56"/>
<text text-anchor="middle" x="1401" y="-44" font-family="Helvetica,sans-Serif" font-size="10.00">func_8007A910</text>
</a>
</g>
</g>
<!-- Node25&#45;&gt;Node26 -->
<g id="edge36_Node000025_Node000026" class="edge">
<title>Node25&#45;&gt;Node26</title>
<g id="a_edge36_Node000025_Node000026"><a xlink:title=" ">
<path fill="none" stroke="#63b8ff" d="M1473.14,-46.5C1464.43,-46.5 1455.51,-46.5 1447.06,-46.5"/>
<polygon fill="#63b8ff" stroke="#63b8ff" points="1473.22,-50 1483.22,-46.5 1473.22,-43 1473.22,-50"/>
</a>
</g>
</g>
<!-- Node27 -->
<g id="Node000027" class="node">
<title>Node27</title>
<g id="a_Node000027"><a xlink:href="code__80071F00_8c.html#ade67b778933121155720adcbf8c66b47" target="_top" xlink:title=" ">
<polygon fill="white" stroke="#666666" points="1318.5,-36 1226.5,-36 1226.5,-17 1318.5,-17 1318.5,-36"/>
<text text-anchor="middle" x="1272.5" y="-24" font-family="Helvetica,sans-Serif" font-size="10.00">func_8007AA44</text>
</a>
</g>
</g>
<!-- Node26&#45;&gt;Node27 -->
<g id="edge37_Node000026_Node000027" class="edge">
<title>Node26&#45;&gt;Node27</title>
<g id="a_edge37_Node000026_Node000027"><a xlink:title=" ">
<path fill="none" stroke="#63b8ff" d="M1344.71,-37.76C1336.09,-36.4 1327.28,-35 1318.92,-33.68"/>
<polygon fill="#63b8ff" stroke="#63b8ff" points="1344.26,-41.23 1354.69,-39.34 1345.36,-34.32 1344.26,-41.23"/>
</a>
</g>
</g>
<!-- Node28 -->
<g id="Node000028" class="node">
<title>Node28</title>
<g id="a_Node000028"><a xlink:href="code__80057C60_8c.html#a48f7fc1ba7acccec2d7b6e0a59f65dc5" target="_top" xlink:title=" ">
<polygon fill="white" stroke="#666666" points="1190,-93 1098,-93 1098,-74 1190,-74 1190,-93"/>
<text text-anchor="middle" x="1144" y="-81" font-family="Helvetica,sans-Serif" font-size="10.00">func_80059D00</text>
</a>
</g>
</g>
<!-- Node27&#45;&gt;Node28 -->
<g id="edge38_Node000027_Node000028" class="edge">
<title>Node27&#45;&gt;Node28</title>
<g id="a_edge38_Node000027_Node000028"><a xlink:title=" ">
<path fill="none" stroke="#63b8ff" d="M1243.13,-40.64C1227.56,-48.26 1207.84,-57.67 1190,-65.5 1183.53,-68.34 1176.46,-71.25 1169.88,-73.89"/>
<polygon fill="#63b8ff" stroke="#63b8ff" points="1244.81,-43.72 1252.23,-36.16 1241.72,-37.44 1244.81,-43.72"/>
</a>
</g>
</g>
<!-- Node29 -->
<g id="Node000029" class="node">
<title>Node29</title>
<g id="a_Node000029"><a xlink:href="code__80057C60_8c.html#a86b7dba9c0715c4d7fdf8ce61c0738bc" target="_top" xlink:title=" ">
<polygon fill="white" stroke="#666666" points="1038,-93 946,-93 946,-74 1038,-74 1038,-93"/>
<text text-anchor="middle" x="992" y="-81" font-family="Helvetica,sans-Serif" font-size="10.00">func_8005A070</text>
</a>
</g>
</g>
<!-- Node28&#45;&gt;Node29 -->
<g id="edge39_Node000028_Node000029" class="edge">
<title>Node28&#45;&gt;Node29</title>
<g id="a_edge39_Node000028_Node000029"><a xlink:title=" ">
<path fill="none" stroke="#63b8ff" d="M1087.55,-83.5C1071.31,-83.5 1053.76,-83.5 1038.23,-83.5"/>
<polygon fill="#63b8ff" stroke="#63b8ff" points="1088,-87 1098,-83.5 1088,-80 1088,-87"/>
</a>
</g>
</g>
<!-- Node29&#45;&gt;Node7 -->
<g id="edge43_Node000029_Node000007" class="edge">
<title>Node29&#45;&gt;Node7</title>
<g id="a_edge43_Node000029_Node000007"><a xlink:title=" ">
<path fill="none" stroke="#63b8ff" d="M937.15,-95.15C913.66,-100.23 886.46,-106.12 864.18,-110.94"/>
<polygon fill="#63b8ff" stroke="#63b8ff" points="937.93,-98.56 946.96,-93.03 936.45,-91.72 937.93,-98.56"/>
</a>
</g>
</g>
<!-- Node29&#45;&gt;Node13 -->
<g id="edge44_Node000029_Node000013" class="edge">
<title>Node29&#45;&gt;Node13</title>
<g id="a_edge44_Node000029_Node000013"><a xlink:title=" ">
<path fill="none" stroke="#63b8ff" d="M936.18,-95.65C931.24,-97.61 926.43,-99.88 922,-102.5 902.25,-114.18 905.77,-127.85 886,-139.5 879.66,-143.24 872.51,-146.22 865.33,-148.6"/>
<polygon fill="#63b8ff" stroke="#63b8ff" points="937.53,-98.88 945.79,-92.23 935.19,-92.28 937.53,-98.88"/>
</a>
</g>
</g>
<!-- Node30 -->
<g id="Node000030" class="node">
<title>Node30</title>
<g id="a_Node000030"><a xlink:href="code__80280000_8c.html#a4d9b0156b64d7a67e4cb21cde391ca43" target="_top" xlink:title=" ">
<polygon fill="white" stroke="#666666" points="864.5,-92 773.5,-92 773.5,-73 864.5,-73 864.5,-92"/>
<text text-anchor="middle" x="819" y="-80" font-family="Helvetica,sans-Serif" font-size="10.00">func_80280000</text>
</a>
</g>
</g>
<!-- Node29&#45;&gt;Node30 -->
<g id="edge40_Node000029_Node000030" class="edge">
<title>Node29&#45;&gt;Node30</title>
<g id="a_edge40_Node000029_Node000030"><a xlink:title=" ">
<path fill="none" stroke="#63b8ff" d="M935.36,-83.17C912.47,-83.04 886.31,-82.89 864.7,-82.76"/>
<polygon fill="#63b8ff" stroke="#63b8ff" points="935.6,-86.68 945.62,-83.23 935.64,-79.68 935.6,-86.68"/>
</a>
</g>
</g>
<!-- Node31 -->
<g id="Node000031" class="node">
<title>Node31</title>
<g id="a_Node000031"><a xlink:href="code__80280000_8c.html#aa28a69be4eda3b8667366c6c7b556024" target="_top" xlink:title=" ">
<polygon fill="white" stroke="#666666" points="716,-92 640,-92 640,-73 716,-73 716,-92"/>
<text text-anchor="middle" x="678" y="-80" font-family="Helvetica,sans-Serif" font-size="10.00">credits_loop</text>
</a>
</g>
</g>
<!-- Node30&#45;&gt;Node31 -->
<g id="edge41_Node000030_Node000031" class="edge">
<title>Node30&#45;&gt;Node31</title>
<g id="a_edge41_Node000030_Node000031"><a xlink:title=" ">
<path fill="none" stroke="#63b8ff" d="M763.11,-82.5C747.38,-82.5 730.61,-82.5 716.22,-82.5"/>
<polygon fill="#63b8ff" stroke="#63b8ff" points="763.25,-86 773.25,-82.5 763.25,-79 763.25,-86"/>
</a>
</g>
</g>
<!-- Node31&#45;&gt;Node8 -->
<g id="edge42_Node000031_Node000008" class="edge">
<title>Node31&#45;&gt;Node8</title>
<g id="a_edge42_Node000031_Node000008"><a xlink:title=" ">
<path fill="none" stroke="#63b8ff" d="M629.83,-89.39C621.49,-90.61 612.72,-91.89 604.14,-93.15"/>
<polygon fill="#63b8ff" stroke="#63b8ff" points="630.36,-92.85 639.75,-87.94 629.35,-85.93 630.36,-92.85"/>
</a>
</g>
</g>
</g>
</svg>
