<?xml version="1.0" encoding="UTF-8" standalone="no"?>
<!DOCTYPE svg PUBLIC "-//W3C//DTD SVG 1.1//EN"
 "http://www.w3.org/Graphics/SVG/1.1/DTD/svg11.dtd">
<!-- Generated by graphviz version 2.43.0 (0)
 -->
<!-- Title: func_8008C73C Pages: 1 -->
<svg width="1785pt" height="231pt"
 viewBox="0.00 0.00 1785.00 231.00" xmlns="http://www.w3.org/2000/svg" xmlns:xlink="http://www.w3.org/1999/xlink">
<g id="graph0" class="graph" transform="scale(1 1) rotate(0) translate(4 227)">
<title>func_8008C73C</title>
<!-- Node1 -->
<g id="Node000001" class="node">
<title>Node1</title>
<g id="a_Node000001"><a xlink:title=" ">
<polygon fill="#999999" stroke="#666666" points="1777,-93 1685,-93 1685,-74 1777,-74 1777,-93"/>
<text text-anchor="middle" x="1731" y="-81" font-family="Helvetica,sans-Serif" font-size="10.00">func_8008C73C</text>
</a>
</g>
</g>
<!-- Node2 -->
<g id="Node000002" class="node">
<title>Node2</title>
<g id="a_Node000002"><a xlink:href="player__controller_8c.html#aaec6b5c8b1638cd94b024a5697252c28" target="_top" xlink:title=" ">
<polygon fill="white" stroke="#666666" points="1649,-167 1538,-167 1538,-148 1649,-148 1649,-167"/>
<text text-anchor="middle" x="1593.5" y="-155" font-family="Helvetica,sans-Serif" font-size="10.00">apply_sound_effect</text>
</a>
</g>
</g>
<!-- Node1&#45;&gt;Node2 -->
<g id="edge1_Node000001_Node000002" class="edge">
<title>Node1&#45;&gt;Node2</title>
<g id="a_edge1_Node000001_Node000002"><a xlink:title=" ">
<path fill="none" stroke="#63b8ff" d="M1710.35,-99.48C1694.54,-111.73 1671.34,-128.38 1649,-139.5 1642.58,-142.7 1635.46,-145.52 1628.54,-147.93"/>
<polygon fill="#63b8ff" stroke="#63b8ff" points="1712.65,-102.13 1718.33,-93.19 1708.31,-96.63 1712.65,-102.13"/>
</a>
</g>
</g>
<!-- Node27 -->
<g id="Node000027" class="node">
<title>Node27</title>
<g id="a_Node000027"><a xlink:href="player__controller_8c.html#a8a3b5f1d538adee38a21e55b2eae3941" target="_top" xlink:title=" ">
<polygon fill="white" stroke="#666666" points="1640,-130 1547,-130 1547,-111 1640,-111 1640,-130"/>
<text text-anchor="middle" x="1593.5" y="-118" font-family="Helvetica,sans-Serif" font-size="10.00">func_8002B9CC</text>
</a>
</g>
</g>
<!-- Node1&#45;&gt;Node27 -->
<g id="edge38_Node000001_Node000027" class="edge">
<title>Node1&#45;&gt;Node27</title>
<g id="a_edge38_Node000001_Node000027"><a xlink:title=" ">
<path fill="none" stroke="#63b8ff" d="M1685.36,-95.69C1667.29,-100.62 1646.73,-106.24 1629.75,-110.88"/>
<polygon fill="#63b8ff" stroke="#63b8ff" points="1686.38,-99.04 1695.11,-93.03 1684.54,-92.29 1686.38,-99.04"/>
</a>
</g>
</g>
<!-- Node29 -->
<g id="Node000029" class="node">
<title>Node29</title>
<g id="a_Node000029"><a xlink:href="effects_8c.html#abeb13f8e836713bdee19de586bb6adb9" target="_top" xlink:title=" ">
<polygon fill="white" stroke="#666666" points="1640.5,-93 1546.5,-93 1546.5,-74 1640.5,-74 1640.5,-93"/>
<text text-anchor="middle" x="1593.5" y="-81" font-family="Helvetica,sans-Serif" font-size="10.00">func_8008CDC0</text>
</a>
</g>
</g>
<!-- Node1&#45;&gt;Node29 -->
<g id="edge42_Node000001_Node000029" class="edge">
<title>Node1&#45;&gt;Node29</title>
<g id="a_edge42_Node000001_Node000029"><a xlink:title=" ">
<path fill="none" stroke="#63b8ff" d="M1674.71,-83.5C1663.45,-83.5 1651.72,-83.5 1640.81,-83.5"/>
<polygon fill="#63b8ff" stroke="#63b8ff" points="1674.88,-87 1684.88,-83.5 1674.88,-80 1674.88,-87"/>
</a>
</g>
</g>
<!-- Node30 -->
<g id="Node000030" class="node">
<title>Node30</title>
<g id="a_Node000030"><a xlink:href="effects_8c.html#af0e482103261c24d9986452a89c08547" target="_top" xlink:title=" ">
<polygon fill="white" stroke="#666666" points="1639.5,-56 1547.5,-56 1547.5,-37 1639.5,-37 1639.5,-56"/>
<text text-anchor="middle" x="1593.5" y="-44" font-family="Helvetica,sans-Serif" font-size="10.00">func_8008CEB0</text>
</a>
</g>
</g>
<!-- Node1&#45;&gt;Node30 -->
<g id="edge43_Node000001_Node000030" class="edge">
<title>Node1&#45;&gt;Node30</title>
<g id="a_edge43_Node000001_Node000030"><a xlink:title=" ">
<path fill="none" stroke="#63b8ff" d="M1685.36,-71.31C1667.29,-66.38 1646.73,-60.76 1629.75,-56.12"/>
<polygon fill="#63b8ff" stroke="#63b8ff" points="1684.54,-74.71 1695.11,-73.97 1686.38,-67.96 1684.54,-74.71"/>
</a>
</g>
</g>
<!-- Node31 -->
<g id="Node000031" class="node">
<title>Node31</title>
<g id="a_Node000031"><a xlink:href="effects_8c.html#af88bb4cbfc59690890829535fc793551" target="_top" xlink:title=" ">
<polygon fill="white" stroke="#666666" points="1639.5,-19 1547.5,-19 1547.5,0 1639.5,0 1639.5,-19"/>
<text text-anchor="middle" x="1593.5" y="-7" font-family="Helvetica,sans-Serif" font-size="10.00">func_8008D170</text>
</a>
</g>
</g>
<!-- Node1&#45;&gt;Node31 -->
<g id="edge44_Node000001_Node000031" class="edge">
<title>Node1&#45;&gt;Node31</title>
<g id="a_edge44_Node000001_Node000031"><a xlink:title=" ">
<path fill="none" stroke="#63b8ff" d="M1710.35,-67.52C1694.54,-55.27 1671.34,-38.62 1649,-27.5 1642.58,-24.3 1635.46,-21.48 1628.54,-19.07"/>
<polygon fill="#63b8ff" stroke="#63b8ff" points="1708.31,-70.37 1718.33,-73.81 1712.65,-64.87 1708.31,-70.37"/>
</a>
</g>
</g>
<!-- Node3 -->
<g id="Node000003" class="node">
<title>Node3</title>
<g id="a_Node000003"><a xlink:href="player__controller_8c.html#a13b756fb91193f3e7a699b24395c6bb6" target="_top" xlink:title=" ">
<polygon fill="white" stroke="#666666" points="1502,-167 1410,-167 1410,-148 1502,-148 1502,-167"/>
<text text-anchor="middle" x="1456" y="-155" font-family="Helvetica,sans-Serif" font-size="10.00">func_8002B830</text>
</a>
</g>
</g>
<!-- Node2&#45;&gt;Node3 -->
<g id="edge2_Node000002_Node000003" class="edge">
<title>Node2&#45;&gt;Node3</title>
<g id="a_edge2_Node000002_Node000003"><a xlink:title=" ">
<path fill="none" stroke="#63b8ff" d="M1527.77,-157.5C1519.18,-157.5 1510.54,-157.5 1502.38,-157.5"/>
<polygon fill="#63b8ff" stroke="#63b8ff" points="1527.78,-161 1537.78,-157.5 1527.78,-154 1527.78,-161"/>
</a>
</g>
</g>
<!-- Node4 -->
<g id="Node000004" class="node">
<title>Node4</title>
<g id="a_Node000004"><a xlink:href="player__controller_8c.html#a8e6865020b9110bd4dc3353cb7ef0a00" target="_top" xlink:title=" ">
<polygon fill="white" stroke="#666666" points="1374,-186 1243,-186 1243,-167 1374,-167 1374,-186"/>
<text text-anchor="middle" x="1308.5" y="-174" font-family="Helvetica,sans-Serif" font-size="10.00">control_cpu_movement</text>
</a>
</g>
</g>
<!-- Node3&#45;&gt;Node4 -->
<g id="edge3_Node000003_Node000004" class="edge">
<title>Node3&#45;&gt;Node4</title>
<g id="a_edge3_Node000003_Node000004"><a xlink:title=" ">
<path fill="none" stroke="#63b8ff" d="M1399.77,-164.71C1391.42,-165.8 1382.74,-166.94 1374.21,-168.05"/>
<polygon fill="#63b8ff" stroke="#63b8ff" points="1400.3,-168.17 1409.76,-163.41 1399.39,-161.23 1400.3,-168.17"/>
</a>
</g>
</g>
<!-- Node17 -->
<g id="Node000017" class="node">
<title>Node17</title>
<g id="a_Node000017"><a xlink:href="player__controller_8c.html#aafe8b94ccd61104120a9bf0ee954a901" target="_top" xlink:title=" ">
<polygon fill="white" stroke="#666666" points="1354.5,-112 1262.5,-112 1262.5,-93 1354.5,-93 1354.5,-112"/>
<text text-anchor="middle" x="1308.5" y="-100" font-family="Helvetica,sans-Serif" font-size="10.00">func_8002D268</text>
</a>
</g>
</g>
<!-- Node3&#45;&gt;Node17 -->
<g id="edge19_Node000003_Node000017" class="edge">
<title>Node3&#45;&gt;Node17</title>
<g id="a_edge19_Node000003_Node000017"><a xlink:title=" ">
<path fill="none" stroke="#63b8ff" d="M1420.03,-143.93C1416.62,-142.48 1413.23,-140.99 1410,-139.5 1393.58,-131.91 1390.81,-127.19 1374,-120.5 1366.01,-117.32 1357.25,-114.47 1348.83,-112.03"/>
<polygon fill="#63b8ff" stroke="#63b8ff" points="1418.99,-147.29 1429.57,-147.87 1421.66,-140.82 1418.99,-147.29"/>
</a>
</g>
</g>
<!-- Node25 -->
<g id="Node000025" class="node">
<title>Node25</title>
<g id="a_Node000025"><a xlink:href="player__controller_8c.html#a5bc20a94d467b8daf131fe16ab6a83d7" target="_top" xlink:title=" ">
<polygon fill="white" stroke="#666666" points="1354,-149 1263,-149 1263,-130 1354,-130 1354,-149"/>
<text text-anchor="middle" x="1308.5" y="-137" font-family="Helvetica,sans-Serif" font-size="10.00">func_8002E594</text>
</a>
</g>
</g>
<!-- Node3&#45;&gt;Node25 -->
<g id="edge32_Node000003_Node000025" class="edge">
<title>Node3&#45;&gt;Node25</title>
<g id="a_edge32_Node000003_Node000025"><a xlink:title=" ">
<path fill="none" stroke="#63b8ff" d="M1399.58,-150.64C1384.58,-148.79 1368.54,-146.8 1354.21,-145.03"/>
<polygon fill="#63b8ff" stroke="#63b8ff" points="1399.41,-154.15 1409.76,-151.9 1400.27,-147.2 1399.41,-154.15"/>
</a>
</g>
</g>
<!-- Node26 -->
<g id="Node000026" class="node">
<title>Node26</title>
<g id="a_Node000026"><a xlink:href="player__controller_8c.html#a105e6b6fca9198633b8990b0da71cd25" target="_top" xlink:title=" ">
<polygon fill="white" stroke="#666666" points="1354.5,-223 1262.5,-223 1262.5,-204 1354.5,-204 1354.5,-223"/>
<text text-anchor="middle" x="1308.5" y="-211" font-family="Helvetica,sans-Serif" font-size="10.00">func_80038C6C</text>
</a>
</g>
</g>
<!-- Node3&#45;&gt;Node26 -->
<g id="edge36_Node000003_Node000026" class="edge">
<title>Node3&#45;&gt;Node26</title>
<g id="a_edge36_Node000003_Node000026"><a xlink:title=" ">
<path fill="none" stroke="#63b8ff" d="M1427.7,-171.7C1412.22,-179.4 1392.33,-188.7 1374,-195.5 1365.61,-198.61 1356.43,-201.48 1347.7,-203.97"/>
<polygon fill="#63b8ff" stroke="#63b8ff" points="1429.36,-174.78 1436.72,-167.15 1426.21,-168.53 1429.36,-174.78"/>
</a>
</g>
</g>
<!-- Node5 -->
<g id="Node000005" class="node">
<title>Node5</title>
<g id="a_Node000005"><a xlink:href="player__controller_8c.html#a9f21890266acabb27e962652c5ef4cfc" target="_top" xlink:title=" ">
<polygon fill="white" stroke="#666666" points="1206,-186 1115,-186 1115,-167 1206,-167 1206,-186"/>
<text text-anchor="middle" x="1160.5" y="-174" font-family="Helvetica,sans-Serif" font-size="10.00">func_80028864</text>
</a>
</g>
</g>
<!-- Node4&#45;&gt;Node5 -->
<g id="edge4_Node000004_Node000005" class="edge">
<title>Node4&#45;&gt;Node5</title>
<g id="a_edge4_Node000004_Node000005"><a xlink:title=" ">
<path fill="none" stroke="#63b8ff" d="M1232.45,-176.5C1223.44,-176.5 1214.47,-176.5 1206.09,-176.5"/>
<polygon fill="#63b8ff" stroke="#63b8ff" points="1232.61,-180 1242.61,-176.5 1232.61,-173 1232.61,-180"/>
</a>
</g>
</g>
<!-- Node6 -->
<g id="Node000006" class="node">
<title>Node6</title>
<g id="a_Node000006"><a xlink:href="player__controller_8c.html#af9d8e2fa807dab2737045c3c2517a46e" target="_top" xlink:title=" ">
<polygon fill="white" stroke="#666666" points="1077.5,-167 986.5,-167 986.5,-148 1077.5,-148 1077.5,-167"/>
<text text-anchor="middle" x="1032" y="-155" font-family="Helvetica,sans-Serif" font-size="10.00">func_80028E70</text>
</a>
</g>
</g>
<!-- Node5&#45;&gt;Node6 -->
<g id="edge5_Node000005_Node000006" class="edge">
<title>Node5&#45;&gt;Node6</title>
<g id="a_edge5_Node000005_Node000006"><a xlink:title=" ">
<path fill="none" stroke="#63b8ff" d="M1104.8,-168.28C1095.72,-166.92 1086.41,-165.52 1077.62,-164.2"/>
<polygon fill="#63b8ff" stroke="#63b8ff" points="1104.49,-171.78 1114.9,-169.8 1105.53,-164.85 1104.49,-171.78"/>
</a>
</g>
</g>
<!-- Node7 -->
<g id="Node000007" class="node">
<title>Node7</title>
<g id="a_Node000007"><a xlink:href="player__controller_8c.html#a60b22a77aa4cf0b2be0942a3e115a1eb" target="_top" xlink:title=" ">
<polygon fill="white" stroke="#666666" points="925.5,-204 834.5,-204 834.5,-185 925.5,-185 925.5,-204"/>
<text text-anchor="middle" x="880" y="-192" font-family="Helvetica,sans-Serif" font-size="10.00">func_80028F70</text>
</a>
</g>
</g>
<!-- Node6&#45;&gt;Node7 -->
<g id="edge6_Node000006_Node000007" class="edge">
<title>Node6&#45;&gt;Node7</title>
<g id="a_edge6_Node000006_Node000007"><a xlink:title=" ">
<path fill="none" stroke="#63b8ff" d="M982.66,-169.43C962.31,-174.44 938.95,-180.21 919.76,-184.94"/>
<polygon fill="#63b8ff" stroke="#63b8ff" points="983.5,-172.82 992.37,-167.03 981.82,-166.03 983.5,-172.82"/>
</a>
</g>
</g>
<!-- Node15 -->
<g id="Node000015" class="node">
<title>Node15</title>
<g id="a_Node000015"><a xlink:href="player__controller_8c.html#ac7bf3fa7a7efacb6f6bad44477c2c7ed" target="_top" xlink:title=" ">
<polygon fill="white" stroke="#666666" points="925.5,-167 834.5,-167 834.5,-148 925.5,-148 925.5,-167"/>
<text text-anchor="middle" x="880" y="-155" font-family="Helvetica,sans-Serif" font-size="10.00">func_80029060</text>
</a>
</g>
</g>
<!-- Node6&#45;&gt;Node15 -->
<g id="edge15_Node000006_Node000015" class="edge">
<title>Node6&#45;&gt;Node15</title>
<g id="a_edge15_Node000006_Node000015"><a xlink:title=" ">
<path fill="none" stroke="#63b8ff" d="M976.27,-157.5C959.64,-157.5 941.57,-157.5 925.69,-157.5"/>
<polygon fill="#63b8ff" stroke="#63b8ff" points="976.4,-161 986.4,-157.5 976.4,-154 976.4,-161"/>
</a>
</g>
</g>
<!-- Node16 -->
<g id="Node000016" class="node">
<title>Node16</title>
<g id="a_Node000016"><a xlink:href="player__controller_8c.html#a31f653813b5697d0af1bb9c16cdc4c76" target="_top" xlink:title=" ">
<polygon fill="white" stroke="#666666" points="925.5,-130 834.5,-130 834.5,-111 925.5,-111 925.5,-130"/>
<text text-anchor="middle" x="880" y="-118" font-family="Helvetica,sans-Serif" font-size="10.00">func_80029158</text>
</a>
</g>
</g>
<!-- Node6&#45;&gt;Node16 -->
<g id="edge17_Node000006_Node000016" class="edge">
<title>Node6&#45;&gt;Node16</title>
<g id="a_edge17_Node000006_Node000016"><a xlink:title=" ">
<path fill="none" stroke="#63b8ff" d="M982.66,-145.57C962.31,-140.56 938.95,-134.79 919.76,-130.06"/>
<polygon fill="#63b8ff" stroke="#63b8ff" points="981.82,-148.97 992.37,-147.97 983.5,-142.18 981.82,-148.97"/>
</a>
</g>
</g>
<!-- Node8 -->
<g id="Node000008" class="node">
<title>Node8</title>
<g id="a_Node000008"><a xlink:href="podium__ceremony__actors_8c.html#a7ea229c65f264670fc828b95e8321154" target="_top" xlink:title=" ">
<polygon fill="white" stroke="#666666" points="774,-204 640,-204 640,-185 774,-185 774,-204"/>
<text text-anchor="middle" x="707" y="-192" font-family="Helvetica,sans-Serif" font-size="10.00">podium_ceremony_loop</text>
</a>
</g>
</g>
<!-- Node7&#45;&gt;Node8 -->
<g id="edge7_Node000007_Node000008" class="edge">
<title>Node7&#45;&gt;Node8</title>
<g id="a_edge7_Node000007_Node000008"><a xlink:title=" ">
<path fill="none" stroke="#63b8ff" d="M823.92,-194.5C808.07,-194.5 790.63,-194.5 774.19,-194.5"/>
<polygon fill="#63b8ff" stroke="#63b8ff" points="824.07,-198 834.07,-194.5 824.07,-191 824.07,-198"/>
</a>
</g>
</g>
<!-- Node14 -->
<g id="Node000014" class="node">
<title>Node14</title>
<g id="a_Node000014"><a xlink:href="main_8c.html#afff87ffcbfee4f1f37d443110aa7b52a" target="_top" xlink:title=" ">
<polygon fill="white" stroke="#666666" points="753,-167 661,-167 661,-148 753,-148 753,-167"/>
<text text-anchor="middle" x="707" y="-155" font-family="Helvetica,sans-Serif" font-size="10.00">race_logic_loop</text>
</a>
</g>
</g>
<!-- Node7&#45;&gt;Node14 -->
<g id="edge13_Node000007_Node000014" class="edge">
<title>Node7&#45;&gt;Node14</title>
<g id="a_edge13_Node000007_Node000014"><a xlink:title=" ">
<path fill="none" stroke="#63b8ff" d="M825.15,-182.85C801.66,-177.77 774.46,-171.88 752.18,-167.06"/>
<polygon fill="#63b8ff" stroke="#63b8ff" points="824.45,-186.28 834.96,-184.97 825.93,-179.44 824.45,-186.28"/>
</a>
</g>
</g>
<!-- Node9 -->
<g id="Node000009" class="node">
<title>Node9</title>
<g id="a_Node000009"><a xlink:href="main_8c.html#ae04143ce8113cdafa007c642eb620bc8" target="_top" xlink:title=" ">
<polygon fill="white" stroke="#666666" points="604,-167 488,-167 488,-148 604,-148 604,-167"/>
<text text-anchor="middle" x="546" y="-155" font-family="Helvetica,sans-Serif" font-size="10.00">game_state_handler</text>
</a>
</g>
</g>
<!-- Node8&#45;&gt;Node9 -->
<g id="edge8_Node000008_Node000009" class="edge">
<title>Node8&#45;&gt;Node9</title>
<g id="a_edge8_Node000008_Node000009"><a xlink:title=" ">
<path fill="none" stroke="#63b8ff" d="M655.05,-182.64C633.41,-177.61 608.52,-171.82 588.08,-167.06"/>
<polygon fill="#63b8ff" stroke="#63b8ff" points="654.52,-186.11 665.05,-184.97 656.11,-179.3 654.52,-186.11"/>
</a>
</g>
</g>
<!-- Node10 -->
<g id="Node000010" class="node">
<title>Node10</title>
<g id="a_Node000010"><a xlink:href="main_8c.html#a633ed517e458daeb768f5361895dcac9" target="_top" xlink:title=" ">
<polygon fill="white" stroke="#666666" points="452,-130 339,-130 339,-111 452,-111 452,-130"/>
<text text-anchor="middle" x="395.5" y="-118" font-family="Helvetica,sans-Serif" font-size="10.00">thread5_game_loop</text>
</a>
</g>
</g>
<!-- Node9&#45;&gt;Node10 -->
<g id="edge9_Node000009_Node000010" class="edge">
<title>Node9&#45;&gt;Node10</title>
<g id="a_edge9_Node000009_Node000010"><a xlink:title=" ">
<path fill="none" stroke="#63b8ff" d="M496.86,-145.51C476.78,-140.5 453.78,-134.77 434.87,-130.06"/>
<polygon fill="#63b8ff" stroke="#63b8ff" points="496.21,-148.95 506.76,-147.97 497.9,-142.16 496.21,-148.95"/>
</a>
</g>
</g>
<!-- Node11 -->
<g id="Node000011" class="node">
<title>Node11</title>
<g id="a_Node000011"><a xlink:href="main_8c.html#a023b8f272e4efbd33f371e91ffff6b30" target="_top" xlink:title=" ">
<polygon fill="white" stroke="#666666" points="303,-130 217,-130 217,-111 303,-111 303,-130"/>
<text text-anchor="middle" x="260" y="-118" font-family="Helvetica,sans-Serif" font-size="10.00">thread3_video</text>
</a>
</g>
</g>
<!-- Node10&#45;&gt;Node11 -->
<g id="edge10_Node000010_Node000011" class="edge">
<title>Node10&#45;&gt;Node11</title>
<g id="a_edge10_Node000010_Node000011"><a xlink:title=" ">
<path fill="none" stroke="#63b8ff" d="M328.57,-120.5C319.94,-120.5 311.3,-120.5 303.21,-120.5"/>
<polygon fill="#63b8ff" stroke="#63b8ff" points="328.66,-124 338.66,-120.5 328.66,-117 328.66,-124"/>
</a>
</g>
</g>
<!-- Node12 -->
<g id="Node000012" class="node">
<title>Node12</title>
<g id="a_Node000012"><a xlink:href="main_8c.html#a1e35d2b842121e6aea373f09381616e5" target="_top" xlink:title=" ">
<polygon fill="white" stroke="#666666" points="181,-130 104,-130 104,-111 181,-111 181,-130"/>
<text text-anchor="middle" x="142.5" y="-118" font-family="Helvetica,sans-Serif" font-size="10.00">thread1_idle</text>
</a>
</g>
</g>
<!-- Node11&#45;&gt;Node12 -->
<g id="edge11_Node000011_Node000012" class="edge">
<title>Node11&#45;&gt;Node12</title>
<g id="a_edge11_Node000011_Node000012"><a xlink:title=" ">
<path fill="none" stroke="#63b8ff" d="M206.9,-120.5C198.2,-120.5 189.33,-120.5 181.09,-120.5"/>
<polygon fill="#63b8ff" stroke="#63b8ff" points="206.98,-124 216.98,-120.5 206.98,-117 206.98,-124"/>
</a>
</g>
</g>
<!-- Node13 -->
<g id="Node000013" class="node">
<title>Node13</title>
<g id="a_Node000013"><a xlink:href="main_8c.html#a4f87d43525fe95f60ea92bc8a3b70e62" target="_top" xlink:title=" ">
<polygon fill="white" stroke="#666666" points="68,-130 0,-130 0,-111 68,-111 68,-130"/>
<text text-anchor="middle" x="34" y="-118" font-family="Helvetica,sans-Serif" font-size="10.00">main_func</text>
</a>
</g>
</g>
<!-- Node12&#45;&gt;Node13 -->
<g id="edge12_Node000012_Node000013" class="edge">
<title>Node12&#45;&gt;Node13</title>
<g id="a_edge12_Node000012_Node000013"><a xlink:title=" ">
<path fill="none" stroke="#63b8ff" d="M93.95,-120.5C85.29,-120.5 76.44,-120.5 68.31,-120.5"/>
<polygon fill="#63b8ff" stroke="#63b8ff" points="93.95,-124 103.95,-120.5 93.95,-117 93.95,-124"/>
</a>
</g>
</g>
<!-- Node14&#45;&gt;Node9 -->
<g id="edge14_Node000014_Node000009" class="edge">
<title>Node14&#45;&gt;Node9</title>
<g id="a_edge14_Node000014_Node000009"><a xlink:title=" ">
<path fill="none" stroke="#63b8ff" d="M650.68,-157.5C635.64,-157.5 619.32,-157.5 604.18,-157.5"/>
<polygon fill="#63b8ff" stroke="#63b8ff" points="650.86,-161 660.86,-157.5 650.86,-154 650.86,-161"/>
</a>
</g>
</g>
<!-- Node15&#45;&gt;Node14 -->
<g id="edge16_Node000015_Node000014" class="edge">
<title>Node15&#45;&gt;Node14</title>
<g id="a_edge16_Node000015_Node000014"><a xlink:title=" ">
<path fill="none" stroke="#63b8ff" d="M823.85,-157.5C801.02,-157.5 774.89,-157.5 753.22,-157.5"/>
<polygon fill="#63b8ff" stroke="#63b8ff" points="824.07,-161 834.07,-157.5 824.07,-154 824.07,-161"/>
</a>
</g>
</g>
<!-- Node16&#45;&gt;Node14 -->
<g id="edge18_Node000016_Node000014" class="edge">
<title>Node16&#45;&gt;Node14</title>
<g id="a_edge18_Node000016_Node000014"><a xlink:title=" ">
<path fill="none" stroke="#63b8ff" d="M825.15,-132.15C801.66,-137.23 774.46,-143.12 752.18,-147.94"/>
<polygon fill="#63b8ff" stroke="#63b8ff" points="825.93,-135.56 834.96,-130.03 824.45,-128.72 825.93,-135.56"/>
</a>
</g>
</g>
<!-- Node17&#45;&gt;Node5 -->
<g id="edge20_Node000017_Node000005" class="edge">
<title>Node17&#45;&gt;Node5</title>
<g id="a_edge20_Node000017_Node000005"><a xlink:title=" ">
<path fill="none" stroke="#63b8ff" d="M1253.05,-115.33C1249.56,-116.87 1246.17,-118.59 1243,-120.5 1223.07,-132.51 1226.27,-145.47 1207,-158.5 1202.21,-161.74 1196.76,-164.52 1191.33,-166.87"/>
<polygon fill="#63b8ff" stroke="#63b8ff" points="1254.43,-118.55 1262.48,-111.67 1251.89,-112.03 1254.43,-118.55"/>
</a>
</g>
</g>
<!-- Node18 -->
<g id="Node000018" class="node">
<title>Node18</title>
<g id="a_Node000018"><a xlink:href="player__controller_8c.html#a76e0206999fca6c9de4d4bef2c4620ce" target="_top" xlink:title=" ">
<polygon fill="white" stroke="#666666" points="1206.5,-149 1114.5,-149 1114.5,-130 1206.5,-130 1206.5,-149"/>
<text text-anchor="middle" x="1160.5" y="-137" font-family="Helvetica,sans-Serif" font-size="10.00">func_80028C44</text>
</a>
</g>
</g>
<!-- Node17&#45;&gt;Node18 -->
<g id="edge21_Node000017_Node000018" class="edge">
<title>Node17&#45;&gt;Node18</title>
<g id="a_edge21_Node000017_Node000018"><a xlink:title=" ">
<path fill="none" stroke="#63b8ff" d="M1260.17,-114.49C1240.43,-119.5 1217.82,-125.23 1199.22,-129.94"/>
<polygon fill="#63b8ff" stroke="#63b8ff" points="1261.07,-117.88 1269.9,-112.03 1259.35,-111.09 1261.07,-117.88"/>
</a>
</g>
</g>
<!-- Node19 -->
<g id="Node000019" class="node">
<title>Node19</title>
<g id="a_Node000019"><a xlink:href="player__controller_8c.html#ae531f1b044d00354a79cb3f88b81fa12" target="_top" xlink:title=" ">
<polygon fill="white" stroke="#666666" points="1207,-112 1114,-112 1114,-93 1207,-93 1207,-112"/>
<text text-anchor="middle" x="1160.5" y="-100" font-family="Helvetica,sans-Serif" font-size="10.00">func_80028D3C</text>
</a>
</g>
</g>
<!-- Node17&#45;&gt;Node19 -->
<g id="edge23_Node000017_Node000019" class="edge">
<title>Node17&#45;&gt;Node19</title>
<g id="a_edge23_Node000017_Node000019"><a xlink:title=" ">
<path fill="none" stroke="#63b8ff" d="M1252.03,-102.5C1237.21,-102.5 1221.35,-102.5 1207.12,-102.5"/>
<polygon fill="#63b8ff" stroke="#63b8ff" points="1252.11,-106 1262.11,-102.5 1252.1,-99 1252.11,-106"/>
</a>
</g>
</g>
<!-- Node20 -->
<g id="Node000020" class="node">
<title>Node20</title>
<g id="a_Node000020"><a xlink:href="spawn__players_8c.html#a786871d4fec99acdd5a14b48c1c38a7c" target="_top" xlink:title=" ">
<polygon fill="white" stroke="#666666" points="1207,-75 1114,-75 1114,-56 1207,-56 1207,-75"/>
<text text-anchor="middle" x="1160.5" y="-63" font-family="Helvetica,sans-Serif" font-size="10.00">func_8003CD98</text>
</a>
</g>
</g>
<!-- Node17&#45;&gt;Node20 -->
<g id="edge25_Node000017_Node000020" class="edge">
<title>Node17&#45;&gt;Node20</title>
<g id="a_edge25_Node000017_Node000020"><a xlink:title=" ">
<path fill="none" stroke="#63b8ff" d="M1260.17,-90.51C1240.43,-85.5 1217.82,-79.77 1199.22,-75.06"/>
<polygon fill="#63b8ff" stroke="#63b8ff" points="1259.35,-93.91 1269.9,-92.97 1261.07,-87.12 1259.35,-93.91"/>
</a>
</g>
</g>
<!-- Node18&#45;&gt;Node6 -->
<g id="edge22_Node000018_Node000006" class="edge">
<title>Node18&#45;&gt;Node6</title>
<g id="a_edge22_Node000018_Node000006"><a xlink:title=" ">
<path fill="none" stroke="#63b8ff" d="M1104.25,-147.36C1095.33,-148.63 1086.2,-149.93 1077.57,-151.16"/>
<polygon fill="#63b8ff" stroke="#63b8ff" points="1104.78,-150.82 1114.19,-145.95 1103.79,-143.89 1104.78,-150.82"/>
</a>
</g>
</g>
<!-- Node19&#45;&gt;Node6 -->
<g id="edge24_Node000019_Node000006" class="edge">
<title>Node19&#45;&gt;Node6</title>
<g id="a_edge24_Node000019_Node000006"><a xlink:title=" ">
<path fill="none" stroke="#63b8ff" d="M1124.8,-116.01C1121.14,-117.5 1117.49,-119.01 1114,-120.5 1093.09,-129.4 1069.49,-140.28 1053.18,-147.93"/>
<polygon fill="#63b8ff" stroke="#63b8ff" points="1126.39,-119.14 1134.37,-112.17 1123.79,-112.65 1126.39,-119.14"/>
</a>
</g>
</g>
<!-- Node21 -->
<g id="Node000021" class="node">
<title>Node21</title>
<g id="a_Node000021"><a xlink:href="spawn__players_8c.html#ac1a9412b931cfa517a2382c2fc605399" target="_top" xlink:title=" ">
<polygon fill="white" stroke="#666666" points="1078,-75 986,-75 986,-56 1078,-56 1078,-75"/>
<text text-anchor="middle" x="1032" y="-63" font-family="Helvetica,sans-Serif" font-size="10.00">func_8003D080</text>
</a>
</g>
</g>
<!-- Node20&#45;&gt;Node21 -->
<g id="edge26_Node000020_Node000021" class="edge">
<title>Node20&#45;&gt;Node21</title>
<g id="a_edge26_Node000020_Node000021"><a xlink:title=" ">
<path fill="none" stroke="#63b8ff" d="M1103.59,-65.5C1095.09,-65.5 1086.41,-65.5 1078.18,-65.5"/>
<polygon fill="#63b8ff" stroke="#63b8ff" points="1103.83,-69 1113.83,-65.5 1103.83,-62 1103.83,-69"/>
</a>
</g>
</g>
<!-- Node22 -->
<g id="Node000022" class="node">
<title>Node22</title>
<g id="a_Node000022"><a xlink:href="code__80281780_8c.html#af227cfd0f1fd3d6adbe9a29ad59b4dc8" target="_top" xlink:title=" ">
<polygon fill="white" stroke="#666666" points="950,-93 810,-93 810,-74 950,-74 950,-93"/>
<text text-anchor="middle" x="880" y="-81" font-family="Helvetica,sans-Serif" font-size="10.00">load_ceremony_cutscene</text>
</a>
</g>
</g>
<!-- Node21&#45;&gt;Node22 -->
<g id="edge27_Node000021_Node000022" class="edge">
<title>Node21&#45;&gt;Node22</title>
<g id="a_edge27_Node000021_Node000022"><a xlink:title=" ">
<path fill="none" stroke="#63b8ff" d="M975.95,-72.11C967.54,-73.11 958.77,-74.17 950.11,-75.21"/>
<polygon fill="#63b8ff" stroke="#63b8ff" points="976.48,-75.57 986,-70.9 975.65,-68.62 976.48,-75.57"/>
</a>
</g>
</g>
<!-- Node24 -->
<g id="Node000024" class="node">
<title>Node24</title>
<g id="a_Node000024"><a xlink:href="code__800029B0_8c.html#aca6165112fc92e65ad6477e785a7098c" target="_top" xlink:title=" ">
<polygon fill="white" stroke="#666666" points="915,-56 845,-56 845,-37 915,-37 915,-56"/>
<text text-anchor="middle" x="880" y="-44" font-family="Helvetica,sans-Serif" font-size="10.00">setup_race</text>
</a>
</g>
</g>
<!-- Node21&#45;&gt;Node24 -->
<g id="edge30_Node000021_Node000024" class="edge">
<title>Node21&#45;&gt;Node24</title>
<g id="a_edge30_Node000021_Node000024"><a xlink:title=" ">
<path fill="none" stroke="#63b8ff" d="M975.87,-58.52C955.48,-55.93 932.97,-53.08 915,-50.81"/>
<polygon fill="#63b8ff" stroke="#63b8ff" points="975.63,-62.01 986,-59.8 976.51,-55.07 975.63,-62.01"/>
</a>
</g>
</g>
<!-- Node23 -->
<g id="Node000023" class="node">
<title>Node23</title>
<g id="a_Node000023"><a xlink:href="main_8c.html#ad0625ed56ac663d3ec7ae8f1ba50c735" target="_top" xlink:title=" ">
<polygon fill="white" stroke="#666666" points="761,-93 653,-93 653,-74 761,-74 761,-93"/>
<text text-anchor="middle" x="707" y="-81" font-family="Helvetica,sans-Serif" font-size="10.00">update_gamestate</text>
</a>
</g>
</g>
<!-- Node22&#45;&gt;Node23 -->
<g id="edge28_Node000022_Node000023" class="edge">
<title>Node22&#45;&gt;Node23</title>
<g id="a_edge28_Node000022_Node000023"><a xlink:title=" ">
<path fill="none" stroke="#63b8ff" d="M799.92,-83.5C786.73,-83.5 773.34,-83.5 761.01,-83.5"/>
<polygon fill="#63b8ff" stroke="#63b8ff" points="799.94,-87 809.94,-83.5 799.94,-80 799.94,-87"/>
</a>
</g>
</g>
<!-- Node23&#45;&gt;Node10 -->
<g id="edge29_Node000023_Node000010" class="edge">
<title>Node23&#45;&gt;Node10</title>
<g id="a_edge29_Node000023_Node000010"><a xlink:title=" ">
<path fill="none" stroke="#63b8ff" d="M642.64,-91.07C586.62,-97.77 505.7,-107.44 452.14,-113.85"/>
<polygon fill="#63b8ff" stroke="#63b8ff" points="643.28,-94.52 652.8,-89.86 642.45,-87.57 643.28,-94.52"/>
</a>
</g>
</g>
<!-- Node24&#45;&gt;Node23 -->
<g id="edge31_Node000024_Node000023" class="edge">
<title>Node24&#45;&gt;Node23</title>
<g id="a_edge31_Node000024_Node000023"><a xlink:title=" ">
<path fill="none" stroke="#63b8ff" d="M834.71,-56.08C809.33,-61.58 777.58,-68.45 752.21,-73.93"/>
<polygon fill="#63b8ff" stroke="#63b8ff" points="835.77,-59.43 844.81,-53.9 834.29,-52.59 835.77,-59.43"/>
</a>
</g>
</g>
<!-- Node25&#45;&gt;Node5 -->
<g id="edge33_Node000025_Node000005" class="edge">
<title>Node25&#45;&gt;Node5</title>
<g id="a_edge33_Node000025_Node000005"><a xlink:title=" ">
<path fill="none" stroke="#63b8ff" d="M1260.17,-151.49C1240.43,-156.5 1217.82,-162.23 1199.22,-166.94"/>
<polygon fill="#63b8ff" stroke="#63b8ff" points="1261.07,-154.88 1269.9,-149.03 1259.35,-148.09 1261.07,-154.88"/>
</a>
</g>
</g>
<!-- Node25&#45;&gt;Node18 -->
<g id="edge34_Node000025_Node000018" class="edge">
<title>Node25&#45;&gt;Node18</title>
<g id="a_edge34_Node000025_Node000018"><a xlink:title=" ">
<path fill="none" stroke="#63b8ff" d="M1252.61,-139.5C1237.43,-139.5 1221.13,-139.5 1206.58,-139.5"/>
<polygon fill="#63b8ff" stroke="#63b8ff" points="1252.9,-143 1262.9,-139.5 1252.9,-136 1252.9,-143"/>
</a>
</g>
</g>
<!-- Node25&#45;&gt;Node19 -->
<g id="edge35_Node000025_Node000019" class="edge">
<title>Node25&#45;&gt;Node19</title>
<g id="a_edge35_Node000025_Node000019"><a xlink:title=" ">
<path fill="none" stroke="#63b8ff" d="M1260.17,-127.51C1240.43,-122.5 1217.82,-116.77 1199.22,-112.06"/>
<polygon fill="#63b8ff" stroke="#63b8ff" points="1259.35,-130.91 1269.9,-129.97 1261.07,-124.12 1259.35,-130.91"/>
</a>
</g>
</g>
<!-- Node26&#45;&gt;Node6 -->
<g id="edge37_Node000026_Node000006" class="edge">
<title>Node26&#45;&gt;Node6</title>
<g id="a_edge37_Node000026_Node000006"><a xlink:title=" ">
<path fill="none" stroke="#63b8ff" d="M1251.99,-213.39C1212.82,-212.1 1159.42,-207.86 1114,-195.5 1090.32,-189.06 1065.01,-176.09 1049.11,-167.11"/>
<polygon fill="#63b8ff" stroke="#63b8ff" points="1252.05,-216.89 1262.14,-213.67 1252.24,-209.89 1252.05,-216.89"/>
</a>
</g>
</g>
<!-- Node28 -->
<g id="Node000028" class="node">
<title>Node28</title>
<g id="a_Node000028"><a xlink:href="player__controller_8c.html#ad6c601ce040f0a4f5827e1e7a92efacf" target="_top" xlink:title=" ">
<polygon fill="white" stroke="#666666" points="1502,-130 1410,-130 1410,-111 1502,-111 1502,-130"/>
<text text-anchor="middle" x="1456" y="-118" font-family="Helvetica,sans-Serif" font-size="10.00">func_8002C7E4</text>
</a>
</g>
</g>
<!-- Node27&#45;&gt;Node28 -->
<g id="edge39_Node000027_Node000028" class="edge">
<title>Node27&#45;&gt;Node28</title>
<g id="a_edge39_Node000027_Node000028"><a xlink:title=" ">
<path fill="none" stroke="#63b8ff" d="M1536.38,-120.5C1525.05,-120.5 1513.27,-120.5 1502.37,-120.5"/>
<polygon fill="#63b8ff" stroke="#63b8ff" points="1536.63,-124 1546.63,-120.5 1536.63,-117 1536.63,-124"/>
</a>
</g>
</g>
<!-- Node28&#45;&gt;Node17 -->
<g id="edge40_Node000028_Node000017" class="edge">
<title>Node28&#45;&gt;Node17</title>
<g id="a_edge40_Node000028_Node000017"><a xlink:title=" ">
<path fill="none" stroke="#63b8ff" d="M1399.68,-113.66C1384.82,-111.82 1368.94,-109.85 1354.71,-108.09"/>
<polygon fill="#63b8ff" stroke="#63b8ff" points="1399.41,-117.15 1409.76,-114.9 1400.27,-110.2 1399.41,-117.15"/>
</a>
</g>
</g>
<!-- Node28&#45;&gt;Node25 -->
<g id="edge41_Node000028_Node000025" class="edge">
<title>Node28&#45;&gt;Node25</title>
<g id="a_edge41_Node000028_Node000025"><a xlink:title=" ">
<path fill="none" stroke="#63b8ff" d="M1399.58,-127.74C1384.58,-129.7 1368.54,-131.79 1354.21,-133.66"/>
<polygon fill="#63b8ff" stroke="#63b8ff" points="1400.3,-131.17 1409.76,-126.41 1399.39,-124.23 1400.3,-131.17"/>
</a>
</g>
</g>
</g>
</svg>
