<?xml version="1.0" encoding="UTF-8" standalone="no"?>
<!DOCTYPE svg PUBLIC "-//W3C//DTD SVG 1.1//EN"
 "http://www.w3.org/Graphics/SVG/1.1/DTD/svg11.dtd">
<!-- Generated by graphviz version 2.43.0 (0)
 -->
<!-- Title: func_800C357C Pages: 1 -->
<svg width="654pt" height="119pt"
 viewBox="0.00 0.00 654.00 119.00" xmlns="http://www.w3.org/2000/svg" xmlns:xlink="http://www.w3.org/1999/xlink">
<g id="graph0" class="graph" transform="scale(1 1) rotate(0) translate(4 115)">
<title>func_800C357C</title>
<!-- Node1 -->
<g id="Node000001" class="node">
<title>Node1</title>
<g id="a_Node000001"><a xlink:title=" ">
<polygon fill="#999999" stroke="#666666" points="646,-92 554,-92 554,-73 646,-73 646,-92"/>
<text text-anchor="middle" x="600" y="-80" font-family="Helvetica,sans-Serif" font-size="10.00">func_800C357C</text>
</a>
</g>
</g>
<!-- Node2 -->
<g id="Node000002" class="node">
<title>Node2</title>
<g id="a_Node000002"><a xlink:href="external_8c.html#aac0d64d382e8e46860f0f987899ecdf0" target="_top" xlink:title=" ">
<polygon fill="white" stroke="#666666" points="518,-111 425,-111 425,-92 518,-92 518,-111"/>
<text text-anchor="middle" x="471.5" y="-99" font-family="Helvetica,sans-Serif" font-size="10.00">func_800CA59C</text>
</a>
</g>
</g>
<!-- Node1&#45;&gt;Node2 -->
<g id="edge1_Node000001_Node000002" class="edge">
<title>Node1&#45;&gt;Node2</title>
<g id="a_edge1_Node000001_Node000002"><a xlink:title=" ">
<path fill="none" stroke="#63b8ff" d="M543.55,-90.83C535.14,-92.09 526.53,-93.38 518.35,-94.61"/>
<polygon fill="#63b8ff" stroke="#63b8ff" points="544.32,-94.25 553.69,-89.31 543.28,-87.33 544.32,-94.25"/>
</a>
</g>
</g>
<!-- Node4 -->
<g id="Node000004" class="node">
<title>Node4</title>
<g id="a_Node000004"><a xlink:href="external_8c.html#ac32b332e8b9a73af543741393186060d" target="_top" xlink:title=" ">
<polygon fill="white" stroke="#666666" points="517.5,-74 425.5,-74 425.5,-55 517.5,-55 517.5,-74"/>
<text text-anchor="middle" x="471.5" y="-62" font-family="Helvetica,sans-Serif" font-size="10.00">func_800CA730</text>
</a>
</g>
</g>
<!-- Node1&#45;&gt;Node4 -->
<g id="edge3_Node000001_Node000004" class="edge">
<title>Node1&#45;&gt;Node4</title>
<g id="a_edge3_Node000001_Node000004"><a xlink:title=" ">
<path fill="none" stroke="#63b8ff" d="M543.71,-74.63C535.09,-73.41 526.28,-72.15 517.92,-70.96"/>
<polygon fill="#63b8ff" stroke="#63b8ff" points="543.29,-78.11 553.69,-76.05 544.28,-71.18 543.29,-78.11"/>
</a>
</g>
</g>
<!-- Node3 -->
<g id="Node000003" class="node">
<title>Node3</title>
<g id="a_Node000003"><a xlink:href="effects_8c.html#a1ae16ef10ed322ad47b3cff5a8efc83e" target="_top" xlink:title=" ">
<polygon fill="white" stroke="#666666" points="389,-111 254,-111 254,-92 389,-92 389,-111"/>
<text text-anchor="middle" x="321.5" y="-99" font-family="Helvetica,sans-Serif" font-size="10.00">apply_star_sound_effect</text>
</a>
</g>
</g>
<!-- Node2&#45;&gt;Node3 -->
<g id="edge2_Node000002_Node000003" class="edge">
<title>Node2&#45;&gt;Node3</title>
<g id="a_edge2_Node000002_Node000003"><a xlink:title=" ">
<path fill="none" stroke="#63b8ff" d="M414.86,-101.5C406.48,-101.5 397.76,-101.5 389.18,-101.5"/>
<polygon fill="#63b8ff" stroke="#63b8ff" points="414.89,-105 424.89,-101.5 414.89,-98 414.89,-105"/>
</a>
</g>
</g>
<!-- Node5 -->
<g id="Node000005" class="node">
<title>Node5</title>
<g id="a_Node000005"><a xlink:href="effects_8c.html#ab044d6f7bf1cacf740cf0a27ea0902b5" target="_top" xlink:title=" ">
<polygon fill="white" stroke="#666666" points="372,-74 271,-74 271,-55 372,-55 372,-74"/>
<text text-anchor="middle" x="321.5" y="-62" font-family="Helvetica,sans-Serif" font-size="10.00">apply_star_effect</text>
</a>
</g>
</g>
<!-- Node4&#45;&gt;Node5 -->
<g id="edge4_Node000004_Node000005" class="edge">
<title>Node4&#45;&gt;Node5</title>
<g id="a_edge4_Node000004_Node000005"><a xlink:title=" ">
<path fill="none" stroke="#63b8ff" d="M415.19,-64.5C401.04,-64.5 385.91,-64.5 372.07,-64.5"/>
<polygon fill="#63b8ff" stroke="#63b8ff" points="415.29,-68 425.29,-64.5 415.29,-61 415.29,-68"/>
</a>
</g>
</g>
<!-- Node6 -->
<g id="Node000006" class="node">
<title>Node6</title>
<g id="a_Node000006"><a xlink:href="effects_8c.html#ae1bacd987d7f12fc5960f838a7dbe137" target="_top" xlink:title=" ">
<polygon fill="white" stroke="#666666" points="367.5,-37 275.5,-37 275.5,-18 367.5,-18 367.5,-37"/>
<text text-anchor="middle" x="321.5" y="-25" font-family="Helvetica,sans-Serif" font-size="10.00">func_8008F86C</text>
</a>
</g>
</g>
<!-- Node4&#45;&gt;Node6 -->
<g id="edge5_Node000004_Node000006" class="edge">
<title>Node4&#45;&gt;Node6</title>
<g id="a_edge5_Node000004_Node000006"><a xlink:title=" ">
<path fill="none" stroke="#63b8ff" d="M422.53,-52.51C402.51,-47.5 379.59,-41.77 360.74,-37.06"/>
<polygon fill="#63b8ff" stroke="#63b8ff" points="421.84,-55.94 432.39,-54.97 423.53,-49.15 421.84,-55.94"/>
</a>
</g>
</g>
<!-- Node7 -->
<g id="Node000007" class="node">
<title>Node7</title>
<g id="a_Node000007"><a xlink:href="effects_8c.html#a71c3c746ea434e798865e3256180ee0a" target="_top" xlink:title=" ">
<polygon fill="white" stroke="#666666" points="218,-56 127,-56 127,-37 218,-37 218,-56"/>
<text text-anchor="middle" x="172.5" y="-44" font-family="Helvetica,sans-Serif" font-size="10.00">func_8008F494</text>
</a>
</g>
</g>
<!-- Node6&#45;&gt;Node7 -->
<g id="edge6_Node000006_Node000007" class="edge">
<title>Node6&#45;&gt;Node7</title>
<g id="a_edge6_Node000006_Node000007"><a xlink:title=" ">
<path fill="none" stroke="#63b8ff" d="M265.19,-34.65C249.66,-36.66 232.97,-38.81 218.15,-40.73"/>
<polygon fill="#63b8ff" stroke="#63b8ff" points="265.73,-38.11 275.2,-33.36 264.83,-31.17 265.73,-38.11"/>
</a>
</g>
</g>
<!-- Node8 -->
<g id="Node000008" class="node">
<title>Node8</title>
<g id="a_Node000008"><a xlink:href="effects_8c.html#a17332237b5c2a4249328a35071e23bf7" target="_top" xlink:title=" ">
<polygon fill="white" stroke="#666666" points="218,-19 127,-19 127,0 218,0 218,-19"/>
<text text-anchor="middle" x="172.5" y="-7" font-family="Helvetica,sans-Serif" font-size="10.00">func_80090778</text>
</a>
</g>
</g>
<!-- Node6&#45;&gt;Node8 -->
<g id="edge7_Node000006_Node000008" class="edge">
<title>Node6&#45;&gt;Node8</title>
<g id="a_edge7_Node000006_Node000008"><a xlink:title=" ">
<path fill="none" stroke="#63b8ff" d="M265.19,-20.73C249.66,-18.83 232.97,-16.78 218.15,-14.97"/>
<polygon fill="#63b8ff" stroke="#63b8ff" points="264.84,-24.21 275.2,-21.95 265.7,-17.26 264.84,-24.21"/>
</a>
</g>
</g>
<!-- Node9 -->
<g id="Node000009" class="node">
<title>Node9</title>
<g id="a_Node000009"><a xlink:href="effects_8c.html#afaeabb9e08b6568f56117c24edad5945" target="_top" xlink:title=" ">
<polygon fill="white" stroke="#666666" points="91,-19 0,-19 0,0 91,0 91,-19"/>
<text text-anchor="middle" x="45.5" y="-7" font-family="Helvetica,sans-Serif" font-size="10.00">func_8008F3F4</text>
</a>
</g>
</g>
<!-- Node8&#45;&gt;Node9 -->
<g id="edge8_Node000008_Node000009" class="edge">
<title>Node8&#45;&gt;Node9</title>
<g id="a_edge8_Node000008_Node000009"><a xlink:title=" ">
<path fill="none" stroke="#63b8ff" d="M116.59,-9.5C108.16,-9.5 99.55,-9.5 91.38,-9.5"/>
<polygon fill="#63b8ff" stroke="#63b8ff" points="116.73,-13 126.73,-9.5 116.73,-6 116.73,-13"/>
</a>
</g>
</g>
</g>
</svg>
