<?xml version="1.0" encoding="UTF-8" standalone="no"?>
<!DOCTYPE svg PUBLIC "-//W3C//DTD SVG 1.1//EN"
 "http://www.w3.org/Graphics/SVG/1.1/DTD/svg11.dtd">
<!-- Generated by graphviz version 2.43.0 (0)
 -->
<!-- Title: func_800C8EAC Pages: 1 -->
<!--zoomable 372 -->

<svg id="main" version="1.1" xmlns="http://www.w3.org/2000/svg" xmlns:xlink="http://www.w3.org/1999/xlink" xml:space="preserve" onload="init(evt)">
<style type="text/css"><![CDATA[
.node, .edge {opacity: 0.7;}
.node.selected, .edge.selected {opacity: 1;}
.edge:hover path { stroke: red; }
.edge:hover polygon { stroke: red; fill: red; }
]]></style>

<defs>
  <circle id="rim" cx="0" cy="0" r="7"/>
  <circle id="rim2" cx="0" cy="0" r="3.5"/>
  <g id="zoomPlus">
    <use xlink:href="#rim" fill="#404040"><set attributeName="fill" to="#808080" begin="zoomplus.mouseover" end="zoomplus.mouseout"/></use>
    <path d="M-4,0h8M0,-4v8" fill="none" stroke="white" stroke-width="1.5" pointer-events="none"/>
  </g>
  <g id="zoomMin">
    <use xlink:href="#rim" fill="#404040"><set attributeName="fill" to="#808080" begin="zoomminus.mouseover" end="zoomminus.mouseout"/></use>
    <path d="M-4,0h8" fill="none" stroke="white" stroke-width="1.5" pointer-events="none"/>
  </g>
  <g id="arrowUp" transform="translate(30 24)">
    <use xlink:href="#rim"/>
    <path pointer-events="none" fill="none" stroke="white" stroke-width="1.5" d="M0,-3.0v7 M-2.5,-0.5L0,-3.0L2.5,-0.5"/>
  </g>
  <g id="arrowRight" transform="rotate(90) translate(36 -43)">
    <use xlink:href="#rim"/>
    <path pointer-events="none" fill="none" stroke="white" stroke-width="1.5" d="M0,-3.0v7 M-2.5,-0.5L0,-3.0L2.5,-0.5"/>
  </g>
  <g id="arrowDown" transform="rotate(180) translate(-30 -48)">
    <use xlink:href="#rim"/>
    <path pointer-events="none" fill="none" stroke="white" stroke-width="1.5" d="M0,-3.0v7 M-2.5,-0.5L0,-3.0L2.5,-0.5"/>
  </g>
  <g id="arrowLeft" transform="rotate(270) translate(-36 17)">
    <use xlink:href="#rim"/>
    <path pointer-events="none" fill="none" stroke="white" stroke-width="1.5" d="M0,-3.0v7 M-2.5,-0.5L0,-3.0L2.5,-0.5"/>
  </g>
  <g id="resetDef">
    <use xlink:href="#rim2" fill="#404040"><set attributeName="fill" to="#808080" begin="reset.mouseover" end="reset.mouseout"/></use>
  </g>
</defs>
<script type="application/ecmascript">
var viewWidth = 2011;
var viewHeight = 372;
var sectionId = 'dynsection-70';
</script>
<script type="application/ecmascript" xlink:href="svg.min.js"/>
<svg id="graph" class="graph">
<g id="viewport">
<title>func_800C8EAC</title>
<!-- Node1 -->
<g id="Node000001" class="node">
<title>Node1</title>
<g id="a_Node000001"><a xlink:title=" ">
<polygon fill="#999999" stroke="#666666" points="2003,-158 1910,-158 1910,-139 2003,-139 2003,-158"/>
<text text-anchor="middle" x="1956.5" y="-146" font-family="Helvetica,sans-Serif" font-size="10.00">func_800C8EAC</text>
</a>
</g>
</g>
<!-- Node2 -->
<g id="Node000002" class="node">
<title>Node2</title>
<g id="a_Node000002"><a xlink:href="menus_8c.html#a7e237b5fa61d543f8aedfd821d4aa48b" target="_top" xlink:title=" ">
<polygon fill="white" stroke="#666666" points="1329.5,-227 1237.5,-227 1237.5,-208 1329.5,-208 1329.5,-227"/>
<text text-anchor="middle" x="1283.5" y="-215" font-family="Helvetica,sans-Serif" font-size="10.00">func_800B3F74</text>
</a>
</g>
</g>
<!-- Node1&#45;&gt;Node2 -->
<g id="edge1_Node000001_Node000002" class="edge">
<title>Node1&#45;&gt;Node2</title>
<g id="a_edge1_Node000001_Node000002"><a xlink:title=" ">
<path fill="none" stroke="#63b8ff" d="M1929.17,-162.66C1913.54,-170.49 1893.11,-179.78 1874,-185.5 1797.07,-208.53 1775.8,-213.5 1695.5,-213.5 1695.5,-213.5 1695.5,-213.5 1561,-213.5 1479.39,-213.5 1384.23,-215.26 1329.52,-216.45"/>
<polygon fill="#63b8ff" stroke="#63b8ff" points="1930.93,-165.69 1938.23,-158.01 1927.73,-159.46 1930.93,-165.69"/>
</a>
</g>
</g>
<!-- Node16 -->
<g id="Node000016" class="node">
<title>Node16</title>
<g id="a_Node000016"><a xlink:href="external_8c.html#ac32b332e8b9a73af543741393186060d" target="_top" xlink:title=" ">
<polygon fill="white" stroke="#666666" points="1873.5,-56 1781.5,-56 1781.5,-37 1873.5,-37 1873.5,-56"/>
<text text-anchor="middle" x="1827.5" y="-44" font-family="Helvetica,sans-Serif" font-size="10.00">func_800CA730</text>
</a>
</g>
</g>
<!-- Node1&#45;&gt;Node16 -->
<g id="edge19_Node000001_Node000016" class="edge">
<title>Node1&#45;&gt;Node16</title>
<g id="a_edge19_Node000001_Node000016"><a xlink:title=" ">
<path fill="none" stroke="#63b8ff" d="M1935.39,-132.35C1908.65,-110.88 1862.25,-73.61 1840.45,-56.1"/>
<polygon fill="#63b8ff" stroke="#63b8ff" points="1933.33,-135.19 1943.32,-138.72 1937.72,-129.73 1933.33,-135.19"/>
</a>
</g>
</g>
<!-- Node22 -->
<g id="Node000022" class="node">
<title>Node22</title>
<g id="a_Node000022"><a xlink:href="external_8c.html#ae71450546a81c5fa5a5ec8b5a529a5ef" target="_top" xlink:title=" ">
<polygon fill="white" stroke="#666666" points="1874,-176 1781,-176 1781,-157 1874,-157 1874,-176"/>
<text text-anchor="middle" x="1827.5" y="-164" font-family="Helvetica,sans-Serif" font-size="10.00">func_800CB14C</text>
</a>
</g>
</g>
<!-- Node1&#45;&gt;Node22 -->
<g id="edge25_Node000001_Node000022" class="edge">
<title>Node1&#45;&gt;Node22</title>
<g id="a_edge25_Node000001_Node000022"><a xlink:title=" ">
<path fill="none" stroke="#63b8ff" d="M1899.5,-156.44C1891.07,-157.63 1882.46,-158.85 1874.28,-160.01"/>
<polygon fill="#63b8ff" stroke="#63b8ff" points="1900.24,-159.87 1909.65,-155 1899.26,-152.94 1900.24,-159.87"/>
</a>
</g>
</g>
<!-- Node29 -->
<g id="Node000029" class="node">
<title>Node29</title>
<g id="a_Node000029"><a xlink:href="race__logic_8c.html#a81fc82f45c9f9fcbf0d71fd2e0d6853c" target="_top" xlink:title=" ">
<polygon fill="white" stroke="#666666" points="1873.5,-138 1781.5,-138 1781.5,-119 1873.5,-119 1873.5,-138"/>
<text text-anchor="middle" x="1827.5" y="-126" font-family="Helvetica,sans-Serif" font-size="10.00">func_8028EC98</text>
</a>
</g>
</g>
<!-- Node1&#45;&gt;Node29 -->
<g id="edge34_Node000001_Node000029" class="edge">
<title>Node1&#45;&gt;Node29</title>
<g id="a_edge34_Node000001_Node000029"><a xlink:title=" ">
<path fill="none" stroke="#63b8ff" d="M1899.65,-139.71C1891.03,-138.35 1882.21,-136.96 1873.86,-135.64"/>
<polygon fill="#63b8ff" stroke="#63b8ff" points="1899.23,-143.18 1909.65,-141.28 1900.32,-136.27 1899.23,-143.18"/>
</a>
</g>
</g>
<!-- Node3 -->
<g id="Node000003" class="node">
<title>Node3</title>
<g id="a_Node000003"><a xlink:href="code__80091750_8c.html#afbc00b3a80fed334c4f3d05f4502393e" target="_top" xlink:title=" ">
<polygon fill="white" stroke="#666666" points="1048,-256 956,-256 956,-237 1048,-237 1048,-256"/>
<text text-anchor="middle" x="1002" y="-244" font-family="Helvetica,sans-Serif" font-size="10.00">func_80094C60</text>
</a>
</g>
</g>
<!-- Node2&#45;&gt;Node3 -->
<g id="edge2_Node000002_Node000003" class="edge">
<title>Node2&#45;&gt;Node3</title>
<g id="a_edge2_Node000002_Node000003"><a xlink:title=" ">
<path fill="none" stroke="#63b8ff" d="M1227.15,-223.24C1174.72,-228.68 1096.94,-236.75 1048.15,-241.82"/>
<polygon fill="#63b8ff" stroke="#63b8ff" points="1227.7,-226.71 1237.28,-222.19 1226.98,-219.74 1227.7,-226.71"/>
</a>
</g>
</g>
<!-- Node4 -->
<g id="Node000004" class="node">
<title>Node4</title>
<g id="a_Node000004"><a xlink:href="code__80091750_8c.html#a4c171632ff32db3cbe13719e6478d536" target="_top" xlink:title=" ">
<polygon fill="white" stroke="#666666" points="881,-290 789,-290 789,-271 881,-271 881,-290"/>
<text text-anchor="middle" x="835" y="-278" font-family="Helvetica,sans-Serif" font-size="10.00">func_80091B78</text>
</a>
</g>
</g>
<!-- Node3&#45;&gt;Node4 -->
<g id="edge3_Node000003_Node000004" class="edge">
<title>Node3&#45;&gt;Node4</title>
<g id="a_edge3_Node000003_Node000004"><a xlink:title=" ">
<path fill="none" stroke="#63b8ff" d="M946.11,-257.81C924.98,-262.16 901.12,-267.08 881.03,-271.22"/>
<polygon fill="#63b8ff" stroke="#63b8ff" points="946.83,-261.24 955.91,-255.79 945.41,-254.38 946.83,-261.24"/>
</a>
</g>
</g>
<!-- Node14 -->
<g id="Node000014" class="node">
<title>Node14</title>
<g id="a_Node000014"><a xlink:href="code__80091750_8c.html#ac51ad7c4cba535e4821a618a8cfe1e3e" target="_top" xlink:title=" ">
<polygon fill="white" stroke="#666666" points="881,-249 789,-249 789,-230 881,-230 881,-249"/>
<text text-anchor="middle" x="835" y="-237" font-family="Helvetica,sans-Serif" font-size="10.00">func_80094A64</text>
</a>
</g>
</g>
<!-- Node3&#45;&gt;Node14 -->
<g id="edge16_Node000003_Node000014" class="edge">
<title>Node3&#45;&gt;Node14</title>
<g id="a_edge16_Node000003_Node000014"><a xlink:title=" ">
<path fill="none" stroke="#63b8ff" d="M945.82,-244.16C924.76,-243.27 901.03,-242.26 881.03,-241.41"/>
<polygon fill="#63b8ff" stroke="#63b8ff" points="945.77,-247.66 955.91,-244.59 946.07,-240.67 945.77,-247.66"/>
</a>
</g>
</g>
<!-- Node5 -->
<g id="Node000005" class="node">
<title>Node5</title>
<g id="a_Node000005"><a xlink:href="main_8c.html#a8ccd4f2ae1a9502071e1b43ab07a78d3" target="_top" xlink:title=" ">
<polygon fill="white" stroke="#666666" points="732,-364 640,-364 640,-345 732,-345 732,-364"/>
<text text-anchor="middle" x="686" y="-352" font-family="Helvetica,sans-Serif" font-size="10.00">func_800025D4</text>
</a>
</g>
</g>
<!-- Node4&#45;&gt;Node5 -->
<g id="edge4_Node000004_Node000005" class="edge">
<title>Node4&#45;&gt;Node5</title>
<g id="a_edge4_Node000004_Node000005"><a xlink:title=" ">
<path fill="none" stroke="#63b8ff" d="M809.41,-295.1C789.02,-306.94 759.09,-323.71 732,-336.5 725.76,-339.45 718.9,-342.35 712.46,-344.94"/>
<polygon fill="#63b8ff" stroke="#63b8ff" points="811.2,-298.11 818.06,-290.04 807.66,-292.07 811.2,-298.11"/>
</a>
</g>
</g>
<!-- Node11 -->
<g id="Node000011" class="node">
<title>Node11</title>
<g id="a_Node000011"><a xlink:href="main_8c.html#a1399390ccfb8062de2a77e48df769faf" target="_top" xlink:title=" ">
<polygon fill="white" stroke="#666666" points="731.5,-327 640.5,-327 640.5,-308 731.5,-308 731.5,-327"/>
<text text-anchor="middle" x="686" y="-315" font-family="Helvetica,sans-Serif" font-size="10.00">func_80002600</text>
</a>
</g>
</g>
<!-- Node4&#45;&gt;Node11 -->
<g id="edge10_Node000004_Node000011" class="edge">
<title>Node4&#45;&gt;Node11</title>
<g id="a_edge10_Node000004_Node000011"><a xlink:title=" ">
<path fill="none" stroke="#63b8ff" d="M786.35,-292.49C766.47,-297.5 743.7,-303.23 724.98,-307.94"/>
<polygon fill="#63b8ff" stroke="#63b8ff" points="787.3,-295.86 796.14,-290.03 785.59,-289.08 787.3,-295.86"/>
</a>
</g>
</g>
<!-- Node12 -->
<g id="Node000012" class="node">
<title>Node12</title>
<g id="a_Node000012"><a xlink:href="main_8c.html#a26a29858c220d867684f0385abacfde8" target="_top" xlink:title=" ">
<polygon fill="white" stroke="#666666" points="732,-290 640,-290 640,-271 732,-271 732,-290"/>
<text text-anchor="middle" x="686" y="-278" font-family="Helvetica,sans-Serif" font-size="10.00">func_8000262C</text>
</a>
</g>
</g>
<!-- Node4&#45;&gt;Node12 -->
<g id="edge12_Node000004_Node000012" class="edge">
<title>Node4&#45;&gt;Node12</title>
<g id="a_edge12_Node000004_Node000012"><a xlink:title=" ">
<path fill="none" stroke="#63b8ff" d="M778.34,-280.5C763.09,-280.5 746.74,-280.5 732.15,-280.5"/>
<polygon fill="#63b8ff" stroke="#63b8ff" points="778.7,-284 788.7,-280.5 778.7,-277 778.7,-284"/>
</a>
</g>
</g>
<!-- Node13 -->
<g id="Node000013" class="node">
<title>Node13</title>
<g id="a_Node000013"><a xlink:href="main_8c.html#a3a0697cf1e2b0c4ec6ddbf605926eac4" target="_top" xlink:title=" ">
<polygon fill="white" stroke="#666666" points="731.5,-253 640.5,-253 640.5,-234 731.5,-234 731.5,-253"/>
<text text-anchor="middle" x="686" y="-241" font-family="Helvetica,sans-Serif" font-size="10.00">func_80002658</text>
</a>
</g>
</g>
<!-- Node4&#45;&gt;Node13 -->
<g id="edge14_Node000004_Node000013" class="edge">
<title>Node4&#45;&gt;Node13</title>
<g id="a_edge14_Node000004_Node000013"><a xlink:title=" ">
<path fill="none" stroke="#63b8ff" d="M786.35,-268.51C766.47,-263.5 743.7,-257.77 724.98,-253.06"/>
<polygon fill="#63b8ff" stroke="#63b8ff" points="785.59,-271.92 796.14,-270.97 787.3,-265.14 785.59,-271.92"/>
</a>
</g>
</g>
<!-- Node6 -->
<g id="Node000006" class="node">
<title>Node6</title>
<g id="a_Node000006"><a xlink:href="main_8c.html#ad0625ed56ac663d3ec7ae8f1ba50c735" target="_top" xlink:title=" ">
<polygon fill="white" stroke="#666666" points="600,-290 492,-290 492,-271 600,-271 600,-290"/>
<text text-anchor="middle" x="546" y="-278" font-family="Helvetica,sans-Serif" font-size="10.00">update_gamestate</text>
</a>
</g>
</g>
<!-- Node5&#45;&gt;Node6 -->
<g id="edge5_Node000005_Node000006" class="edge">
<title>Node5&#45;&gt;Node6</title>
<g id="a_edge5_Node000005_Node000006"><a xlink:title=" ">
<path fill="none" stroke="#63b8ff" d="M649.69,-341.01C646.38,-339.56 643.11,-338.04 640,-336.5 611.14,-322.16 579.34,-301.99 561.4,-290.18"/>
<polygon fill="#63b8ff" stroke="#63b8ff" points="648.41,-344.27 658.98,-344.92 651.12,-337.82 648.41,-344.27"/>
</a>
</g>
</g>
<!-- Node7 -->
<g id="Node000007" class="node">
<title>Node7</title>
<g id="a_Node000007"><a xlink:href="main_8c.html#a633ed517e458daeb768f5361895dcac9" target="_top" xlink:title=" ">
<polygon fill="white" stroke="#666666" points="452,-233 339,-233 339,-214 452,-214 452,-233"/>
<text text-anchor="middle" x="395.5" y="-221" font-family="Helvetica,sans-Serif" font-size="10.00">thread5_game_loop</text>
</a>
</g>
</g>
<!-- Node6&#45;&gt;Node7 -->
<g id="edge6_Node000006_Node000007" class="edge">
<title>Node6&#45;&gt;Node7</title>
<g id="a_edge6_Node000006_Node000007"><a xlink:title=" ">
<path fill="none" stroke="#63b8ff" d="M510.6,-267.3C483.34,-256.83 445.88,-242.45 421.44,-233.07"/>
<polygon fill="#63b8ff" stroke="#63b8ff" points="509.55,-270.64 520.14,-270.96 512.06,-264.11 509.55,-270.64"/>
</a>
</g>
</g>
<!-- Node8 -->
<g id="Node000008" class="node">
<title>Node8</title>
<g id="a_Node000008"><a xlink:href="main_8c.html#a023b8f272e4efbd33f371e91ffff6b30" target="_top" xlink:title=" ">
<polygon fill="white" stroke="#666666" points="303,-233 217,-233 217,-214 303,-214 303,-233"/>
<text text-anchor="middle" x="260" y="-221" font-family="Helvetica,sans-Serif" font-size="10.00">thread3_video</text>
</a>
</g>
</g>
<!-- Node7&#45;&gt;Node8 -->
<g id="edge7_Node000007_Node000008" class="edge">
<title>Node7&#45;&gt;Node8</title>
<g id="a_edge7_Node000007_Node000008"><a xlink:title=" ">
<path fill="none" stroke="#63b8ff" d="M328.57,-223.5C319.94,-223.5 311.3,-223.5 303.21,-223.5"/>
<polygon fill="#63b8ff" stroke="#63b8ff" points="328.66,-227 338.66,-223.5 328.66,-220 328.66,-227"/>
</a>
</g>
</g>
<!-- Node9 -->
<g id="Node000009" class="node">
<title>Node9</title>
<g id="a_Node000009"><a xlink:href="main_8c.html#a1e35d2b842121e6aea373f09381616e5" target="_top" xlink:title=" ">
<polygon fill="white" stroke="#666666" points="181,-233 104,-233 104,-214 181,-214 181,-233"/>
<text text-anchor="middle" x="142.5" y="-221" font-family="Helvetica,sans-Serif" font-size="10.00">thread1_idle</text>
</a>
</g>
</g>
<!-- Node8&#45;&gt;Node9 -->
<g id="edge8_Node000008_Node000009" class="edge">
<title>Node8&#45;&gt;Node9</title>
<g id="a_edge8_Node000008_Node000009"><a xlink:title=" ">
<path fill="none" stroke="#63b8ff" d="M206.9,-223.5C198.2,-223.5 189.33,-223.5 181.09,-223.5"/>
<polygon fill="#63b8ff" stroke="#63b8ff" points="206.98,-227 216.98,-223.5 206.98,-220 206.98,-227"/>
</a>
</g>
</g>
<!-- Node10 -->
<g id="Node000010" class="node">
<title>Node10</title>
<g id="a_Node000010"><a xlink:href="main_8c.html#a4f87d43525fe95f60ea92bc8a3b70e62" target="_top" xlink:title=" ">
<polygon fill="white" stroke="#666666" points="68,-233 0,-233 0,-214 68,-214 68,-233"/>
<text text-anchor="middle" x="34" y="-221" font-family="Helvetica,sans-Serif" font-size="10.00">main_func</text>
</a>
</g>
</g>
<!-- Node9&#45;&gt;Node10 -->
<g id="edge9_Node000009_Node000010" class="edge">
<title>Node9&#45;&gt;Node10</title>
<g id="a_edge9_Node000009_Node000010"><a xlink:title=" ">
<path fill="none" stroke="#63b8ff" d="M93.95,-223.5C85.29,-223.5 76.44,-223.5 68.31,-223.5"/>
<polygon fill="#63b8ff" stroke="#63b8ff" points="93.95,-227 103.95,-223.5 93.95,-220 93.95,-227"/>
</a>
</g>
</g>
<!-- Node11&#45;&gt;Node6 -->
<g id="edge11_Node000011_Node000006" class="edge">
<title>Node11&#45;&gt;Node6</title>
<g id="a_edge11_Node000011_Node000006"><a xlink:title=" ">
<path fill="none" stroke="#63b8ff" d="M639.79,-305.38C621.33,-300.43 600.28,-294.78 582.9,-290.12"/>
<polygon fill="#63b8ff" stroke="#63b8ff" points="638.9,-308.76 649.46,-307.97 640.71,-302 638.9,-308.76"/>
</a>
</g>
</g>
<!-- Node12&#45;&gt;Node6 -->
<g id="edge13_Node000012_Node000006" class="edge">
<title>Node12&#45;&gt;Node6</title>
<g id="a_edge13_Node000012_Node000006"><a xlink:title=" ">
<path fill="none" stroke="#63b8ff" d="M629.57,-280.5C619.97,-280.5 610,-280.5 600.45,-280.5"/>
<polygon fill="#63b8ff" stroke="#63b8ff" points="629.81,-284 639.81,-280.5 629.81,-277 629.81,-284"/>
</a>
</g>
</g>
<!-- Node13&#45;&gt;Node6 -->
<g id="edge15_Node000013_Node000006" class="edge">
<title>Node13&#45;&gt;Node6</title>
<g id="a_edge15_Node000013_Node000006"><a xlink:title=" ">
<path fill="none" stroke="#63b8ff" d="M639.79,-255.62C621.33,-260.57 600.28,-266.22 582.9,-270.88"/>
<polygon fill="#63b8ff" stroke="#63b8ff" points="640.71,-259 649.46,-253.03 638.9,-252.24 640.71,-259"/>
</a>
</g>
</g>
<!-- Node15 -->
<g id="Node000015" class="node">
<title>Node15</title>
<g id="a_Node000015"><a xlink:href="main_8c.html#ae04143ce8113cdafa007c642eb620bc8" target="_top" xlink:title=" ">
<polygon fill="white" stroke="#666666" points="604,-177 488,-177 488,-158 604,-158 604,-177"/>
<text text-anchor="middle" x="546" y="-165" font-family="Helvetica,sans-Serif" font-size="10.00">game_state_handler</text>
</a>
</g>
</g>
<!-- Node14&#45;&gt;Node15 -->
<g id="edge17_Node000014_Node000015" class="edge">
<title>Node14&#45;&gt;Node15</title>
<g id="a_edge17_Node000014_Node000015"><a xlink:title=" ">
<path fill="none" stroke="#63b8ff" d="M785.11,-227.55C745.87,-217.92 689.36,-203.97 640,-191.5 621.41,-186.8 600.75,-181.48 583.64,-177.05"/>
<polygon fill="#63b8ff" stroke="#63b8ff" points="784.41,-230.98 794.96,-229.96 786.08,-224.18 784.41,-230.98"/>
</a>
</g>
</g>
<!-- Node15&#45;&gt;Node7 -->
<g id="edge18_Node000015_Node000007" class="edge">
<title>Node15&#45;&gt;Node7</title>
<g id="a_edge18_Node000015_Node000007"><a xlink:title=" ">
<path fill="none" stroke="#63b8ff" d="M509.97,-180.71C482.85,-190.94 445.95,-204.85 421.69,-214"/>
<polygon fill="#63b8ff" stroke="#63b8ff" points="511.35,-183.93 519.47,-177.13 508.88,-177.38 511.35,-183.93"/>
</a>
</g>
</g>
<!-- Node17 -->
<g id="Node000017" class="node">
<title>Node17</title>
<g id="a_Node000017"><a xlink:href="effects_8c.html#ab044d6f7bf1cacf740cf0a27ea0902b5" target="_top" xlink:title=" ">
<polygon fill="white" stroke="#666666" points="1745,-19 1644,-19 1644,0 1745,0 1745,-19"/>
<text text-anchor="middle" x="1694.5" y="-7" font-family="Helvetica,sans-Serif" font-size="10.00">apply_star_effect</text>
</a>
</g>
</g>
<!-- Node16&#45;&gt;Node17 -->
<g id="edge20_Node000016_Node000017" class="edge">
<title>Node16&#45;&gt;Node17</title>
<g id="a_edge20_Node000016_Node000017"><a xlink:title=" ">
<path fill="none" stroke="#63b8ff" d="M1782.86,-34.17C1765.51,-29.27 1745.85,-23.72 1729.58,-19.12"/>
<polygon fill="#63b8ff" stroke="#63b8ff" points="1782.19,-37.62 1792.76,-36.97 1784.09,-30.89 1782.19,-37.62"/>
</a>
</g>
</g>
<!-- Node18 -->
<g id="Node000018" class="node">
<title>Node18</title>
<g id="a_Node000018"><a xlink:href="effects_8c.html#ae1bacd987d7f12fc5960f838a7dbe137" target="_top" xlink:title=" ">
<polygon fill="white" stroke="#666666" points="1740.5,-56 1648.5,-56 1648.5,-37 1740.5,-37 1740.5,-56"/>
<text text-anchor="middle" x="1694.5" y="-44" font-family="Helvetica,sans-Serif" font-size="10.00">func_8008F86C</text>
</a>
</g>
</g>
<!-- Node16&#45;&gt;Node18 -->
<g id="edge21_Node000016_Node000018" class="edge">
<title>Node16&#45;&gt;Node18</title>
<g id="a_edge21_Node000016_Node000018"><a xlink:title=" ">
<path fill="none" stroke="#63b8ff" d="M1771.35,-46.5C1761.12,-46.5 1750.55,-46.5 1740.67,-46.5"/>
<polygon fill="#63b8ff" stroke="#63b8ff" points="1771.42,-50 1781.42,-46.5 1771.42,-43 1771.42,-50"/>
</a>
</g>
</g>
<!-- Node19 -->
<g id="Node000019" class="node">
<title>Node19</title>
<g id="a_Node000019"><a xlink:href="effects_8c.html#a71c3c746ea434e798865e3256180ee0a" target="_top" xlink:title=" ">
<polygon fill="white" stroke="#666666" points="1607.5,-56 1516.5,-56 1516.5,-37 1607.5,-37 1607.5,-56"/>
<text text-anchor="middle" x="1562" y="-44" font-family="Helvetica,sans-Serif" font-size="10.00">func_8008F494</text>
</a>
</g>
</g>
<!-- Node18&#45;&gt;Node19 -->
<g id="edge22_Node000018_Node000019" class="edge">
<title>Node18&#45;&gt;Node19</title>
<g id="a_edge22_Node000018_Node000019"><a xlink:title=" ">
<path fill="none" stroke="#63b8ff" d="M1638.21,-46.5C1628.05,-46.5 1617.56,-46.5 1607.76,-46.5"/>
<polygon fill="#63b8ff" stroke="#63b8ff" points="1638.22,-50 1648.22,-46.5 1638.22,-43 1638.22,-50"/>
</a>
</g>
</g>
<!-- Node20 -->
<g id="Node000020" class="node">
<title>Node20</title>
<g id="a_Node000020"><a xlink:href="effects_8c.html#a17332237b5c2a4249328a35071e23bf7" target="_top" xlink:title=" ">
<polygon fill="white" stroke="#666666" points="1607.5,-19 1516.5,-19 1516.5,0 1607.5,0 1607.5,-19"/>
<text text-anchor="middle" x="1562" y="-7" font-family="Helvetica,sans-Serif" font-size="10.00">func_80090778</text>
</a>
</g>
</g>
<!-- Node18&#45;&gt;Node20 -->
<g id="edge23_Node000018_Node000020" class="edge">
<title>Node18&#45;&gt;Node20</title>
<g id="a_edge23_Node000018_Node000020"><a xlink:title=" ">
<path fill="none" stroke="#63b8ff" d="M1650.03,-34.17C1632.74,-29.27 1613.16,-23.72 1596.95,-19.12"/>
<polygon fill="#63b8ff" stroke="#63b8ff" points="1649.32,-37.61 1659.89,-36.97 1651.23,-30.88 1649.32,-37.61"/>
</a>
</g>
</g>
<!-- Node21 -->
<g id="Node000021" class="node">
<title>Node21</title>
<g id="a_Node000021"><a xlink:href="effects_8c.html#afaeabb9e08b6568f56117c24edad5945" target="_top" xlink:title=" ">
<polygon fill="white" stroke="#666666" points="1472,-19 1381,-19 1381,0 1472,0 1472,-19"/>
<text text-anchor="middle" x="1426.5" y="-7" font-family="Helvetica,sans-Serif" font-size="10.00">func_8008F3F4</text>
</a>
</g>
</g>
<!-- Node20&#45;&gt;Node21 -->
<g id="edge24_Node000020_Node000021" class="edge">
<title>Node20&#45;&gt;Node21</title>
<g id="a_edge24_Node000020_Node000021"><a xlink:title=" ">
<path fill="none" stroke="#63b8ff" d="M1506.06,-9.5C1494.87,-9.5 1483.23,-9.5 1472.43,-9.5"/>
<polygon fill="#63b8ff" stroke="#63b8ff" points="1506.18,-13 1516.18,-9.5 1506.18,-6 1506.18,-13"/>
</a>
</g>
</g>
<!-- Node23 -->
<g id="Node000023" class="node">
<title>Node23</title>
<g id="a_Node000023"><a xlink:href="ceremony__and__credits_8c.html#a445e8065f08ba8f9cd2377e5d0a501fb" target="_top" xlink:title=" ">
<polygon fill="white" stroke="#666666" points="1740.5,-179 1648.5,-179 1648.5,-160 1740.5,-160 1740.5,-179"/>
<text text-anchor="middle" x="1694.5" y="-167" font-family="Helvetica,sans-Serif" font-size="10.00">func_80283C58</text>
</a>
</g>
</g>
<!-- Node22&#45;&gt;Node23 -->
<g id="edge26_Node000022_Node000023" class="edge">
<title>Node22&#45;&gt;Node23</title>
<g id="a_edge26_Node000022_Node000023"><a xlink:title=" ">
<path fill="none" stroke="#63b8ff" d="M1770.45,-167.78C1760.49,-168.01 1750.24,-168.25 1740.63,-168.47"/>
<polygon fill="#63b8ff" stroke="#63b8ff" points="1770.77,-171.28 1780.68,-167.55 1770.61,-164.28 1770.77,-171.28"/>
</a>
</g>
</g>
<!-- Node24 -->
<g id="Node000024" class="node">
<title>Node24</title>
<g id="a_Node000024"><a xlink:href="ceremony__and__credits_8c.html#a2852fa12f61b0e487abbeeebdd0419b6" target="_top" xlink:title=" ">
<polygon fill="white" stroke="#666666" points="1469.5,-180 1383.5,-180 1383.5,-161 1469.5,-161 1469.5,-180"/>
<text text-anchor="middle" x="1426.5" y="-168" font-family="Helvetica,sans-Serif" font-size="10.00">play_cutscene</text>
</a>
</g>
</g>
<!-- Node23&#45;&gt;Node24 -->
<g id="edge27_Node000023_Node000024" class="edge">
<title>Node23&#45;&gt;Node24</title>
<g id="a_edge27_Node000023_Node000024"><a xlink:title=" ">
<path fill="none" stroke="#63b8ff" d="M1638.36,-169.71C1588.26,-169.9 1515.4,-170.17 1469.77,-170.34"/>
<polygon fill="#63b8ff" stroke="#63b8ff" points="1638.39,-173.21 1648.38,-169.67 1638.36,-166.21 1638.39,-173.21"/>
</a>
</g>
</g>
<!-- Node25 -->
<g id="Node000025" class="node">
<title>Node25</title>
<g id="a_Node000025"><a xlink:href="ceremony__and__credits_8c.html#ae68f2b462a9b90f0a251c466859df0c7" target="_top" xlink:title=" ">
<polygon fill="white" stroke="#666666" points="1193.5,-180 1102.5,-180 1102.5,-161 1193.5,-161 1193.5,-180"/>
<text text-anchor="middle" x="1148" y="-168" font-family="Helvetica,sans-Serif" font-size="10.00">func_80283648</text>
</a>
</g>
</g>
<!-- Node24&#45;&gt;Node25 -->
<g id="edge28_Node000024_Node000025" class="edge">
<title>Node24&#45;&gt;Node25</title>
<g id="a_edge28_Node000024_Node000025"><a xlink:title=" ">
<path fill="none" stroke="#63b8ff" d="M1373.2,-170.5C1321.3,-170.5 1242.61,-170.5 1193.58,-170.5"/>
<polygon fill="#63b8ff" stroke="#63b8ff" points="1373.2,-174 1383.2,-170.5 1373.2,-167 1373.2,-174"/>
</a>
</g>
</g>
<!-- Node26 -->
<g id="Node000026" class="node">
<title>Node26</title>
<g id="a_Node000026"><a xlink:href="code__80280000_8c.html#aa28a69be4eda3b8667366c6c7b556024" target="_top" xlink:title=" ">
<polygon fill="white" stroke="#666666" points="724,-139 648,-139 648,-120 724,-120 724,-139"/>
<text text-anchor="middle" x="686" y="-127" font-family="Helvetica,sans-Serif" font-size="10.00">credits_loop</text>
</a>
</g>
</g>
<!-- Node25&#45;&gt;Node26 -->
<g id="edge29_Node000025_Node000026" class="edge">
<title>Node25&#45;&gt;Node26</title>
<g id="a_edge29_Node000025_Node000026"><a xlink:title=" ">
<path fill="none" stroke="#63b8ff" d="M1092.28,-167.53C1018.5,-163.25 883.09,-154.41 768,-141.5 753.59,-139.88 737.8,-137.65 724.03,-135.55"/>
<polygon fill="#63b8ff" stroke="#63b8ff" points="1092.09,-171.03 1102.27,-168.1 1092.49,-164.04 1092.09,-171.03"/>
</a>
</g>
</g>
<!-- Node27 -->
<g id="Node000027" class="node">
<title>Node27</title>
<g id="a_Node000027"><a xlink:href="camera__junk_8c.html#a51d9ed8208040465ff736fdfce39d918" target="_top" xlink:title=" ">
<polygon fill="white" stroke="#666666" points="1066,-218.5 938,-218.5 938,-188.5 1066,-188.5 1066,-218.5"/>
<text text-anchor="start" x="946" y="-206.5" font-family="Helvetica,sans-Serif" font-size="10.00">setup_camera_podium</text>
<text text-anchor="middle" x="1002" y="-195.5" font-family="Helvetica,sans-Serif" font-size="10.00">_ceremony</text>
</a>
</g>
</g>
<!-- Node25&#45;&gt;Node27 -->
<g id="edge31_Node000025_Node000027" class="edge">
<title>Node25&#45;&gt;Node27</title>
<g id="a_edge31_Node000025_Node000027"><a xlink:title=" ">
<path fill="none" stroke="#63b8ff" d="M1095.35,-182.34C1085.92,-184.5 1075.99,-186.77 1066.27,-189"/>
<polygon fill="#63b8ff" stroke="#63b8ff" points="1096.38,-185.69 1105.35,-180.04 1094.82,-178.87 1096.38,-185.69"/>
</a>
</g>
</g>
<!-- Node26&#45;&gt;Node15 -->
<g id="edge30_Node000026_Node000015" class="edge">
<title>Node26&#45;&gt;Node15</title>
<g id="a_edge30_Node000026_Node000015"><a xlink:title=" ">
<path fill="none" stroke="#63b8ff" d="M640.53,-141.75C621.51,-146.98 599.62,-153.01 581.81,-157.91"/>
<polygon fill="#63b8ff" stroke="#63b8ff" points="641.46,-145.12 650.18,-139.09 639.61,-138.37 641.46,-145.12"/>
</a>
</g>
</g>
<!-- Node28 -->
<g id="Node000028" class="node">
<title>Node28</title>
<g id="a_Node000028"><a xlink:href="podium__ceremony__actors_8c.html#a7ea229c65f264670fc828b95e8321154" target="_top" xlink:title=" ">
<polygon fill="white" stroke="#666666" points="902,-208 768,-208 768,-189 902,-189 902,-208"/>
<text text-anchor="middle" x="835" y="-196" font-family="Helvetica,sans-Serif" font-size="10.00">podium_ceremony_loop</text>
</a>
</g>
</g>
<!-- Node27&#45;&gt;Node28 -->
<g id="edge32_Node000027_Node000028" class="edge">
<title>Node27&#45;&gt;Node28</title>
<g id="a_edge32_Node000027_Node000028"><a xlink:title=" ">
<path fill="none" stroke="#63b8ff" d="M927.48,-201.27C919.05,-201.02 910.49,-200.76 902.16,-200.5"/>
<polygon fill="#63b8ff" stroke="#63b8ff" points="927.58,-204.78 937.68,-201.58 927.79,-197.78 927.58,-204.78"/>
</a>
</g>
</g>
<!-- Node28&#45;&gt;Node15 -->
<g id="edge33_Node000028_Node000015" class="edge">
<title>Node28&#45;&gt;Node15</title>
<g id="a_edge33_Node000028_Node000015"><a xlink:title=" ">
<path fill="none" stroke="#63b8ff" d="M757.71,-190.26C709.49,-185.05 648.18,-178.43 604.15,-173.67"/>
<polygon fill="#63b8ff" stroke="#63b8ff" points="757.48,-193.75 767.8,-191.35 758.23,-186.8 757.48,-193.75"/>
</a>
</g>
</g>
<!-- Node30 -->
<g id="Node000030" class="node">
<title>Node30</title>
<g id="a_Node000030"><a xlink:href="race__logic_8c.html#a1b2815c62b11e33e3c74d7fd65af5edc" target="_top" xlink:title=" ">
<polygon fill="white" stroke="#666666" points="1727,-137 1662,-137 1662,-118 1727,-118 1727,-137"/>
<text text-anchor="middle" x="1694.5" y="-125" font-family="Helvetica,sans-Serif" font-size="10.00">start_race</text>
</a>
</g>
</g>
<!-- Node29&#45;&gt;Node30 -->
<g id="edge35_Node000029_Node000030" class="edge">
<title>Node29&#45;&gt;Node30</title>
<g id="a_edge35_Node000029_Node000030"><a xlink:title=" ">
<path fill="none" stroke="#63b8ff" d="M1771.14,-128.08C1756.08,-127.96 1740.28,-127.84 1727.04,-127.74"/>
<polygon fill="#63b8ff" stroke="#63b8ff" points="1771.39,-131.58 1781.42,-128.16 1771.44,-124.58 1771.39,-131.58"/>
</a>
</g>
</g>
<!-- Node31 -->
<g id="Node000031" class="node">
<title>Node31</title>
<g id="a_Node000031"><a xlink:href="code__80071F00_8c.html#ab4bac637d1bfa62d790dc248005287dd" target="_top" xlink:title=" ">
<polygon fill="white" stroke="#666666" points="1608,-137 1516,-137 1516,-118 1608,-118 1608,-137"/>
<text text-anchor="middle" x="1562" y="-125" font-family="Helvetica,sans-Serif" font-size="10.00">func_800729EC</text>
</a>
</g>
</g>
<!-- Node30&#45;&gt;Node31 -->
<g id="edge36_Node000030_Node000031" class="edge">
<title>Node30&#45;&gt;Node31</title>
<g id="a_edge36_Node000030_Node000031"><a xlink:title=" ">
<path fill="none" stroke="#63b8ff" d="M1651.65,-127.5C1637.76,-127.5 1622.24,-127.5 1608.11,-127.5"/>
<polygon fill="#63b8ff" stroke="#63b8ff" points="1651.91,-131 1661.91,-127.5 1651.91,-124 1651.91,-131"/>
</a>
</g>
</g>
<!-- Node38 -->
<g id="Node000038" class="node">
<title>Node38</title>
<g id="a_Node000038"><a xlink:href="race__logic_8c.html#a7f21a1ef55b61f5678170da62e5e51dc" target="_top" xlink:title=" ">
<polygon fill="white" stroke="#666666" points="1330,-94 1237,-94 1237,-75 1330,-75 1330,-94"/>
<text text-anchor="middle" x="1283.5" y="-82" font-family="Helvetica,sans-Serif" font-size="10.00">func_8028FCBC</text>
</a>
</g>
</g>
<!-- Node30&#45;&gt;Node38 -->
<g id="edge46_Node000030_Node000038" class="edge">
<title>Node30&#45;&gt;Node38</title>
<g id="a_edge46_Node000030_Node000038"><a xlink:title=" ">
<path fill="none" stroke="#63b8ff" d="M1651.44,-117.51C1637.66,-114.54 1622.24,-111.54 1608,-109.5 1509.58,-95.4 1393.1,-88.86 1330.24,-86.16"/>
<polygon fill="#63b8ff" stroke="#63b8ff" points="1651.08,-121.01 1661.6,-119.75 1652.59,-114.18 1651.08,-121.01"/>
</a>
</g>
</g>
<!-- Node32 -->
<g id="Node000032" class="node">
<title>Node32</title>
<g id="a_Node000032"><a xlink:href="code__80071F00_8c.html#aaebac499f09ca64dfe7a4ca2f2eb0c2a" target="_top" xlink:title=" ">
<polygon fill="white" stroke="#666666" points="1480,-142.5 1373,-142.5 1373,-112.5 1480,-112.5 1480,-142.5"/>
<text text-anchor="start" x="1381" y="-130.5" font-family="Helvetica,sans-Serif" font-size="10.00">update_obj_laikitu</text>
<text text-anchor="middle" x="1426.5" y="-119.5" font-family="Helvetica,sans-Serif" font-size="10.00">_countdown</text>
</a>
</g>
</g>
<!-- Node31&#45;&gt;Node32 -->
<g id="edge37_Node000031_Node000032" class="edge">
<title>Node31&#45;&gt;Node32</title>
<g id="a_edge37_Node000031_Node000032"><a xlink:title=" ">
<path fill="none" stroke="#63b8ff" d="M1505.63,-127.5C1497.16,-127.5 1488.43,-127.5 1480.02,-127.5"/>
<polygon fill="#63b8ff" stroke="#63b8ff" points="1505.8,-131 1515.8,-127.5 1505.8,-124 1505.8,-131"/>
</a>
</g>
</g>
<!-- Node33 -->
<g id="Node000033" class="node">
<title>Node33</title>
<g id="a_Node000033"><a xlink:href="code__80071F00_8c.html#acf901985295d306e8918b07b89422230" target="_top" xlink:title=" ">
<polygon fill="white" stroke="#666666" points="1337,-135 1230,-135 1230,-116 1337,-116 1337,-135"/>
<text text-anchor="middle" x="1283.5" y="-123" font-family="Helvetica,sans-Serif" font-size="10.00">update_obj_laikitu</text>
</a>
</g>
</g>
<!-- Node32&#45;&gt;Node33 -->
<g id="edge38_Node000032_Node000033" class="edge">
<title>Node32&#45;&gt;Node33</title>
<g id="a_edge38_Node000032_Node000033"><a xlink:title=" ">
<path fill="none" stroke="#63b8ff" d="M1362.95,-126.61C1354.3,-126.49 1345.49,-126.37 1337.05,-126.25"/>
<polygon fill="#63b8ff" stroke="#63b8ff" points="1362.95,-130.11 1373,-126.76 1363.05,-123.11 1362.95,-130.11"/>
</a>
</g>
</g>
<!-- Node34 -->
<g id="Node000034" class="node">
<title>Node34</title>
<g id="a_Node000034"><a xlink:href="code__80057C60_8c.html#ad9abd1f78c8153b6eb41db7e6378a78c" target="_top" xlink:title=" ">
<polygon fill="white" stroke="#666666" points="1194,-133 1102,-133 1102,-114 1194,-114 1194,-133"/>
<text text-anchor="middle" x="1148" y="-121" font-family="Helvetica,sans-Serif" font-size="10.00">func_80059A88</text>
</a>
</g>
</g>
<!-- Node33&#45;&gt;Node34 -->
<g id="edge39_Node000033_Node000034" class="edge">
<title>Node33&#45;&gt;Node34</title>
<g id="a_edge39_Node000033_Node000034"><a xlink:title=" ">
<path fill="none" stroke="#63b8ff" d="M1219.67,-124.56C1211.02,-124.43 1202.29,-124.3 1194.05,-124.17"/>
<polygon fill="#63b8ff" stroke="#63b8ff" points="1219.69,-128.06 1229.74,-124.71 1219.79,-121.06 1219.69,-128.06"/>
</a>
</g>
</g>
<!-- Node35 -->
<g id="Node000035" class="node">
<title>Node35</title>
<g id="a_Node000035"><a xlink:href="code__80057C60_8c.html#ae61bd9f49508d924387c00845cae4060" target="_top" xlink:title=" ">
<polygon fill="white" stroke="#666666" points="1048,-132 956,-132 956,-113 1048,-113 1048,-132"/>
<text text-anchor="middle" x="1002" y="-120" font-family="Helvetica,sans-Serif" font-size="10.00">func_80059AC8</text>
</a>
</g>
</g>
<!-- Node34&#45;&gt;Node35 -->
<g id="edge40_Node000034_Node000035" class="edge">
<title>Node34&#45;&gt;Node35</title>
<g id="a_edge40_Node000034_Node000035"><a xlink:title=" ">
<path fill="none" stroke="#63b8ff" d="M1091.54,-123.11C1077.14,-123.01 1061.8,-122.91 1048.01,-122.81"/>
<polygon fill="#63b8ff" stroke="#63b8ff" points="1091.81,-126.62 1101.83,-123.19 1091.86,-119.62 1091.81,-126.62"/>
</a>
</g>
</g>
<!-- Node35&#45;&gt;Node28 -->
<g id="edge43_Node000035_Node000028" class="edge">
<title>Node35&#45;&gt;Node28</title>
<g id="a_edge43_Node000035_Node000028"><a xlink:title=" ">
<path fill="none" stroke="#63b8ff" d="M970.9,-136.36C937.81,-151.6 885.52,-175.69 856.73,-188.95"/>
<polygon fill="#63b8ff" stroke="#63b8ff" points="972.48,-139.49 980.1,-132.13 969.56,-133.13 972.48,-139.49"/>
</a>
</g>
</g>
<!-- Node36 -->
<g id="Node000036" class="node">
<title>Node36</title>
<g id="a_Node000036"><a xlink:href="code__80280000_8c.html#a4d9b0156b64d7a67e4cb21cde391ca43" target="_top" xlink:title=" ">
<polygon fill="white" stroke="#666666" points="880.5,-132 789.5,-132 789.5,-113 880.5,-113 880.5,-132"/>
<text text-anchor="middle" x="835" y="-120" font-family="Helvetica,sans-Serif" font-size="10.00">func_80280000</text>
</a>
</g>
</g>
<!-- Node35&#45;&gt;Node36 -->
<g id="edge41_Node000035_Node000036" class="edge">
<title>Node35&#45;&gt;Node36</title>
<g id="a_edge41_Node000035_Node000036"><a xlink:title=" ">
<path fill="none" stroke="#63b8ff" d="M945.78,-122.5C924.63,-122.5 900.79,-122.5 880.75,-122.5"/>
<polygon fill="#63b8ff" stroke="#63b8ff" points="945.91,-126 955.91,-122.5 945.91,-119 945.91,-126"/>
</a>
</g>
</g>
<!-- Node37 -->
<g id="Node000037" class="node">
<title>Node37</title>
<g id="a_Node000037"><a xlink:href="main_8c.html#afff87ffcbfee4f1f37d443110aa7b52a" target="_top" xlink:title=" ">
<polygon fill="white" stroke="#666666" points="881,-95 789,-95 789,-76 881,-76 881,-95"/>
<text text-anchor="middle" x="835" y="-83" font-family="Helvetica,sans-Serif" font-size="10.00">race_logic_loop</text>
</a>
</g>
</g>
<!-- Node35&#45;&gt;Node37 -->
<g id="edge44_Node000035_Node000037" class="edge">
<title>Node35&#45;&gt;Node37</title>
<g id="a_edge44_Node000035_Node000037"><a xlink:title=" ">
<path fill="none" stroke="#63b8ff" d="M948.73,-110.78C926.14,-105.71 900.03,-99.86 878.63,-95.06"/>
<polygon fill="#63b8ff" stroke="#63b8ff" points="947.98,-114.2 958.51,-112.97 949.52,-107.37 947.98,-114.2"/>
</a>
</g>
</g>
<!-- Node36&#45;&gt;Node26 -->
<g id="edge42_Node000036_Node000026" class="edge">
<title>Node36&#45;&gt;Node26</title>
<g id="a_edge42_Node000036_Node000026"><a xlink:title=" ">
<path fill="none" stroke="#63b8ff" d="M779.26,-125.11C760.99,-125.98 741.06,-126.93 724.42,-127.72"/>
<polygon fill="#63b8ff" stroke="#63b8ff" points="779.67,-128.59 789.5,-124.62 779.34,-121.6 779.67,-128.59"/>
</a>
</g>
</g>
<!-- Node37&#45;&gt;Node15 -->
<g id="edge45_Node000037_Node000015" class="edge">
<title>Node37&#45;&gt;Node15</title>
<g id="a_edge45_Node000037_Node000015"><a xlink:title=" ">
<path fill="none" stroke="#63b8ff" d="M778.88,-86.93C739.28,-89.38 685.13,-95.66 640,-111.5 608.52,-122.55 576.12,-145.09 559.11,-157.95"/>
<polygon fill="#63b8ff" stroke="#63b8ff" points="779.09,-90.43 788.88,-86.38 778.7,-83.44 779.09,-90.43"/>
</a>
</g>
</g>
<!-- Node38&#45;&gt;Node37 -->
<g id="edge47_Node000038_Node000037" class="edge">
<title>Node38&#45;&gt;Node37</title>
<g id="a_edge47_Node000038_Node000037"><a xlink:title=" ">
<path fill="none" stroke="#63b8ff" d="M1226.59,-84.63C1137.13,-84.83 963.52,-85.21 881.29,-85.4"/>
<polygon fill="#63b8ff" stroke="#63b8ff" points="1226.82,-88.12 1236.81,-84.6 1226.81,-81.12 1226.82,-88.12"/>
</a>
</g>
</g>
</g>
</svg>

<g id="navigator" transform="translate(0 0)" fill="#404254">
  <rect fill="#f2f5e9" fill-opacity="0.5" stroke="#606060" stroke-width=".5" x="0" y="0" width="60" height="60"/>
  <use id="zoomplus" xlink:href="#zoomPlus" x="17" y="9" onmousedown="handleZoom(evt,'in')"/>
  <use id="zoomminus" xlink:href="#zoomMin" x="42" y="9" onmousedown="handleZoom(evt,'out')"/>
  <use id="reset" xlink:href="#resetDef" x="30" y="36" onmousedown="handleReset()"/>
   <use id="arrowup" xlink:href="#arrowUp" x="0" y="0" onmousedown="handlePan(0,-1)"/>
  <use id="arrowright" xlink:href="#arrowRight" x="0" y="0" onmousedown="handlePan(1,0)"/>
  <use id="arrowdown" xlink:href="#arrowDown" x="0" y="0" onmousedown="handlePan(0,1)"/>
  <use id="arrowleft" xlink:href="#arrowLeft" x="0" y="0" onmousedown="handlePan(-1,0)"/>
</g>
<svg viewBox="0 0 15 15" width="100%" height="30px" preserveAspectRatio="xMaxYMin meet">
 <g id="arrow_out" transform="scale(0.3 0.3)">
  <a xlink:href="external_8c_afcb6c1c892ff72b06f548327e6e21586_icgraph_org.svg" target="_base">
   <rect id="button" ry="5" rx="5" y="6" x="6" height="38" width="38"
        fill="#f2f5e9" fill-opacity="0.5" stroke="#606060" stroke-width="1.0"/>
   <path id="arrow"
     d="M 11.500037,31.436501 C 11.940474,20.09759 22.043105,11.32322 32.158766,21.979434 L 37.068811,17.246167 C 37.068811,17.246167 37.088388,32 37.088388,32 L 22.160133,31.978069 C 22.160133,31.978069 26.997745,27.140456 26.997745,27.140456 C 18.528582,18.264221 13.291696,25.230495 11.500037,31.436501 z"
     style="fill:#404040;"/>
  </a>
 </g>
</svg>

<style type='text/css'>
<![CDATA[
[data-mouse-over-selected='false'] { opacity: 0.7; }
[data-mouse-over-selected='true']  { opacity: 1.0; }
]]>
</style>
<script type="application/ecmascript"><![CDATA[
document.addEventListener('DOMContentLoaded', (event) => {
  highlightEdges();
  highlightAdjacentNodes();
});
]]></script>
</svg>
