<?xml version="1.0" encoding="UTF-8" standalone="no"?>
<!DOCTYPE svg PUBLIC "-//W3C//DTD SVG 1.1//EN"
 "http://www.w3.org/Graphics/SVG/1.1/DTD/svg11.dtd">
<!-- Generated by graphviz version 2.43.0 (0)
 -->
<!-- Title: func_800C21E8 Pages: 1 -->
<!--zoomable 1147 -->

<svg id="main" version="1.1" xmlns="http://www.w3.org/2000/svg" xmlns:xlink="http://www.w3.org/1999/xlink" xml:space="preserve" onload="init(evt)">
<style type="text/css"><![CDATA[
.node, .edge {opacity: 0.7;}
.node.selected, .edge.selected {opacity: 1;}
.edge:hover path { stroke: red; }
.edge:hover polygon { stroke: red; fill: red; }
]]></style>

<defs>
  <circle id="rim" cx="0" cy="0" r="7"/>
  <circle id="rim2" cx="0" cy="0" r="3.5"/>
  <g id="zoomPlus">
    <use xlink:href="#rim" fill="#404040"><set attributeName="fill" to="#808080" begin="zoomplus.mouseover" end="zoomplus.mouseout"/></use>
    <path d="M-4,0h8M0,-4v8" fill="none" stroke="white" stroke-width="1.5" pointer-events="none"/>
  </g>
  <g id="zoomMin">
    <use xlink:href="#rim" fill="#404040"><set attributeName="fill" to="#808080" begin="zoomminus.mouseover" end="zoomminus.mouseout"/></use>
    <path d="M-4,0h8" fill="none" stroke="white" stroke-width="1.5" pointer-events="none"/>
  </g>
  <g id="arrowUp" transform="translate(30 24)">
    <use xlink:href="#rim"/>
    <path pointer-events="none" fill="none" stroke="white" stroke-width="1.5" d="M0,-3.0v7 M-2.5,-0.5L0,-3.0L2.5,-0.5"/>
  </g>
  <g id="arrowRight" transform="rotate(90) translate(36 -43)">
    <use xlink:href="#rim"/>
    <path pointer-events="none" fill="none" stroke="white" stroke-width="1.5" d="M0,-3.0v7 M-2.5,-0.5L0,-3.0L2.5,-0.5"/>
  </g>
  <g id="arrowDown" transform="rotate(180) translate(-30 -48)">
    <use xlink:href="#rim"/>
    <path pointer-events="none" fill="none" stroke="white" stroke-width="1.5" d="M0,-3.0v7 M-2.5,-0.5L0,-3.0L2.5,-0.5"/>
  </g>
  <g id="arrowLeft" transform="rotate(270) translate(-36 17)">
    <use xlink:href="#rim"/>
    <path pointer-events="none" fill="none" stroke="white" stroke-width="1.5" d="M0,-3.0v7 M-2.5,-0.5L0,-3.0L2.5,-0.5"/>
  </g>
  <g id="resetDef">
    <use xlink:href="#rim2" fill="#404040"><set attributeName="fill" to="#808080" begin="reset.mouseover" end="reset.mouseout"/></use>
  </g>
</defs>
<script type="application/ecmascript">
var viewWidth = 858;
var viewHeight = 1147;
var sectionId = 'dynsection-15';
</script>
<script type="application/ecmascript" xlink:href="svg.min.js"/>
<svg id="graph" class="graph">
<g id="viewport">
<title>func_800C21E8</title>
<!-- Node1 -->
<g id="Node000001" class="node">
<title>Node1</title>
<g id="a_Node000001"><a xlink:title=" ">
<polygon fill="#999999" stroke="#666666" points="850,-292 758,-292 758,-273 850,-273 850,-292"/>
<text text-anchor="middle" x="804" y="-280" font-family="Helvetica,sans-Serif" font-size="10.00">func_800C21E8</text>
</a>
</g>
</g>
<!-- Node2 -->
<g id="Node000002" class="node">
<title>Node2</title>
<g id="a_Node000002"><a xlink:href="external_8c.html#a7a3355f3444c31e7deb571c6d76db628" target="_top" xlink:title=" ">
<polygon fill="white" stroke="#666666" points="720.5,-860 628.5,-860 628.5,-841 720.5,-841 720.5,-860"/>
<text text-anchor="middle" x="674.5" y="-848" font-family="Helvetica,sans-Serif" font-size="10.00">func_800C99E0</text>
</a>
</g>
</g>
<!-- Node1&#45;&gt;Node2 -->
<g id="edge1_Node000001_Node000002" class="edge">
<title>Node1&#45;&gt;Node2</title>
<g id="a_edge1_Node000001_Node000002"><a xlink:title=" ">
<path fill="none" stroke="#63b8ff" d="M798.57,-302.26C778.02,-393.8 692.44,-775.03 677.67,-840.81"/>
<polygon fill="#63b8ff" stroke="#63b8ff" points="802.01,-302.88 800.79,-292.36 795.18,-301.35 802.01,-302.88"/>
</a>
</g>
</g>
<!-- Node70 -->
<g id="Node000070" class="node">
<title>Node70</title>
<g id="a_Node000070"><a xlink:href="external_8c.html#a1041b412a7bdcec3c697ed68bec652d6" target="_top" xlink:title=" ">
<polygon fill="white" stroke="#666666" points="721.5,-199 627.5,-199 627.5,-180 721.5,-180 721.5,-199"/>
<text text-anchor="middle" x="674.5" y="-187" font-family="Helvetica,sans-Serif" font-size="10.00">func_800C9D0C</text>
</a>
</g>
</g>
<!-- Node1&#45;&gt;Node70 -->
<g id="edge18_Node000001_Node000070" class="edge">
<title>Node1&#45;&gt;Node70</title>
<g id="a_edge18_Node000001_Node000070"><a xlink:title=" ">
<path fill="none" stroke="#63b8ff" d="M781.59,-266.89C755.11,-247.57 710.82,-215.26 688.78,-199.19"/>
<polygon fill="#63b8ff" stroke="#63b8ff" points="779.69,-269.83 789.84,-272.9 783.82,-264.18 779.69,-269.83"/>
</a>
</g>
</g>
<!-- Node82 -->
<g id="Node000082" class="node">
<title>Node82</title>
<g id="a_Node000082"><a xlink:href="external_8c.html#a918987fe2328feb05c38255ed39ddc94" target="_top" xlink:title=" ">
<polygon fill="white" stroke="#666666" points="720.5,-353 628.5,-353 628.5,-334 720.5,-334 720.5,-353"/>
<text text-anchor="middle" x="674.5" y="-341" font-family="Helvetica,sans-Serif" font-size="10.00">func_800C9EF4</text>
</a>
</g>
</g>
<!-- Node1&#45;&gt;Node82 -->
<g id="edge26_Node000001_Node000082" class="edge">
<title>Node1&#45;&gt;Node82</title>
<g id="a_edge26_Node000001_Node000082"><a xlink:title=" ">
<path fill="none" stroke="#63b8ff" d="M773.79,-296.48C749.9,-307.91 716.74,-323.77 695.7,-333.83"/>
<polygon fill="#63b8ff" stroke="#63b8ff" points="775.57,-299.5 783.08,-292.03 772.55,-293.19 775.57,-299.5"/>
</a>
</g>
</g>
<!-- Node103 -->
<g id="Node000103" class="node">
<title>Node103</title>
<g id="a_Node000103"><a xlink:href="external_8c.html#a3138069310bbed5109964d607d51811f" target="_top" xlink:title=" ">
<polygon fill="white" stroke="#666666" points="722,-111 627,-111 627,-92 722,-92 722,-111"/>
<text text-anchor="middle" x="674.5" y="-99" font-family="Helvetica,sans-Serif" font-size="10.00">func_800CAACC</text>
</a>
</g>
</g>
<!-- Node1&#45;&gt;Node103 -->
<g id="edge52_Node000001_Node000103" class="edge">
<title>Node1&#45;&gt;Node103</title>
<g id="a_edge52_Node000001_Node000103"><a xlink:title=" ">
<path fill="none" stroke="#63b8ff" d="M790.14,-264.24C763.45,-226.35 702.84,-140.31 682.39,-111.28"/>
<polygon fill="#63b8ff" stroke="#63b8ff" points="787.52,-266.61 796.15,-272.77 793.25,-262.58 787.52,-266.61"/>
</a>
</g>
</g>
<!-- Node3 -->
<g id="Node000003" class="node">
<title>Node3</title>
<g id="a_Node000003"><a xlink:href="actors_8c.html#a473b64ad83f4eaa3f65202a629eab481" target="_top" xlink:title=" ">
<polygon fill="white" stroke="#666666" points="586.5,-953 494.5,-953 494.5,-934 586.5,-934 586.5,-953"/>
<text text-anchor="middle" x="540.5" y="-941" font-family="Helvetica,sans-Serif" font-size="10.00">func_802986B4</text>
</a>
</g>
</g>
<!-- Node2&#45;&gt;Node3 -->
<g id="edge2_Node000002_Node000003" class="edge">
<title>Node2&#45;&gt;Node3</title>
<g id="a_edge2_Node000002_Node000003"><a xlink:title=" ">
<path fill="none" stroke="#63b8ff" d="M651.69,-865.86C624.31,-885.15 578.16,-917.67 555.25,-933.81"/>
<polygon fill="#63b8ff" stroke="#63b8ff" points="653.71,-868.72 659.87,-860.1 649.68,-863 653.71,-868.72"/>
</a>
</g>
</g>
<!-- Node22 -->
<g id="Node000022" class="node">
<title>Node22</title>
<g id="a_Node000022"><a xlink:href="actors_8c.html#a15517665ab054722a5c980c0f1008cd0" target="_top" xlink:title=" ">
<polygon fill="white" stroke="#666666" points="587,-860 494,-860 494,-841 587,-841 587,-860"/>
<text text-anchor="middle" x="540.5" y="-848" font-family="Helvetica,sans-Serif" font-size="10.00">func_8029E7DC</text>
</a>
</g>
</g>
<!-- Node2&#45;&gt;Node22 -->
<g id="edge12_Node000002_Node000022" class="edge">
<title>Node2&#45;&gt;Node22</title>
<g id="a_edge12_Node000002_Node000022"><a xlink:title=" ">
<path fill="none" stroke="#63b8ff" d="M618.27,-850.5C607.95,-850.5 597.25,-850.5 587.25,-850.5"/>
<polygon fill="#63b8ff" stroke="#63b8ff" points="618.44,-854 628.44,-850.5 618.44,-847 618.44,-854"/>
</a>
</g>
</g>
<!-- Node4 -->
<g id="Node000004" class="node">
<title>Node4</title>
<g id="a_Node000004"><a xlink:href="actors_8c.html#ab38aac73e6ef03aa38f4474b612234b0" target="_top" xlink:title=" ">
<polygon fill="#fff0f0" stroke="red" points="454,-991 333,-991 333,-972 454,-972 454,-991"/>
<text text-anchor="middle" x="393.5" y="-979" font-family="Helvetica,sans-Serif" font-size="10.00">render_course_actors</text>
</a>
</g>
</g>
<!-- Node3&#45;&gt;Node4 -->
<g id="edge3_Node000003_Node000004" class="edge">
<title>Node3&#45;&gt;Node4</title>
<g id="a_edge3_Node000003_Node000004"><a xlink:title=" ">
<path fill="none" stroke="#63b8ff" d="M493.01,-955.68C472.88,-960.96 449.66,-967.04 430.83,-971.98"/>
<polygon fill="#63b8ff" stroke="#63b8ff" points="494.12,-959.01 502.91,-953.09 492.35,-952.24 494.12,-959.01"/>
</a>
</g>
</g>
<!-- Node5 -->
<g id="Node000005" class="node">
<title>Node5</title>
<g id="a_Node000005"><a xlink:href="code__80280000_8c.html#aa9c130485d39c4a7276605b30db5150e" target="_top" xlink:title=" ">
<polygon fill="#fff0f0" stroke="red" points="276,-917 185,-917 185,-898 276,-898 276,-917"/>
<text text-anchor="middle" x="230.5" y="-905" font-family="Helvetica,sans-Serif" font-size="10.00">func_80280038</text>
</a>
</g>
</g>
<!-- Node4&#45;&gt;Node5 -->
<g id="edge4_Node000004_Node000005" class="edge">
<title>Node4&#45;&gt;Node5</title>
<g id="a_edge4_Node000004_Node000005"><a xlink:title=" ">
<path fill="none" stroke="#63b8ff" d="M370.02,-966.48C351.16,-954.39 323.17,-937.64 297,-926.5 288.5,-922.88 279.1,-919.71 270.14,-917.04"/>
<polygon fill="#63b8ff" stroke="#63b8ff" points="368.21,-969.48 378.5,-971.99 372.02,-963.61 368.21,-969.48"/>
</a>
</g>
</g>
<!-- Node12 -->
<g id="Node000012" class="node">
<title>Node12</title>
<g id="a_Node000012"><a xlink:href="skybox__and__splitscreen_8c.html#a94c46fe3fe5eef642ce3520b68504133" target="_top" xlink:title=" ">
<polygon fill="#fff0f0" stroke="red" points="276.5,-880 184.5,-880 184.5,-861 276.5,-861 276.5,-880"/>
<text text-anchor="middle" x="230.5" y="-868" font-family="Helvetica,sans-Serif" font-size="10.00">func_802A59A4</text>
</a>
</g>
</g>
<!-- Node4&#45;&gt;Node12 -->
<g id="edge5_Node000004_Node000012" class="edge">
<title>Node4&#45;&gt;Node12</title>
<g id="a_edge5_Node000004_Node000012"><a xlink:title=" ">
<path fill="none" stroke="#63b8ff" d="M378.8,-963.87C361.78,-943.14 330.83,-909.07 297,-889.5 290.34,-885.65 282.84,-882.52 275.35,-880.01"/>
<polygon fill="#63b8ff" stroke="#63b8ff" points="376.22,-966.25 385.21,-971.86 381.68,-961.87 376.22,-966.25"/>
</a>
</g>
</g>
<!-- Node14 -->
<g id="Node000014" class="node">
<title>Node14</title>
<g id="a_Node000014"><a xlink:href="skybox__and__splitscreen_8c.html#a9be31591c8a78c96ca86c1b87c3ec0a8" target="_top" xlink:title=" ">
<polygon fill="#fff0f0" stroke="red" points="277,-1139 184,-1139 184,-1120 277,-1120 277,-1139"/>
<text text-anchor="middle" x="230.5" y="-1127" font-family="Helvetica,sans-Serif" font-size="10.00">func_802A5CB4</text>
</a>
</g>
</g>
<!-- Node4&#45;&gt;Node14 -->
<g id="edge6_Node000004_Node000014" class="edge">
<title>Node4&#45;&gt;Node14</title>
<g id="a_edge6_Node000004_Node000014"><a xlink:title=" ">
<path fill="none" stroke="#63b8ff" d="M383.83,-1000.29C369.74,-1028.75 339.12,-1082.52 297,-1111.5 291.07,-1115.58 284.25,-1118.73 277.3,-1121.18"/>
<polygon fill="#63b8ff" stroke="#63b8ff" points="387.1,-1001.58 388.27,-991.05 380.79,-998.55 387.1,-1001.58"/>
</a>
</g>
</g>
<!-- Node15 -->
<g id="Node000015" class="node">
<title>Node15</title>
<g id="a_Node000015"><a xlink:href="skybox__and__splitscreen_8c.html#a3f9172888ae23d5920b6c6b352af2bd3" target="_top" xlink:title=" ">
<polygon fill="#fff0f0" stroke="red" points="276.5,-1102 184.5,-1102 184.5,-1083 276.5,-1083 276.5,-1102"/>
<text text-anchor="middle" x="230.5" y="-1090" font-family="Helvetica,sans-Serif" font-size="10.00">func_802A5FAC</text>
</a>
</g>
</g>
<!-- Node4&#45;&gt;Node15 -->
<g id="edge7_Node000004_Node000015" class="edge">
<title>Node4&#45;&gt;Node15</title>
<g id="a_edge7_Node000004_Node000015"><a xlink:title=" ">
<path fill="none" stroke="#63b8ff" d="M379.15,-999.08C362.28,-1020.1 331.26,-1054.87 297,-1074.5 290.76,-1078.08 283.77,-1080.97 276.75,-1083.3"/>
<polygon fill="#63b8ff" stroke="#63b8ff" points="382.07,-1001.03 385.49,-991 376.56,-996.71 382.07,-1001.03"/>
</a>
</g>
</g>
<!-- Node16 -->
<g id="Node000016" class="node">
<title>Node16</title>
<g id="a_Node000016"><a xlink:href="skybox__and__splitscreen_8c.html#a897b8a8f9d54144b0916eb7173651af0" target="_top" xlink:title=" ">
<polygon fill="#fff0f0" stroke="red" points="276.5,-1065 184.5,-1065 184.5,-1046 276.5,-1046 276.5,-1065"/>
<text text-anchor="middle" x="230.5" y="-1053" font-family="Helvetica,sans-Serif" font-size="10.00">func_802A62A4</text>
</a>
</g>
</g>
<!-- Node4&#45;&gt;Node16 -->
<g id="edge8_Node000004_Node000016" class="edge">
<title>Node4&#45;&gt;Node16</title>
<g id="a_edge8_Node000004_Node000016"><a xlink:title=" ">
<path fill="none" stroke="#63b8ff" d="M370.42,-996.7C351.61,-1009.1 323.48,-1026.33 297,-1037.5 289.29,-1040.76 280.81,-1043.59 272.59,-1045.99"/>
<polygon fill="#63b8ff" stroke="#63b8ff" points="372.5,-999.53 378.87,-991.05 368.61,-993.71 372.5,-999.53"/>
</a>
</g>
</g>
<!-- Node17 -->
<g id="Node000017" class="node">
<title>Node17</title>
<g id="a_Node000017"><a xlink:href="skybox__and__splitscreen_8c.html#acdf96ac83288ec562406d39e4dce3e01" target="_top" xlink:title=" ">
<polygon fill="#fff0f0" stroke="red" points="276.5,-1028 184.5,-1028 184.5,-1009 276.5,-1009 276.5,-1028"/>
<text text-anchor="middle" x="230.5" y="-1016" font-family="Helvetica,sans-Serif" font-size="10.00">func_802A65B8</text>
</a>
</g>
</g>
<!-- Node4&#45;&gt;Node17 -->
<g id="edge9_Node000004_Node000017" class="edge">
<title>Node4&#45;&gt;Node17</title>
<g id="a_edge9_Node000004_Node000017"><a xlink:title=" ">
<path fill="none" stroke="#63b8ff" d="M341.2,-993.29C319.23,-998.34 293.89,-1004.16 273.1,-1008.94"/>
<polygon fill="#63b8ff" stroke="#63b8ff" points="342.08,-996.68 351.04,-991.03 340.51,-989.86 342.08,-996.68"/>
</a>
</g>
</g>
<!-- Node18 -->
<g id="Node000018" class="node">
<title>Node18</title>
<g id="a_Node000018"><a xlink:href="skybox__and__splitscreen_8c.html#accb6af916ac72e9b2186f11211419818" target="_top" xlink:title=" ">
<polygon fill="#fff0f0" stroke="red" points="277,-991 184,-991 184,-972 277,-972 277,-991"/>
<text text-anchor="middle" x="230.5" y="-979" font-family="Helvetica,sans-Serif" font-size="10.00">func_802A68CC</text>
</a>
</g>
</g>
<!-- Node4&#45;&gt;Node18 -->
<g id="edge10_Node000004_Node000018" class="edge">
<title>Node4&#45;&gt;Node18</title>
<g id="a_edge10_Node000004_Node000018"><a xlink:title=" ">
<path fill="none" stroke="#63b8ff" d="M322.55,-981.5C307.17,-981.5 291.28,-981.5 277.16,-981.5"/>
<polygon fill="#63b8ff" stroke="#63b8ff" points="322.55,-985 332.55,-981.5 322.55,-978 322.55,-985"/>
</a>
</g>
</g>
<!-- Node19 -->
<g id="Node000019" class="node">
<title>Node19</title>
<g id="a_Node000019"><a xlink:href="skybox__and__splitscreen_8c.html#a45bafabf82a007ad2129de0f35f7f637" target="_top" xlink:title=" ">
<polygon fill="#fff0f0" stroke="red" points="277,-954 184,-954 184,-935 277,-935 277,-954"/>
<text text-anchor="middle" x="230.5" y="-942" font-family="Helvetica,sans-Serif" font-size="10.00">func_802A6BB0</text>
</a>
</g>
</g>
<!-- Node4&#45;&gt;Node19 -->
<g id="edge11_Node000004_Node000019" class="edge">
<title>Node4&#45;&gt;Node19</title>
<g id="a_edge11_Node000004_Node000019"><a xlink:title=" ">
<path fill="none" stroke="#63b8ff" d="M341.2,-969.71C319.23,-964.66 293.89,-958.84 273.1,-954.06"/>
<polygon fill="#63b8ff" stroke="#63b8ff" points="340.51,-973.14 351.04,-971.97 342.08,-966.32 340.51,-973.14"/>
</a>
</g>
</g>
<!-- Node23 -->
<g id="Node000023" class="node">
<title>Node23</title>
<g id="a_Node000023"><a xlink:href="actors_8c.html#a694ec6ef7548b8618aeb35c038d3a9b9" target="_top" xlink:title=" ">
<polygon fill="#fff0f0" stroke="red" points="435,-842 352,-842 352,-823 435,-823 435,-842"/>
<text text-anchor="middle" x="393.5" y="-830" font-family="Helvetica,sans-Serif" font-size="10.00">destroy_actor</text>
</a>
</g>
</g>
<!-- Node22&#45;&gt;Node23 -->
<g id="edge13_Node000022_Node000023" class="edge">
<title>Node22&#45;&gt;Node23</title>
<g id="a_edge13_Node000022_Node000023"><a xlink:title=" ">
<path fill="none" stroke="#63b8ff" d="M483.28,-843.52C467.25,-841.53 450.09,-839.4 435.18,-837.55"/>
<polygon fill="#63b8ff" stroke="#63b8ff" points="483.27,-847.05 493.62,-844.8 484.13,-840.1 483.27,-847.05"/>
</a>
</g>
</g>
<!-- Node65 -->
<g id="Node000065" class="node">
<title>Node65</title>
<g id="a_Node000065"><a xlink:href="actors_8c.html#a0c9d11d8956bf92c32a5e9bafd7036e6" target="_top" xlink:title=" ">
<polygon fill="#fff0f0" stroke="red" points="439,-879 348,-879 348,-860 439,-860 439,-879"/>
<text text-anchor="middle" x="393.5" y="-867" font-family="Helvetica,sans-Serif" font-size="10.00">func_8029E890</text>
</a>
</g>
</g>
<!-- Node22&#45;&gt;Node65 -->
<g id="edge17_Node000022_Node000065" class="edge">
<title>Node22&#45;&gt;Node65</title>
<g id="a_edge17_Node000022_Node000065"><a xlink:title=" ">
<path fill="none" stroke="#63b8ff" d="M483.6,-857.82C468.86,-859.76 453.15,-861.82 439.09,-863.66"/>
<polygon fill="#63b8ff" stroke="#63b8ff" points="484.16,-861.28 493.62,-856.51 483.25,-854.34 484.16,-861.28"/>
</a>
</g>
</g>
<!-- Node66 -->
<g id="Node000066" class="node">
<title>Node66</title>
<g id="a_Node000066"><a xlink:href="actors__extended_8c.html#a1b699acb507ca2e080f46ea632573993" target="_top" xlink:title=" ">
<polygon fill="#fff0f0" stroke="red" points="291.5,-724 169.5,-724 169.5,-705 291.5,-705 291.5,-724"/>
<text text-anchor="middle" x="230.5" y="-712" font-family="Helvetica,sans-Serif" font-size="10.00">update_actor_banana</text>
</a>
</g>
</g>
<!-- Node23&#45;&gt;Node66 -->
<g id="edge14_Node000023_Node000066" class="edge">
<title>Node23&#45;&gt;Node66</title>
<g id="a_edge14_Node000023_Node000066"><a xlink:title=" ">
<path fill="none" stroke="#63b8ff" d="M371.06,-816.79C337.3,-792.04 272.73,-744.72 244.86,-724.29"/>
<polygon fill="#63b8ff" stroke="#63b8ff" points="369.19,-819.76 379.32,-822.84 373.33,-814.11 369.19,-819.76"/>
</a>
</g>
</g>
<!-- Node68 -->
<g id="Node000068" class="node">
<title>Node68</title>
<g id="a_Node000068"><a xlink:href="actors__extended_8c.html#a4fd275676bf11ca2e15556db08264a90" target="_top" xlink:title=" ">
<polygon fill="#fff0f0" stroke="red" points="287,-804.5 174,-804.5 174,-774.5 287,-774.5 287,-804.5"/>
<text text-anchor="start" x="182" y="-792.5" font-family="Helvetica,sans-Serif" font-size="10.00">update_actor_green</text>
<text text-anchor="middle" x="230.5" y="-781.5" font-family="Helvetica,sans-Serif" font-size="10.00">_shell</text>
</a>
</g>
</g>
<!-- Node23&#45;&gt;Node68 -->
<g id="edge15_Node000023_Node000068" class="edge">
<title>Node23&#45;&gt;Node68</title>
<g id="a_edge15_Node000023_Node000068"><a xlink:title=" ">
<path fill="none" stroke="#63b8ff" d="M347.05,-820.36C328.4,-815.38 306.64,-809.57 287.06,-804.34"/>
<polygon fill="#63b8ff" stroke="#63b8ff" points="346.2,-823.76 356.77,-822.96 348.01,-816.99 346.2,-823.76"/>
</a>
</g>
</g>
<!-- Node69 -->
<g id="Node000069" class="node">
<title>Node69</title>
<g id="a_Node000069"><a xlink:href="actors__extended_8c.html#a6e281ad692a9ccd329fa6840ad38afbc" target="_top" xlink:title=" ">
<polygon fill="#fff0f0" stroke="red" points="128,-639.5 0,-639.5 0,-609.5 128,-609.5 128,-639.5"/>
<text text-anchor="start" x="8" y="-627.5" font-family="Helvetica,sans-Serif" font-size="10.00">update_actor_red_blue</text>
<text text-anchor="middle" x="64" y="-616.5" font-family="Helvetica,sans-Serif" font-size="10.00">_shell</text>
</a>
</g>
</g>
<!-- Node23&#45;&gt;Node69 -->
<g id="edge16_Node000023_Node000069" class="edge">
<title>Node23&#45;&gt;Node69</title>
<g id="a_edge16_Node000023_Node000069"><a xlink:title=" ">
<path fill="none" stroke="#63b8ff" d="M341.83,-841.43C292.29,-847.34 216.81,-848.52 164,-813.5 101.03,-771.73 75.55,-676.52 67.8,-639.56"/>
<polygon fill="#63b8ff" stroke="#63b8ff" points="342.52,-844.87 351.99,-840.11 341.62,-837.93 342.52,-844.87"/>
</a>
</g>
</g>
<!-- Node71 -->
<g id="Node000071" class="node">
<title>Node71</title>
<g id="a_Node000071"><a xlink:href="code__80091750_8c.html#a4c171632ff32db3cbe13719e6478d536" target="_top" xlink:title=" ">
<polygon fill="white" stroke="#666666" points="586.5,-199 494.5,-199 494.5,-180 586.5,-180 586.5,-199"/>
<text text-anchor="middle" x="540.5" y="-187" font-family="Helvetica,sans-Serif" font-size="10.00">func_80091B78</text>
</a>
</g>
</g>
<!-- Node70&#45;&gt;Node71 -->
<g id="edge19_Node000070_Node000071" class="edge">
<title>Node70&#45;&gt;Node71</title>
<g id="a_edge19_Node000070_Node000071"><a xlink:title=" ">
<path fill="none" stroke="#63b8ff" d="M617.23,-189.5C606.97,-189.5 596.4,-189.5 586.53,-189.5"/>
<polygon fill="#63b8ff" stroke="#63b8ff" points="617.33,-193 627.33,-189.5 617.33,-186 617.33,-193"/>
</a>
</g>
</g>
<!-- Node76 -->
<g id="Node000076" class="node">
<title>Node76</title>
<g id="a_Node000076"><a xlink:href="external_8c.html#a9bc9f57fb83f73d37b56721df044d722" target="_top" xlink:title=" ">
<polygon fill="white" stroke="#666666" points="586.5,-157 494.5,-157 494.5,-138 586.5,-138 586.5,-157"/>
<text text-anchor="middle" x="540.5" y="-145" font-family="Helvetica,sans-Serif" font-size="10.00">func_800C76C0</text>
</a>
</g>
</g>
<!-- Node70&#45;&gt;Node76 -->
<g id="edge24_Node000070_Node000076" class="edge">
<title>Node70&#45;&gt;Node76</title>
<g id="a_edge24_Node000070_Node000076"><a xlink:title=" ">
<path fill="none" stroke="#63b8ff" d="M633.83,-176.88C613.93,-170.55 590.21,-163 571.79,-157.14"/>
<polygon fill="#63b8ff" stroke="#63b8ff" points="632.96,-180.27 643.55,-179.97 635.08,-173.6 632.96,-180.27"/>
</a>
</g>
</g>
<!-- Node72 -->
<g id="Node000072" class="node">
<title>Node72</title>
<g id="a_Node000072"><a xlink:href="main_8c.html#a8ccd4f2ae1a9502071e1b43ab07a78d3" target="_top" xlink:title=" ">
<polygon fill="#fff0f0" stroke="red" points="439.5,-167 347.5,-167 347.5,-148 439.5,-148 439.5,-167"/>
<text text-anchor="middle" x="393.5" y="-155" font-family="Helvetica,sans-Serif" font-size="10.00">func_800025D4</text>
</a>
</g>
</g>
<!-- Node71&#45;&gt;Node72 -->
<g id="edge20_Node000071_Node000072" class="edge">
<title>Node71&#45;&gt;Node72</title>
<g id="a_edge20_Node000071_Node000072"><a xlink:title=" ">
<path fill="none" stroke="#63b8ff" d="M486.59,-177.82C470.52,-174.28 453.05,-170.42 437.7,-167.03"/>
<polygon fill="#63b8ff" stroke="#63b8ff" points="485.87,-181.25 496.39,-179.99 487.38,-174.41 485.87,-181.25"/>
</a>
</g>
</g>
<!-- Node73 -->
<g id="Node000073" class="node">
<title>Node73</title>
<g id="a_Node000073"><a xlink:href="main_8c.html#a1399390ccfb8062de2a77e48df769faf" target="_top" xlink:title=" ">
<polygon fill="#fff0f0" stroke="red" points="439,-130 348,-130 348,-111 439,-111 439,-130"/>
<text text-anchor="middle" x="393.5" y="-118" font-family="Helvetica,sans-Serif" font-size="10.00">func_80002600</text>
</a>
</g>
</g>
<!-- Node71&#45;&gt;Node73 -->
<g id="edge21_Node000071_Node000073" class="edge">
<title>Node71&#45;&gt;Node73</title>
<g id="a_edge21_Node000071_Node000073"><a xlink:title=" ">
<path fill="none" stroke="#63b8ff" d="M506.87,-175.52C501.14,-172.73 495.31,-169.68 490,-166.5 472.84,-156.23 471.77,-148.67 454,-139.5 446.87,-135.82 438.89,-132.68 431.15,-130.08"/>
<polygon fill="#63b8ff" stroke="#63b8ff" points="505.78,-178.87 516.32,-179.93 508.74,-172.53 505.78,-178.87"/>
</a>
</g>
</g>
<!-- Node74 -->
<g id="Node000074" class="node">
<title>Node74</title>
<g id="a_Node000074"><a xlink:href="main_8c.html#a26a29858c220d867684f0385abacfde8" target="_top" xlink:title=" ">
<polygon fill="#fff0f0" stroke="red" points="439.5,-241 347.5,-241 347.5,-222 439.5,-222 439.5,-241"/>
<text text-anchor="middle" x="393.5" y="-229" font-family="Helvetica,sans-Serif" font-size="10.00">func_8000262C</text>
</a>
</g>
</g>
<!-- Node71&#45;&gt;Node74 -->
<g id="edge22_Node000071_Node000074" class="edge">
<title>Node71&#45;&gt;Node74</title>
<g id="a_edge22_Node000071_Node000074"><a xlink:title=" ">
<path fill="none" stroke="#63b8ff" d="M496.78,-201.87C474.66,-208.28 448.05,-215.99 427.52,-221.93"/>
<polygon fill="#63b8ff" stroke="#63b8ff" points="497.97,-205.17 506.6,-199.03 496.02,-198.45 497.97,-205.17"/>
</a>
</g>
</g>
<!-- Node75 -->
<g id="Node000075" class="node">
<title>Node75</title>
<g id="a_Node000075"><a xlink:href="main_8c.html#a3a0697cf1e2b0c4ec6ddbf605926eac4" target="_top" xlink:title=" ">
<polygon fill="#fff0f0" stroke="red" points="439,-204 348,-204 348,-185 439,-185 439,-204"/>
<text text-anchor="middle" x="393.5" y="-192" font-family="Helvetica,sans-Serif" font-size="10.00">func_80002658</text>
</a>
</g>
</g>
<!-- Node71&#45;&gt;Node75 -->
<g id="edge23_Node000071_Node000075" class="edge">
<title>Node71&#45;&gt;Node75</title>
<g id="a_edge23_Node000071_Node000075"><a xlink:title=" ">
<path fill="none" stroke="#63b8ff" d="M484.27,-191.4C469.32,-191.92 453.34,-192.47 439.06,-192.96"/>
<polygon fill="#63b8ff" stroke="#63b8ff" points="484.54,-194.9 494.42,-191.05 484.3,-187.9 484.54,-194.9"/>
</a>
</g>
</g>
<!-- Node77 -->
<g id="Node000077" class="node">
<title>Node77</title>
<g id="a_Node000077"><a xlink:href="external_8c.html#aebe0a7e33d0961a0ad7e4ba40a49a032" target="_top" xlink:title=" ">
<polygon fill="#fff0f0" stroke="red" points="440.5,-93 346.5,-93 346.5,-74 440.5,-74 440.5,-93"/>
<text text-anchor="middle" x="393.5" y="-81" font-family="Helvetica,sans-Serif" font-size="10.00">func_800C8CCC</text>
</a>
</g>
</g>
<!-- Node76&#45;&gt;Node77 -->
<g id="edge25_Node000076_Node000077" class="edge">
<title>Node76&#45;&gt;Node77</title>
<g id="a_edge25_Node000076_Node000077"><a xlink:title=" ">
<path fill="none" stroke="#63b8ff" d="M513.28,-133.05C492.66,-121.81 465.54,-107.33 454,-102.5 445.7,-99.02 436.53,-95.8 427.92,-93.04"/>
<polygon fill="#63b8ff" stroke="#63b8ff" points="511.77,-136.22 522.22,-137.95 515.13,-130.08 511.77,-136.22"/>
</a>
</g>
</g>
<!-- Node83 -->
<g id="Node000083" class="node">
<title>Node83</title>
<g id="a_Node000083"><a xlink:href="code__80005FD0_8c.html#a16963ad113ed61f2cb0ed16547a71824" target="_top" xlink:title=" ">
<polygon fill="white" stroke="#666666" points="586.5,-465 494.5,-465 494.5,-446 586.5,-446 586.5,-465"/>
<text text-anchor="middle" x="540.5" y="-453" font-family="Helvetica,sans-Serif" font-size="10.00">func_80013F7C</text>
</a>
</g>
</g>
<!-- Node82&#45;&gt;Node83 -->
<g id="edge27_Node000082_Node000083" class="edge">
<title>Node82&#45;&gt;Node83</title>
<g id="a_edge27_Node000082_Node000083"><a xlink:title=" ">
<path fill="none" stroke="#63b8ff" d="M654.37,-359.73C626.42,-383.44 575.3,-426.82 552.73,-445.98"/>
<polygon fill="#63b8ff" stroke="#63b8ff" points="656.89,-362.19 662.25,-353.05 652.36,-356.85 656.89,-362.19"/>
</a>
</g>
</g>
<!-- Node88 -->
<g id="Node000088" class="node">
<title>Node88</title>
<g id="a_Node000088"><a xlink:href="code__80071F00_8c.html#a401992e1c9638d1a48190456bd7af9a3" target="_top" xlink:title=" ">
<polygon fill="white" stroke="#666666" points="586.5,-391 494.5,-391 494.5,-372 586.5,-372 586.5,-391"/>
<text text-anchor="middle" x="540.5" y="-379" font-family="Helvetica,sans-Serif" font-size="10.00">func_8007601C</text>
</a>
</g>
</g>
<!-- Node82&#45;&gt;Node88 -->
<g id="edge32_Node000082_Node000088" class="edge">
<title>Node82&#45;&gt;Node88</title>
<g id="a_edge32_Node000082_Node000088"><a xlink:title=" ">
<path fill="none" stroke="#63b8ff" d="M630.46,-355.89C612.38,-361.09 591.68,-367.05 574.8,-371.91"/>
<polygon fill="#63b8ff" stroke="#63b8ff" points="631.55,-359.22 640.19,-353.09 629.61,-352.49 631.55,-359.22"/>
</a>
</g>
</g>
<!-- Node91 -->
<g id="Node000091" class="node">
<title>Node91</title>
<g id="a_Node000091"><a xlink:href="code__80071F00_8c.html#a269298ce38d852af33c677ae12781528" target="_top" xlink:title=" ">
<polygon fill="white" stroke="#666666" points="586.5,-353 494.5,-353 494.5,-334 586.5,-334 586.5,-353"/>
<text text-anchor="middle" x="540.5" y="-341" font-family="Helvetica,sans-Serif" font-size="10.00">func_8007661C</text>
</a>
</g>
</g>
<!-- Node82&#45;&gt;Node91 -->
<g id="edge35_Node000082_Node000091" class="edge">
<title>Node82&#45;&gt;Node91</title>
<g id="a_edge35_Node000082_Node000091"><a xlink:title=" ">
<path fill="none" stroke="#63b8ff" d="M618.16,-343.5C607.71,-343.5 596.9,-343.5 586.8,-343.5"/>
<polygon fill="#63b8ff" stroke="#63b8ff" points="618.44,-347 628.44,-343.5 618.44,-340 618.44,-347"/>
</a>
</g>
</g>
<!-- Node92 -->
<g id="Node000092" class="node">
<title>Node92</title>
<g id="a_Node000092"><a xlink:href="code__80071F00_8c.html#aee48f5ac3342922cbf8cd98976679dad" target="_top" xlink:title=" ">
<polygon fill="white" stroke="#666666" points="588,-315 493,-315 493,-296 588,-296 588,-315"/>
<text text-anchor="middle" x="540.5" y="-303" font-family="Helvetica,sans-Serif" font-size="10.00">func_8007DDC0</text>
</a>
</g>
</g>
<!-- Node82&#45;&gt;Node92 -->
<g id="edge37_Node000082_Node000092" class="edge">
<title>Node82&#45;&gt;Node92</title>
<g id="a_edge37_Node000082_Node000092"><a xlink:title=" ">
<path fill="none" stroke="#63b8ff" d="M630.46,-331.11C612.38,-325.91 591.68,-319.95 574.8,-315.09"/>
<polygon fill="#63b8ff" stroke="#63b8ff" points="629.61,-334.51 640.19,-333.91 631.55,-327.78 629.61,-334.51"/>
</a>
</g>
</g>
<!-- Node94 -->
<g id="Node000094" class="node">
<title>Node94</title>
<g id="a_Node000094"><a xlink:href="code__80071F00_8c.html#a6c7938339fa5406ffe336278a92aa7ad" target="_top" xlink:title=" ">
<polygon fill="white" stroke="#666666" points="586,-278 495,-278 495,-259 586,-259 586,-278"/>
<text text-anchor="middle" x="540.5" y="-266" font-family="Helvetica,sans-Serif" font-size="10.00">func_8007E1F4</text>
</a>
</g>
</g>
<!-- Node82&#45;&gt;Node94 -->
<g id="edge39_Node000082_Node000094" class="edge">
<title>Node82&#45;&gt;Node94</title>
<g id="a_edge39_Node000082_Node000094"><a xlink:title=" ">
<path fill="none" stroke="#63b8ff" d="M653.01,-327.63C636.8,-315.57 613.27,-299.13 591,-287.5 584.31,-284 576.83,-280.8 569.75,-278.06"/>
<polygon fill="#63b8ff" stroke="#63b8ff" points="651.12,-330.59 661.21,-333.82 655.34,-325 651.12,-330.59"/>
</a>
</g>
</g>
<!-- Node96 -->
<g id="Node000096" class="node">
<title>Node96</title>
<g id="a_Node000096"><a xlink:href="actors_8c.html#a67d1dea0325e8a4a27afa6c343669df7" target="_top" xlink:title=" ">
<polygon fill="white" stroke="#666666" points="587,-672 494,-672 494,-653 587,-653 587,-672"/>
<text text-anchor="middle" x="540.5" y="-660" font-family="Helvetica,sans-Serif" font-size="10.00">func_8029FDC8</text>
</a>
</g>
</g>
<!-- Node82&#45;&gt;Node96 -->
<g id="edge41_Node000082_Node000096" class="edge">
<title>Node82&#45;&gt;Node96</title>
<g id="a_edge41_Node000082_Node000096"><a xlink:title=" ">
<path fill="none" stroke="#63b8ff" d="M665.64,-362.5C640.67,-422.85 563.73,-608.77 545.44,-652.99"/>
<polygon fill="#63b8ff" stroke="#63b8ff" points="668.96,-363.63 669.55,-353.05 662.49,-360.95 668.96,-363.63"/>
</a>
</g>
</g>
<!-- Node84 -->
<g id="Node000084" class="node">
<title>Node84</title>
<g id="a_Node000084"><a xlink:href="code__80005FD0_8c.html#adeea26a7fc120044643a79b819734e87" target="_top" xlink:title=" ">
<polygon fill="white" stroke="#666666" points="439.5,-465 347.5,-465 347.5,-446 439.5,-446 439.5,-465"/>
<text text-anchor="middle" x="393.5" y="-453" font-family="Helvetica,sans-Serif" font-size="10.00">func_800148C4</text>
</a>
</g>
</g>
<!-- Node83&#45;&gt;Node84 -->
<g id="edge28_Node000083_Node000084" class="edge">
<title>Node83&#45;&gt;Node84</title>
<g id="a_edge28_Node000083_Node000084"><a xlink:title=" ">
<path fill="none" stroke="#63b8ff" d="M484.37,-455.5C469.57,-455.5 453.74,-455.5 439.56,-455.5"/>
<polygon fill="#63b8ff" stroke="#63b8ff" points="484.42,-459 494.42,-455.5 484.42,-452 484.42,-459"/>
</a>
</g>
</g>
<!-- Node85 -->
<g id="Node000085" class="node">
<title>Node85</title>
<g id="a_Node000085"><a xlink:href="code__80005FD0_8c.html#a398ff3675ec77b2c285447c584c96893" target="_top" xlink:title=" ">
<polygon fill="white" stroke="#666666" points="439.5,-428 347.5,-428 347.5,-409 439.5,-409 439.5,-428"/>
<text text-anchor="middle" x="393.5" y="-416" font-family="Helvetica,sans-Serif" font-size="10.00">func_80014A18</text>
</a>
</g>
</g>
<!-- Node83&#45;&gt;Node85 -->
<g id="edge29_Node000083_Node000085" class="edge">
<title>Node83&#45;&gt;Node85</title>
<g id="a_edge29_Node000083_Node000085"><a xlink:title=" ">
<path fill="none" stroke="#63b8ff" d="M492.23,-443.44C472.69,-438.45 450.35,-432.75 431.97,-428.06"/>
<polygon fill="#63b8ff" stroke="#63b8ff" points="491.6,-446.89 502.16,-445.97 493.33,-440.11 491.6,-446.89"/>
</a>
</g>
</g>
<!-- Node86 -->
<g id="Node000086" class="node">
<title>Node86</title>
<g id="a_Node000086"><a xlink:href="code__80005FD0_8c.html#ae5379b903bbc10d87f33b21347134c0b" target="_top" xlink:title=" ">
<polygon fill="white" stroke="#666666" points="439.5,-539 347.5,-539 347.5,-520 439.5,-520 439.5,-539"/>
<text text-anchor="middle" x="393.5" y="-527" font-family="Helvetica,sans-Serif" font-size="10.00">func_80014B6C</text>
</a>
</g>
</g>
<!-- Node83&#45;&gt;Node86 -->
<g id="edge30_Node000083_Node000086" class="edge">
<title>Node83&#45;&gt;Node86</title>
<g id="a_edge30_Node000083_Node000086"><a xlink:title=" ">
<path fill="none" stroke="#63b8ff" d="M518.99,-471.36C502.26,-483.68 477.6,-500.48 454,-511.5 447.06,-514.74 439.39,-517.57 431.93,-519.96"/>
<polygon fill="#63b8ff" stroke="#63b8ff" points="521.52,-473.84 527.41,-465.04 517.31,-468.24 521.52,-473.84"/>
</a>
</g>
</g>
<!-- Node87 -->
<g id="Node000087" class="node">
<title>Node87</title>
<g id="a_Node000087"><a xlink:href="code__80005FD0_8c.html#a4cfcd8f2733c19fda94965eb29ae00a7" target="_top" xlink:title=" ">
<polygon fill="white" stroke="#666666" points="439.5,-502 347.5,-502 347.5,-483 439.5,-483 439.5,-502"/>
<text text-anchor="middle" x="393.5" y="-490" font-family="Helvetica,sans-Serif" font-size="10.00">func_80014CC0</text>
</a>
</g>
</g>
<!-- Node83&#45;&gt;Node87 -->
<g id="edge31_Node000083_Node000087" class="edge">
<title>Node83&#45;&gt;Node87</title>
<g id="a_edge31_Node000083_Node000087"><a xlink:title=" ">
<path fill="none" stroke="#63b8ff" d="M492.23,-467.56C472.69,-472.55 450.35,-478.25 431.97,-482.94"/>
<polygon fill="#63b8ff" stroke="#63b8ff" points="493.33,-470.89 502.16,-465.03 491.6,-464.11 493.33,-470.89"/>
</a>
</g>
</g>
<!-- Node89 -->
<g id="Node000089" class="node">
<title>Node89</title>
<g id="a_Node000089"><a xlink:href="code__80071F00_8c.html#ab0947a9025b7f18d2af9cb88f2742c8c" target="_top" xlink:title=" ">
<polygon fill="white" stroke="#666666" points="439.5,-391 347.5,-391 347.5,-372 439.5,-372 439.5,-391"/>
<text text-anchor="middle" x="393.5" y="-379" font-family="Helvetica,sans-Serif" font-size="10.00">func_8007614C</text>
</a>
</g>
</g>
<!-- Node88&#45;&gt;Node89 -->
<g id="edge33_Node000088_Node000089" class="edge">
<title>Node88&#45;&gt;Node89</title>
<g id="a_edge33_Node000088_Node000089"><a xlink:title=" ">
<path fill="none" stroke="#63b8ff" d="M484.37,-381.5C469.57,-381.5 453.74,-381.5 439.56,-381.5"/>
<polygon fill="#63b8ff" stroke="#63b8ff" points="484.42,-385 494.42,-381.5 484.42,-378 484.42,-385"/>
</a>
</g>
</g>
<!-- Node90 -->
<g id="Node000090" class="node">
<title>Node90</title>
<g id="a_Node000090"><a xlink:href="code__80071F00_8c.html#a95b3061cecaa0a9adae037b41b756602" target="_top" xlink:title=" ">
<polygon fill="#fff0f0" stroke="red" points="297,-377.5 164,-377.5 164,-347.5 297,-347.5 297,-377.5"/>
<text text-anchor="start" x="172" y="-365.5" font-family="Helvetica,sans-Serif" font-size="10.00">update_particle_bowser</text>
<text text-anchor="middle" x="230.5" y="-354.5" font-family="Helvetica,sans-Serif" font-size="10.00">_castle</text>
</a>
</g>
</g>
<!-- Node89&#45;&gt;Node90 -->
<g id="edge34_Node000089_Node000090" class="edge">
<title>Node89&#45;&gt;Node90</title>
<g id="a_edge34_Node000089_Node000090"><a xlink:title=" ">
<path fill="none" stroke="#63b8ff" d="M337.13,-374.97C324.26,-373.45 310.43,-371.82 297.16,-370.25"/>
<polygon fill="#63b8ff" stroke="#63b8ff" points="336.88,-378.46 347.22,-376.16 337.7,-371.51 336.88,-378.46"/>
</a>
</g>
</g>
<!-- Node91&#45;&gt;Node90 -->
<g id="edge36_Node000091_Node000090" class="edge">
<title>Node91&#45;&gt;Node90</title>
<g id="a_edge36_Node000091_Node000090"><a xlink:title=" ">
<path fill="none" stroke="#63b8ff" d="M484.26,-346.91C431.79,-350.14 352.88,-355.01 297.21,-358.45"/>
<polygon fill="#63b8ff" stroke="#63b8ff" points="484.62,-350.39 494.38,-346.28 484.19,-343.41 484.62,-350.39"/>
</a>
</g>
</g>
<!-- Node93 -->
<g id="Node000093" class="node">
<title>Node93</title>
<g id="a_Node000093"><a xlink:href="code__80071F00_8c.html#ae733a40e5e6dab7488643eb6d316b0c0" target="_top" xlink:title=" ">
<polygon fill="#fff0f0" stroke="red" points="439.5,-315 347.5,-315 347.5,-296 439.5,-296 439.5,-315"/>
<text text-anchor="middle" x="393.5" y="-303" font-family="Helvetica,sans-Serif" font-size="10.00">func_8007E1AC</text>
</a>
</g>
</g>
<!-- Node92&#45;&gt;Node93 -->
<g id="edge38_Node000092_Node000093" class="edge">
<title>Node92&#45;&gt;Node93</title>
<g id="a_edge38_Node000092_Node000093"><a xlink:title=" ">
<path fill="none" stroke="#63b8ff" d="M482.61,-305.5C468.34,-305.5 453.22,-305.5 439.61,-305.5"/>
<polygon fill="#63b8ff" stroke="#63b8ff" points="482.82,-309 492.82,-305.5 482.82,-302 482.82,-309"/>
</a>
</g>
</g>
<!-- Node95 -->
<g id="Node000095" class="node">
<title>Node95</title>
<g id="a_Node000095"><a xlink:href="code__80071F00_8c.html#ac8b268e6a216ed165f6d9ba102367fd7" target="_top" xlink:title=" ">
<polygon fill="#fff0f0" stroke="red" points="439.5,-278 347.5,-278 347.5,-259 439.5,-259 439.5,-278"/>
<text text-anchor="middle" x="393.5" y="-266" font-family="Helvetica,sans-Serif" font-size="10.00">func_8007E4C4</text>
</a>
</g>
</g>
<!-- Node94&#45;&gt;Node95 -->
<g id="edge40_Node000094_Node000095" class="edge">
<title>Node94&#45;&gt;Node95</title>
<g id="a_edge40_Node000094_Node000095"><a xlink:title=" ">
<path fill="none" stroke="#63b8ff" d="M484.7,-268.5C469.8,-268.5 453.83,-268.5 439.54,-268.5"/>
<polygon fill="#63b8ff" stroke="#63b8ff" points="484.81,-272 494.81,-268.5 484.81,-265 484.81,-272"/>
</a>
</g>
</g>
<!-- Node96&#45;&gt;Node66 -->
<g id="edge49_Node000096_Node000066" class="edge">
<title>Node96&#45;&gt;Node66</title>
<g id="a_edge49_Node000096_Node000066"><a xlink:title=" ">
<path fill="none" stroke="#63b8ff" d="M483.72,-671.92C428.28,-681.28 343.69,-695.56 288,-704.96"/>
<polygon fill="#63b8ff" stroke="#63b8ff" points="484.44,-675.34 493.72,-670.23 483.28,-668.44 484.44,-675.34"/>
</a>
</g>
</g>
<!-- Node96&#45;&gt;Node68 -->
<g id="edge50_Node000096_Node000068" class="edge">
<title>Node96&#45;&gt;Node68</title>
<g id="a_edge50_Node000096_Node000068"><a xlink:title=" ">
<path fill="none" stroke="#63b8ff" d="M531.34,-681.66C518.94,-708.07 492.65,-754.74 454,-775.5 402.51,-803.16 334.35,-803.06 287.1,-798.32"/>
<polygon fill="#63b8ff" stroke="#63b8ff" points="534.63,-682.88 535.54,-672.32 528.24,-680.01 534.63,-682.88"/>
</a>
</g>
</g>
<!-- Node96&#45;&gt;Node69 -->
<g id="edge51_Node000096_Node000069" class="edge">
<title>Node96&#45;&gt;Node69</title>
<g id="a_edge51_Node000096_Node000069"><a xlink:title=" ">
<path fill="none" stroke="#63b8ff" d="M525.85,-644.58C510.64,-626.24 484.17,-598.86 454,-587.5 333.21,-542.03 177.11,-584.58 104.9,-609.43"/>
<polygon fill="#63b8ff" stroke="#63b8ff" points="523.4,-647.13 532.38,-652.75 528.87,-642.75 523.4,-647.13"/>
</a>
</g>
</g>
<!-- Node97 -->
<g id="Node000097" class="node">
<title>Node97</title>
<g id="a_Node000097"><a xlink:href="actors_8c.html#a0fff2a94adce284fb6e2ef36de0ba5a6" target="_top" xlink:title=" ">
<polygon fill="#fff0f0" stroke="red" points="439.5,-766 347.5,-766 347.5,-747 439.5,-747 439.5,-766"/>
<text text-anchor="middle" x="393.5" y="-754" font-family="Helvetica,sans-Serif" font-size="10.00">func_802A0350</text>
</a>
</g>
</g>
<!-- Node96&#45;&gt;Node97 -->
<g id="edge42_Node000096_Node000097" class="edge">
<title>Node96&#45;&gt;Node97</title>
<g id="a_edge42_Node000096_Node000097"><a xlink:title=" ">
<path fill="none" stroke="#63b8ff" d="M524.36,-679.77C508.43,-696.95 481.85,-722.91 454,-738.5 448.07,-741.82 441.45,-744.6 434.85,-746.9"/>
<polygon fill="#63b8ff" stroke="#63b8ff" points="527.16,-681.9 531.28,-672.13 521.97,-677.19 527.16,-681.9"/>
</a>
</g>
</g>
<!-- Node99 -->
<g id="Node000099" class="node">
<title>Node99</title>
<g id="a_Node000099"><a xlink:href="actors_8c.html#a5d0cc071261caa5b76190cfee9c90189" target="_top" xlink:title=" ">
<polygon fill="#fff0f0" stroke="red" points="439.5,-729 347.5,-729 347.5,-710 439.5,-710 439.5,-729"/>
<text text-anchor="middle" x="393.5" y="-717" font-family="Helvetica,sans-Serif" font-size="10.00">func_802A0450</text>
</a>
</g>
</g>
<!-- Node96&#45;&gt;Node99 -->
<g id="edge43_Node000096_Node000099" class="edge">
<title>Node96&#45;&gt;Node99</title>
<g id="a_edge43_Node000096_Node000099"><a xlink:title=" ">
<path fill="none" stroke="#63b8ff" d="M505.91,-675.7C479.29,-686.17 442.72,-700.55 418.85,-709.93"/>
<polygon fill="#63b8ff" stroke="#63b8ff" points="507.2,-678.96 515.23,-672.04 504.64,-672.44 507.2,-678.96"/>
</a>
</g>
</g>
<!-- Node101 -->
<g id="Node000101" class="node">
<title>Node101</title>
<g id="a_Node000101"><a xlink:href="actors__extended_8c.html#a0cc339b71fb81e84d30eb55dc05b1a04" target="_top" xlink:title=" ">
<polygon fill="white" stroke="#666666" points="276.5,-653 184.5,-653 184.5,-634 276.5,-634 276.5,-653"/>
<text text-anchor="middle" x="230.5" y="-641" font-family="Helvetica,sans-Serif" font-size="10.00">func_802B3E7C</text>
</a>
</g>
</g>
<!-- Node96&#45;&gt;Node101 -->
<g id="edge44_Node000096_Node000101" class="edge">
<title>Node96&#45;&gt;Node101</title>
<g id="a_edge44_Node000096_Node000101"><a xlink:title=" ">
<path fill="none" stroke="#63b8ff" d="M483.39,-659.04C423.98,-655.37 331.35,-649.66 276.53,-646.28"/>
<polygon fill="#63b8ff" stroke="#63b8ff" points="483.53,-662.55 493.72,-659.68 483.96,-655.57 483.53,-662.55"/>
</a>
</g>
</g>
<!-- Node102 -->
<g id="Node000102" class="node">
<title>Node102</title>
<g id="a_Node000102"><a xlink:href="actors__extended_8c.html#a334de9136224947ca20e7d31fb009a82" target="_top" xlink:title=" ">
<polygon fill="white" stroke="#666666" points="439.5,-615 347.5,-615 347.5,-596 439.5,-596 439.5,-615"/>
<text text-anchor="middle" x="393.5" y="-603" font-family="Helvetica,sans-Serif" font-size="10.00">func_802B4104</text>
</a>
</g>
</g>
<!-- Node96&#45;&gt;Node102 -->
<g id="edge46_Node000096_Node000102" class="edge">
<title>Node96&#45;&gt;Node102</title>
<g id="a_edge46_Node000096_Node000102"><a xlink:title=" ">
<path fill="none" stroke="#63b8ff" d="M505.91,-649.3C479.29,-638.83 442.72,-624.45 418.85,-615.07"/>
<polygon fill="#63b8ff" stroke="#63b8ff" points="504.64,-652.56 515.23,-652.96 507.2,-646.04 504.64,-652.56"/>
</a>
</g>
</g>
<!-- Node101&#45;&gt;Node69 -->
<g id="edge45_Node000101_Node000069" class="edge">
<title>Node101&#45;&gt;Node69</title>
<g id="a_edge45_Node000101_Node000069"><a xlink:title=" ">
<path fill="none" stroke="#63b8ff" d="M174.12,-637.1C159.33,-635.4 143.25,-633.54 128.09,-631.79"/>
<polygon fill="#63b8ff" stroke="#63b8ff" points="173.78,-640.59 184.11,-638.26 174.58,-633.63 173.78,-640.59"/>
</a>
</g>
</g>
<!-- Node102&#45;&gt;Node69 -->
<g id="edge48_Node000102_Node000069" class="edge">
<title>Node102&#45;&gt;Node69</title>
<g id="a_edge48_Node000102_Node000069"><a xlink:title=" ">
<path fill="none" stroke="#63b8ff" d="M337.26,-608.7C279.47,-612.06 188.86,-617.31 128.24,-620.83"/>
<polygon fill="#63b8ff" stroke="#63b8ff" points="337.53,-612.2 347.31,-608.12 337.12,-605.21 337.53,-612.2"/>
</a>
</g>
</g>
<!-- Node102&#45;&gt;Node101 -->
<g id="edge47_Node000102_Node000101" class="edge">
<title>Node102&#45;&gt;Node101</title>
<g id="a_edge47_Node000102_Node000101"><a xlink:title=" ">
<path fill="none" stroke="#63b8ff" d="M342.1,-617.4C319.47,-622.74 293.13,-628.95 271.83,-633.98"/>
<polygon fill="#63b8ff" stroke="#63b8ff" points="342.94,-620.79 351.87,-615.09 341.34,-613.98 342.94,-620.79"/>
</a>
</g>
</g>
<!-- Node104 -->
<g id="Node000104" class="node">
<title>Node104</title>
<g id="a_Node000104"><a xlink:href="effects_8c.html#ab044d6f7bf1cacf740cf0a27ea0902b5" target="_top" xlink:title=" ">
<polygon fill="white" stroke="#666666" points="591,-111 490,-111 490,-92 591,-92 591,-111"/>
<text text-anchor="middle" x="540.5" y="-99" font-family="Helvetica,sans-Serif" font-size="10.00">apply_star_effect</text>
</a>
</g>
</g>
<!-- Node103&#45;&gt;Node104 -->
<g id="edge53_Node000103_Node000104" class="edge">
<title>Node103&#45;&gt;Node104</title>
<g id="a_edge53_Node000103_Node000104"><a xlink:title=" ">
<path fill="none" stroke="#63b8ff" d="M616.74,-101.5C608.24,-101.5 599.54,-101.5 591.2,-101.5"/>
<polygon fill="#63b8ff" stroke="#63b8ff" points="616.96,-105 626.96,-101.5 616.96,-98 616.96,-105"/>
</a>
</g>
</g>
<!-- Node105 -->
<g id="Node000105" class="node">
<title>Node105</title>
<g id="a_Node000105"><a xlink:href="effects_8c.html#ae1bacd987d7f12fc5960f838a7dbe137" target="_top" xlink:title=" ">
<polygon fill="white" stroke="#666666" points="586.5,-56 494.5,-56 494.5,-37 586.5,-37 586.5,-56"/>
<text text-anchor="middle" x="540.5" y="-44" font-family="Helvetica,sans-Serif" font-size="10.00">func_8008F86C</text>
</a>
</g>
</g>
<!-- Node103&#45;&gt;Node105 -->
<g id="edge54_Node000103_Node000105" class="edge">
<title>Node103&#45;&gt;Node105</title>
<g id="a_edge54_Node000103_Node000105"><a xlink:title=" ">
<path fill="none" stroke="#63b8ff" d="M641.21,-88.05C617.52,-78.17 585.89,-65 564.67,-56.16"/>
<polygon fill="#63b8ff" stroke="#63b8ff" points="639.93,-91.3 650.51,-91.92 642.62,-84.84 639.93,-91.3"/>
</a>
</g>
</g>
<!-- Node106 -->
<g id="Node000106" class="node">
<title>Node106</title>
<g id="a_Node000106"><a xlink:href="effects_8c.html#a71c3c746ea434e798865e3256180ee0a" target="_top" xlink:title=" ">
<polygon fill="white" stroke="#666666" points="439,-56 348,-56 348,-37 439,-37 439,-56"/>
<text text-anchor="middle" x="393.5" y="-44" font-family="Helvetica,sans-Serif" font-size="10.00">func_8008F494</text>
</a>
</g>
</g>
<!-- Node105&#45;&gt;Node106 -->
<g id="edge55_Node000105_Node000106" class="edge">
<title>Node105&#45;&gt;Node106</title>
<g id="a_edge55_Node000105_Node000106"><a xlink:title=" ">
<path fill="none" stroke="#63b8ff" d="M484.27,-46.5C469.32,-46.5 453.34,-46.5 439.06,-46.5"/>
<polygon fill="#63b8ff" stroke="#63b8ff" points="484.42,-50 494.42,-46.5 484.42,-43 484.42,-50"/>
</a>
</g>
</g>
<!-- Node107 -->
<g id="Node000107" class="node">
<title>Node107</title>
<g id="a_Node000107"><a xlink:href="effects_8c.html#a17332237b5c2a4249328a35071e23bf7" target="_top" xlink:title=" ">
<polygon fill="#fff0f0" stroke="red" points="439,-19 348,-19 348,0 439,0 439,-19"/>
<text text-anchor="middle" x="393.5" y="-7" font-family="Helvetica,sans-Serif" font-size="10.00">func_80090778</text>
</a>
</g>
</g>
<!-- Node105&#45;&gt;Node107 -->
<g id="edge56_Node000105_Node000107" class="edge">
<title>Node105&#45;&gt;Node107</title>
<g id="a_edge56_Node000105_Node000107"><a xlink:title=" ">
<path fill="none" stroke="#63b8ff" d="M492.23,-34.44C472.69,-29.45 450.35,-23.75 431.97,-19.06"/>
<polygon fill="#63b8ff" stroke="#63b8ff" points="491.6,-37.89 502.16,-36.97 493.33,-31.11 491.6,-37.89"/>
</a>
</g>
</g>
</g>
</svg>

<g id="navigator" transform="translate(0 0)" fill="#404254">
  <rect fill="#f2f5e9" fill-opacity="0.5" stroke="#606060" stroke-width=".5" x="0" y="0" width="60" height="60"/>
  <use id="zoomplus" xlink:href="#zoomPlus" x="17" y="9" onmousedown="handleZoom(evt,'in')"/>
  <use id="zoomminus" xlink:href="#zoomMin" x="42" y="9" onmousedown="handleZoom(evt,'out')"/>
  <use id="reset" xlink:href="#resetDef" x="30" y="36" onmousedown="handleReset()"/>
   <use id="arrowup" xlink:href="#arrowUp" x="0" y="0" onmousedown="handlePan(0,-1)"/>
  <use id="arrowright" xlink:href="#arrowRight" x="0" y="0" onmousedown="handlePan(1,0)"/>
  <use id="arrowdown" xlink:href="#arrowDown" x="0" y="0" onmousedown="handlePan(0,1)"/>
  <use id="arrowleft" xlink:href="#arrowLeft" x="0" y="0" onmousedown="handlePan(-1,0)"/>
</g>
<svg viewBox="0 0 15 15" width="100%" height="30px" preserveAspectRatio="xMaxYMin meet">
 <g id="arrow_out" transform="scale(0.3 0.3)">
  <a xlink:href="external_8c_a1c8490eb4720c317dd29ed76a1c4ea32_icgraph_org.svg" target="_base">
   <rect id="button" ry="5" rx="5" y="6" x="6" height="38" width="38"
        fill="#f2f5e9" fill-opacity="0.5" stroke="#606060" stroke-width="1.0"/>
   <path id="arrow"
     d="M 11.500037,31.436501 C 11.940474,20.09759 22.043105,11.32322 32.158766,21.979434 L 37.068811,17.246167 C 37.068811,17.246167 37.088388,32 37.088388,32 L 22.160133,31.978069 C 22.160133,31.978069 26.997745,27.140456 26.997745,27.140456 C 18.528582,18.264221 13.291696,25.230495 11.500037,31.436501 z"
     style="fill:#404040;"/>
  </a>
 </g>
</svg>

<style type='text/css'>
<![CDATA[
[data-mouse-over-selected='false'] { opacity: 0.7; }
[data-mouse-over-selected='true']  { opacity: 1.0; }
]]>
</style>
<script type="application/ecmascript"><![CDATA[
document.addEventListener('DOMContentLoaded', (event) => {
  highlightEdges();
  highlightAdjacentNodes();
});
]]></script>
</svg>
