<?xml version="1.0" encoding="UTF-8" standalone="no"?>
<!DOCTYPE svg PUBLIC "-//W3C//DTD SVG 1.1//EN"
 "http://www.w3.org/Graphics/SVG/1.1/DTD/svg11.dtd">
<!-- Generated by graphviz version 2.43.0 (0)
 -->
<!-- Title: func_800C9018 Pages: 1 -->
<svg width="1164pt" height="774pt"
 viewBox="0.00 0.00 1164.00 774.00" xmlns="http://www.w3.org/2000/svg" xmlns:xlink="http://www.w3.org/1999/xlink">
<g id="graph0" class="graph" transform="scale(1 1) rotate(0) translate(4 770)">
<title>func_800C9018</title>
<!-- Node1 -->
<g id="Node000001" class="node">
<title>Node1</title>
<g id="a_Node000001"><a xlink:title=" ">
<polygon fill="#999999" stroke="#666666" points="1156,-478 1064,-478 1064,-459 1156,-459 1156,-478"/>
<text text-anchor="middle" x="1110" y="-466" font-family="Helvetica,sans-Serif" font-size="10.00">func_800C9018</text>
</a>
</g>
</g>
<!-- Node2 -->
<g id="Node000002" class="node">
<title>Node2</title>
<g id="a_Node000002"><a xlink:href="player__controller_8c.html#a1796f758711d87699791687c8c8ea84f" target="_top" xlink:title=" ">
<polygon fill="white" stroke="#666666" points="1028,-683 935,-683 935,-664 1028,-664 1028,-683"/>
<text text-anchor="middle" x="981.5" y="-671" font-family="Helvetica,sans-Serif" font-size="10.00">func_80027EDC</text>
</a>
</g>
</g>
<!-- Node1&#45;&gt;Node2 -->
<g id="edge1_Node000001_Node000002" class="edge">
<title>Node1&#45;&gt;Node2</title>
<g id="a_edge1_Node000001_Node000002"><a xlink:title=" ">
<path fill="none" stroke="#63b8ff" d="M1105.61,-488.25C1098.19,-525.81 1077.06,-607.99 1028,-655.5 1024.58,-658.81 1020.48,-661.53 1016.16,-663.77"/>
<polygon fill="#63b8ff" stroke="#63b8ff" points="1109.11,-488.59 1107.49,-478.12 1102.23,-487.31 1109.11,-488.59"/>
</a>
</g>
</g>
<!-- Node23 -->
<g id="Node000023" class="node">
<title>Node23</title>
<g id="a_Node000023"><a xlink:href="code__80071F00_8c.html#a494d2eda5e833a373c2f02eae59d972c" target="_top" xlink:title=" ">
<polygon fill="white" stroke="#666666" points="1027,-354 936,-354 936,-335 1027,-335 1027,-354"/>
<text text-anchor="middle" x="981.5" y="-342" font-family="Helvetica,sans-Serif" font-size="10.00">func_800791F0</text>
</a>
</g>
</g>
<!-- Node1&#45;&gt;Node23 -->
<g id="edge17_Node000001_Node000023" class="edge">
<title>Node1&#45;&gt;Node23</title>
<g id="a_edge17_Node000001_Node000023"><a xlink:title=" ">
<path fill="none" stroke="#63b8ff" d="M1091.89,-451.72C1065.03,-425.4 1013.86,-375.24 992.38,-354.18"/>
<polygon fill="#63b8ff" stroke="#63b8ff" points="1089.48,-454.27 1099.07,-458.77 1094.38,-449.27 1089.48,-454.27"/>
</a>
</g>
</g>
<!-- Node34 -->
<g id="Node000034" class="node">
<title>Node34</title>
<g id="a_Node000034"><a xlink:href="code__80071F00_8c.html#a6875e5fef7a875285d8977e07a504763" target="_top" xlink:title=" ">
<polygon fill="white" stroke="#666666" points="730,-250.5 623,-250.5 623,-220.5 730,-220.5 730,-250.5"/>
<text text-anchor="start" x="631" y="-238.5" font-family="Helvetica,sans-Serif" font-size="10.00">update_obj_laikitu</text>
<text text-anchor="middle" x="676.5" y="-227.5" font-family="Helvetica,sans-Serif" font-size="10.00">_reverse</text>
</a>
</g>
</g>
<!-- Node1&#45;&gt;Node34 -->
<g id="edge65_Node000001_Node000034" class="edge">
<title>Node1&#45;&gt;Node34</title>
<g id="a_edge65_Node000001_Node000034"><a xlink:title=" ">
<path fill="none" stroke="#63b8ff" d="M1101.41,-449.65C1089.13,-420.78 1062.74,-364.95 1028,-326.5 980.79,-274.25 966.07,-255.97 899,-234.5 843.51,-216.74 776.13,-220.35 730.36,-226.26"/>
<polygon fill="#63b8ff" stroke="#63b8ff" points="1098.21,-451.08 1105.28,-458.98 1104.68,-448.4 1098.21,-451.08"/>
</a>
</g>
</g>
<!-- Node38 -->
<g id="Node000038" class="node">
<title>Node38</title>
<g id="a_Node000038"><a xlink:href="code__80071F00_8c.html#aa877563f476c1017e763b930b16a1e1a" target="_top" xlink:title=" ">
<polygon fill="white" stroke="#666666" points="730,-490.5 623,-490.5 623,-460.5 730,-460.5 730,-490.5"/>
<text text-anchor="start" x="631" y="-478.5" font-family="Helvetica,sans-Serif" font-size="10.00">update_obj_laikitu</text>
<text text-anchor="middle" x="676.5" y="-467.5" font-family="Helvetica,sans-Serif" font-size="10.00">_fishing</text>
</a>
</g>
</g>
<!-- Node1&#45;&gt;Node38 -->
<g id="edge63_Node000001_Node000038" class="edge">
<title>Node1&#45;&gt;Node38</title>
<g id="a_edge63_Node000001_Node000038"><a xlink:title=" ">
<path fill="none" stroke="#63b8ff" d="M1053.56,-469.4C969.87,-470.76 812.35,-473.31 730.27,-474.64"/>
<polygon fill="#63b8ff" stroke="#63b8ff" points="1053.7,-472.9 1063.64,-469.24 1053.58,-465.9 1053.7,-472.9"/>
</a>
</g>
</g>
<!-- Node39 -->
<g id="Node000039" class="node">
<title>Node39</title>
<g id="a_Node000039"><a xlink:href="code__80071F00_8c.html#ac65787e8ce499460590fe4aa7d12aad6" target="_top" xlink:title=" ">
<polygon fill="white" stroke="#666666" points="730,-442.5 623,-442.5 623,-412.5 730,-412.5 730,-442.5"/>
<text text-anchor="start" x="631" y="-430.5" font-family="Helvetica,sans-Serif" font-size="10.00">update_obj_laikitu</text>
<text text-anchor="middle" x="676.5" y="-419.5" font-family="Helvetica,sans-Serif" font-size="10.00">_fishing2</text>
</a>
</g>
</g>
<!-- Node1&#45;&gt;Node39 -->
<g id="edge64_Node000001_Node000039" class="edge">
<title>Node1&#45;&gt;Node39</title>
<g id="a_edge64_Node000001_Node000039"><a xlink:title=" ">
<path fill="none" stroke="#63b8ff" d="M1053.56,-463.23C969.87,-455.28 812.35,-440.31 730.27,-432.51"/>
<polygon fill="#63b8ff" stroke="#63b8ff" points="1053.35,-466.73 1063.64,-464.19 1054.01,-459.76 1053.35,-466.73"/>
</a>
</g>
</g>
<!-- Node40 -->
<g id="Node000040" class="node">
<title>Node40</title>
<g id="a_Node000040"><a xlink:href="code__80071F00_8c.html#a5b10e163d17f78f43ec59de3a5c401a0" target="_top" xlink:title=" ">
<polygon fill="white" stroke="#666666" points="1027.5,-535 935.5,-535 935.5,-516 1027.5,-516 1027.5,-535"/>
<text text-anchor="middle" x="981.5" y="-523" font-family="Helvetica,sans-Serif" font-size="10.00">func_8007B34C</text>
</a>
</g>
</g>
<!-- Node1&#45;&gt;Node40 -->
<g id="edge39_Node000001_Node000040" class="edge">
<title>Node1&#45;&gt;Node40</title>
<g id="a_edge39_Node000001_Node000040"><a xlink:title=" ">
<path fill="none" stroke="#63b8ff" d="M1078.47,-482.26C1055.36,-492.67 1024.2,-506.71 1003.74,-515.93"/>
<polygon fill="#63b8ff" stroke="#63b8ff" points="1080.15,-485.34 1087.83,-478.04 1077.27,-478.96 1080.15,-485.34"/>
</a>
</g>
</g>
<!-- Node42 -->
<g id="Node000042" class="node">
<title>Node42</title>
<g id="a_Node000042"><a xlink:href="effects_8c.html#a2f6824139333e232c4aad8621d00cdee" target="_top" xlink:title=" ">
<polygon fill="white" stroke="#666666" points="722,-167 631,-167 631,-148 722,-148 722,-167"/>
<text text-anchor="middle" x="676.5" y="-155" font-family="Helvetica,sans-Serif" font-size="10.00">func_80090970</text>
</a>
</g>
</g>
<!-- Node1&#45;&gt;Node42 -->
<g id="edge42_Node000001_Node000042" class="edge">
<title>Node1&#45;&gt;Node42</title>
<g id="a_edge42_Node000001_Node000042"><a xlink:title=" ">
<path fill="none" stroke="#63b8ff" d="M1107.91,-448.64C1104.38,-404.73 1089.6,-298.95 1028,-243.5 983,-203 806.21,-174.64 722.24,-163.17"/>
<polygon fill="#63b8ff" stroke="#63b8ff" points="1104.42,-448.89 1108.6,-458.62 1111.4,-448.4 1104.42,-448.89"/>
</a>
</g>
</g>
<!-- Node43 -->
<g id="Node000043" class="node">
<title>Node43</title>
<g id="a_Node000043"><a xlink:href="external_8c.html#a6adc8dfd43ac90ecb9cbe18c1e56d762" target="_top" xlink:title=" ">
<polygon fill="white" stroke="#666666" points="1027.5,-646 935.5,-646 935.5,-627 1027.5,-627 1027.5,-646"/>
<text text-anchor="middle" x="981.5" y="-634" font-family="Helvetica,sans-Serif" font-size="10.00">func_800C5E38</text>
</a>
</g>
</g>
<!-- Node1&#45;&gt;Node43 -->
<g id="edge43_Node000001_Node000043" class="edge">
<title>Node1&#45;&gt;Node43</title>
<g id="a_edge43_Node000001_Node000043"><a xlink:title=" ">
<path fill="none" stroke="#63b8ff" d="M1103.39,-487.78C1093.29,-519.28 1069.17,-581.93 1028,-618.5 1024.19,-621.88 1019.66,-624.67 1014.97,-626.95"/>
<polygon fill="#63b8ff" stroke="#63b8ff" points="1106.79,-488.62 1106.38,-478.03 1100.1,-486.56 1106.79,-488.62"/>
</a>
</g>
</g>
<!-- Node54 -->
<g id="Node000054" class="node">
<title>Node54</title>
<g id="a_Node000054"><a xlink:href="external_8c.html#a9bc9f57fb83f73d37b56721df044d722" target="_top" xlink:title=" ">
<polygon fill="white" stroke="#666666" points="1027.5,-609 935.5,-609 935.5,-590 1027.5,-590 1027.5,-609"/>
<text text-anchor="middle" x="981.5" y="-597" font-family="Helvetica,sans-Serif" font-size="10.00">func_800C76C0</text>
</a>
</g>
</g>
<!-- Node1&#45;&gt;Node54 -->
<g id="edge49_Node000001_Node000054" class="edge">
<title>Node1&#45;&gt;Node54</title>
<g id="a_edge49_Node000001_Node000054"><a xlink:title=" ">
<path fill="none" stroke="#63b8ff" d="M1099.98,-487.14C1087.15,-511.86 1061.45,-555.39 1028,-581.5 1023.71,-584.85 1018.73,-587.64 1013.66,-589.96"/>
<polygon fill="#63b8ff" stroke="#63b8ff" points="1103.16,-488.6 1104.53,-478.09 1096.91,-485.45 1103.16,-488.6"/>
</a>
</g>
</g>
<!-- Node55 -->
<g id="Node000055" class="node">
<title>Node55</title>
<g id="a_Node000055"><a xlink:href="external_8c.html#ab95692e47151e93fb7d149534da6a180" target="_top" xlink:title=" ">
<polygon fill="white" stroke="#666666" points="1027.5,-572 935.5,-572 935.5,-553 1027.5,-553 1027.5,-572"/>
<text text-anchor="middle" x="981.5" y="-560" font-family="Helvetica,sans-Serif" font-size="10.00">func_800C847C</text>
</a>
</g>
</g>
<!-- Node1&#45;&gt;Node55 -->
<g id="edge51_Node000001_Node000055" class="edge">
<title>Node1&#45;&gt;Node55</title>
<g id="a_edge51_Node000001_Node000055"><a xlink:title=" ">
<path fill="none" stroke="#63b8ff" d="M1093.9,-486.09C1078.68,-502.93 1053.79,-528.14 1028,-544.5 1022.98,-547.68 1017.3,-550.47 1011.7,-552.84"/>
<polygon fill="#63b8ff" stroke="#63b8ff" points="1096.94,-487.94 1100.94,-478.13 1091.69,-483.3 1096.94,-487.94"/>
</a>
</g>
</g>
<!-- Node56 -->
<g id="Node000056" class="node">
<title>Node56</title>
<g id="a_Node000056"><a xlink:href="external_8c.html#ac32b332e8b9a73af543741393186060d" target="_top" xlink:title=" ">
<polygon fill="white" stroke="#666666" points="1027.5,-74 935.5,-74 935.5,-55 1027.5,-55 1027.5,-74"/>
<text text-anchor="middle" x="981.5" y="-62" font-family="Helvetica,sans-Serif" font-size="10.00">func_800CA730</text>
</a>
</g>
</g>
<!-- Node1&#45;&gt;Node56 -->
<g id="edge53_Node000001_Node000056" class="edge">
<title>Node1&#45;&gt;Node56</title>
<g id="a_edge53_Node000001_Node000056"><a xlink:title=" ">
<path fill="none" stroke="#63b8ff" d="M1107.52,-448.76C1102.79,-393.98 1084.81,-236.48 1028,-120.5 1019.07,-102.28 1003.22,-84.69 992.79,-74.23"/>
<polygon fill="#63b8ff" stroke="#63b8ff" points="1104.04,-449.15 1108.34,-458.84 1111.02,-448.59 1104.04,-449.15"/>
</a>
</g>
</g>
<!-- Node62 -->
<g id="Node000062" class="node">
<title>Node62</title>
<g id="a_Node000062"><a xlink:href="external_8c.html#aa00f6fbb1195ee18da20e61bd6ef5d97" target="_top" xlink:title=" ">
<polygon fill="white" stroke="#666666" points="1027.5,-148 935.5,-148 935.5,-129 1027.5,-129 1027.5,-148"/>
<text text-anchor="middle" x="981.5" y="-136" font-family="Helvetica,sans-Serif" font-size="10.00">func_800CB064</text>
</a>
</g>
</g>
<!-- Node1&#45;&gt;Node62 -->
<g id="edge59_Node000001_Node000062" class="edge">
<title>Node1&#45;&gt;Node62</title>
<g id="a_edge59_Node000001_Node000062"><a xlink:title=" ">
<path fill="none" stroke="#63b8ff" d="M1109.01,-448.48C1108.02,-395.79 1098.62,-251.25 1028,-162.5 1023.22,-156.49 1016.51,-151.81 1009.72,-148.24"/>
<polygon fill="#63b8ff" stroke="#63b8ff" points="1105.51,-448.83 1109.11,-458.79 1112.51,-448.76 1105.51,-448.83"/>
</a>
</g>
</g>
<!-- Node3 -->
<g id="Node000003" class="node">
<title>Node3</title>
<g id="a_Node000003"><a xlink:href="player__controller_8c.html#aafe8b94ccd61104120a9bf0ee954a901" target="_top" xlink:title=" ">
<polygon fill="white" stroke="#666666" points="878.5,-692 786.5,-692 786.5,-673 878.5,-673 878.5,-692"/>
<text text-anchor="middle" x="832.5" y="-680" font-family="Helvetica,sans-Serif" font-size="10.00">func_8002D268</text>
</a>
</g>
</g>
<!-- Node2&#45;&gt;Node3 -->
<g id="edge2_Node000002_Node000003" class="edge">
<title>Node2&#45;&gt;Node3</title>
<g id="a_edge2_Node000002_Node000003"><a xlink:title=" ">
<path fill="none" stroke="#63b8ff" d="M924.51,-676.93C909.35,-677.86 893.15,-678.85 878.67,-679.73"/>
<polygon fill="#63b8ff" stroke="#63b8ff" points="925.03,-680.4 934.79,-676.3 924.6,-673.42 925.03,-680.4"/>
</a>
</g>
</g>
<!-- Node4 -->
<g id="Node000004" class="node">
<title>Node4</title>
<g id="a_Node000004"><a xlink:href="player__controller_8c.html#a9f21890266acabb27e962652c5ef4cfc" target="_top" xlink:title=" ">
<polygon fill="white" stroke="#666666" points="722,-692 631,-692 631,-673 722,-673 722,-692"/>
<text text-anchor="middle" x="676.5" y="-680" font-family="Helvetica,sans-Serif" font-size="10.00">func_80028864</text>
</a>
</g>
</g>
<!-- Node3&#45;&gt;Node4 -->
<g id="edge3_Node000003_Node000004" class="edge">
<title>Node3&#45;&gt;Node4</title>
<g id="a_edge3_Node000003_Node000004"><a xlink:title=" ">
<path fill="none" stroke="#63b8ff" d="M775.92,-682.5C758.2,-682.5 738.84,-682.5 722.02,-682.5"/>
<polygon fill="#63b8ff" stroke="#63b8ff" points="776.13,-686 786.13,-682.5 776.13,-679 776.13,-686"/>
</a>
</g>
</g>
<!-- Node16 -->
<g id="Node000016" class="node">
<title>Node16</title>
<g id="a_Node000016"><a xlink:href="player__controller_8c.html#a76e0206999fca6c9de4d4bef2c4620ce" target="_top" xlink:title=" ">
<polygon fill="white" stroke="#666666" points="722.5,-766 630.5,-766 630.5,-747 722.5,-747 722.5,-766"/>
<text text-anchor="middle" x="676.5" y="-754" font-family="Helvetica,sans-Serif" font-size="10.00">func_80028C44</text>
</a>
</g>
</g>
<!-- Node3&#45;&gt;Node16 -->
<g id="edge9_Node000003_Node000016" class="edge">
<title>Node3&#45;&gt;Node16</title>
<g id="a_edge9_Node000003_Node000016"><a xlink:title=" ">
<path fill="none" stroke="#63b8ff" d="M807.29,-697.43C787.09,-709.49 757.32,-726.39 730,-738.5 723.13,-741.55 715.57,-744.41 708.38,-746.91"/>
<polygon fill="#63b8ff" stroke="#63b8ff" points="809.36,-700.27 816.11,-692.1 805.74,-694.27 809.36,-700.27"/>
</a>
</g>
</g>
<!-- Node17 -->
<g id="Node000017" class="node">
<title>Node17</title>
<g id="a_Node000017"><a xlink:href="player__controller_8c.html#ae531f1b044d00354a79cb3f88b81fa12" target="_top" xlink:title=" ">
<polygon fill="white" stroke="#666666" points="723,-729 630,-729 630,-710 723,-710 723,-729"/>
<text text-anchor="middle" x="676.5" y="-717" font-family="Helvetica,sans-Serif" font-size="10.00">func_80028D3C</text>
</a>
</g>
</g>
<!-- Node3&#45;&gt;Node17 -->
<g id="edge11_Node000003_Node000017" class="edge">
<title>Node3&#45;&gt;Node17</title>
<g id="a_edge11_Node000003_Node000017"><a xlink:title=" ">
<path fill="none" stroke="#63b8ff" d="M781.87,-694.43C760.97,-699.44 736.99,-705.21 717.29,-709.94"/>
<polygon fill="#63b8ff" stroke="#63b8ff" points="782.94,-697.77 791.84,-692.03 781.3,-690.96 782.94,-697.77"/>
</a>
</g>
</g>
<!-- Node18 -->
<g id="Node000018" class="node">
<title>Node18</title>
<g id="a_Node000018"><a xlink:href="spawn__players_8c.html#a786871d4fec99acdd5a14b48c1c38a7c" target="_top" xlink:title=" ">
<polygon fill="white" stroke="#666666" points="723,-655 630,-655 630,-636 723,-636 723,-655"/>
<text text-anchor="middle" x="676.5" y="-643" font-family="Helvetica,sans-Serif" font-size="10.00">func_8003CD98</text>
</a>
</g>
</g>
<!-- Node3&#45;&gt;Node18 -->
<g id="edge13_Node000003_Node000018" class="edge">
<title>Node3&#45;&gt;Node18</title>
<g id="a_edge13_Node000003_Node000018"><a xlink:title=" ">
<path fill="none" stroke="#63b8ff" d="M781.87,-670.57C760.97,-665.56 736.99,-659.79 717.29,-655.06"/>
<polygon fill="#63b8ff" stroke="#63b8ff" points="781.3,-674.04 791.84,-672.97 782.94,-667.23 781.3,-674.04"/>
</a>
</g>
</g>
<!-- Node5 -->
<g id="Node000005" class="node">
<title>Node5</title>
<g id="a_Node000005"><a xlink:href="player__controller_8c.html#af9d8e2fa807dab2737045c3c2517a46e" target="_top" xlink:title=" ">
<polygon fill="white" stroke="#666666" points="576,-729 485,-729 485,-710 576,-710 576,-729"/>
<text text-anchor="middle" x="530.5" y="-717" font-family="Helvetica,sans-Serif" font-size="10.00">func_80028E70</text>
</a>
</g>
</g>
<!-- Node4&#45;&gt;Node5 -->
<g id="edge4_Node000004_Node000005" class="edge">
<title>Node4&#45;&gt;Node5</title>
<g id="a_edge4_Node000004_Node000005"><a xlink:title=" ">
<path fill="none" stroke="#63b8ff" d="M628.59,-694.55C609.27,-699.52 587.18,-705.19 568.96,-709.88"/>
<polygon fill="#63b8ff" stroke="#63b8ff" points="629.6,-697.91 638.42,-692.03 627.86,-691.13 629.6,-697.91"/>
</a>
</g>
</g>
<!-- Node6 -->
<g id="Node000006" class="node">
<title>Node6</title>
<g id="a_Node000006"><a xlink:href="player__controller_8c.html#a60b22a77aa4cf0b2be0942a3e115a1eb" target="_top" xlink:title=" ">
<polygon fill="#fff0f0" stroke="red" points="261.5,-743 170.5,-743 170.5,-724 261.5,-724 261.5,-743"/>
<text text-anchor="middle" x="216" y="-731" font-family="Helvetica,sans-Serif" font-size="10.00">func_80028F70</text>
</a>
</g>
</g>
<!-- Node5&#45;&gt;Node6 -->
<g id="edge5_Node000005_Node000006" class="edge">
<title>Node5&#45;&gt;Node6</title>
<g id="a_edge5_Node000005_Node000006"><a xlink:title=" ">
<path fill="none" stroke="#63b8ff" d="M482.36,-731.21C468.19,-734.21 452.55,-737.01 438,-738.5 376.1,-744.86 360.19,-740.42 298,-738.5 286.17,-738.14 273.38,-737.47 261.54,-736.74"/>
<polygon fill="#63b8ff" stroke="#63b8ff" points="483.36,-734.57 492.37,-729.01 481.86,-727.74 483.36,-734.57"/>
</a>
</g>
</g>
<!-- Node14 -->
<g id="Node000014" class="node">
<title>Node14</title>
<g id="a_Node000014"><a xlink:href="player__controller_8c.html#ac7bf3fa7a7efacb6f6bad44477c2c7ed" target="_top" xlink:title=" ">
<polygon fill="#fff0f0" stroke="red" points="413.5,-729 322.5,-729 322.5,-710 413.5,-710 413.5,-729"/>
<text text-anchor="middle" x="368" y="-717" font-family="Helvetica,sans-Serif" font-size="10.00">func_80029060</text>
</a>
</g>
</g>
<!-- Node5&#45;&gt;Node14 -->
<g id="edge7_Node000005_Node000014" class="edge">
<title>Node5&#45;&gt;Node14</title>
<g id="a_edge7_Node000005_Node000014"><a xlink:title=" ">
<path fill="none" stroke="#63b8ff" d="M474.65,-719.5C454.8,-719.5 432.63,-719.5 413.75,-719.5"/>
<polygon fill="#63b8ff" stroke="#63b8ff" points="474.79,-723 484.79,-719.5 474.79,-716 474.79,-723"/>
</a>
</g>
</g>
<!-- Node15 -->
<g id="Node000015" class="node">
<title>Node15</title>
<g id="a_Node000015"><a xlink:href="player__controller_8c.html#a31f653813b5697d0af1bb9c16cdc4c76" target="_top" xlink:title=" ">
<polygon fill="#fff0f0" stroke="red" points="413.5,-692 322.5,-692 322.5,-673 413.5,-673 413.5,-692"/>
<text text-anchor="middle" x="368" y="-680" font-family="Helvetica,sans-Serif" font-size="10.00">func_80029158</text>
</a>
</g>
</g>
<!-- Node5&#45;&gt;Node15 -->
<g id="edge8_Node000005_Node000015" class="edge">
<title>Node5&#45;&gt;Node15</title>
<g id="a_edge8_Node000005_Node000015"><a xlink:title=" ">
<path fill="none" stroke="#63b8ff" d="M478.36,-707.71C456.45,-702.66 431.19,-696.84 410.47,-692.06"/>
<polygon fill="#63b8ff" stroke="#63b8ff" points="477.64,-711.14 488.17,-709.97 479.21,-704.31 477.64,-711.14"/>
</a>
</g>
</g>
<!-- Node7 -->
<g id="Node000007" class="node">
<title>Node7</title>
<g id="a_Node000007"><a xlink:href="podium__ceremony__actors_8c.html#a7ea229c65f264670fc828b95e8321154" target="_top" xlink:title=" ">
<polygon fill="#fff0f0" stroke="red" points="134,-720 0,-720 0,-701 134,-701 134,-720"/>
<text text-anchor="middle" x="67" y="-708" font-family="Helvetica,sans-Serif" font-size="10.00">podium_ceremony_loop</text>
</a>
</g>
</g>
<!-- Node6&#45;&gt;Node7 -->
<g id="edge6_Node000006_Node000007" class="edge">
<title>Node6&#45;&gt;Node7</title>
<g id="a_edge6_Node000006_Node000007"><a xlink:title=" ">
<path fill="none" stroke="#63b8ff" d="M160.43,-724.96C150.16,-723.35 139.35,-721.66 128.9,-720.03"/>
<polygon fill="#63b8ff" stroke="#63b8ff" points="160.08,-728.45 170.5,-726.54 161.16,-721.53 160.08,-728.45"/>
</a>
</g>
</g>
<!-- Node16&#45;&gt;Node5 -->
<g id="edge10_Node000016_Node000005" class="edge">
<title>Node16&#45;&gt;Node5</title>
<g id="a_edge10_Node000016_Node000005"><a xlink:title=" ">
<path fill="none" stroke="#63b8ff" d="M628.59,-744.45C609.27,-739.48 587.18,-733.81 568.96,-729.12"/>
<polygon fill="#63b8ff" stroke="#63b8ff" points="627.86,-747.87 638.42,-746.97 629.6,-741.09 627.86,-747.87"/>
</a>
</g>
</g>
<!-- Node17&#45;&gt;Node5 -->
<g id="edge12_Node000017_Node000005" class="edge">
<title>Node17&#45;&gt;Node5</title>
<g id="a_edge12_Node000017_Node000005"><a xlink:title=" ">
<path fill="none" stroke="#63b8ff" d="M619.66,-719.5C605.29,-719.5 590.01,-719.5 576.27,-719.5"/>
<polygon fill="#63b8ff" stroke="#63b8ff" points="619.94,-723 629.94,-719.5 619.94,-716 619.94,-723"/>
</a>
</g>
</g>
<!-- Node19 -->
<g id="Node000019" class="node">
<title>Node19</title>
<g id="a_Node000019"><a xlink:href="spawn__players_8c.html#ac1a9412b931cfa517a2382c2fc605399" target="_top" xlink:title=" ">
<polygon fill="white" stroke="#666666" points="576.5,-665 484.5,-665 484.5,-646 576.5,-646 576.5,-665"/>
<text text-anchor="middle" x="530.5" y="-653" font-family="Helvetica,sans-Serif" font-size="10.00">func_8003D080</text>
</a>
</g>
</g>
<!-- Node18&#45;&gt;Node19 -->
<g id="edge14_Node000018_Node000019" class="edge">
<title>Node18&#45;&gt;Node19</title>
<g id="a_edge14_Node000018_Node000019"><a xlink:title=" ">
<path fill="none" stroke="#63b8ff" d="M619.77,-649.37C605.53,-650.36 590.4,-651.41 576.77,-652.36"/>
<polygon fill="#63b8ff" stroke="#63b8ff" points="620.2,-652.85 629.94,-648.66 619.72,-645.87 620.2,-652.85"/>
</a>
</g>
</g>
<!-- Node20 -->
<g id="Node000020" class="node">
<title>Node20</title>
<g id="a_Node000020"><a xlink:href="code__80281780_8c.html#af227cfd0f1fd3d6adbe9a29ad59b4dc8" target="_top" xlink:title=" ">
<polygon fill="#fff0f0" stroke="red" points="438,-655 298,-655 298,-636 438,-636 438,-655"/>
<text text-anchor="middle" x="368" y="-643" font-family="Helvetica,sans-Serif" font-size="10.00">load_ceremony_cutscene</text>
</a>
</g>
</g>
<!-- Node19&#45;&gt;Node20 -->
<g id="edge15_Node000019_Node000020" class="edge">
<title>Node19&#45;&gt;Node20</title>
<g id="a_edge15_Node000019_Node000020"><a xlink:title=" ">
<path fill="none" stroke="#63b8ff" d="M474.34,-652.06C462.66,-651.34 450.2,-650.56 438.09,-649.8"/>
<polygon fill="#63b8ff" stroke="#63b8ff" points="474.17,-655.56 484.36,-652.69 474.6,-648.57 474.17,-655.56"/>
</a>
</g>
</g>
<!-- Node22 -->
<g id="Node000022" class="node">
<title>Node22</title>
<g id="a_Node000022"><a xlink:href="code__800029B0_8c.html#aca6165112fc92e65ad6477e785a7098c" target="_top" xlink:title=" ">
<polygon fill="#fff0f0" stroke="red" points="403,-604 333,-604 333,-585 403,-585 403,-604"/>
<text text-anchor="middle" x="368" y="-592" font-family="Helvetica,sans-Serif" font-size="10.00">setup_race</text>
</a>
</g>
</g>
<!-- Node19&#45;&gt;Node22 -->
<g id="edge16_Node000019_Node000022" class="edge">
<title>Node19&#45;&gt;Node22</title>
<g id="a_edge16_Node000019_Node000022"><a xlink:title=" ">
<path fill="none" stroke="#63b8ff" d="M488.94,-642.73C483.89,-641.03 478.81,-639.26 474,-637.5 444.96,-626.86 412.05,-613.1 390.93,-604.05"/>
<polygon fill="#63b8ff" stroke="#63b8ff" points="487.94,-646.09 498.53,-645.91 490.14,-639.45 487.94,-646.09"/>
</a>
</g>
</g>
<!-- Node24 -->
<g id="Node000024" class="node">
<title>Node24</title>
<g id="a_Node000024"><a xlink:href="code__80071F00_8c.html#ab59d664459c7dc576a2f0a80b9af8570" target="_top" xlink:title=" ">
<polygon fill="white" stroke="#666666" points="878.5,-373 786.5,-373 786.5,-354 878.5,-354 878.5,-373"/>
<text text-anchor="middle" x="832.5" y="-361" font-family="Helvetica,sans-Serif" font-size="10.00">func_8007A060</text>
</a>
</g>
</g>
<!-- Node23&#45;&gt;Node24 -->
<g id="edge18_Node000023_Node000024" class="edge">
<title>Node23&#45;&gt;Node24</title>
<g id="a_edge18_Node000023_Node000024"><a xlink:title=" ">
<path fill="none" stroke="#63b8ff" d="M925.96,-351.55C910.38,-353.56 893.57,-355.74 878.61,-357.67"/>
<polygon fill="#63b8ff" stroke="#63b8ff" points="926.53,-355.01 936,-350.25 925.63,-348.06 926.53,-355.01"/>
</a>
</g>
</g>
<!-- Node31 -->
<g id="Node000031" class="node">
<title>Node31</title>
<g id="a_Node000031"><a xlink:href="code__80071F00_8c.html#a9f78e04615c59441a93a159a0bf74046" target="_top" xlink:title=" ">
<polygon fill="white" stroke="#666666" points="878.5,-336 786.5,-336 786.5,-317 878.5,-317 878.5,-336"/>
<text text-anchor="middle" x="832.5" y="-324" font-family="Helvetica,sans-Serif" font-size="10.00">func_8007A228</text>
</a>
</g>
</g>
<!-- Node23&#45;&gt;Node31 -->
<g id="edge25_Node000023_Node000031" class="edge">
<title>Node23&#45;&gt;Node31</title>
<g id="a_edge25_Node000023_Node000031"><a xlink:title=" ">
<path fill="none" stroke="#63b8ff" d="M925.96,-337.82C910.38,-335.91 893.57,-333.86 878.61,-332.02"/>
<polygon fill="#63b8ff" stroke="#63b8ff" points="925.64,-341.31 936,-339.05 926.5,-334.36 925.64,-341.31"/>
</a>
</g>
</g>
<!-- Node33 -->
<g id="Node000033" class="node">
<title>Node33</title>
<g id="a_Node000033"><a xlink:href="code__80071F00_8c.html#a74149ceaded001eab8591bb184ab9cff" target="_top" xlink:title=" ">
<polygon fill="white" stroke="#666666" points="878.5,-262 786.5,-262 786.5,-243 878.5,-243 878.5,-262"/>
<text text-anchor="middle" x="832.5" y="-250" font-family="Helvetica,sans-Serif" font-size="10.00">func_8007A3F0</text>
</a>
</g>
</g>
<!-- Node23&#45;&gt;Node33 -->
<g id="edge28_Node000023_Node000033" class="edge">
<title>Node23&#45;&gt;Node33</title>
<g id="a_edge28_Node000023_Node000033"><a xlink:title=" ">
<path fill="none" stroke="#63b8ff" d="M965.47,-327.12C950.26,-310.57 925.31,-286.09 899,-271.5 892.17,-267.71 884.5,-264.61 876.89,-262.1"/>
<polygon fill="#63b8ff" stroke="#63b8ff" points="963.2,-329.84 972.48,-334.95 968.42,-325.17 963.2,-329.84"/>
</a>
</g>
</g>
<!-- Node35 -->
<g id="Node000035" class="node">
<title>Node35</title>
<g id="a_Node000035"><a xlink:href="code__80071F00_8c.html#a4c0bbd2e6f29694aeabe3d75a4b3fcd6" target="_top" xlink:title=" ">
<polygon fill="white" stroke="#666666" points="899,-299 766,-299 766,-280 899,-280 899,-299"/>
<text text-anchor="middle" x="832.5" y="-287" font-family="Helvetica,sans-Serif" font-size="10.00">init_obj_laikitu_red_flag</text>
</a>
</g>
</g>
<!-- Node23&#45;&gt;Node35 -->
<g id="edge31_Node000023_Node000035" class="edge">
<title>Node23&#45;&gt;Node35</title>
<g id="a_edge31_Node000023_Node000035"><a xlink:title=" ">
<path fill="none" stroke="#63b8ff" d="M951.24,-330.44C935.89,-323.35 916.65,-314.92 899,-308.5 889.65,-305.1 879.39,-301.88 869.82,-299.1"/>
<polygon fill="#63b8ff" stroke="#63b8ff" points="950.17,-333.8 960.71,-334.87 953.13,-327.46 950.17,-333.8"/>
</a>
</g>
</g>
<!-- Node37 -->
<g id="Node000037" class="node">
<title>Node37</title>
<g id="a_Node000037"><a xlink:href="code__80071F00_8c.html#aff60ff5dc448df9a93e48b0a3459b673" target="_top" xlink:title=" ">
<polygon fill="white" stroke="#666666" points="887.5,-421.5 777.5,-421.5 777.5,-391.5 887.5,-391.5 887.5,-421.5"/>
<text text-anchor="start" x="785.5" y="-409.5" font-family="Helvetica,sans-Serif" font-size="10.00">init_obj_laikitu_red</text>
<text text-anchor="middle" x="832.5" y="-398.5" font-family="Helvetica,sans-Serif" font-size="10.00">_flag_fishing</text>
</a>
</g>
</g>
<!-- Node23&#45;&gt;Node37 -->
<g id="edge34_Node000023_Node000037" class="edge">
<title>Node23&#45;&gt;Node37</title>
<g id="a_edge34_Node000023_Node000037"><a xlink:title=" ">
<path fill="none" stroke="#63b8ff" d="M952.18,-358.43C936.63,-365.89 916.91,-375.06 899,-382.5 891.73,-385.52 883.93,-388.55 876.34,-391.4"/>
<polygon fill="#63b8ff" stroke="#63b8ff" points="953.8,-361.53 961.28,-354.03 950.75,-355.23 953.8,-361.53"/>
</a>
</g>
</g>
<!-- Node25 -->
<g id="Node000025" class="node">
<title>Node25</title>
<g id="a_Node000025"><a xlink:href="code__80071F00_8c.html#a87c850e95b8ce92a470f78536fa03b6d" target="_top" xlink:title=" ">
<polygon fill="white" stroke="#666666" points="730,-394.5 623,-394.5 623,-364.5 730,-364.5 730,-394.5"/>
<text text-anchor="start" x="631" y="-382.5" font-family="Helvetica,sans-Serif" font-size="10.00">update_obj_laikitu</text>
<text text-anchor="middle" x="676.5" y="-371.5" font-family="Helvetica,sans-Serif" font-size="10.00">_second_lap</text>
</a>
</g>
</g>
<!-- Node24&#45;&gt;Node25 -->
<g id="edge19_Node000024_Node000025" class="edge">
<title>Node24&#45;&gt;Node25</title>
<g id="a_edge19_Node000024_Node000025"><a xlink:title=" ">
<path fill="none" stroke="#63b8ff" d="M776,-369.27C761.05,-370.82 744.92,-372.5 730.13,-374.03"/>
<polygon fill="#63b8ff" stroke="#63b8ff" points="776.54,-372.73 786.13,-368.21 775.82,-365.77 776.54,-372.73"/>
</a>
</g>
</g>
<!-- Node26 -->
<g id="Node000026" class="node">
<title>Node26</title>
<g id="a_Node000026"><a xlink:href="code__80071F00_8c.html#acf901985295d306e8918b07b89422230" target="_top" xlink:title=" ">
<polygon fill="white" stroke="#666666" points="584,-389 477,-389 477,-370 584,-370 584,-389"/>
<text text-anchor="middle" x="530.5" y="-377" font-family="Helvetica,sans-Serif" font-size="10.00">update_obj_laikitu</text>
</a>
</g>
</g>
<!-- Node25&#45;&gt;Node26 -->
<g id="edge20_Node000025_Node000026" class="edge">
<title>Node25&#45;&gt;Node26</title>
<g id="a_edge20_Node000025_Node000026"><a xlink:title=" ">
<path fill="none" stroke="#63b8ff" d="M612.57,-379.5C603.14,-379.5 593.49,-379.5 584.3,-379.5"/>
<polygon fill="#63b8ff" stroke="#63b8ff" points="612.7,-383 622.7,-379.5 612.7,-376 612.7,-383"/>
</a>
</g>
</g>
<!-- Node27 -->
<g id="Node000027" class="node">
<title>Node27</title>
<g id="a_Node000027"><a xlink:href="code__80057C60_8c.html#ad9abd1f78c8153b6eb41db7e6378a78c" target="_top" xlink:title=" ">
<polygon fill="white" stroke="#666666" points="414,-515 322,-515 322,-496 414,-496 414,-515"/>
<text text-anchor="middle" x="368" y="-503" font-family="Helvetica,sans-Serif" font-size="10.00">func_80059A88</text>
</a>
</g>
</g>
<!-- Node26&#45;&gt;Node27 -->
<g id="edge21_Node000026_Node000027" class="edge">
<title>Node26&#45;&gt;Node27</title>
<g id="a_edge21_Node000026_Node000027"><a xlink:title=" ">
<path fill="none" stroke="#63b8ff" d="M508.92,-395.66C475.02,-422.27 408.47,-474.51 381.15,-495.96"/>
<polygon fill="#63b8ff" stroke="#63b8ff" points="511.47,-398.11 517.17,-389.18 507.15,-392.6 511.47,-398.11"/>
</a>
</g>
</g>
<!-- Node28 -->
<g id="Node000028" class="node">
<title>Node28</title>
<g id="a_Node000028"><a xlink:href="code__80057C60_8c.html#ae61bd9f49508d924387c00845cae4060" target="_top" xlink:title=" ">
<polygon fill="#fff0f0" stroke="red" points="262,-627 170,-627 170,-608 262,-608 262,-627"/>
<text text-anchor="middle" x="216" y="-615" font-family="Helvetica,sans-Serif" font-size="10.00">func_80059AC8</text>
</a>
</g>
</g>
<!-- Node27&#45;&gt;Node28 -->
<g id="edge22_Node000027_Node000028" class="edge">
<title>Node27&#45;&gt;Node28</title>
<g id="a_edge22_Node000027_Node000028"><a xlink:title=" ">
<path fill="none" stroke="#63b8ff" d="M346.08,-521.12C314.51,-544.69 255.63,-588.65 229.76,-607.98"/>
<polygon fill="#63b8ff" stroke="#63b8ff" points="348.29,-523.84 354.21,-515.05 344.1,-518.23 348.29,-523.84"/>
</a>
</g>
</g>
<!-- Node28&#45;&gt;Node7 -->
<g id="edge24_Node000028_Node000007" class="edge">
<title>Node28&#45;&gt;Node7</title>
<g id="a_edge24_Node000028_Node000007"><a xlink:title=" ">
<path fill="none" stroke="#63b8ff" d="M191.11,-632.61C160.67,-651.87 108.94,-684.6 83.32,-700.81"/>
<polygon fill="#63b8ff" stroke="#63b8ff" points="193.24,-635.41 199.82,-627.1 189.5,-629.49 193.24,-635.41"/>
</a>
</g>
</g>
<!-- Node29 -->
<g id="Node000029" class="node">
<title>Node29</title>
<g id="a_Node000029"><a xlink:href="code__80280000_8c.html#a4d9b0156b64d7a67e4cb21cde391ca43" target="_top" xlink:title=" ">
<polygon fill="#fff0f0" stroke="red" points="112.5,-627 21.5,-627 21.5,-608 112.5,-608 112.5,-627"/>
<text text-anchor="middle" x="67" y="-615" font-family="Helvetica,sans-Serif" font-size="10.00">func_80280000</text>
</a>
</g>
</g>
<!-- Node28&#45;&gt;Node29 -->
<g id="edge23_Node000028_Node000029" class="edge">
<title>Node28&#45;&gt;Node29</title>
<g id="a_edge23_Node000028_Node000029"><a xlink:title=" ">
<path fill="none" stroke="#63b8ff" d="M159.69,-617.5C144.16,-617.5 127.47,-617.5 112.65,-617.5"/>
<polygon fill="#63b8ff" stroke="#63b8ff" points="159.7,-621 169.7,-617.5 159.7,-614 159.7,-621"/>
</a>
</g>
</g>
<!-- Node32 -->
<g id="Node000032" class="node">
<title>Node32</title>
<g id="a_Node000032"><a xlink:href="code__80071F00_8c.html#a572628bf81852f60ec2406fc193c0084" target="_top" xlink:title=" ">
<polygon fill="white" stroke="#666666" points="730,-346.5 623,-346.5 623,-316.5 730,-316.5 730,-346.5"/>
<text text-anchor="start" x="631" y="-334.5" font-family="Helvetica,sans-Serif" font-size="10.00">update_obj_laikitu</text>
<text text-anchor="middle" x="676.5" y="-323.5" font-family="Helvetica,sans-Serif" font-size="10.00">_final_lap</text>
</a>
</g>
</g>
<!-- Node31&#45;&gt;Node32 -->
<g id="edge26_Node000031_Node000032" class="edge">
<title>Node31&#45;&gt;Node32</title>
<g id="a_edge26_Node000031_Node000032"><a xlink:title=" ">
<path fill="none" stroke="#63b8ff" d="M776,-328.3C761.05,-328.79 744.92,-329.31 730.13,-329.79"/>
<polygon fill="#63b8ff" stroke="#63b8ff" points="776.25,-331.8 786.13,-327.97 776.02,-324.8 776.25,-331.8"/>
</a>
</g>
</g>
<!-- Node32&#45;&gt;Node26 -->
<g id="edge27_Node000032_Node000026" class="edge">
<title>Node32&#45;&gt;Node26</title>
<g id="a_edge27_Node000032_Node000026"><a xlink:title=" ">
<path fill="none" stroke="#63b8ff" d="M620.72,-349.76C600.11,-356.63 577.5,-364.17 560.19,-369.94"/>
<polygon fill="#63b8ff" stroke="#63b8ff" points="621.95,-353.04 630.33,-346.56 619.74,-346.4 621.95,-353.04"/>
</a>
</g>
</g>
<!-- Node33&#45;&gt;Node34 -->
<g id="edge29_Node000033_Node000034" class="edge">
<title>Node33&#45;&gt;Node34</title>
<g id="a_edge29_Node000033_Node000034"><a xlink:title=" ">
<path fill="none" stroke="#63b8ff" d="M776,-246.37C761.05,-244.72 744.92,-242.94 730.13,-241.31"/>
<polygon fill="#63b8ff" stroke="#63b8ff" points="775.8,-249.87 786.13,-247.49 776.57,-242.92 775.8,-249.87"/>
</a>
</g>
</g>
<!-- Node34&#45;&gt;Node26 -->
<g id="edge30_Node000034_Node000026" class="edge">
<title>Node34&#45;&gt;Node26</title>
<g id="a_edge30_Node000034_Node000026"><a xlink:title=" ">
<path fill="none" stroke="#63b8ff" d="M627.87,-255.92C626.19,-257.06 624.56,-258.26 623,-259.5 581.86,-292.37 548.91,-347.6 536.66,-369.81"/>
<polygon fill="#63b8ff" stroke="#63b8ff" points="629.92,-258.77 636.65,-250.59 626.28,-252.79 629.92,-258.77"/>
</a>
</g>
</g>
<!-- Node36 -->
<g id="Node000036" class="node">
<title>Node36</title>
<g id="a_Node000036"><a xlink:href="code__80071F00_8c.html#ae7f8dfe22bb50d09d8b21fa8ce95fd81" target="_top" xlink:title=" ">
<polygon fill="white" stroke="#666666" points="730,-298.5 623,-298.5 623,-268.5 730,-268.5 730,-298.5"/>
<text text-anchor="start" x="631" y="-286.5" font-family="Helvetica,sans-Serif" font-size="10.00">update_obj_laikitu</text>
<text text-anchor="middle" x="676.5" y="-275.5" font-family="Helvetica,sans-Serif" font-size="10.00">_red_flag</text>
</a>
</g>
</g>
<!-- Node35&#45;&gt;Node36 -->
<g id="edge32_Node000035_Node000036" class="edge">
<title>Node35&#45;&gt;Node36</title>
<g id="a_edge32_Node000035_Node000036"><a xlink:title=" ">
<path fill="none" stroke="#63b8ff" d="M755.61,-286.54C746.95,-286.21 738.27,-285.87 730.01,-285.55"/>
<polygon fill="#63b8ff" stroke="#63b8ff" points="755.61,-290.05 765.74,-286.94 755.89,-283.05 755.61,-290.05"/>
</a>
</g>
</g>
<!-- Node36&#45;&gt;Node26 -->
<g id="edge33_Node000036_Node000026" class="edge">
<title>Node36&#45;&gt;Node26</title>
<g id="a_edge33_Node000036_Node000026"><a xlink:title=" ">
<path fill="none" stroke="#63b8ff" d="M630.61,-303.14C628,-304.55 625.45,-306.01 623,-307.5 591.42,-326.76 558.23,-355.28 541.87,-369.97"/>
<polygon fill="#63b8ff" stroke="#63b8ff" points="632.31,-306.2 639.61,-298.52 629.11,-299.97 632.31,-306.2"/>
</a>
</g>
</g>
<!-- Node37&#45;&gt;Node38 -->
<g id="edge35_Node000037_Node000038" class="edge">
<title>Node37&#45;&gt;Node38</title>
<g id="a_edge35_Node000037_Node000038"><a xlink:title=" ">
<path fill="none" stroke="#63b8ff" d="M788.32,-425.85C763.92,-436.78 733.87,-450.24 711.22,-460.39"/>
<polygon fill="#63b8ff" stroke="#63b8ff" points="790.01,-428.93 797.7,-421.64 787.15,-422.54 790.01,-428.93"/>
</a>
</g>
</g>
<!-- Node37&#45;&gt;Node39 -->
<g id="edge37_Node000037_Node000039" class="edge">
<title>Node37&#45;&gt;Node39</title>
<g id="a_edge37_Node000037_Node000039"><a xlink:title=" ">
<path fill="none" stroke="#63b8ff" d="M766.99,-415.3C754.66,-416.98 741.9,-418.72 730.01,-420.34"/>
<polygon fill="#63b8ff" stroke="#63b8ff" points="767.77,-418.72 777.21,-413.9 766.82,-411.79 767.77,-418.72"/>
</a>
</g>
</g>
<!-- Node38&#45;&gt;Node26 -->
<g id="edge36_Node000038_Node000026" class="edge">
<title>Node38&#45;&gt;Node26</title>
<g id="a_edge36_Node000038_Node000026"><a xlink:title=" ">
<path fill="none" stroke="#63b8ff" d="M630.61,-455.86C628,-454.45 625.45,-452.99 623,-451.5 591.42,-432.24 558.23,-403.72 541.87,-389.03"/>
<polygon fill="#63b8ff" stroke="#63b8ff" points="629.11,-459.03 639.61,-460.48 632.31,-452.8 629.11,-459.03"/>
</a>
</g>
</g>
<!-- Node39&#45;&gt;Node26 -->
<g id="edge38_Node000039_Node000026" class="edge">
<title>Node39&#45;&gt;Node26</title>
<g id="a_edge38_Node000039_Node000026"><a xlink:title=" ">
<path fill="none" stroke="#63b8ff" d="M620.72,-409.24C600.11,-402.37 577.5,-394.83 560.19,-389.06"/>
<polygon fill="#63b8ff" stroke="#63b8ff" points="619.74,-412.6 630.33,-412.44 621.95,-405.96 619.74,-412.6"/>
</a>
</g>
</g>
<!-- Node41 -->
<g id="Node000041" class="node">
<title>Node41</title>
<g id="a_Node000041"><a xlink:href="code__80071F00_8c.html#a27faa4eb96ab70626a1c06e2189417fb" target="_top" xlink:title=" ">
<polygon fill="white" stroke="#666666" points="577,-515 484,-515 484,-496 577,-496 577,-515"/>
<text text-anchor="middle" x="530.5" y="-503" font-family="Helvetica,sans-Serif" font-size="10.00">func_8007BB9C</text>
</a>
</g>
</g>
<!-- Node40&#45;&gt;Node41 -->
<g id="edge40_Node000040_Node000041" class="edge">
<title>Node40&#45;&gt;Node41</title>
<g id="a_edge40_Node000040_Node000041"><a xlink:title=" ">
<path fill="none" stroke="#63b8ff" d="M925.16,-523.03C835.53,-519.04 660.29,-511.24 577.25,-507.54"/>
<polygon fill="#63b8ff" stroke="#63b8ff" points="925.25,-526.54 935.39,-523.49 925.56,-519.55 925.25,-526.54"/>
</a>
</g>
</g>
<!-- Node41&#45;&gt;Node27 -->
<g id="edge41_Node000041_Node000027" class="edge">
<title>Node41&#45;&gt;Node27</title>
<g id="a_edge41_Node000041_Node000027"><a xlink:title=" ">
<path fill="none" stroke="#63b8ff" d="M473.67,-505.5C454.2,-505.5 432.61,-505.5 414.12,-505.5"/>
<polygon fill="#63b8ff" stroke="#63b8ff" points="473.94,-509 483.94,-505.5 473.94,-502 473.94,-509"/>
</a>
</g>
</g>
<!-- Node44 -->
<g id="Node000044" class="node">
<title>Node44</title>
<g id="a_Node000044"><a xlink:href="external_8c.html#aebe0a7e33d0961a0ad7e4ba40a49a032" target="_top" xlink:title=" ">
<polygon fill="white" stroke="#666666" points="879.5,-605 785.5,-605 785.5,-586 879.5,-586 879.5,-605"/>
<text text-anchor="middle" x="832.5" y="-593" font-family="Helvetica,sans-Serif" font-size="10.00">func_800C8CCC</text>
</a>
</g>
</g>
<!-- Node43&#45;&gt;Node44 -->
<g id="edge44_Node000043_Node000044" class="edge">
<title>Node43&#45;&gt;Node44</title>
<g id="a_edge44_Node000043_Node000044"><a xlink:title=" ">
<path fill="none" stroke="#63b8ff" d="M936.6,-624.26C914.54,-618.1 888.2,-610.76 867.66,-605.03"/>
<polygon fill="#63b8ff" stroke="#63b8ff" points="935.83,-627.68 946.41,-626.99 937.71,-620.93 935.83,-627.68"/>
</a>
</g>
</g>
<!-- Node45 -->
<g id="Node000045" class="node">
<title>Node45</title>
<g id="a_Node000045"><a xlink:href="external_8c.html#a12c3e6c147828cc102e748904808ea4a" target="_top" xlink:title=" ">
<polygon fill="white" stroke="#666666" points="723,-600 630,-600 630,-581 723,-581 723,-600"/>
<text text-anchor="middle" x="676.5" y="-588" font-family="Helvetica,sans-Serif" font-size="10.00">func_800CB2C4</text>
</a>
</g>
</g>
<!-- Node44&#45;&gt;Node45 -->
<g id="edge45_Node000044_Node000045" class="edge">
<title>Node44&#45;&gt;Node45</title>
<g id="a_edge45_Node000044_Node000045"><a xlink:title=" ">
<path fill="none" stroke="#63b8ff" d="M774.9,-593.66C757.86,-593.11 739.38,-592.51 723.14,-591.98"/>
<polygon fill="#63b8ff" stroke="#63b8ff" points="775.19,-597.17 785.29,-594 775.41,-590.18 775.19,-597.17"/>
</a>
</g>
</g>
<!-- Node45&#45;&gt;Node22 -->
<g id="edge47_Node000045_Node000022" class="edge">
<title>Node45&#45;&gt;Node22</title>
<g id="a_edge47_Node000045_Node000022"><a xlink:title=" ">
<path fill="none" stroke="#63b8ff" d="M619.78,-591.23C556.71,-592.05 455.93,-593.37 403.39,-594.05"/>
<polygon fill="#63b8ff" stroke="#63b8ff" points="619.99,-594.72 629.94,-591.09 619.9,-587.73 619.99,-594.72"/>
</a>
</g>
</g>
<!-- Node46 -->
<g id="Node000046" class="node">
<title>Node46</title>
<g id="a_Node000046"><a xlink:href="menus_8c.html#a7e237b5fa61d543f8aedfd821d4aa48b" target="_top" xlink:title=" ">
<polygon fill="#fff0f0" stroke="red" points="576.5,-552 484.5,-552 484.5,-533 576.5,-533 576.5,-552"/>
<text text-anchor="middle" x="530.5" y="-540" font-family="Helvetica,sans-Serif" font-size="10.00">func_800B3F74</text>
</a>
</g>
</g>
<!-- Node45&#45;&gt;Node46 -->
<g id="edge46_Node000045_Node000046" class="edge">
<title>Node45&#45;&gt;Node46</title>
<g id="a_edge46_Node000045_Node000046"><a xlink:title=" ">
<path fill="none" stroke="#63b8ff" d="M637.13,-577.71C612.98,-569.66 582.31,-559.44 560.24,-552.08"/>
<polygon fill="#63b8ff" stroke="#63b8ff" points="636.11,-581.06 646.71,-580.9 638.33,-574.42 636.11,-581.06"/>
</a>
</g>
</g>
<!-- Node9 -->
<g id="Node000009" class="node">
<title>Node9</title>
<g id="a_Node000009"><a xlink:href="main_8c.html#a633ed517e458daeb768f5361895dcac9" target="_top" xlink:title=" ">
<polygon fill="#fff0f0" stroke="red" points="587,-628 474,-628 474,-609 587,-609 587,-628"/>
<text text-anchor="middle" x="530.5" y="-616" font-family="Helvetica,sans-Serif" font-size="10.00">thread5_game_loop</text>
</a>
</g>
</g>
<!-- Node45&#45;&gt;Node9 -->
<g id="edge48_Node000045_Node000009" class="edge">
<title>Node45&#45;&gt;Node9</title>
<g id="a_edge48_Node000045_Node000009"><a xlink:title=" ">
<path fill="none" stroke="#63b8ff" d="M619.75,-601.34C606.81,-603.86 593.13,-606.52 580.5,-608.97"/>
<polygon fill="#63b8ff" stroke="#63b8ff" points="620.79,-604.7 629.94,-599.36 619.45,-597.83 620.79,-604.7"/>
</a>
</g>
</g>
<!-- Node54&#45;&gt;Node44 -->
<g id="edge50_Node000054_Node000044" class="edge">
<title>Node54&#45;&gt;Node44</title>
<g id="a_edge50_Node000054_Node000044"><a xlink:title=" ">
<path fill="none" stroke="#63b8ff" d="M925.04,-597.99C910.08,-597.58 894.06,-597.15 879.67,-596.76"/>
<polygon fill="#63b8ff" stroke="#63b8ff" points="925.1,-601.49 935.2,-598.27 925.29,-594.5 925.1,-601.49"/>
</a>
</g>
</g>
<!-- Node55&#45;&gt;Node44 -->
<g id="edge52_Node000055_Node000044" class="edge">
<title>Node55&#45;&gt;Node44</title>
<g id="a_edge52_Node000055_Node000044"><a xlink:title=" ">
<path fill="none" stroke="#63b8ff" d="M928.13,-574.26C911.01,-578.1 892.22,-582.32 875.92,-585.98"/>
<polygon fill="#63b8ff" stroke="#63b8ff" points="928.99,-577.65 937.98,-572.04 927.46,-570.82 928.99,-577.65"/>
</a>
</g>
</g>
<!-- Node57 -->
<g id="Node000057" class="node">
<title>Node57</title>
<g id="a_Node000057"><a xlink:href="effects_8c.html#ab044d6f7bf1cacf740cf0a27ea0902b5" target="_top" xlink:title=" ">
<polygon fill="white" stroke="#666666" points="883,-74 782,-74 782,-55 883,-55 883,-74"/>
<text text-anchor="middle" x="832.5" y="-62" font-family="Helvetica,sans-Serif" font-size="10.00">apply_star_effect</text>
</a>
</g>
</g>
<!-- Node56&#45;&gt;Node57 -->
<g id="edge54_Node000056_Node000057" class="edge">
<title>Node56&#45;&gt;Node57</title>
<g id="a_edge54_Node000056_Node000057"><a xlink:title=" ">
<path fill="none" stroke="#63b8ff" d="M924.88,-64.5C911.11,-64.5 896.45,-64.5 883,-64.5"/>
<polygon fill="#63b8ff" stroke="#63b8ff" points="925.2,-68 935.2,-64.5 925.2,-61 925.2,-68"/>
</a>
</g>
</g>
<!-- Node58 -->
<g id="Node000058" class="node">
<title>Node58</title>
<g id="a_Node000058"><a xlink:href="effects_8c.html#ae1bacd987d7f12fc5960f838a7dbe137" target="_top" xlink:title=" ">
<polygon fill="white" stroke="#666666" points="878.5,-37 786.5,-37 786.5,-18 878.5,-18 878.5,-37"/>
<text text-anchor="middle" x="832.5" y="-25" font-family="Helvetica,sans-Serif" font-size="10.00">func_8008F86C</text>
</a>
</g>
</g>
<!-- Node56&#45;&gt;Node58 -->
<g id="edge55_Node000056_Node000058" class="edge">
<title>Node56&#45;&gt;Node58</title>
<g id="a_edge55_Node000056_Node000058"><a xlink:title=" ">
<path fill="none" stroke="#63b8ff" d="M932.85,-52.51C912.97,-47.5 890.2,-41.77 871.48,-37.06"/>
<polygon fill="#63b8ff" stroke="#63b8ff" points="932.09,-55.92 942.64,-54.97 933.8,-49.14 932.09,-55.92"/>
</a>
</g>
</g>
<!-- Node59 -->
<g id="Node000059" class="node">
<title>Node59</title>
<g id="a_Node000059"><a xlink:href="effects_8c.html#a71c3c746ea434e798865e3256180ee0a" target="_top" xlink:title=" ">
<polygon fill="white" stroke="#666666" points="722,-56 631,-56 631,-37 722,-37 722,-56"/>
<text text-anchor="middle" x="676.5" y="-44" font-family="Helvetica,sans-Serif" font-size="10.00">func_8008F494</text>
</a>
</g>
</g>
<!-- Node58&#45;&gt;Node59 -->
<g id="edge56_Node000058_Node000059" class="edge">
<title>Node58&#45;&gt;Node59</title>
<g id="a_edge56_Node000058_Node000059"><a xlink:title=" ">
<path fill="none" stroke="#63b8ff" d="M775.92,-34.36C758.2,-36.54 738.84,-38.93 722.02,-41.01"/>
<polygon fill="#63b8ff" stroke="#63b8ff" points="776.63,-37.8 786.13,-33.1 775.77,-30.85 776.63,-37.8"/>
</a>
</g>
</g>
<!-- Node60 -->
<g id="Node000060" class="node">
<title>Node60</title>
<g id="a_Node000060"><a xlink:href="effects_8c.html#a17332237b5c2a4249328a35071e23bf7" target="_top" xlink:title=" ">
<polygon fill="white" stroke="#666666" points="722,-19 631,-19 631,0 722,0 722,-19"/>
<text text-anchor="middle" x="676.5" y="-7" font-family="Helvetica,sans-Serif" font-size="10.00">func_80090778</text>
</a>
</g>
</g>
<!-- Node58&#45;&gt;Node60 -->
<g id="edge57_Node000058_Node000060" class="edge">
<title>Node58&#45;&gt;Node60</title>
<g id="a_edge57_Node000058_Node000060"><a xlink:title=" ">
<path fill="none" stroke="#63b8ff" d="M775.92,-21C758.2,-18.93 738.84,-16.67 722.02,-14.7"/>
<polygon fill="#63b8ff" stroke="#63b8ff" points="775.79,-24.51 786.13,-22.2 776.6,-17.56 775.79,-24.51"/>
</a>
</g>
</g>
<!-- Node61 -->
<g id="Node000061" class="node">
<title>Node61</title>
<g id="a_Node000061"><a xlink:href="effects_8c.html#afaeabb9e08b6568f56117c24edad5945" target="_top" xlink:title=" ">
<polygon fill="white" stroke="#666666" points="576,-19 485,-19 485,0 576,0 576,-19"/>
<text text-anchor="middle" x="530.5" y="-7" font-family="Helvetica,sans-Serif" font-size="10.00">func_8008F3F4</text>
</a>
</g>
</g>
<!-- Node60&#45;&gt;Node61 -->
<g id="edge58_Node000060_Node000061" class="edge">
<title>Node60&#45;&gt;Node61</title>
<g id="a_edge58_Node000060_Node000061"><a xlink:title=" ">
<path fill="none" stroke="#63b8ff" d="M620.32,-9.5C605.75,-9.5 590.19,-9.5 576.25,-9.5"/>
<polygon fill="#63b8ff" stroke="#63b8ff" points="620.73,-13 630.73,-9.5 620.73,-6 620.73,-13"/>
</a>
</g>
</g>
<!-- Node63 -->
<g id="Node000063" class="node">
<title>Node63</title>
<g id="a_Node000063"><a xlink:href="effects_8c.html#a0a426d7a6a86f3f43d2d48c0dba16a35" target="_top" xlink:title=" ">
<polygon fill="white" stroke="#666666" points="882.5,-111 782.5,-111 782.5,-92 882.5,-92 882.5,-111"/>
<text text-anchor="middle" x="832.5" y="-99" font-family="Helvetica,sans-Serif" font-size="10.00">apply_boo_effect</text>
</a>
</g>
</g>
<!-- Node62&#45;&gt;Node63 -->
<g id="edge60_Node000062_Node000063" class="edge">
<title>Node62&#45;&gt;Node63</title>
<g id="a_edge60_Node000062_Node000063"><a xlink:title=" ">
<path fill="none" stroke="#63b8ff" d="M932.85,-126.51C912.97,-121.5 890.2,-115.77 871.48,-111.06"/>
<polygon fill="#63b8ff" stroke="#63b8ff" points="932.09,-129.92 942.64,-128.97 933.8,-123.14 932.09,-129.92"/>
</a>
</g>
</g>
<!-- Node64 -->
<g id="Node000064" class="node">
<title>Node64</title>
<g id="a_Node000064"><a xlink:href="effects_8c.html#a46d8d97f33dcfea927972f9c9cb6ece4" target="_top" xlink:title=" ">
<polygon fill="white" stroke="#666666" points="878.5,-148 786.5,-148 786.5,-129 878.5,-129 878.5,-148"/>
<text text-anchor="middle" x="832.5" y="-136" font-family="Helvetica,sans-Serif" font-size="10.00">func_8008FB30</text>
</a>
</g>
</g>
<!-- Node62&#45;&gt;Node64 -->
<g id="edge61_Node000062_Node000064" class="edge">
<title>Node62&#45;&gt;Node64</title>
<g id="a_edge61_Node000062_Node000064"><a xlink:title=" ">
<path fill="none" stroke="#63b8ff" d="M924.84,-138.5C909.59,-138.5 893.24,-138.5 878.65,-138.5"/>
<polygon fill="#63b8ff" stroke="#63b8ff" points="925.2,-142 935.2,-138.5 925.2,-135 925.2,-142"/>
</a>
</g>
</g>
<!-- Node64&#45;&gt;Node42 -->
<g id="edge62_Node000064_Node000042" class="edge">
<title>Node64&#45;&gt;Node42</title>
<g id="a_edge62_Node000064_Node000042"><a xlink:title=" ">
<path fill="none" stroke="#63b8ff" d="M775.92,-145.36C758.2,-147.54 738.84,-149.93 722.02,-152.01"/>
<polygon fill="#63b8ff" stroke="#63b8ff" points="776.63,-148.8 786.13,-144.1 775.77,-141.85 776.63,-148.8"/>
</a>
</g>
</g>
</g>
</svg>
