<?xml version="1.0" encoding="UTF-8" standalone="no"?>
<!DOCTYPE svg PUBLIC "-//W3C//DTD SVG 1.1//EN"
 "http://www.w3.org/Graphics/SVG/1.1/DTD/svg11.dtd">
<!-- Generated by graphviz version 2.43.0 (0)
 -->
<!-- Title: func_800C8F80 Pages: 1 -->
<!--zoomable 381 -->

<svg id="main" version="1.1" xmlns="http://www.w3.org/2000/svg" xmlns:xlink="http://www.w3.org/1999/xlink" xml:space="preserve" onload="init(evt)">
<style type="text/css"><![CDATA[
.node, .edge {opacity: 0.7;}
.node.selected, .edge.selected {opacity: 1;}
.edge:hover path { stroke: red; }
.edge:hover polygon { stroke: red; fill: red; }
]]></style>

<defs>
  <circle id="rim" cx="0" cy="0" r="7"/>
  <circle id="rim2" cx="0" cy="0" r="3.5"/>
  <g id="zoomPlus">
    <use xlink:href="#rim" fill="#404040"><set attributeName="fill" to="#808080" begin="zoomplus.mouseover" end="zoomplus.mouseout"/></use>
    <path d="M-4,0h8M0,-4v8" fill="none" stroke="white" stroke-width="1.5" pointer-events="none"/>
  </g>
  <g id="zoomMin">
    <use xlink:href="#rim" fill="#404040"><set attributeName="fill" to="#808080" begin="zoomminus.mouseover" end="zoomminus.mouseout"/></use>
    <path d="M-4,0h8" fill="none" stroke="white" stroke-width="1.5" pointer-events="none"/>
  </g>
  <g id="arrowUp" transform="translate(30 24)">
    <use xlink:href="#rim"/>
    <path pointer-events="none" fill="none" stroke="white" stroke-width="1.5" d="M0,-3.0v7 M-2.5,-0.5L0,-3.0L2.5,-0.5"/>
  </g>
  <g id="arrowRight" transform="rotate(90) translate(36 -43)">
    <use xlink:href="#rim"/>
    <path pointer-events="none" fill="none" stroke="white" stroke-width="1.5" d="M0,-3.0v7 M-2.5,-0.5L0,-3.0L2.5,-0.5"/>
  </g>
  <g id="arrowDown" transform="rotate(180) translate(-30 -48)">
    <use xlink:href="#rim"/>
    <path pointer-events="none" fill="none" stroke="white" stroke-width="1.5" d="M0,-3.0v7 M-2.5,-0.5L0,-3.0L2.5,-0.5"/>
  </g>
  <g id="arrowLeft" transform="rotate(270) translate(-36 17)">
    <use xlink:href="#rim"/>
    <path pointer-events="none" fill="none" stroke="white" stroke-width="1.5" d="M0,-3.0v7 M-2.5,-0.5L0,-3.0L2.5,-0.5"/>
  </g>
  <g id="resetDef">
    <use xlink:href="#rim2" fill="#404040"><set attributeName="fill" to="#808080" begin="reset.mouseover" end="reset.mouseout"/></use>
  </g>
</defs>
<script type="application/ecmascript">
var viewWidth = 1786;
var viewHeight = 381;
var sectionId = 'dynsection-88';
</script>
<script type="application/ecmascript" xlink:href="svg.min.js"/>
<svg id="graph" class="graph">
<g id="viewport">
<title>func_800C8F80</title>
<!-- Node1 -->
<g id="Node000001" class="node">
<title>Node1</title>
<g id="a_Node000001"><a xlink:title=" ">
<polygon fill="#999999" stroke="#666666" points="1778,-132 1686,-132 1686,-113 1778,-113 1778,-132"/>
<text text-anchor="middle" x="1732" y="-120" font-family="Helvetica,sans-Serif" font-size="10.00">func_800C8F80</text>
</a>
</g>
</g>
<!-- Node2 -->
<g id="Node000002" class="node">
<title>Node2</title>
<g id="a_Node000002"><a xlink:href="player__controller_8c.html#a1796f758711d87699791687c8c8ea84f" target="_top" xlink:title=" ">
<polygon fill="white" stroke="#666666" points="1641.5,-265 1548.5,-265 1548.5,-246 1641.5,-246 1641.5,-265"/>
<text text-anchor="middle" x="1595" y="-253" font-family="Helvetica,sans-Serif" font-size="10.00">func_80027EDC</text>
</a>
</g>
</g>
<!-- Node1&#45;&gt;Node2 -->
<g id="edge1_Node000001_Node000002" class="edge">
<title>Node1&#45;&gt;Node2</title>
<g id="a_edge1_Node000001_Node000002"><a xlink:title=" ">
<path fill="none" stroke="#63b8ff" d="M1720.15,-140.74C1706.15,-163.11 1679.99,-201.19 1650,-226.5 1640.65,-234.39 1628.8,-241.05 1618.59,-245.98"/>
<polygon fill="#63b8ff" stroke="#63b8ff" points="1723.15,-142.55 1725.39,-132.19 1717.18,-138.89 1723.15,-142.55"/>
</a>
</g>
</g>
<!-- Node23 -->
<g id="Node000023" class="node">
<title>Node23</title>
<g id="a_Node000023"><a xlink:href="code__80071F00_8c.html#a74149ceaded001eab8591bb184ab9cff" target="_top" xlink:title=" ">
<polygon fill="white" stroke="#666666" points="1641,-169 1549,-169 1549,-150 1641,-150 1641,-169"/>
<text text-anchor="middle" x="1595" y="-157" font-family="Helvetica,sans-Serif" font-size="10.00">func_8007A3F0</text>
</a>
</g>
</g>
<!-- Node1&#45;&gt;Node23 -->
<g id="edge29_Node000001_Node000023" class="edge">
<title>Node1&#45;&gt;Node23</title>
<g id="a_edge29_Node000001_Node000023"><a xlink:title=" ">
<path fill="none" stroke="#63b8ff" d="M1686.53,-134.69C1668.53,-139.62 1648.04,-145.24 1631.12,-149.88"/>
<polygon fill="#63b8ff" stroke="#63b8ff" points="1687.51,-138.05 1696.23,-132.03 1685.66,-131.3 1687.51,-138.05"/>
</a>
</g>
</g>
<!-- Node30 -->
<g id="Node000030" class="node">
<title>Node30</title>
<g id="a_Node000030"><a xlink:href="code__80071F00_8c.html#ae289b58b0b7cbeeda3b463b7fcaa5d52" target="_top" xlink:title=" ">
<polygon fill="white" stroke="#666666" points="1641,-132 1549,-132 1549,-113 1641,-113 1641,-132"/>
<text text-anchor="middle" x="1595" y="-120" font-family="Helvetica,sans-Serif" font-size="10.00">func_8007B254</text>
</a>
</g>
</g>
<!-- Node1&#45;&gt;Node30 -->
<g id="edge39_Node000001_Node000030" class="edge">
<title>Node1&#45;&gt;Node30</title>
<g id="a_edge39_Node000001_Node000030"><a xlink:title=" ">
<path fill="none" stroke="#63b8ff" d="M1675.45,-122.5C1664.13,-122.5 1652.35,-122.5 1641.44,-122.5"/>
<polygon fill="#63b8ff" stroke="#63b8ff" points="1675.67,-126 1685.67,-122.5 1675.67,-119 1675.67,-126"/>
</a>
</g>
</g>
<!-- Node31 -->
<g id="Node000031" class="node">
<title>Node31</title>
<g id="a_Node000031"><a xlink:href="code__80071F00_8c.html#a5b10e163d17f78f43ec59de3a5c401a0" target="_top" xlink:title=" ">
<polygon fill="white" stroke="#666666" points="1482.5,-107 1390.5,-107 1390.5,-88 1482.5,-88 1482.5,-107"/>
<text text-anchor="middle" x="1436.5" y="-95" font-family="Helvetica,sans-Serif" font-size="10.00">func_8007B34C</text>
</a>
</g>
</g>
<!-- Node1&#45;&gt;Node31 -->
<g id="edge43_Node000001_Node000031" class="edge">
<title>Node1&#45;&gt;Node31</title>
<g id="a_edge43_Node000001_Node000031"><a xlink:title=" ">
<path fill="none" stroke="#63b8ff" d="M1685.19,-110.77C1673.76,-108.27 1661.5,-105.95 1650,-104.5 1592.69,-97.25 1526.03,-96.25 1482.88,-96.57"/>
<polygon fill="#63b8ff" stroke="#63b8ff" points="1684.44,-114.18 1694.96,-112.99 1685.99,-107.36 1684.44,-114.18"/>
</a>
</g>
</g>
<!-- Node33 -->
<g id="Node000033" class="node">
<title>Node33</title>
<g id="a_Node000033"><a xlink:href="external_8c.html#aac0d64d382e8e46860f0f987899ecdf0" target="_top" xlink:title=" ">
<polygon fill="white" stroke="#666666" points="1641.5,-56 1548.5,-56 1548.5,-37 1641.5,-37 1641.5,-56"/>
<text text-anchor="middle" x="1595" y="-44" font-family="Helvetica,sans-Serif" font-size="10.00">func_800CA59C</text>
</a>
</g>
</g>
<!-- Node1&#45;&gt;Node33 -->
<g id="edge44_Node000001_Node000033" class="edge">
<title>Node1&#45;&gt;Node33</title>
<g id="a_edge44_Node000001_Node000033"><a xlink:title=" ">
<path fill="none" stroke="#63b8ff" d="M1708.73,-106.89C1692.76,-96.03 1670.53,-81.57 1650,-70.5 1640.25,-65.24 1629.11,-60.15 1619.5,-56.02"/>
<polygon fill="#63b8ff" stroke="#63b8ff" points="1707.12,-110.03 1717.34,-112.82 1711.09,-104.27 1707.12,-110.03"/>
</a>
</g>
</g>
<!-- Node35 -->
<g id="Node000035" class="node">
<title>Node35</title>
<g id="a_Node000035"><a xlink:href="external_8c.html#a8e12528517df50a5fac9f139bfafb0c8" target="_top" xlink:title=" ">
<polygon fill="white" stroke="#666666" points="1641.5,-19 1548.5,-19 1548.5,0 1641.5,0 1641.5,-19"/>
<text text-anchor="middle" x="1595" y="-7" font-family="Helvetica,sans-Serif" font-size="10.00">func_800CAFC0</text>
</a>
</g>
</g>
<!-- Node1&#45;&gt;Node35 -->
<g id="edge46_Node000001_Node000035" class="edge">
<title>Node1&#45;&gt;Node35</title>
<g id="a_edge46_Node000001_Node000035"><a xlink:title=" ">
<path fill="none" stroke="#63b8ff" d="M1719.84,-104.18C1705.97,-82.86 1680.39,-47.99 1650,-27.5 1645,-24.13 1639.32,-21.34 1633.56,-19.05"/>
<polygon fill="#63b8ff" stroke="#63b8ff" points="1717.06,-106.33 1725.36,-112.91 1722.98,-102.59 1717.06,-106.33"/>
</a>
</g>
</g>
<!-- Node37 -->
<g id="Node000037" class="node">
<title>Node37</title>
<g id="a_Node000037"><a xlink:href="code__80071F00_8c.html#aff60ff5dc448df9a93e48b0a3459b673" target="_top" xlink:title=" ">
<polygon fill="white" stroke="#666666" points="1650,-217.5 1540,-217.5 1540,-187.5 1650,-187.5 1650,-217.5"/>
<text text-anchor="start" x="1548" y="-205.5" font-family="Helvetica,sans-Serif" font-size="10.00">init_obj_laikitu_red</text>
<text text-anchor="middle" x="1595" y="-194.5" font-family="Helvetica,sans-Serif" font-size="10.00">_flag_fishing</text>
</a>
</g>
</g>
<!-- Node1&#45;&gt;Node37 -->
<g id="edge48_Node000001_Node000037" class="edge">
<title>Node1&#45;&gt;Node37</title>
<g id="a_edge48_Node000001_Node000037"><a xlink:title=" ">
<path fill="none" stroke="#63b8ff" d="M1710.47,-138.29C1694.5,-150.17 1671.51,-166.42 1650,-178.5 1644.45,-181.61 1638.43,-184.63 1632.48,-187.41"/>
<polygon fill="#63b8ff" stroke="#63b8ff" points="1712.69,-141 1718.57,-132.19 1708.48,-135.41 1712.69,-141"/>
</a>
</g>
</g>
<!-- Node3 -->
<g id="Node000003" class="node">
<title>Node3</title>
<g id="a_Node000003"><a xlink:href="player__controller_8c.html#aafe8b94ccd61104120a9bf0ee954a901" target="_top" xlink:title=" ">
<polygon fill="white" stroke="#666666" points="1482.5,-289 1390.5,-289 1390.5,-270 1482.5,-270 1482.5,-289"/>
<text text-anchor="middle" x="1436.5" y="-277" font-family="Helvetica,sans-Serif" font-size="10.00">func_8002D268</text>
</a>
</g>
</g>
<!-- Node2&#45;&gt;Node3 -->
<g id="edge2_Node000002_Node000003" class="edge">
<title>Node2&#45;&gt;Node3</title>
<g id="a_edge2_Node000002_Node000003"><a xlink:title=" ">
<path fill="none" stroke="#63b8ff" d="M1538.39,-264.03C1520.14,-266.83 1500.09,-269.9 1482.7,-272.57"/>
<polygon fill="#63b8ff" stroke="#63b8ff" points="1538.96,-267.48 1548.31,-262.51 1537.9,-260.56 1538.96,-267.48"/>
</a>
</g>
</g>
<!-- Node4 -->
<g id="Node000004" class="node">
<title>Node4</title>
<g id="a_Node000004"><a xlink:href="player__controller_8c.html#a9f21890266acabb27e962652c5ef4cfc" target="_top" xlink:title=" ">
<polygon fill="white" stroke="#666666" points="1325,-262 1234,-262 1234,-243 1325,-243 1325,-262"/>
<text text-anchor="middle" x="1279.5" y="-250" font-family="Helvetica,sans-Serif" font-size="10.00">func_80028864</text>
</a>
</g>
</g>
<!-- Node3&#45;&gt;Node4 -->
<g id="edge3_Node000003_Node000004" class="edge">
<title>Node3&#45;&gt;Node4</title>
<g id="a_edge3_Node000003_Node000004"><a xlink:title=" ">
<path fill="none" stroke="#63b8ff" d="M1380.38,-269.9C1362.22,-266.73 1342.27,-263.26 1325,-260.25"/>
<polygon fill="#63b8ff" stroke="#63b8ff" points="1379.8,-273.35 1390.25,-271.62 1381,-266.45 1379.8,-273.35"/>
</a>
</g>
</g>
<!-- Node16 -->
<g id="Node000016" class="node">
<title>Node16</title>
<g id="a_Node000016"><a xlink:href="player__controller_8c.html#a76e0206999fca6c9de4d4bef2c4620ce" target="_top" xlink:title=" ">
<polygon fill="white" stroke="#666666" points="1325.5,-225 1233.5,-225 1233.5,-206 1325.5,-206 1325.5,-225"/>
<text text-anchor="middle" x="1279.5" y="-213" font-family="Helvetica,sans-Serif" font-size="10.00">func_80028C44</text>
</a>
</g>
</g>
<!-- Node3&#45;&gt;Node16 -->
<g id="edge18_Node000003_Node000016" class="edge">
<title>Node3&#45;&gt;Node16</title>
<g id="a_edge18_Node000003_Node000016"><a xlink:title=" ">
<path fill="none" stroke="#63b8ff" d="M1383.74,-266.64C1378.67,-264.81 1373.67,-262.77 1369,-260.5 1351.24,-251.88 1350.45,-243.73 1333,-234.5 1326.23,-230.92 1318.64,-227.74 1311.38,-225.06"/>
<polygon fill="#63b8ff" stroke="#63b8ff" points="1382.93,-270.06 1393.52,-269.91 1385.14,-263.42 1382.93,-270.06"/>
</a>
</g>
</g>
<!-- Node17 -->
<g id="Node000017" class="node">
<title>Node17</title>
<g id="a_Node000017"><a xlink:href="player__controller_8c.html#ae531f1b044d00354a79cb3f88b81fa12" target="_top" xlink:title=" ">
<polygon fill="white" stroke="#666666" points="1326,-299 1233,-299 1233,-280 1326,-280 1326,-299"/>
<text text-anchor="middle" x="1279.5" y="-287" font-family="Helvetica,sans-Serif" font-size="10.00">func_80028D3C</text>
</a>
</g>
</g>
<!-- Node3&#45;&gt;Node17 -->
<g id="edge20_Node000003_Node000017" class="edge">
<title>Node3&#45;&gt;Node17</title>
<g id="a_edge20_Node000003_Node000017"><a xlink:title=" ">
<path fill="none" stroke="#63b8ff" d="M1380.06,-283.08C1362.36,-284.22 1342.99,-285.47 1326.07,-286.56"/>
<polygon fill="#63b8ff" stroke="#63b8ff" points="1380.5,-286.56 1390.25,-282.42 1380.05,-279.57 1380.5,-286.56"/>
</a>
</g>
</g>
<!-- Node18 -->
<g id="Node000018" class="node">
<title>Node18</title>
<g id="a_Node000018"><a xlink:href="spawn__players_8c.html#a786871d4fec99acdd5a14b48c1c38a7c" target="_top" xlink:title=" ">
<polygon fill="white" stroke="#666666" points="1326,-336 1233,-336 1233,-317 1326,-317 1326,-336"/>
<text text-anchor="middle" x="1279.5" y="-324" font-family="Helvetica,sans-Serif" font-size="10.00">func_8003CD98</text>
</a>
</g>
</g>
<!-- Node3&#45;&gt;Node18 -->
<g id="edge22_Node000003_Node000018" class="edge">
<title>Node3&#45;&gt;Node18</title>
<g id="a_edge22_Node000003_Node000018"><a xlink:title=" ">
<path fill="none" stroke="#63b8ff" d="M1394.27,-292C1368.49,-299.82 1335.8,-309.73 1312.09,-316.92"/>
<polygon fill="#63b8ff" stroke="#63b8ff" points="1395.58,-295.26 1404.13,-289.01 1393.55,-288.56 1395.58,-295.26"/>
</a>
</g>
</g>
<!-- Node5 -->
<g id="Node000005" class="node">
<title>Node5</title>
<g id="a_Node000005"><a xlink:href="player__controller_8c.html#af9d8e2fa807dab2737045c3c2517a46e" target="_top" xlink:title=" ">
<polygon fill="white" stroke="#666666" points="1189.5,-262 1098.5,-262 1098.5,-243 1189.5,-243 1189.5,-262"/>
<text text-anchor="middle" x="1144" y="-250" font-family="Helvetica,sans-Serif" font-size="10.00">func_80028E70</text>
</a>
</g>
</g>
<!-- Node4&#45;&gt;Node5 -->
<g id="edge4_Node000004_Node000005" class="edge">
<title>Node4&#45;&gt;Node5</title>
<g id="a_edge4_Node000004_Node000005"><a xlink:title=" ">
<path fill="none" stroke="#63b8ff" d="M1223.56,-252.5C1212.37,-252.5 1200.73,-252.5 1189.93,-252.5"/>
<polygon fill="#63b8ff" stroke="#63b8ff" points="1223.68,-256 1233.68,-252.5 1223.68,-249 1223.68,-256"/>
</a>
</g>
</g>
<!-- Node6 -->
<g id="Node000006" class="node">
<title>Node6</title>
<g id="a_Node000006"><a xlink:href="player__controller_8c.html#a60b22a77aa4cf0b2be0942a3e115a1eb" target="_top" xlink:title=" ">
<polygon fill="white" stroke="#666666" points="1037.5,-225 946.5,-225 946.5,-206 1037.5,-206 1037.5,-225"/>
<text text-anchor="middle" x="992" y="-213" font-family="Helvetica,sans-Serif" font-size="10.00">func_80028F70</text>
</a>
</g>
</g>
<!-- Node5&#45;&gt;Node6 -->
<g id="edge5_Node000005_Node000006" class="edge">
<title>Node5&#45;&gt;Node6</title>
<g id="a_edge5_Node000005_Node000006"><a xlink:title=" ">
<path fill="none" stroke="#63b8ff" d="M1094.66,-240.57C1074.31,-235.56 1050.95,-229.79 1031.76,-225.06"/>
<polygon fill="#63b8ff" stroke="#63b8ff" points="1093.82,-243.97 1104.37,-242.97 1095.5,-237.18 1093.82,-243.97"/>
</a>
</g>
</g>
<!-- Node14 -->
<g id="Node000014" class="node">
<title>Node14</title>
<g id="a_Node000014"><a xlink:href="player__controller_8c.html#ac7bf3fa7a7efacb6f6bad44477c2c7ed" target="_top" xlink:title=" ">
<polygon fill="white" stroke="#666666" points="1037.5,-262 946.5,-262 946.5,-243 1037.5,-243 1037.5,-262"/>
<text text-anchor="middle" x="992" y="-250" font-family="Helvetica,sans-Serif" font-size="10.00">func_80029060</text>
</a>
</g>
</g>
<!-- Node5&#45;&gt;Node14 -->
<g id="edge14_Node000005_Node000014" class="edge">
<title>Node5&#45;&gt;Node14</title>
<g id="a_edge14_Node000005_Node000014"><a xlink:title=" ">
<path fill="none" stroke="#63b8ff" d="M1088.27,-252.5C1071.64,-252.5 1053.57,-252.5 1037.69,-252.5"/>
<polygon fill="#63b8ff" stroke="#63b8ff" points="1088.4,-256 1098.4,-252.5 1088.4,-249 1088.4,-256"/>
</a>
</g>
</g>
<!-- Node15 -->
<g id="Node000015" class="node">
<title>Node15</title>
<g id="a_Node000015"><a xlink:href="player__controller_8c.html#a31f653813b5697d0af1bb9c16cdc4c76" target="_top" xlink:title=" ">
<polygon fill="white" stroke="#666666" points="1037.5,-299 946.5,-299 946.5,-280 1037.5,-280 1037.5,-299"/>
<text text-anchor="middle" x="992" y="-287" font-family="Helvetica,sans-Serif" font-size="10.00">func_80029158</text>
</a>
</g>
</g>
<!-- Node5&#45;&gt;Node15 -->
<g id="edge16_Node000005_Node000015" class="edge">
<title>Node5&#45;&gt;Node15</title>
<g id="a_edge16_Node000005_Node000015"><a xlink:title=" ">
<path fill="none" stroke="#63b8ff" d="M1094.66,-264.43C1074.31,-269.44 1050.95,-275.21 1031.76,-279.94"/>
<polygon fill="#63b8ff" stroke="#63b8ff" points="1095.5,-267.82 1104.37,-262.03 1093.82,-261.03 1095.5,-267.82"/>
</a>
</g>
</g>
<!-- Node7 -->
<g id="Node000007" class="node">
<title>Node7</title>
<g id="a_Node000007"><a xlink:href="podium__ceremony__actors_8c.html#a7ea229c65f264670fc828b95e8321154" target="_top" xlink:title=" ">
<polygon fill="white" stroke="#666666" points="886,-225 752,-225 752,-206 886,-206 886,-225"/>
<text text-anchor="middle" x="819" y="-213" font-family="Helvetica,sans-Serif" font-size="10.00">podium_ceremony_loop</text>
</a>
</g>
</g>
<!-- Node6&#45;&gt;Node7 -->
<g id="edge6_Node000006_Node000007" class="edge">
<title>Node6&#45;&gt;Node7</title>
<g id="a_edge6_Node000006_Node000007"><a xlink:title=" ">
<path fill="none" stroke="#63b8ff" d="M935.92,-215.5C920.07,-215.5 902.63,-215.5 886.19,-215.5"/>
<polygon fill="#63b8ff" stroke="#63b8ff" points="936.07,-219 946.07,-215.5 936.07,-212 936.07,-219"/>
</a>
</g>
</g>
<!-- Node13 -->
<g id="Node000013" class="node">
<title>Node13</title>
<g id="a_Node000013"><a xlink:href="main_8c.html#afff87ffcbfee4f1f37d443110aa7b52a" target="_top" xlink:title=" ">
<polygon fill="white" stroke="#666666" points="865,-262 773,-262 773,-243 865,-243 865,-262"/>
<text text-anchor="middle" x="819" y="-250" font-family="Helvetica,sans-Serif" font-size="10.00">race_logic_loop</text>
</a>
</g>
</g>
<!-- Node6&#45;&gt;Node13 -->
<g id="edge12_Node000006_Node000013" class="edge">
<title>Node6&#45;&gt;Node13</title>
<g id="a_edge12_Node000006_Node000013"><a xlink:title=" ">
<path fill="none" stroke="#63b8ff" d="M937.15,-227.15C913.66,-232.23 886.46,-238.12 864.18,-242.94"/>
<polygon fill="#63b8ff" stroke="#63b8ff" points="937.93,-230.56 946.96,-225.03 936.45,-223.72 937.93,-230.56"/>
</a>
</g>
</g>
<!-- Node8 -->
<g id="Node000008" class="node">
<title>Node8</title>
<g id="a_Node000008"><a xlink:href="main_8c.html#ae04143ce8113cdafa007c642eb620bc8" target="_top" xlink:title=" ">
<polygon fill="white" stroke="#666666" points="604,-245 488,-245 488,-226 604,-226 604,-245"/>
<text text-anchor="middle" x="546" y="-233" font-family="Helvetica,sans-Serif" font-size="10.00">game_state_handler</text>
</a>
</g>
</g>
<!-- Node7&#45;&gt;Node8 -->
<g id="edge7_Node000007_Node000008" class="edge">
<title>Node7&#45;&gt;Node8</title>
<g id="a_edge7_Node000007_Node000008"><a xlink:title=" ">
<path fill="none" stroke="#63b8ff" d="M741.71,-221.13C698.11,-224.35 644.33,-228.32 604.35,-231.27"/>
<polygon fill="#63b8ff" stroke="#63b8ff" points="741.99,-224.62 751.71,-220.39 741.48,-217.64 741.99,-224.62"/>
</a>
</g>
</g>
<!-- Node9 -->
<g id="Node000009" class="node">
<title>Node9</title>
<g id="a_Node000009"><a xlink:href="main_8c.html#a633ed517e458daeb768f5361895dcac9" target="_top" xlink:title=" ">
<polygon fill="white" stroke="#666666" points="452,-281 339,-281 339,-262 452,-262 452,-281"/>
<text text-anchor="middle" x="395.5" y="-269" font-family="Helvetica,sans-Serif" font-size="10.00">thread5_game_loop</text>
</a>
</g>
</g>
<!-- Node8&#45;&gt;Node9 -->
<g id="edge8_Node000008_Node000009" class="edge">
<title>Node8&#45;&gt;Node9</title>
<g id="a_edge8_Node000008_Node000009"><a xlink:title=" ">
<path fill="none" stroke="#63b8ff" d="M495.69,-247.45C476.23,-252.17 454.19,-257.52 435.83,-261.97"/>
<polygon fill="#63b8ff" stroke="#63b8ff" points="496.7,-250.81 505.59,-245.05 495.05,-244.01 496.7,-250.81"/>
</a>
</g>
</g>
<!-- Node10 -->
<g id="Node000010" class="node">
<title>Node10</title>
<g id="a_Node000010"><a xlink:href="main_8c.html#a023b8f272e4efbd33f371e91ffff6b30" target="_top" xlink:title=" ">
<polygon fill="white" stroke="#666666" points="303,-281 217,-281 217,-262 303,-262 303,-281"/>
<text text-anchor="middle" x="260" y="-269" font-family="Helvetica,sans-Serif" font-size="10.00">thread3_video</text>
</a>
</g>
</g>
<!-- Node9&#45;&gt;Node10 -->
<g id="edge9_Node000009_Node000010" class="edge">
<title>Node9&#45;&gt;Node10</title>
<g id="a_edge9_Node000009_Node000010"><a xlink:title=" ">
<path fill="none" stroke="#63b8ff" d="M328.57,-271.5C319.94,-271.5 311.3,-271.5 303.21,-271.5"/>
<polygon fill="#63b8ff" stroke="#63b8ff" points="328.66,-275 338.66,-271.5 328.66,-268 328.66,-275"/>
</a>
</g>
</g>
<!-- Node11 -->
<g id="Node000011" class="node">
<title>Node11</title>
<g id="a_Node000011"><a xlink:href="main_8c.html#a1e35d2b842121e6aea373f09381616e5" target="_top" xlink:title=" ">
<polygon fill="white" stroke="#666666" points="181,-281 104,-281 104,-262 181,-262 181,-281"/>
<text text-anchor="middle" x="142.5" y="-269" font-family="Helvetica,sans-Serif" font-size="10.00">thread1_idle</text>
</a>
</g>
</g>
<!-- Node10&#45;&gt;Node11 -->
<g id="edge10_Node000010_Node000011" class="edge">
<title>Node10&#45;&gt;Node11</title>
<g id="a_edge10_Node000010_Node000011"><a xlink:title=" ">
<path fill="none" stroke="#63b8ff" d="M206.9,-271.5C198.2,-271.5 189.33,-271.5 181.09,-271.5"/>
<polygon fill="#63b8ff" stroke="#63b8ff" points="206.98,-275 216.98,-271.5 206.98,-268 206.98,-275"/>
</a>
</g>
</g>
<!-- Node12 -->
<g id="Node000012" class="node">
<title>Node12</title>
<g id="a_Node000012"><a xlink:href="main_8c.html#a4f87d43525fe95f60ea92bc8a3b70e62" target="_top" xlink:title=" ">
<polygon fill="white" stroke="#666666" points="68,-281 0,-281 0,-262 68,-262 68,-281"/>
<text text-anchor="middle" x="34" y="-269" font-family="Helvetica,sans-Serif" font-size="10.00">main_func</text>
</a>
</g>
</g>
<!-- Node11&#45;&gt;Node12 -->
<g id="edge11_Node000011_Node000012" class="edge">
<title>Node11&#45;&gt;Node12</title>
<g id="a_edge11_Node000011_Node000012"><a xlink:title=" ">
<path fill="none" stroke="#63b8ff" d="M93.95,-271.5C85.29,-271.5 76.44,-271.5 68.31,-271.5"/>
<polygon fill="#63b8ff" stroke="#63b8ff" points="93.95,-275 103.95,-271.5 93.95,-268 93.95,-275"/>
</a>
</g>
</g>
<!-- Node13&#45;&gt;Node8 -->
<g id="edge13_Node000013_Node000008" class="edge">
<title>Node13&#45;&gt;Node8</title>
<g id="a_edge13_Node000013_Node000008"><a xlink:title=" ">
<path fill="none" stroke="#63b8ff" d="M762.83,-249.04C716.72,-246.15 651.18,-242.03 604.44,-239.1"/>
<polygon fill="#63b8ff" stroke="#63b8ff" points="762.75,-252.54 772.95,-249.67 763.18,-245.55 762.75,-252.54"/>
</a>
</g>
</g>
<!-- Node14&#45;&gt;Node13 -->
<g id="edge15_Node000014_Node000013" class="edge">
<title>Node14&#45;&gt;Node13</title>
<g id="a_edge15_Node000014_Node000013"><a xlink:title=" ">
<path fill="none" stroke="#63b8ff" d="M935.85,-252.5C913.02,-252.5 886.89,-252.5 865.22,-252.5"/>
<polygon fill="#63b8ff" stroke="#63b8ff" points="936.07,-256 946.07,-252.5 936.07,-249 936.07,-256"/>
</a>
</g>
</g>
<!-- Node15&#45;&gt;Node13 -->
<g id="edge17_Node000015_Node000013" class="edge">
<title>Node15&#45;&gt;Node13</title>
<g id="a_edge17_Node000015_Node000013"><a xlink:title=" ">
<path fill="none" stroke="#63b8ff" d="M937.15,-277.85C913.66,-272.77 886.46,-266.88 864.18,-262.06"/>
<polygon fill="#63b8ff" stroke="#63b8ff" points="936.45,-281.28 946.96,-279.97 937.93,-274.44 936.45,-281.28"/>
</a>
</g>
</g>
<!-- Node16&#45;&gt;Node5 -->
<g id="edge19_Node000016_Node000005" class="edge">
<title>Node16&#45;&gt;Node5</title>
<g id="a_edge19_Node000016_Node000005"><a xlink:title=" ">
<path fill="none" stroke="#63b8ff" d="M1234.03,-227.83C1216.34,-232.73 1196.31,-238.28 1179.73,-242.88"/>
<polygon fill="#63b8ff" stroke="#63b8ff" points="1235.42,-231.07 1244.12,-225.03 1233.55,-224.33 1235.42,-231.07"/>
</a>
</g>
</g>
<!-- Node17&#45;&gt;Node5 -->
<g id="edge21_Node000017_Node000005" class="edge">
<title>Node17&#45;&gt;Node5</title>
<g id="a_edge21_Node000017_Node000005"><a xlink:title=" ">
<path fill="none" stroke="#63b8ff" d="M1234.03,-277.17C1216.34,-272.27 1196.31,-266.72 1179.73,-262.12"/>
<polygon fill="#63b8ff" stroke="#63b8ff" points="1233.55,-280.67 1244.12,-279.97 1235.42,-273.93 1233.55,-280.67"/>
</a>
</g>
</g>
<!-- Node19 -->
<g id="Node000019" class="node">
<title>Node19</title>
<g id="a_Node000019"><a xlink:href="spawn__players_8c.html#ac1a9412b931cfa517a2382c2fc605399" target="_top" xlink:title=" ">
<polygon fill="white" stroke="#666666" points="1190,-336 1098,-336 1098,-317 1190,-317 1190,-336"/>
<text text-anchor="middle" x="1144" y="-324" font-family="Helvetica,sans-Serif" font-size="10.00">func_8003D080</text>
</a>
</g>
</g>
<!-- Node18&#45;&gt;Node19 -->
<g id="edge23_Node000018_Node000019" class="edge">
<title>Node18&#45;&gt;Node19</title>
<g id="a_edge23_Node000018_Node000019"><a xlink:title=" ">
<path fill="none" stroke="#63b8ff" d="M1222.74,-326.5C1211.96,-326.5 1200.77,-326.5 1190.36,-326.5"/>
<polygon fill="#63b8ff" stroke="#63b8ff" points="1222.93,-330 1232.93,-326.5 1222.93,-323 1222.93,-330"/>
</a>
</g>
</g>
<!-- Node20 -->
<g id="Node000020" class="node">
<title>Node20</title>
<g id="a_Node000020"><a xlink:href="code__80281780_8c.html#af227cfd0f1fd3d6adbe9a29ad59b4dc8" target="_top" xlink:title=" ">
<polygon fill="white" stroke="#666666" points="1062,-373 922,-373 922,-354 1062,-354 1062,-373"/>
<text text-anchor="middle" x="992" y="-361" font-family="Helvetica,sans-Serif" font-size="10.00">load_ceremony_cutscene</text>
</a>
</g>
</g>
<!-- Node19&#45;&gt;Node20 -->
<g id="edge24_Node000019_Node000020" class="edge">
<title>Node19&#45;&gt;Node20</title>
<g id="a_edge24_Node000019_Node000020"><a xlink:title=" ">
<path fill="none" stroke="#63b8ff" d="M1094.66,-338.43C1074.31,-343.44 1050.95,-349.21 1031.76,-353.94"/>
<polygon fill="#63b8ff" stroke="#63b8ff" points="1095.5,-341.82 1104.37,-336.03 1093.82,-335.03 1095.5,-341.82"/>
</a>
</g>
</g>
<!-- Node22 -->
<g id="Node000022" class="node">
<title>Node22</title>
<g id="a_Node000022"><a xlink:href="code__800029B0_8c.html#aca6165112fc92e65ad6477e785a7098c" target="_top" xlink:title=" ">
<polygon fill="white" stroke="#666666" points="1027,-336 957,-336 957,-317 1027,-317 1027,-336"/>
<text text-anchor="middle" x="992" y="-324" font-family="Helvetica,sans-Serif" font-size="10.00">setup_race</text>
</a>
</g>
</g>
<!-- Node19&#45;&gt;Node22 -->
<g id="edge27_Node000019_Node000022" class="edge">
<title>Node19&#45;&gt;Node22</title>
<g id="a_edge27_Node000019_Node000022"><a xlink:title=" ">
<path fill="none" stroke="#63b8ff" d="M1087.87,-326.5C1067.48,-326.5 1044.97,-326.5 1027,-326.5"/>
<polygon fill="#63b8ff" stroke="#63b8ff" points="1088,-330 1098,-326.5 1088,-323 1088,-330"/>
</a>
</g>
</g>
<!-- Node21 -->
<g id="Node000021" class="node">
<title>Node21</title>
<g id="a_Node000021"><a xlink:href="main_8c.html#ad0625ed56ac663d3ec7ae8f1ba50c735" target="_top" xlink:title=" ">
<polygon fill="white" stroke="#666666" points="873,-336 765,-336 765,-317 873,-317 873,-336"/>
<text text-anchor="middle" x="819" y="-324" font-family="Helvetica,sans-Serif" font-size="10.00">update_gamestate</text>
</a>
</g>
</g>
<!-- Node20&#45;&gt;Node21 -->
<g id="edge25_Node000020_Node000021" class="edge">
<title>Node20&#45;&gt;Node21</title>
<g id="a_edge25_Node000020_Node000021"><a xlink:title=" ">
<path fill="none" stroke="#63b8ff" d="M937.15,-351.85C913.66,-346.77 886.46,-340.88 864.18,-336.06"/>
<polygon fill="#63b8ff" stroke="#63b8ff" points="936.45,-355.28 946.96,-353.97 937.93,-348.44 936.45,-355.28"/>
</a>
</g>
</g>
<!-- Node21&#45;&gt;Node9 -->
<g id="edge26_Node000021_Node000009" class="edge">
<title>Node21&#45;&gt;Node9</title>
<g id="a_edge26_Node000021_Node000009"><a xlink:title=" ">
<path fill="none" stroke="#63b8ff" d="M754.65,-318.23C672.46,-307.51 530.35,-288.97 452.13,-278.76"/>
<polygon fill="#63b8ff" stroke="#63b8ff" points="754.25,-321.71 764.62,-319.53 755.15,-314.77 754.25,-321.71"/>
</a>
</g>
</g>
<!-- Node22&#45;&gt;Node21 -->
<g id="edge28_Node000022_Node000021" class="edge">
<title>Node22&#45;&gt;Node21</title>
<g id="a_edge28_Node000022_Node000021"><a xlink:title=" ">
<path fill="none" stroke="#63b8ff" d="M946.57,-326.5C924.18,-326.5 896.85,-326.5 873.33,-326.5"/>
<polygon fill="#63b8ff" stroke="#63b8ff" points="946.81,-330 956.81,-326.5 946.81,-323 946.81,-330"/>
</a>
</g>
</g>
<!-- Node24 -->
<g id="Node000024" class="node">
<title>Node24</title>
<g id="a_Node000024"><a xlink:href="code__80071F00_8c.html#a6875e5fef7a875285d8977e07a504763" target="_top" xlink:title=" ">
<polygon fill="white" stroke="#666666" points="1490,-155.5 1383,-155.5 1383,-125.5 1490,-125.5 1490,-155.5"/>
<text text-anchor="start" x="1391" y="-143.5" font-family="Helvetica,sans-Serif" font-size="10.00">update_obj_laikitu</text>
<text text-anchor="middle" x="1436.5" y="-132.5" font-family="Helvetica,sans-Serif" font-size="10.00">_reverse</text>
</a>
</g>
</g>
<!-- Node23&#45;&gt;Node24 -->
<g id="edge30_Node000023_Node000024" class="edge">
<title>Node23&#45;&gt;Node24</title>
<g id="a_edge30_Node000023_Node000024"><a xlink:title=" ">
<path fill="none" stroke="#63b8ff" d="M1538.6,-152.77C1522.83,-150.86 1505.71,-148.78 1490.12,-146.89"/>
<polygon fill="#63b8ff" stroke="#63b8ff" points="1538.38,-156.27 1548.73,-154 1539.23,-149.32 1538.38,-156.27"/>
</a>
</g>
</g>
<!-- Node25 -->
<g id="Node000025" class="node">
<title>Node25</title>
<g id="a_Node000025"><a xlink:href="code__80071F00_8c.html#acf901985295d306e8918b07b89422230" target="_top" xlink:title=" ">
<polygon fill="white" stroke="#666666" points="1333,-188 1226,-188 1226,-169 1333,-169 1333,-188"/>
<text text-anchor="middle" x="1279.5" y="-176" font-family="Helvetica,sans-Serif" font-size="10.00">update_obj_laikitu</text>
</a>
</g>
</g>
<!-- Node24&#45;&gt;Node25 -->
<g id="edge31_Node000024_Node000025" class="edge">
<title>Node24&#45;&gt;Node25</title>
<g id="a_edge31_Node000024_Node000025"><a xlink:title=" ">
<path fill="none" stroke="#63b8ff" d="M1372.72,-155.89C1354.71,-160.31 1335.6,-164.99 1319.47,-168.95"/>
<polygon fill="#63b8ff" stroke="#63b8ff" points="1373.71,-159.25 1382.59,-153.47 1372.05,-152.45 1373.71,-159.25"/>
</a>
</g>
</g>
<!-- Node26 -->
<g id="Node000026" class="node">
<title>Node26</title>
<g id="a_Node000026"><a xlink:href="code__80057C60_8c.html#ad9abd1f78c8153b6eb41db7e6378a78c" target="_top" xlink:title=" ">
<polygon fill="white" stroke="#666666" points="1190,-188 1098,-188 1098,-169 1190,-169 1190,-188"/>
<text text-anchor="middle" x="1144" y="-176" font-family="Helvetica,sans-Serif" font-size="10.00">func_80059A88</text>
</a>
</g>
</g>
<!-- Node25&#45;&gt;Node26 -->
<g id="edge32_Node000025_Node000026" class="edge">
<title>Node25&#45;&gt;Node26</title>
<g id="a_edge32_Node000025_Node000026"><a xlink:title=" ">
<path fill="none" stroke="#63b8ff" d="M1215.67,-178.5C1207.02,-178.5 1198.29,-178.5 1190.05,-178.5"/>
<polygon fill="#63b8ff" stroke="#63b8ff" points="1215.74,-182 1225.74,-178.5 1215.74,-175 1215.74,-182"/>
</a>
</g>
</g>
<!-- Node27 -->
<g id="Node000027" class="node">
<title>Node27</title>
<g id="a_Node000027"><a xlink:href="code__80057C60_8c.html#ae61bd9f49508d924387c00845cae4060" target="_top" xlink:title=" ">
<polygon fill="white" stroke="#666666" points="1038,-188 946,-188 946,-169 1038,-169 1038,-188"/>
<text text-anchor="middle" x="992" y="-176" font-family="Helvetica,sans-Serif" font-size="10.00">func_80059AC8</text>
</a>
</g>
</g>
<!-- Node26&#45;&gt;Node27 -->
<g id="edge33_Node000026_Node000027" class="edge">
<title>Node26&#45;&gt;Node27</title>
<g id="a_edge33_Node000026_Node000027"><a xlink:title=" ">
<path fill="none" stroke="#63b8ff" d="M1087.55,-178.5C1071.31,-178.5 1053.76,-178.5 1038.23,-178.5"/>
<polygon fill="#63b8ff" stroke="#63b8ff" points="1088,-182 1098,-178.5 1088,-175 1088,-182"/>
</a>
</g>
</g>
<!-- Node27&#45;&gt;Node7 -->
<g id="edge37_Node000027_Node000007" class="edge">
<title>Node27&#45;&gt;Node7</title>
<g id="a_edge37_Node000027_Node000007"><a xlink:title=" ">
<path fill="none" stroke="#63b8ff" d="M937.15,-190.15C913.66,-195.23 886.46,-201.12 864.18,-205.94"/>
<polygon fill="#63b8ff" stroke="#63b8ff" points="937.93,-193.56 946.96,-188.03 936.45,-186.72 937.93,-193.56"/>
</a>
</g>
</g>
<!-- Node27&#45;&gt;Node13 -->
<g id="edge38_Node000027_Node000013" class="edge">
<title>Node27&#45;&gt;Node13</title>
<g id="a_edge38_Node000027_Node000013"><a xlink:title=" ">
<path fill="none" stroke="#63b8ff" d="M936.18,-190.65C931.24,-192.61 926.43,-194.88 922,-197.5 902.25,-209.18 905.77,-222.85 886,-234.5 879.66,-238.24 872.51,-241.22 865.33,-243.6"/>
<polygon fill="#63b8ff" stroke="#63b8ff" points="937.53,-193.88 945.79,-187.23 935.19,-187.28 937.53,-193.88"/>
</a>
</g>
</g>
<!-- Node28 -->
<g id="Node000028" class="node">
<title>Node28</title>
<g id="a_Node000028"><a xlink:href="code__80280000_8c.html#a4d9b0156b64d7a67e4cb21cde391ca43" target="_top" xlink:title=" ">
<polygon fill="white" stroke="#666666" points="864.5,-188 773.5,-188 773.5,-169 864.5,-169 864.5,-188"/>
<text text-anchor="middle" x="819" y="-176" font-family="Helvetica,sans-Serif" font-size="10.00">func_80280000</text>
</a>
</g>
</g>
<!-- Node27&#45;&gt;Node28 -->
<g id="edge34_Node000027_Node000028" class="edge">
<title>Node27&#45;&gt;Node28</title>
<g id="a_edge34_Node000027_Node000028"><a xlink:title=" ">
<path fill="none" stroke="#63b8ff" d="M935.36,-178.5C912.47,-178.5 886.31,-178.5 864.7,-178.5"/>
<polygon fill="#63b8ff" stroke="#63b8ff" points="935.62,-182 945.62,-178.5 935.62,-175 935.62,-182"/>
</a>
</g>
</g>
<!-- Node29 -->
<g id="Node000029" class="node">
<title>Node29</title>
<g id="a_Node000029"><a xlink:href="code__80280000_8c.html#aa28a69be4eda3b8667366c6c7b556024" target="_top" xlink:title=" ">
<polygon fill="white" stroke="#666666" points="716,-188 640,-188 640,-169 716,-169 716,-188"/>
<text text-anchor="middle" x="678" y="-176" font-family="Helvetica,sans-Serif" font-size="10.00">credits_loop</text>
</a>
</g>
</g>
<!-- Node28&#45;&gt;Node29 -->
<g id="edge35_Node000028_Node000029" class="edge">
<title>Node28&#45;&gt;Node29</title>
<g id="a_edge35_Node000028_Node000029"><a xlink:title=" ">
<path fill="none" stroke="#63b8ff" d="M763.11,-178.5C747.38,-178.5 730.61,-178.5 716.22,-178.5"/>
<polygon fill="#63b8ff" stroke="#63b8ff" points="763.25,-182 773.25,-178.5 763.25,-175 763.25,-182"/>
</a>
</g>
</g>
<!-- Node29&#45;&gt;Node8 -->
<g id="edge36_Node000029_Node000008" class="edge">
<title>Node29&#45;&gt;Node8</title>
<g id="a_edge36_Node000029_Node000008"><a xlink:title=" ">
<path fill="none" stroke="#63b8ff" d="M645.94,-192.12C622.16,-202.55 589.95,-216.67 568.83,-225.93"/>
<polygon fill="#63b8ff" stroke="#63b8ff" points="647.49,-195.26 655.24,-188.04 644.68,-188.85 647.49,-195.26"/>
</a>
</g>
</g>
<!-- Node30&#45;&gt;Node31 -->
<g id="edge40_Node000030_Node000031" class="edge">
<title>Node30&#45;&gt;Node31</title>
<g id="a_edge40_Node000030_Node000031"><a xlink:title=" ">
<path fill="none" stroke="#63b8ff" d="M1538.75,-113.67C1520.39,-110.74 1500.17,-107.51 1482.66,-104.71"/>
<polygon fill="#63b8ff" stroke="#63b8ff" points="1538.31,-117.15 1548.73,-115.27 1539.41,-110.24 1538.31,-117.15"/>
</a>
</g>
</g>
<!-- Node32 -->
<g id="Node000032" class="node">
<title>Node32</title>
<g id="a_Node000032"><a xlink:href="code__80071F00_8c.html#a27faa4eb96ab70626a1c06e2189417fb" target="_top" xlink:title=" ">
<polygon fill="white" stroke="#666666" points="1326,-134 1233,-134 1233,-115 1326,-115 1326,-134"/>
<text text-anchor="middle" x="1279.5" y="-122" font-family="Helvetica,sans-Serif" font-size="10.00">func_8007BB9C</text>
</a>
</g>
</g>
<!-- Node31&#45;&gt;Node32 -->
<g id="edge41_Node000031_Node000032" class="edge">
<title>Node31&#45;&gt;Node32</title>
<g id="a_edge41_Node000031_Node000032"><a xlink:title=" ">
<path fill="none" stroke="#63b8ff" d="M1380.06,-107.16C1362.36,-110.24 1342.99,-113.62 1326.07,-116.56"/>
<polygon fill="#63b8ff" stroke="#63b8ff" points="1381,-110.55 1390.25,-105.38 1379.8,-103.65 1381,-110.55"/>
</a>
</g>
</g>
<!-- Node32&#45;&gt;Node26 -->
<g id="edge42_Node000032_Node000026" class="edge">
<title>Node32&#45;&gt;Node26</title>
<g id="a_edge42_Node000032_Node000026"><a xlink:title=" ">
<path fill="none" stroke="#63b8ff" d="M1245.59,-137.81C1221.78,-147.44 1190.16,-160.23 1168.77,-168.88"/>
<polygon fill="#63b8ff" stroke="#63b8ff" points="1246.98,-141.02 1254.94,-134.03 1244.36,-134.54 1246.98,-141.02"/>
</a>
</g>
</g>
<!-- Node34 -->
<g id="Node000034" class="node">
<title>Node34</title>
<g id="a_Node000034"><a xlink:href="effects_8c.html#a1ae16ef10ed322ad47b3cff5a8efc83e" target="_top" xlink:title=" ">
<polygon fill="white" stroke="#666666" points="1504,-56 1369,-56 1369,-37 1504,-37 1504,-56"/>
<text text-anchor="middle" x="1436.5" y="-44" font-family="Helvetica,sans-Serif" font-size="10.00">apply_star_sound_effect</text>
</a>
</g>
</g>
<!-- Node33&#45;&gt;Node34 -->
<g id="edge45_Node000033_Node000034" class="edge">
<title>Node33&#45;&gt;Node34</title>
<g id="a_edge45_Node000033_Node000034"><a xlink:title=" ">
<path fill="none" stroke="#63b8ff" d="M1538.03,-46.5C1527.06,-46.5 1515.46,-46.5 1504.18,-46.5"/>
<polygon fill="#63b8ff" stroke="#63b8ff" points="1538.31,-50 1548.31,-46.5 1538.31,-43 1538.31,-50"/>
</a>
</g>
</g>
<!-- Node36 -->
<g id="Node000036" class="node">
<title>Node36</title>
<g id="a_Node000036"><a xlink:href="effects_8c.html#a6e21e42b0229fe1e1829bd8909527e2b" target="_top" xlink:title=" ">
<polygon fill="white" stroke="#666666" points="1503.5,-19 1369.5,-19 1369.5,0 1503.5,0 1503.5,-19"/>
<text text-anchor="middle" x="1436.5" y="-7" font-family="Helvetica,sans-Serif" font-size="10.00">apply_boo_sound_effect</text>
</a>
</g>
</g>
<!-- Node35&#45;&gt;Node36 -->
<g id="edge47_Node000035_Node000036" class="edge">
<title>Node35&#45;&gt;Node36</title>
<g id="a_edge47_Node000035_Node000036"><a xlink:title=" ">
<path fill="none" stroke="#63b8ff" d="M1538.23,-9.5C1527.02,-9.5 1515.13,-9.5 1503.6,-9.5"/>
<polygon fill="#63b8ff" stroke="#63b8ff" points="1538.31,-13 1548.31,-9.5 1538.31,-6 1538.31,-13"/>
</a>
</g>
</g>
<!-- Node38 -->
<g id="Node000038" class="node">
<title>Node38</title>
<g id="a_Node000038"><a xlink:href="code__80071F00_8c.html#aa877563f476c1017e763b930b16a1e1a" target="_top" xlink:title=" ">
<polygon fill="white" stroke="#666666" points="1490,-251.5 1383,-251.5 1383,-221.5 1490,-221.5 1490,-251.5"/>
<text text-anchor="start" x="1391" y="-239.5" font-family="Helvetica,sans-Serif" font-size="10.00">update_obj_laikitu</text>
<text text-anchor="middle" x="1436.5" y="-228.5" font-family="Helvetica,sans-Serif" font-size="10.00">_fishing</text>
</a>
</g>
</g>
<!-- Node37&#45;&gt;Node38 -->
<g id="edge49_Node000037_Node000038" class="edge">
<title>Node37&#45;&gt;Node38</title>
<g id="a_edge49_Node000037_Node000038"><a xlink:title=" ">
<path fill="none" stroke="#63b8ff" d="M1529.75,-216.46C1516.57,-219.32 1502.84,-222.31 1490.12,-225.07"/>
<polygon fill="#63b8ff" stroke="#63b8ff" points="1530.67,-219.84 1539.7,-214.3 1529.19,-213 1530.67,-219.84"/>
</a>
</g>
</g>
<!-- Node39 -->
<g id="Node000039" class="node">
<title>Node39</title>
<g id="a_Node000039"><a xlink:href="code__80071F00_8c.html#ac65787e8ce499460590fe4aa7d12aad6" target="_top" xlink:title=" ">
<polygon fill="white" stroke="#666666" points="1490,-203.5 1383,-203.5 1383,-173.5 1490,-173.5 1490,-203.5"/>
<text text-anchor="start" x="1391" y="-191.5" font-family="Helvetica,sans-Serif" font-size="10.00">update_obj_laikitu</text>
<text text-anchor="middle" x="1436.5" y="-180.5" font-family="Helvetica,sans-Serif" font-size="10.00">_fishing2</text>
</a>
</g>
</g>
<!-- Node37&#45;&gt;Node39 -->
<g id="edge51_Node000037_Node000039" class="edge">
<title>Node37&#45;&gt;Node39</title>
<g id="a_edge51_Node000037_Node000039"><a xlink:title=" ">
<path fill="none" stroke="#63b8ff" d="M1529.37,-196.72C1516.3,-195.55 1502.71,-194.33 1490.12,-193.21"/>
<polygon fill="#63b8ff" stroke="#63b8ff" points="1529.43,-200.24 1539.7,-197.64 1530.05,-193.27 1529.43,-200.24"/>
</a>
</g>
</g>
<!-- Node38&#45;&gt;Node25 -->
<g id="edge50_Node000038_Node000025" class="edge">
<title>Node38&#45;&gt;Node25</title>
<g id="a_edge50_Node000038_Node000025"><a xlink:title=" ">
<path fill="none" stroke="#63b8ff" d="M1383.06,-217.84C1378.29,-216.07 1373.55,-214.27 1369,-212.5 1352.84,-206.22 1349.15,-203.78 1333,-197.5 1324.78,-194.3 1315.77,-190.98 1307.57,-188.02"/>
<polygon fill="#63b8ff" stroke="#63b8ff" points="1382.22,-221.26 1392.82,-221.44 1384.64,-214.7 1382.22,-221.26"/>
</a>
</g>
</g>
<!-- Node39&#45;&gt;Node25 -->
<g id="edge52_Node000039_Node000025" class="edge">
<title>Node39&#45;&gt;Node25</title>
<g id="a_edge52_Node000039_Node000025"><a xlink:title=" ">
<path fill="none" stroke="#63b8ff" d="M1372.31,-184.42C1359.31,-183.58 1345.75,-182.71 1333.17,-181.9"/>
<polygon fill="#63b8ff" stroke="#63b8ff" points="1372.39,-187.94 1382.59,-185.09 1372.84,-180.95 1372.39,-187.94"/>
</a>
</g>
</g>
</g>
</svg>

<g id="navigator" transform="translate(0 0)" fill="#404254">
  <rect fill="#f2f5e9" fill-opacity="0.5" stroke="#606060" stroke-width=".5" x="0" y="0" width="60" height="60"/>
  <use id="zoomplus" xlink:href="#zoomPlus" x="17" y="9" onmousedown="handleZoom(evt,'in')"/>
  <use id="zoomminus" xlink:href="#zoomMin" x="42" y="9" onmousedown="handleZoom(evt,'out')"/>
  <use id="reset" xlink:href="#resetDef" x="30" y="36" onmousedown="handleReset()"/>
   <use id="arrowup" xlink:href="#arrowUp" x="0" y="0" onmousedown="handlePan(0,-1)"/>
  <use id="arrowright" xlink:href="#arrowRight" x="0" y="0" onmousedown="handlePan(1,0)"/>
  <use id="arrowdown" xlink:href="#arrowDown" x="0" y="0" onmousedown="handlePan(0,1)"/>
  <use id="arrowleft" xlink:href="#arrowLeft" x="0" y="0" onmousedown="handlePan(-1,0)"/>
</g>
<svg viewBox="0 0 15 15" width="100%" height="30px" preserveAspectRatio="xMaxYMin meet">
 <g id="arrow_out" transform="scale(0.3 0.3)">
  <a xlink:href="external_8h_a7130d14cae066890c2597735780f8c1e_icgraph_org.svg" target="_base">
   <rect id="button" ry="5" rx="5" y="6" x="6" height="38" width="38"
        fill="#f2f5e9" fill-opacity="0.5" stroke="#606060" stroke-width="1.0"/>
   <path id="arrow"
     d="M 11.500037,31.436501 C 11.940474,20.09759 22.043105,11.32322 32.158766,21.979434 L 37.068811,17.246167 C 37.068811,17.246167 37.088388,32 37.088388,32 L 22.160133,31.978069 C 22.160133,31.978069 26.997745,27.140456 26.997745,27.140456 C 18.528582,18.264221 13.291696,25.230495 11.500037,31.436501 z"
     style="fill:#404040;"/>
  </a>
 </g>
</svg>

<style type='text/css'>
<![CDATA[
[data-mouse-over-selected='false'] { opacity: 0.7; }
[data-mouse-over-selected='true']  { opacity: 1.0; }
]]>
</style>
<script type="application/ecmascript"><![CDATA[
document.addEventListener('DOMContentLoaded', (event) => {
  highlightEdges();
  highlightAdjacentNodes();
});
]]></script>
</svg>
