<?xml version="1.0" encoding="UTF-8" standalone="no"?>
<!DOCTYPE svg PUBLIC "-//W3C//DTD SVG 1.1//EN"
 "http://www.w3.org/Graphics/SVG/1.1/DTD/svg11.dtd">
<!-- Generated by graphviz version 2.43.0 (0)
 -->
<!-- Title: func_800C1C88 Pages: 1 -->
<svg width="577pt" height="1573pt"
 viewBox="0.00 0.00 577.00 1572.50" xmlns="http://www.w3.org/2000/svg" xmlns:xlink="http://www.w3.org/1999/xlink">
<g id="graph0" class="graph" transform="scale(1 1) rotate(0) translate(4 1568.5)">
<title>func_800C1C88</title>
<!-- Node1 -->
<g id="Node000001" class="node">
<title>Node1</title>
<g id="a_Node000001"><a xlink:title=" ">
<polygon fill="#999999" stroke="#666666" points="569,-630 477,-630 477,-611 569,-611 569,-630"/>
<text text-anchor="middle" x="523" y="-618" font-family="Helvetica,sans-Serif" font-size="10.00">func_800C1C88</text>
</a>
</g>
</g>
<!-- Node2 -->
<g id="Node000002" class="node">
<title>Node2</title>
<g id="a_Node000002"><a xlink:href="external_8c.html#aad3025d980410fa157174acbf923f8c0" target="_top" xlink:title=" ">
<polygon fill="white" stroke="#666666" points="441,-1405 348,-1405 348,-1386 441,-1386 441,-1405"/>
<text text-anchor="middle" x="394.5" y="-1393" font-family="Helvetica,sans-Serif" font-size="10.00">func_800C92CC</text>
</a>
</g>
</g>
<!-- Node1&#45;&gt;Node2 -->
<g id="edge1_Node000001_Node000002" class="edge">
<title>Node1&#45;&gt;Node2</title>
<g id="a_edge1_Node000001_Node000002"><a xlink:title=" ">
<path fill="none" stroke="#63b8ff" d="M520.31,-640.31C513.61,-716.67 486.98,-998.99 441,-1227.5 428.72,-1288.52 406.74,-1360.12 398.62,-1385.76"/>
<polygon fill="#63b8ff" stroke="#63b8ff" points="523.81,-640.48 521.19,-630.22 516.84,-639.88 523.81,-640.48"/>
</a>
</g>
</g>
<!-- Node15 -->
<g id="Node000015" class="node">
<title>Node15</title>
<g id="a_Node000015"><a xlink:href="external_8c.html#acb60983213d09ee795e80ca3c8b5975e" target="_top" xlink:title=" ">
<polygon fill="white" stroke="#666666" points="440.5,-630 348.5,-630 348.5,-611 440.5,-611 440.5,-630"/>
<text text-anchor="middle" x="394.5" y="-618" font-family="Helvetica,sans-Serif" font-size="10.00">func_800C98B8</text>
</a>
</g>
</g>
<!-- Node1&#45;&gt;Node15 -->
<g id="edge10_Node000001_Node000015" class="edge">
<title>Node1&#45;&gt;Node15</title>
<g id="a_edge10_Node000001_Node000015"><a xlink:title=" ">
<path fill="none" stroke="#63b8ff" d="M466.43,-620.5C457.9,-620.5 449.19,-620.5 440.92,-620.5"/>
<polygon fill="#63b8ff" stroke="#63b8ff" points="466.69,-624 476.69,-620.5 466.69,-617 466.69,-624"/>
</a>
</g>
</g>
<!-- Node90 -->
<g id="Node000090" class="node">
<title>Node90</title>
<g id="a_Node000090"><a xlink:href="external_8c.html#af11a3f15b321772485efd466049680e1" target="_top" xlink:title=" ">
<polygon fill="white" stroke="#666666" points="440.5,-93 348.5,-93 348.5,-74 440.5,-74 440.5,-93"/>
<text text-anchor="middle" x="394.5" y="-81" font-family="Helvetica,sans-Serif" font-size="10.00">func_800C9A88</text>
</a>
</g>
</g>
<!-- Node1&#45;&gt;Node90 -->
<g id="edge44_Node000001_Node000090" class="edge">
<title>Node1&#45;&gt;Node90</title>
<g id="a_edge44_Node000001_Node000090"><a xlink:title=" ">
<path fill="none" stroke="#63b8ff" d="M517.4,-600.97C496.7,-513.12 412.6,-156.09 397.75,-93.04"/>
<polygon fill="#63b8ff" stroke="#63b8ff" points="514,-601.79 519.7,-610.72 520.81,-600.18 514,-601.79"/>
</a>
</g>
</g>
<!-- Node109 -->
<g id="Node000109" class="node">
<title>Node109</title>
<g id="a_Node000109"><a xlink:href="external_8c.html#a903d1c248a30cd68262a6833b9c0b112" target="_top" xlink:title=" ">
<polygon fill="white" stroke="#666666" points="441,-1218 348,-1218 348,-1199 441,-1199 441,-1218"/>
<text text-anchor="middle" x="394.5" y="-1206" font-family="Helvetica,sans-Serif" font-size="10.00">func_800C9D80</text>
</a>
</g>
</g>
<!-- Node1&#45;&gt;Node109 -->
<g id="edge47_Node000001_Node000109" class="edge">
<title>Node1&#45;&gt;Node109</title>
<g id="a_edge47_Node000001_Node000109"><a xlink:title=" ">
<path fill="none" stroke="#63b8ff" d="M517.8,-640.04C497.73,-733.33 412.01,-1131.76 397.57,-1198.88"/>
<polygon fill="#63b8ff" stroke="#63b8ff" points="521.23,-640.73 519.91,-630.22 514.38,-639.26 521.23,-640.73"/>
</a>
</g>
</g>
<!-- Node120 -->
<g id="Node000120" class="node">
<title>Node120</title>
<g id="a_Node000120"><a xlink:href="external_8c.html#ac0dc5429ad9f1e8931403f4a1984423f" target="_top" xlink:title=" ">
<polygon fill="white" stroke="#666666" points="440.5,-38 348.5,-38 348.5,-19 440.5,-19 440.5,-38"/>
<text text-anchor="middle" x="394.5" y="-26" font-family="Helvetica,sans-Serif" font-size="10.00">func_800CA984</text>
</a>
</g>
</g>
<!-- Node1&#45;&gt;Node120 -->
<g id="edge56_Node000001_Node000120" class="edge">
<title>Node1&#45;&gt;Node120</title>
<g id="a_edge56_Node000001_Node000120"><a xlink:title=" ">
<path fill="none" stroke="#63b8ff" d="M521.01,-600.47C516.38,-512.45 494.73,-160.11 441,-65.5 434.46,-53.99 422.83,-44.63 412.97,-38.2"/>
<polygon fill="#63b8ff" stroke="#63b8ff" points="517.53,-600.87 521.53,-610.68 524.52,-600.52 517.53,-600.87"/>
</a>
</g>
</g>
<!-- Node3 -->
<g id="Node000003" class="node">
<title>Node3</title>
<g id="a_Node000003"><a xlink:href="code__80005FD0_8c.html#a06783cccfdd317d1f883612230c6cf5c" target="_top" xlink:title=" ">
<polygon fill="white" stroke="#666666" points="290.5,-1442 198.5,-1442 198.5,-1423 290.5,-1423 290.5,-1442"/>
<text text-anchor="middle" x="244.5" y="-1430" font-family="Helvetica,sans-Serif" font-size="10.00">func_800098FC</text>
</a>
</g>
</g>
<!-- Node2&#45;&gt;Node3 -->
<g id="edge2_Node000002_Node000003" class="edge">
<title>Node2&#45;&gt;Node3</title>
<g id="a_edge2_Node000002_Node000003"><a xlink:title=" ">
<path fill="none" stroke="#63b8ff" d="M345.53,-1407.49C325.51,-1412.5 302.59,-1418.23 283.74,-1422.94"/>
<polygon fill="#63b8ff" stroke="#63b8ff" points="346.53,-1410.85 355.39,-1405.03 344.84,-1404.06 346.53,-1410.85"/>
</a>
</g>
</g>
<!-- Node14 -->
<g id="Node000014" class="node">
<title>Node14</title>
<g id="a_Node000014"><a xlink:href="code__80005FD0_8c.html#ab64e3db39c0df021f9d8d03a00ce58cd" target="_top" xlink:title=" ">
<polygon fill="white" stroke="#666666" points="290.5,-1405 198.5,-1405 198.5,-1386 290.5,-1386 290.5,-1405"/>
<text text-anchor="middle" x="244.5" y="-1393" font-family="Helvetica,sans-Serif" font-size="10.00">func_800099EC</text>
</a>
</g>
</g>
<!-- Node2&#45;&gt;Node14 -->
<g id="edge9_Node000002_Node000014" class="edge">
<title>Node2&#45;&gt;Node14</title>
<g id="a_edge9_Node000002_Node000014"><a xlink:title=" ">
<path fill="none" stroke="#63b8ff" d="M337.86,-1395.5C322.3,-1395.5 305.58,-1395.5 290.71,-1395.5"/>
<polygon fill="#63b8ff" stroke="#63b8ff" points="337.89,-1399 347.89,-1395.5 337.89,-1392 337.89,-1399"/>
</a>
</g>
</g>
<!-- Node4 -->
<g id="Node000004" class="node">
<title>Node4</title>
<g id="a_Node000004"><a xlink:href="effects_8c.html#a4db388444870e3607555465cde8d2b69" target="_top" xlink:title=" ">
<polygon fill="white" stroke="#666666" points="141,-1564.5 0,-1564.5 0,-1534.5 141,-1534.5 141,-1564.5"/>
<text text-anchor="start" x="8" y="-1552.5" font-family="Helvetica,sans-Serif" font-size="10.00">apply_hit_by_item_sound</text>
<text text-anchor="middle" x="70.5" y="-1541.5" font-family="Helvetica,sans-Serif" font-size="10.00">_effect</text>
</a>
</g>
</g>
<!-- Node3&#45;&gt;Node4 -->
<g id="edge3_Node000003_Node000004" class="edge">
<title>Node3&#45;&gt;Node4</title>
<g id="a_edge3_Node000003_Node000004"><a xlink:title=" ">
<path fill="none" stroke="#63b8ff" d="M228.64,-1449.7C210.02,-1470.3 176.25,-1504.62 141,-1525.5 135.4,-1528.82 129.27,-1531.77 123.05,-1534.36"/>
<polygon fill="#63b8ff" stroke="#63b8ff" points="231.41,-1451.85 235.43,-1442.04 226.18,-1447.2 231.41,-1451.85"/>
</a>
</g>
</g>
<!-- Node5 -->
<g id="Node000005" class="node">
<title>Node5</title>
<g id="a_Node000005"><a xlink:href="effects_8c.html#aece20fae49c1ae118b247aec04f52f83" target="_top" xlink:title=" ">
<polygon fill="white" stroke="#666666" points="123,-1516.5 18,-1516.5 18,-1486.5 123,-1486.5 123,-1516.5"/>
<text text-anchor="start" x="26" y="-1504.5" font-family="Helvetica,sans-Serif" font-size="10.00">apply_hit_rotating</text>
<text text-anchor="middle" x="70.5" y="-1493.5" font-family="Helvetica,sans-Serif" font-size="10.00">_sound_effect</text>
</a>
</g>
</g>
<!-- Node3&#45;&gt;Node5 -->
<g id="edge4_Node000003_Node000005" class="edge">
<title>Node3&#45;&gt;Node5</title>
<g id="a_edge4_Node000003_Node000005"><a xlink:title=" ">
<path fill="none" stroke="#63b8ff" d="M213.56,-1446.41C193.26,-1455.65 165.73,-1467.82 141,-1477.5 133.27,-1480.52 124.99,-1483.56 116.93,-1486.41"/>
<polygon fill="#63b8ff" stroke="#63b8ff" points="215.26,-1449.48 222.9,-1442.13 212.35,-1443.12 215.26,-1449.48"/>
</a>
</g>
</g>
<!-- Node6 -->
<g id="Node000006" class="node">
<title>Node6</title>
<g id="a_Node000006"><a xlink:href="effects_8c.html#a5332b3e2f6c9720f7fd0eea6b7af3359" target="_top" xlink:title=" ">
<polygon fill="white" stroke="#666666" points="130.5,-1468.5 10.5,-1468.5 10.5,-1438.5 130.5,-1438.5 130.5,-1468.5"/>
<text text-anchor="start" x="18.5" y="-1456.5" font-family="Helvetica,sans-Serif" font-size="10.00">apply_reverse_sound</text>
<text text-anchor="middle" x="70.5" y="-1445.5" font-family="Helvetica,sans-Serif" font-size="10.00">_effect</text>
</a>
</g>
</g>
<!-- Node3&#45;&gt;Node6 -->
<g id="edge5_Node000003_Node000006" class="edge">
<title>Node3&#45;&gt;Node6</title>
<g id="a_edge5_Node000003_Node000006"><a xlink:title=" ">
<path fill="none" stroke="#63b8ff" d="M188.33,-1439.24C169.92,-1441.48 149.33,-1444 130.63,-1446.28"/>
<polygon fill="#63b8ff" stroke="#63b8ff" points="188.81,-1442.7 198.31,-1438.02 187.96,-1435.76 188.81,-1442.7"/>
</a>
</g>
</g>
<!-- Node7 -->
<g id="Node000007" class="node">
<title>Node7</title>
<g id="a_Node000007"><a xlink:href="effects_8c.html#a6fc4c8f6786be15941bfce0c8575b7cf" target="_top" xlink:title=" ">
<polygon fill="white" stroke="#666666" points="116.5,-1420 24.5,-1420 24.5,-1401 116.5,-1401 116.5,-1420"/>
<text text-anchor="middle" x="70.5" y="-1408" font-family="Helvetica,sans-Serif" font-size="10.00">func_8008C528</text>
</a>
</g>
</g>
<!-- Node3&#45;&gt;Node7 -->
<g id="edge6_Node000003_Node000007" class="edge">
<title>Node3&#45;&gt;Node7</title>
<g id="a_edge6_Node000003_Node000007"><a xlink:title=" ">
<path fill="none" stroke="#63b8ff" d="M188.29,-1425.44C165.17,-1422.48 138.62,-1419.09 116.69,-1416.28"/>
<polygon fill="#63b8ff" stroke="#63b8ff" points="187.95,-1428.92 198.31,-1426.72 188.83,-1421.98 187.95,-1428.92"/>
</a>
</g>
</g>
<!-- Node8 -->
<g id="Node000008" class="node">
<title>Node8</title>
<g id="a_Node000008"><a xlink:href="effects_8c.html#af25de8f70a7ecb552619235df793b951" target="_top" xlink:title=" ">
<polygon fill="#fff0f0" stroke="red" points="116.5,-1383 24.5,-1383 24.5,-1364 116.5,-1364 116.5,-1383"/>
<text text-anchor="middle" x="70.5" y="-1371" font-family="Helvetica,sans-Serif" font-size="10.00">func_8008C73C</text>
</a>
</g>
</g>
<!-- Node3&#45;&gt;Node8 -->
<g id="edge7_Node000003_Node000008" class="edge">
<title>Node3&#45;&gt;Node8</title>
<g id="a_edge7_Node000003_Node000008"><a xlink:title=" ">
<path fill="none" stroke="#63b8ff" d="M191.47,-1419.96C186.52,-1418.31 181.62,-1416.49 177,-1414.5 159.78,-1407.09 158.21,-1399.93 141,-1392.5 132.5,-1388.83 123.11,-1385.69 114.05,-1383.09"/>
<polygon fill="#63b8ff" stroke="#63b8ff" points="190.43,-1423.31 201.02,-1422.94 192.52,-1416.62 190.43,-1423.31"/>
</a>
</g>
</g>
<!-- Node12 -->
<g id="Node000012" class="node">
<title>Node12</title>
<g id="a_Node000012"><a xlink:href="effects_8c.html#a91101066503279f64d1972e074533e32" target="_top" xlink:title=" ">
<polygon fill="#fff0f0" stroke="red" points="118,-1346 23,-1346 23,-1327 118,-1327 118,-1346"/>
<text text-anchor="middle" x="70.5" y="-1334" font-family="Helvetica,sans-Serif" font-size="10.00">func_8008DABC</text>
</a>
</g>
</g>
<!-- Node3&#45;&gt;Node12 -->
<g id="edge8_Node000003_Node000012" class="edge">
<title>Node3&#45;&gt;Node12</title>
<g id="a_edge8_Node000003_Node000012"><a xlink:title=" ">
<path fill="none" stroke="#63b8ff" d="M188.92,-1421.53C184.69,-1419.56 180.65,-1417.24 177,-1414.5 152.43,-1396.07 165.55,-1373.97 141,-1355.5 134.3,-1350.46 126.35,-1346.76 118.26,-1344.04"/>
<polygon fill="#63b8ff" stroke="#63b8ff" points="187.83,-1424.86 198.42,-1425.3 190.41,-1418.36 187.83,-1424.86"/>
</a>
</g>
</g>
<!-- Node16 -->
<g id="Node000016" class="node">
<title>Node16</title>
<g id="a_Node000016"><a xlink:href="code__80005FD0_8c.html#aa196422871ac2034500952ad883d7cfa" target="_top" xlink:title=" ">
<polygon fill="#fff0f0" stroke="red" points="290.5,-1058 198.5,-1058 198.5,-1039 290.5,-1039 290.5,-1058"/>
<text text-anchor="middle" x="244.5" y="-1046" font-family="Helvetica,sans-Serif" font-size="10.00">func_80012AC0</text>
</a>
</g>
</g>
<!-- Node15&#45;&gt;Node16 -->
<g id="edge11_Node000015_Node000016" class="edge">
<title>Node15&#45;&gt;Node16</title>
<g id="a_edge11_Node000015_Node000016"><a xlink:title=" ">
<path fill="none" stroke="#63b8ff" d="M392.27,-640.29C387.28,-714.15 366.2,-972.48 312,-1030.5 306.28,-1036.62 298.72,-1040.74 290.75,-1043.49"/>
<polygon fill="#63b8ff" stroke="#63b8ff" points="395.78,-640.28 392.93,-630.07 388.79,-639.83 395.78,-640.28"/>
</a>
</g>
</g>
<!-- Node26 -->
<g id="Node000026" class="node">
<title>Node26</title>
<g id="a_Node000026"><a xlink:href="code__80005FD0_8c.html#a5cca0976a33dd72797e8a302fbcc50d2" target="_top" xlink:title=" ">
<polygon fill="#fff0f0" stroke="red" points="290.5,-1021 198.5,-1021 198.5,-1002 290.5,-1002 290.5,-1021"/>
<text text-anchor="middle" x="244.5" y="-1009" font-family="Helvetica,sans-Serif" font-size="10.00">func_800133C4</text>
</a>
</g>
</g>
<!-- Node15&#45;&gt;Node26 -->
<g id="edge12_Node000015_Node000026" class="edge">
<title>Node15&#45;&gt;Node26</title>
<g id="a_edge12_Node000015_Node000026"><a xlink:title=" ">
<path fill="none" stroke="#63b8ff" d="M391.85,-640.28C385.65,-709.78 361.57,-941.43 312,-993.5 306.23,-999.56 298.64,-1003.66 290.66,-1006.41"/>
<polygon fill="#63b8ff" stroke="#63b8ff" points="395.34,-640.5 392.72,-630.24 388.37,-639.9 395.34,-640.5"/>
</a>
</g>
</g>
<!-- Node27 -->
<g id="Node000027" class="node">
<title>Node27</title>
<g id="a_Node000027"><a xlink:href="code__80005FD0_8c.html#a16963ad113ed61f2cb0ed16547a71824" target="_top" xlink:title=" ">
<polygon fill="#fff0f0" stroke="red" points="290.5,-1095 198.5,-1095 198.5,-1076 290.5,-1076 290.5,-1095"/>
<text text-anchor="middle" x="244.5" y="-1083" font-family="Helvetica,sans-Serif" font-size="10.00">func_80013F7C</text>
</a>
</g>
</g>
<!-- Node15&#45;&gt;Node27 -->
<g id="edge13_Node000015_Node000027" class="edge">
<title>Node15&#45;&gt;Node27</title>
<g id="a_edge13_Node000015_Node000027"><a xlink:title=" ">
<path fill="none" stroke="#63b8ff" d="M392.61,-640.53C388.74,-718.91 370.78,-1003.56 312,-1067.5 306.33,-1073.66 298.79,-1077.8 290.83,-1080.56"/>
<polygon fill="#63b8ff" stroke="#63b8ff" points="396.13,-640.31 393.1,-630.15 389.13,-639.98 396.13,-640.31"/>
</a>
</g>
</g>
<!-- Node32 -->
<g id="Node000032" class="node">
<title>Node32</title>
<g id="a_Node000032"><a xlink:href="code__80071F00_8c.html#a4cdabd48a6b2f27cbd4d420c93d54f09" target="_top" xlink:title=" ">
<polygon fill="#fff0f0" stroke="red" points="290.5,-947 198.5,-947 198.5,-928 290.5,-928 290.5,-947"/>
<text text-anchor="middle" x="244.5" y="-935" font-family="Helvetica,sans-Serif" font-size="10.00">func_8007E00C</text>
</a>
</g>
</g>
<!-- Node15&#45;&gt;Node32 -->
<g id="edge14_Node000015_Node000032" class="edge">
<title>Node15&#45;&gt;Node32</title>
<g id="a_edge14_Node000015_Node000032"><a xlink:title=" ">
<path fill="none" stroke="#63b8ff" d="M393.85,-640.24C393.7,-692.09 386.11,-833.61 312,-913.5 306.16,-919.8 298.54,-924.45 290.55,-927.88"/>
<polygon fill="#63b8ff" stroke="#63b8ff" points="397.35,-640.06 393.79,-630.08 390.35,-640.11 397.35,-640.06"/>
</a>
</g>
</g>
<!-- Node39 -->
<g id="Node000039" class="node">
<title>Node39</title>
<g id="a_Node000039"><a xlink:href="code__80071F00_8c.html#a86fe7e1a5b390123168b404e8d2ffb47" target="_top" xlink:title=" ">
<polygon fill="#fff0f0" stroke="red" points="290.5,-871 198.5,-871 198.5,-852 290.5,-852 290.5,-871"/>
<text text-anchor="middle" x="244.5" y="-859" font-family="Helvetica,sans-Serif" font-size="10.00">func_8007E63C</text>
</a>
</g>
</g>
<!-- Node15&#45;&gt;Node39 -->
<g id="edge15_Node000015_Node000039" class="edge">
<title>Node15&#45;&gt;Node39</title>
<g id="a_edge15_Node000015_Node000039"><a xlink:title=" ">
<path fill="none" stroke="#63b8ff" d="M392.18,-640.36C388.2,-683.85 372.5,-787.99 312,-843.5 306.01,-849 298.51,-852.85 290.72,-855.53"/>
<polygon fill="#63b8ff" stroke="#63b8ff" points="395.68,-640.49 392.99,-630.24 388.7,-639.93 395.68,-640.49"/>
</a>
</g>
</g>
<!-- Node47 -->
<g id="Node000047" class="node">
<title>Node47</title>
<g id="a_Node000047"><a xlink:href="code__80071F00_8c.html#ae2ff9989b0aaaaf8fb3b0a9d26aa9c2c" target="_top" xlink:title=" ">
<polygon fill="#fff0f0" stroke="red" points="116.5,-890 24.5,-890 24.5,-871 116.5,-871 116.5,-890"/>
<text text-anchor="middle" x="70.5" y="-878" font-family="Helvetica,sans-Serif" font-size="10.00">func_800808CC</text>
</a>
</g>
</g>
<!-- Node15&#45;&gt;Node47 -->
<g id="edge18_Node000015_Node000047" class="edge">
<title>Node15&#45;&gt;Node47</title>
<g id="a_edge18_Node000015_Node000047"><a xlink:title=" ">
<path fill="none" stroke="#63b8ff" d="M394.38,-640.15C395.43,-690.27 390.34,-822.95 312,-880.5 248.4,-927.22 147.62,-904.95 99.23,-890.1"/>
<polygon fill="#63b8ff" stroke="#63b8ff" points="397.88,-639.9 394.06,-630.01 390.88,-640.12 397.88,-639.9"/>
</a>
</g>
</g>
<!-- Node48 -->
<g id="Node000048" class="node">
<title>Node48</title>
<g id="a_Node000048"><a xlink:href="code__80071F00_8c.html#a954cae767f5352e4be4a8bd9d77cc824" target="_top" xlink:title=" ">
<polygon fill="#fff0f0" stroke="red" points="290,-834 199,-834 199,-815 290,-815 290,-834"/>
<text text-anchor="middle" x="244.5" y="-822" font-family="Helvetica,sans-Serif" font-size="10.00">func_80080408</text>
</a>
</g>
</g>
<!-- Node15&#45;&gt;Node48 -->
<g id="edge17_Node000015_Node000048" class="edge">
<title>Node15&#45;&gt;Node48</title>
<g id="a_edge17_Node000015_Node000048"><a xlink:title=" ">
<path fill="none" stroke="#63b8ff" d="M390.49,-640.66C383.7,-678.9 363.56,-762.08 312,-806.5 305.75,-811.89 298.03,-815.68 290.1,-818.34"/>
<polygon fill="#63b8ff" stroke="#63b8ff" points="394.02,-640.77 392.19,-630.33 387.11,-639.63 394.02,-640.77"/>
</a>
</g>
</g>
<!-- Node49 -->
<g id="Node000049" class="node">
<title>Node49</title>
<g id="a_Node000049"><a xlink:href="code__80071F00_8c.html#a4b579f9c92da3a42a923f3c5697dc203" target="_top" xlink:title=" ">
<polygon fill="#fff0f0" stroke="red" points="290.5,-797 198.5,-797 198.5,-778 290.5,-778 290.5,-797"/>
<text text-anchor="middle" x="244.5" y="-785" font-family="Helvetica,sans-Serif" font-size="10.00">func_80080A4C</text>
</a>
</g>
</g>
<!-- Node15&#45;&gt;Node49 -->
<g id="edge19_Node000015_Node000049" class="edge">
<title>Node15&#45;&gt;Node49</title>
<g id="a_edge19_Node000015_Node000049"><a xlink:title=" ">
<path fill="none" stroke="#63b8ff" d="M388.22,-640.18C378.6,-672.24 355.09,-735.55 312,-769.5 305.8,-774.39 298.38,-777.95 290.77,-780.55"/>
<polygon fill="#63b8ff" stroke="#63b8ff" points="391.68,-640.82 391.06,-630.25 384.95,-638.9 391.68,-640.82"/>
</a>
</g>
</g>
<!-- Node50 -->
<g id="Node000050" class="node">
<title>Node50</title>
<g id="a_Node000050"><a xlink:href="code__80071F00_8c.html#a9d70284cbdcf98a1af0f877fef63dd21" target="_top" xlink:title=" ">
<polygon fill="#fff0f0" stroke="red" points="290.5,-760 198.5,-760 198.5,-741 290.5,-741 290.5,-760"/>
<text text-anchor="middle" x="244.5" y="-748" font-family="Helvetica,sans-Serif" font-size="10.00">func_80080B28</text>
</a>
</g>
</g>
<!-- Node15&#45;&gt;Node50 -->
<g id="edge20_Node000015_Node000050" class="edge">
<title>Node15&#45;&gt;Node50</title>
<g id="a_edge20_Node000015_Node000050"><a xlink:title=" ">
<path fill="none" stroke="#63b8ff" d="M384.76,-639.54C372.24,-664.67 346.82,-708.53 312,-732.5 305.6,-736.91 298.16,-740.24 290.62,-742.76"/>
<polygon fill="#63b8ff" stroke="#63b8ff" points="388.02,-640.85 389.19,-630.32 381.71,-637.82 388.02,-640.85"/>
</a>
</g>
</g>
<!-- Node51 -->
<g id="Node000051" class="node">
<title>Node51</title>
<g id="a_Node000051"><a xlink:href="code__80071F00_8c.html#a76c986375d316888fd69967b818ae7f3" target="_top" xlink:title=" ">
<polygon fill="#fff0f0" stroke="red" points="290.5,-723 198.5,-723 198.5,-704 290.5,-704 290.5,-723"/>
<text text-anchor="middle" x="244.5" y="-711" font-family="Helvetica,sans-Serif" font-size="10.00">func_80081AFC</text>
</a>
</g>
</g>
<!-- Node15&#45;&gt;Node51 -->
<g id="edge21_Node000015_Node000051" class="edge">
<title>Node15&#45;&gt;Node51</title>
<g id="a_edge21_Node000015_Node000051"><a xlink:title=" ">
<path fill="none" stroke="#63b8ff" d="M379.28,-637.74C364.26,-654.83 339.06,-680.57 312,-695.5 305.4,-699.14 298.02,-702.08 290.65,-704.44"/>
<polygon fill="#63b8ff" stroke="#63b8ff" points="381.95,-640 385.79,-630.12 376.63,-635.44 381.95,-640"/>
</a>
</g>
</g>
<!-- Node54 -->
<g id="Node000054" class="node">
<title>Node54</title>
<g id="a_Node000054"><a xlink:href="code__80071F00_8c.html#a083acc5eddd6095b3c9f21a9fdea7fca" target="_top" xlink:title=" ">
<polygon fill="#fff0f0" stroke="red" points="290,-686 199,-686 199,-667 290,-667 290,-686"/>
<text text-anchor="middle" x="244.5" y="-674" font-family="Helvetica,sans-Serif" font-size="10.00">func_80082870</text>
</a>
</g>
</g>
<!-- Node15&#45;&gt;Node54 -->
<g id="edge22_Node000015_Node000054" class="edge">
<title>Node15&#45;&gt;Node54</title>
<g id="a_edge22_Node000015_Node000054"><a xlink:title=" ">
<path fill="none" stroke="#63b8ff" d="M366.35,-634.59C350.73,-642.33 330.58,-651.71 312,-658.5 303.46,-661.62 294.13,-664.47 285.23,-666.94"/>
<polygon fill="#63b8ff" stroke="#63b8ff" points="368.07,-637.64 375.43,-630.02 364.93,-631.39 368.07,-637.64"/>
</a>
</g>
</g>
<!-- Node55 -->
<g id="Node000055" class="node">
<title>Node55</title>
<g id="a_Node000055"><a xlink:href="code__80071F00_8c.html#a9f7d6039676ea5158b8258acce3880db" target="_top" xlink:title=" ">
<polygon fill="#fff0f0" stroke="red" points="290.5,-649 198.5,-649 198.5,-630 290.5,-630 290.5,-649"/>
<text text-anchor="middle" x="244.5" y="-637" font-family="Helvetica,sans-Serif" font-size="10.00">func_80084B7C</text>
</a>
</g>
</g>
<!-- Node15&#45;&gt;Node55 -->
<g id="edge23_Node000015_Node000055" class="edge">
<title>Node15&#45;&gt;Node55</title>
<g id="a_edge23_Node000015_Node000055"><a xlink:title=" ">
<path fill="none" stroke="#63b8ff" d="M338.2,-627.6C322.54,-629.61 305.68,-631.77 290.69,-633.7"/>
<polygon fill="#63b8ff" stroke="#63b8ff" points="338.82,-631.05 348.29,-626.3 337.93,-624.11 338.82,-631.05"/>
</a>
</g>
</g>
<!-- Node57 -->
<g id="Node000057" class="node">
<title>Node57</title>
<g id="a_Node000057"><a xlink:href="code__80071F00_8c.html#aec97ab2ca2e5e67501aeda33b6441c37" target="_top" xlink:title=" ">
<polygon fill="#fff0f0" stroke="red" points="290.5,-612 198.5,-612 198.5,-593 290.5,-593 290.5,-612"/>
<text text-anchor="middle" x="244.5" y="-600" font-family="Helvetica,sans-Serif" font-size="10.00">func_800859C8</text>
</a>
</g>
</g>
<!-- Node15&#45;&gt;Node57 -->
<g id="edge24_Node000015_Node000057" class="edge">
<title>Node15&#45;&gt;Node57</title>
<g id="a_edge24_Node000015_Node000057"><a xlink:title=" ">
<path fill="none" stroke="#63b8ff" d="M338.2,-613.77C322.54,-611.87 305.68,-609.82 290.69,-608"/>
<polygon fill="#63b8ff" stroke="#63b8ff" points="337.94,-617.27 348.29,-615 338.79,-610.32 337.94,-617.27"/>
</a>
</g>
</g>
<!-- Node59 -->
<g id="Node000059" class="node">
<title>Node59</title>
<g id="a_Node000059"><a xlink:href="actors_8c.html#a473b64ad83f4eaa3f65202a629eab481" target="_top" xlink:title=" ">
<polygon fill="#fff0f0" stroke="red" points="290.5,-575 198.5,-575 198.5,-556 290.5,-556 290.5,-575"/>
<text text-anchor="middle" x="244.5" y="-563" font-family="Helvetica,sans-Serif" font-size="10.00">func_802986B4</text>
</a>
</g>
</g>
<!-- Node15&#45;&gt;Node59 -->
<g id="edge25_Node000015_Node000059" class="edge">
<title>Node15&#45;&gt;Node59</title>
<g id="a_edge25_Node000015_Node000059"><a xlink:title=" ">
<path fill="none" stroke="#63b8ff" d="M364.56,-606.55C349.16,-599.43 329.78,-590.93 312,-584.5 302.52,-581.07 292.1,-577.84 282.37,-575.06"/>
<polygon fill="#63b8ff" stroke="#63b8ff" points="363.51,-609.92 374.05,-611 366.48,-603.59 363.51,-609.92"/>
</a>
</g>
</g>
<!-- Node71 -->
<g id="Node000071" class="node">
<title>Node71</title>
<g id="a_Node000071"><a xlink:href="actors_8c.html#af5a55f197872c082b12f5d080bdb0818" target="_top" xlink:title=" ">
<polygon fill="#fff0f0" stroke="red" points="290.5,-538 198.5,-538 198.5,-519 290.5,-519 290.5,-538"/>
<text text-anchor="middle" x="244.5" y="-526" font-family="Helvetica,sans-Serif" font-size="10.00">func_80298AC0</text>
</a>
</g>
</g>
<!-- Node15&#45;&gt;Node71 -->
<g id="edge26_Node000015_Node000071" class="edge">
<title>Node15&#45;&gt;Node71</title>
<g id="a_edge26_Node000015_Node000071"><a xlink:title=" ">
<path fill="none" stroke="#63b8ff" d="M378.48,-603.1C363.29,-586.53 338.34,-562.04 312,-547.5 305.06,-543.67 297.28,-540.55 289.55,-538.03"/>
<polygon fill="#63b8ff" stroke="#63b8ff" points="376.22,-605.82 385.49,-610.94 381.43,-601.15 376.22,-605.82"/>
</a>
</g>
</g>
<!-- Node74 -->
<g id="Node000074" class="node">
<title>Node74</title>
<g id="a_Node000074"><a xlink:href="actors_8c.html#aefb6b9376348cedddb2b69ed0441d5f9" target="_top" xlink:title=" ">
<polygon fill="white" stroke="#666666" points="290,-462 199,-462 199,-443 290,-443 290,-462"/>
<text text-anchor="middle" x="244.5" y="-450" font-family="Helvetica,sans-Serif" font-size="10.00">func_8029F1F8</text>
</a>
</g>
</g>
<!-- Node15&#45;&gt;Node74 -->
<g id="edge27_Node000015_Node000074" class="edge">
<title>Node15&#45;&gt;Node74</title>
<g id="a_edge27_Node000015_Node000074"><a xlink:title=" ">
<path fill="none" stroke="#63b8ff" d="M387.43,-601.01C376.92,-570.3 352.47,-510.66 312,-476.5 304.59,-470.25 295.42,-465.57 286.28,-462.08"/>
<polygon fill="#63b8ff" stroke="#63b8ff" points="384.24,-602.5 390.68,-610.91 390.89,-600.32 384.24,-602.5"/>
</a>
</g>
</g>
<!-- Node75 -->
<g id="Node000075" class="node">
<title>Node75</title>
<g id="a_Node000075"><a xlink:href="actors_8c.html#a5d0cc071261caa5b76190cfee9c90189" target="_top" xlink:title=" ">
<polygon fill="#fff0f0" stroke="red" points="116.5,-425 24.5,-425 24.5,-406 116.5,-406 116.5,-425"/>
<text text-anchor="middle" x="70.5" y="-413" font-family="Helvetica,sans-Serif" font-size="10.00">func_802A0450</text>
</a>
</g>
</g>
<!-- Node15&#45;&gt;Node75 -->
<g id="edge38_Node000015_Node000075" class="edge">
<title>Node15&#45;&gt;Node75</title>
<g id="a_edge38_Node000015_Node000075"><a xlink:title=" ">
<path fill="none" stroke="#63b8ff" d="M384.61,-601.89C371.93,-577.3 346.31,-534.34 312,-510.5 260.71,-474.87 234.89,-494.93 177,-471.5 143.75,-458.04 107.26,-437.2 87.09,-425.1"/>
<polygon fill="#63b8ff" stroke="#63b8ff" points="381.52,-603.52 389.11,-610.91 387.78,-600.39 381.52,-603.52"/>
</a>
</g>
</g>
<!-- Node77 -->
<g id="Node000077" class="node">
<title>Node77</title>
<g id="a_Node000077"><a xlink:href="actors_8c.html#a8c445675ccf4a4e5b084589b363f129d" target="_top" xlink:title=" ">
<polygon fill="white" stroke="#666666" points="290.5,-425 198.5,-425 198.5,-406 290.5,-406 290.5,-425"/>
<text text-anchor="middle" x="244.5" y="-413" font-family="Helvetica,sans-Serif" font-size="10.00">func_8029F2FC</text>
</a>
</g>
</g>
<!-- Node15&#45;&gt;Node77 -->
<g id="edge29_Node000015_Node000077" class="edge">
<title>Node15&#45;&gt;Node77</title>
<g id="a_edge29_Node000015_Node000077"><a xlink:title=" ">
<path fill="none" stroke="#63b8ff" d="M390.44,-600.4C383.55,-562.28 363.25,-479.27 312,-434.5 305.94,-429.21 298.5,-425.38 290.81,-422.62"/>
<polygon fill="#63b8ff" stroke="#63b8ff" points="387.06,-601.42 392.16,-610.7 393.96,-600.26 387.06,-601.42"/>
</a>
</g>
</g>
<!-- Node78 -->
<g id="Node000078" class="node">
<title>Node78</title>
<g id="a_Node000078"><a xlink:href="actors_8c.html#ac43b9e91a785fd3e0c8a4279b2713c06" target="_top" xlink:title=" ">
<polygon fill="white" stroke="#666666" points="290,-388 199,-388 199,-369 290,-369 290,-388"/>
<text text-anchor="middle" x="244.5" y="-376" font-family="Helvetica,sans-Serif" font-size="10.00">func_8029F408</text>
</a>
</g>
</g>
<!-- Node15&#45;&gt;Node78 -->
<g id="edge31_Node000015_Node000078" class="edge">
<title>Node15&#45;&gt;Node78</title>
<g id="a_edge31_Node000015_Node000078"><a xlink:title=" ">
<path fill="none" stroke="#63b8ff" d="M392.12,-600.7C388.02,-557.34 372.11,-453.43 312,-397.5 305.85,-391.77 298.09,-387.76 290.06,-384.95"/>
<polygon fill="#63b8ff" stroke="#63b8ff" points="388.64,-601.12 392.96,-610.79 395.62,-600.54 388.64,-601.12"/>
</a>
</g>
</g>
<!-- Node79 -->
<g id="Node000079" class="node">
<title>Node79</title>
<g id="a_Node000079"><a xlink:href="actors_8c.html#a6c0c7ff521283f65486bac69b3e00e49" target="_top" xlink:title=" ">
<polygon fill="white" stroke="#666666" points="290.5,-351 198.5,-351 198.5,-332 290.5,-332 290.5,-351"/>
<text text-anchor="middle" x="244.5" y="-339" font-family="Helvetica,sans-Serif" font-size="10.00">func_8029F69C</text>
</a>
</g>
</g>
<!-- Node15&#45;&gt;Node79 -->
<g id="edge33_Node000015_Node000079" class="edge">
<title>Node15&#45;&gt;Node79</title>
<g id="a_edge33_Node000015_Node000079"><a xlink:title=" ">
<path fill="none" stroke="#63b8ff" d="M393.32,-600.78C391.79,-552.57 380.99,-427.75 312,-360.5 306.07,-354.72 298.5,-350.67 290.61,-347.85"/>
<polygon fill="#63b8ff" stroke="#63b8ff" points="389.83,-600.91 393.54,-610.83 396.82,-600.76 389.83,-600.91"/>
</a>
</g>
</g>
<!-- Node80 -->
<g id="Node000080" class="node">
<title>Node80</title>
<g id="a_Node000080"><a xlink:href="actors_8c.html#acd2980ed4c1c875919300053577d6f2c" target="_top" xlink:title=" ">
<polygon fill="white" stroke="#666666" points="290.5,-275 198.5,-275 198.5,-256 290.5,-256 290.5,-275"/>
<text text-anchor="middle" x="244.5" y="-263" font-family="Helvetica,sans-Serif" font-size="10.00">func_802A00E8</text>
</a>
</g>
</g>
<!-- Node15&#45;&gt;Node80 -->
<g id="edge35_Node000015_Node000080" class="edge">
<title>Node15&#45;&gt;Node80</title>
<g id="a_edge35_Node000015_Node000080"><a xlink:title=" ">
<path fill="none" stroke="#63b8ff" d="M391.08,-600.65C382.9,-536.56 354.4,-336.6 312,-289.5 306.25,-283.11 298.67,-278.43 290.7,-274.99"/>
<polygon fill="#63b8ff" stroke="#63b8ff" points="387.66,-601.48 392.37,-610.97 394.6,-600.61 387.66,-601.48"/>
</a>
</g>
</g>
<!-- Node81 -->
<g id="Node000081" class="node">
<title>Node81</title>
<g id="a_Node000081"><a xlink:href="actors_8c.html#a0fff2a94adce284fb6e2ef36de0ba5a6" target="_top" xlink:title=" ">
<polygon fill="#fff0f0" stroke="red" points="116.5,-294 24.5,-294 24.5,-275 116.5,-275 116.5,-294"/>
<text text-anchor="middle" x="70.5" y="-282" font-family="Helvetica,sans-Serif" font-size="10.00">func_802A0350</text>
</a>
</g>
</g>
<!-- Node15&#45;&gt;Node81 -->
<g id="edge37_Node000015_Node000081" class="edge">
<title>Node15&#45;&gt;Node81</title>
<g id="a_edge37_Node000015_Node000081"><a xlink:title=" ">
<path fill="none" stroke="#63b8ff" d="M390.88,-600.82C382.47,-540.73 354.23,-361.43 312,-323.5 283.92,-298.27 178.07,-289.26 116.56,-286.12"/>
<polygon fill="#63b8ff" stroke="#63b8ff" points="387.43,-601.45 392.26,-610.88 394.37,-600.5 387.43,-601.45"/>
</a>
</g>
</g>
<!-- Node84 -->
<g id="Node000084" class="node">
<title>Node84</title>
<g id="a_Node000084"><a xlink:href="actors__extended_8c.html#a334de9136224947ca20e7d31fb009a82" target="_top" xlink:title=" ">
<polygon fill="#fff0f0" stroke="red" points="290.5,-984 198.5,-984 198.5,-965 290.5,-965 290.5,-984"/>
<text text-anchor="middle" x="244.5" y="-972" font-family="Helvetica,sans-Serif" font-size="10.00">func_802B4104</text>
</a>
</g>
</g>
<!-- Node15&#45;&gt;Node84 -->
<g id="edge39_Node000015_Node000084" class="edge">
<title>Node15&#45;&gt;Node84</title>
<g id="a_edge39_Node000015_Node000084"><a xlink:title=" ">
<path fill="none" stroke="#63b8ff" d="M391.32,-640.39C383.81,-705.44 356.94,-910.36 312,-956.5 306.16,-962.5 298.54,-966.56 290.55,-969.3"/>
<polygon fill="#63b8ff" stroke="#63b8ff" points="394.82,-640.58 392.47,-630.25 387.87,-639.79 394.82,-640.58"/>
</a>
</g>
</g>
<!-- Node87 -->
<g id="Node000087" class="node">
<title>Node87</title>
<g id="a_Node000087"><a xlink:href="falling__rocks_8inc_8c.html#a7476a0a7924f3878d39fb7b83f229779" target="_top" xlink:title=" ">
<polygon fill="#fff0f0" stroke="red" points="302.5,-237.5 186.5,-237.5 186.5,-207.5 302.5,-207.5 302.5,-237.5"/>
<text text-anchor="start" x="194.5" y="-225.5" font-family="Helvetica,sans-Serif" font-size="10.00">update_actor_falling</text>
<text text-anchor="middle" x="244.5" y="-214.5" font-family="Helvetica,sans-Serif" font-size="10.00">_rocks</text>
</a>
</g>
</g>
<!-- Node15&#45;&gt;Node87 -->
<g id="edge41_Node000015_Node000087" class="edge">
<title>Node15&#45;&gt;Node87</title>
<g id="a_edge41_Node000015_Node000087"><a xlink:title=" ">
<path fill="none" stroke="#63b8ff" d="M391.67,-600.88C384.88,-531.92 359.03,-301.87 312,-247.5 308.69,-243.68 304.74,-240.43 300.43,-237.69"/>
<polygon fill="#63b8ff" stroke="#63b8ff" points="388.19,-601.22 392.63,-610.84 395.16,-600.55 388.19,-601.22"/>
</a>
</g>
</g>
<!-- Node88 -->
<g id="Node000088" class="node">
<title>Node88</title>
<g id="a_Node000088"><a xlink:href="actors__extended_8c.html#a4fd275676bf11ca2e15556db08264a90" target="_top" xlink:title=" ">
<polygon fill="#fff0f0" stroke="red" points="301,-189.5 188,-189.5 188,-159.5 301,-159.5 301,-189.5"/>
<text text-anchor="start" x="196" y="-177.5" font-family="Helvetica,sans-Serif" font-size="10.00">update_actor_green</text>
<text text-anchor="middle" x="244.5" y="-166.5" font-family="Helvetica,sans-Serif" font-size="10.00">_shell</text>
</a>
</g>
</g>
<!-- Node15&#45;&gt;Node88 -->
<g id="edge42_Node000015_Node000088" class="edge">
<title>Node15&#45;&gt;Node88</title>
<g id="a_edge42_Node000015_Node000088"><a xlink:title=" ">
<path fill="none" stroke="#63b8ff" d="M392.2,-600.28C386.96,-524.78 365.06,-260.53 312,-198.5 308.89,-194.86 305.18,-191.78 301.13,-189.16"/>
<polygon fill="#63b8ff" stroke="#63b8ff" points="388.74,-600.98 392.9,-610.72 395.72,-600.51 388.74,-600.98"/>
</a>
</g>
</g>
<!-- Node89 -->
<g id="Node000089" class="node">
<title>Node89</title>
<g id="a_Node000089"><a xlink:href="actors_8c.html#a3a7c47d74c98d510346305b5c5ee3b9a" target="_top" xlink:title=" ">
<polygon fill="#fff0f0" stroke="red" points="306,-141.5 183,-141.5 183,-111.5 306,-111.5 306,-141.5"/>
<text text-anchor="start" x="191" y="-129.5" font-family="Helvetica,sans-Serif" font-size="10.00">update_actor_railroad</text>
<text text-anchor="middle" x="244.5" y="-118.5" font-family="Helvetica,sans-Serif" font-size="10.00">_crossing</text>
</a>
</g>
</g>
<!-- Node15&#45;&gt;Node89 -->
<g id="edge43_Node000015_Node000089" class="edge">
<title>Node15&#45;&gt;Node89</title>
<g id="a_edge43_Node000015_Node000089"><a xlink:title=" ">
<path fill="none" stroke="#63b8ff" d="M392.65,-600.61C388.84,-520.28 370.85,-220.64 312,-150.5 309.08,-147.02 305.62,-144.05 301.83,-141.5"/>
<polygon fill="#63b8ff" stroke="#63b8ff" points="389.16,-600.99 393.11,-610.82 396.16,-600.67 389.16,-600.99"/>
</a>
</g>
</g>
<!-- Node39&#45;&gt;Node47 -->
<g id="edge16_Node000039_Node000047" class="edge">
<title>Node39&#45;&gt;Node47</title>
<g id="a_edge16_Node000039_Node000047"><a xlink:title=" ">
<path fill="none" stroke="#63b8ff" d="M188.29,-867.6C165.17,-870.15 138.62,-873.09 116.69,-875.51"/>
<polygon fill="#63b8ff" stroke="#63b8ff" points="188.75,-871.07 198.31,-866.49 187.99,-864.11 188.75,-871.07"/>
</a>
</g>
</g>
<!-- Node74&#45;&gt;Node75 -->
<g id="edge28_Node000074_Node000075" class="edge">
<title>Node74&#45;&gt;Node75</title>
<g id="a_edge28_Node000074_Node000075"><a xlink:title=" ">
<path fill="none" stroke="#63b8ff" d="M189.33,-440.85C165.71,-435.77 138.35,-429.88 115.94,-425.06"/>
<polygon fill="#63b8ff" stroke="#63b8ff" points="188.69,-444.29 199.21,-442.97 190.17,-437.45 188.69,-444.29"/>
</a>
</g>
</g>
<!-- Node77&#45;&gt;Node75 -->
<g id="edge30_Node000077_Node000075" class="edge">
<title>Node77&#45;&gt;Node75</title>
<g id="a_edge30_Node000077_Node000075"><a xlink:title=" ">
<path fill="none" stroke="#63b8ff" d="M188.29,-415.5C165.17,-415.5 138.62,-415.5 116.69,-415.5"/>
<polygon fill="#63b8ff" stroke="#63b8ff" points="188.31,-419 198.31,-415.5 188.31,-412 188.31,-419"/>
</a>
</g>
</g>
<!-- Node78&#45;&gt;Node75 -->
<g id="edge32_Node000078_Node000075" class="edge">
<title>Node78&#45;&gt;Node75</title>
<g id="a_edge32_Node000078_Node000075"><a xlink:title=" ">
<path fill="none" stroke="#63b8ff" d="M189.33,-390.15C165.71,-395.23 138.35,-401.12 115.94,-405.94"/>
<polygon fill="#63b8ff" stroke="#63b8ff" points="190.17,-393.55 199.21,-388.03 188.69,-386.71 190.17,-393.55"/>
</a>
</g>
</g>
<!-- Node79&#45;&gt;Node75 -->
<g id="edge34_Node000079_Node000075" class="edge">
<title>Node79&#45;&gt;Node75</title>
<g id="a_edge34_Node000079_Node000075"><a xlink:title=" ">
<path fill="none" stroke="#63b8ff" d="M195.34,-354C189.11,-355.99 182.86,-358.17 177,-360.5 144,-373.66 107.72,-393.96 87.46,-405.87"/>
<polygon fill="#63b8ff" stroke="#63b8ff" points="196.52,-357.3 205.08,-351.05 194.49,-350.61 196.52,-357.3"/>
</a>
</g>
</g>
<!-- Node80&#45;&gt;Node81 -->
<g id="edge36_Node000080_Node000081" class="edge">
<title>Node80&#45;&gt;Node81</title>
<g id="a_edge36_Node000080_Node000081"><a xlink:title=" ">
<path fill="none" stroke="#63b8ff" d="M188.29,-271.6C165.17,-274.15 138.62,-277.09 116.69,-279.51"/>
<polygon fill="#63b8ff" stroke="#63b8ff" points="188.75,-275.07 198.31,-270.49 187.99,-268.11 188.75,-275.07"/>
</a>
</g>
</g>
<!-- Node86 -->
<g id="Node000086" class="node">
<title>Node86</title>
<g id="a_Node000086"><a xlink:href="actors__extended_8c.html#a6e281ad692a9ccd329fa6840ad38afbc" target="_top" xlink:title=" ">
<polygon fill="#fff0f0" stroke="red" points="134.5,-1148.5 6.5,-1148.5 6.5,-1118.5 134.5,-1118.5 134.5,-1148.5"/>
<text text-anchor="start" x="14.5" y="-1136.5" font-family="Helvetica,sans-Serif" font-size="10.00">update_actor_red_blue</text>
<text text-anchor="middle" x="70.5" y="-1125.5" font-family="Helvetica,sans-Serif" font-size="10.00">_shell</text>
</a>
</g>
</g>
<!-- Node84&#45;&gt;Node86 -->
<g id="edge40_Node000084_Node000086" class="edge">
<title>Node84&#45;&gt;Node86</title>
<g id="a_edge40_Node000084_Node000086"><a xlink:title=" ">
<path fill="none" stroke="#63b8ff" d="M189,-986.81C184.78,-988.73 180.72,-990.95 177,-993.5 128.58,-1026.75 93.2,-1089.44 78.73,-1118.28"/>
<polygon fill="#63b8ff" stroke="#63b8ff" points="190.43,-990.01 198.43,-983.07 187.84,-983.51 190.43,-990.01"/>
</a>
</g>
</g>
<!-- Node91 -->
<g id="Node000091" class="node">
<title>Node91</title>
<g id="a_Node000091"><a xlink:href="player__controller_8c.html#a841deb87f637e1f332b47980c5000299" target="_top" xlink:title=" ">
<polygon fill="#fff0f0" stroke="red" points="291,-93 198,-93 198,-74 291,-74 291,-93"/>
<text text-anchor="middle" x="244.5" y="-81" font-family="Helvetica,sans-Serif" font-size="10.00">func_80027DA8</text>
</a>
</g>
</g>
<!-- Node90&#45;&gt;Node91 -->
<g id="edge45_Node000090_Node000091" class="edge">
<title>Node90&#45;&gt;Node91</title>
<g id="a_edge45_Node000090_Node000091"><a xlink:title=" ">
<path fill="none" stroke="#63b8ff" d="M337.85,-83.5C322.47,-83.5 305.95,-83.5 291.2,-83.5"/>
<polygon fill="#63b8ff" stroke="#63b8ff" points="338.29,-87 348.29,-83.5 338.29,-80 338.29,-87"/>
</a>
</g>
</g>
<!-- Node96 -->
<g id="Node000096" class="node">
<title>Node96</title>
<g id="a_Node000096"><a xlink:href="external_8c.html#a9bc9f57fb83f73d37b56721df044d722" target="_top" xlink:title=" ">
<polygon fill="#fff0f0" stroke="red" points="290.5,-56 198.5,-56 198.5,-37 290.5,-37 290.5,-56"/>
<text text-anchor="middle" x="244.5" y="-44" font-family="Helvetica,sans-Serif" font-size="10.00">func_800C76C0</text>
</a>
</g>
</g>
<!-- Node90&#45;&gt;Node96 -->
<g id="edge46_Node000090_Node000096" class="edge">
<title>Node90&#45;&gt;Node96</title>
<g id="a_edge46_Node000090_Node000096"><a xlink:title=" ">
<path fill="none" stroke="#63b8ff" d="M345.53,-71.51C325.51,-66.5 302.59,-60.77 283.74,-56.06"/>
<polygon fill="#63b8ff" stroke="#63b8ff" points="344.84,-74.94 355.39,-73.97 346.53,-68.15 344.84,-74.94"/>
</a>
</g>
</g>
<!-- Node109&#45;&gt;Node27 -->
<g id="edge49_Node000109_Node000027" class="edge">
<title>Node109&#45;&gt;Node27</title>
<g id="a_edge49_Node000109_Node000027"><a xlink:title=" ">
<path fill="none" stroke="#63b8ff" d="M383.79,-1189.88C370.64,-1166.47 344.97,-1126.68 312,-1104.5 305.52,-1100.14 298.05,-1096.77 290.5,-1094.17"/>
<polygon fill="#63b8ff" stroke="#63b8ff" points="380.8,-1191.69 388.65,-1198.81 386.95,-1188.35 380.8,-1191.69"/>
</a>
</g>
</g>
<!-- Node109&#45;&gt;Node86 -->
<g id="edge54_Node000109_Node000086" class="edge">
<title>Node109&#45;&gt;Node86</title>
<g id="a_edge54_Node000109_Node000086"><a xlink:title=" ">
<path fill="none" stroke="#63b8ff" d="M388.02,-1227.76C378.32,-1257.77 354.97,-1314.72 312,-1338.5 259.5,-1367.55 228.22,-1369.75 177,-1338.5 106.44,-1295.46 81.07,-1188.47 73.89,-1148.7"/>
<polygon fill="#63b8ff" stroke="#63b8ff" points="391.42,-1228.62 390.99,-1218.03 384.72,-1226.57 391.42,-1228.62"/>
</a>
</g>
</g>
<!-- Node110 -->
<g id="Node000110" class="node">
<title>Node110</title>
<g id="a_Node000110"><a xlink:href="code__800029B0_8c.html#aa64b1458166c92a3575d8edd5948a628" target="_top" xlink:title=" ">
<polygon fill="#fff0f0" stroke="red" points="291.5,-1329 197.5,-1329 197.5,-1310 291.5,-1310 291.5,-1329"/>
<text text-anchor="middle" x="244.5" y="-1317" font-family="Helvetica,sans-Serif" font-size="10.00">func_80002DAC</text>
</a>
</g>
</g>
<!-- Node109&#45;&gt;Node110 -->
<g id="edge48_Node000109_Node000110" class="edge">
<title>Node109&#45;&gt;Node110</title>
<g id="a_edge48_Node000109_Node000110"><a xlink:title=" ">
<path fill="none" stroke="#63b8ff" d="M382.35,-1226.73C368.47,-1247.88 342.8,-1282.28 312,-1301.5 305.81,-1305.36 298.79,-1308.41 291.7,-1310.8"/>
<polygon fill="#63b8ff" stroke="#63b8ff" points="385.46,-1228.37 387.87,-1218.05 379.55,-1224.61 385.46,-1228.37"/>
</a>
</g>
</g>
<!-- Node112 -->
<g id="Node000112" class="node">
<title>Node112</title>
<g id="a_Node000112"><a xlink:href="code__80071F00_8c.html#a401992e1c9638d1a48190456bd7af9a3" target="_top" xlink:title=" ">
<polygon fill="#fff0f0" stroke="red" points="290.5,-1292 198.5,-1292 198.5,-1273 290.5,-1273 290.5,-1292"/>
<text text-anchor="middle" x="244.5" y="-1280" font-family="Helvetica,sans-Serif" font-size="10.00">func_8007601C</text>
</a>
</g>
</g>
<!-- Node109&#45;&gt;Node112 -->
<g id="edge50_Node000109_Node000112" class="edge">
<title>Node109&#45;&gt;Node112</title>
<g id="a_edge50_Node000109_Node000112"><a xlink:title=" ">
<path fill="none" stroke="#63b8ff" d="M374.15,-1224.6C358.32,-1237.06 334.88,-1253.92 312,-1264.5 304.84,-1267.81 296.94,-1270.62 289.18,-1272.95"/>
<polygon fill="#63b8ff" stroke="#63b8ff" points="376.52,-1227.19 382.12,-1218.2 372.13,-1221.73 376.52,-1227.19"/>
</a>
</g>
</g>
<!-- Node115 -->
<g id="Node000115" class="node">
<title>Node115</title>
<g id="a_Node000115"><a xlink:href="code__80071F00_8c.html#a269298ce38d852af33c677ae12781528" target="_top" xlink:title=" ">
<polygon fill="#fff0f0" stroke="red" points="290.5,-1255 198.5,-1255 198.5,-1236 290.5,-1236 290.5,-1255"/>
<text text-anchor="middle" x="244.5" y="-1243" font-family="Helvetica,sans-Serif" font-size="10.00">func_8007661C</text>
</a>
</g>
</g>
<!-- Node109&#45;&gt;Node115 -->
<g id="edge51_Node000109_Node000115" class="edge">
<title>Node109&#45;&gt;Node115</title>
<g id="a_edge51_Node000109_Node000115"><a xlink:title=" ">
<path fill="none" stroke="#63b8ff" d="M345.53,-1220.49C325.51,-1225.5 302.59,-1231.23 283.74,-1235.94"/>
<polygon fill="#63b8ff" stroke="#63b8ff" points="346.53,-1223.85 355.39,-1218.03 344.84,-1217.06 346.53,-1223.85"/>
</a>
</g>
</g>
<!-- Node116 -->
<g id="Node000116" class="node">
<title>Node116</title>
<g id="a_Node000116"><a xlink:href="code__80071F00_8c.html#aee48f5ac3342922cbf8cd98976679dad" target="_top" xlink:title=" ">
<polygon fill="#fff0f0" stroke="red" points="292,-1218 197,-1218 197,-1199 292,-1199 292,-1218"/>
<text text-anchor="middle" x="244.5" y="-1206" font-family="Helvetica,sans-Serif" font-size="10.00">func_8007DDC0</text>
</a>
</g>
</g>
<!-- Node109&#45;&gt;Node116 -->
<g id="edge52_Node000109_Node000116" class="edge">
<title>Node109&#45;&gt;Node116</title>
<g id="a_edge52_Node000109_Node000116"><a xlink:title=" ">
<path fill="none" stroke="#63b8ff" d="M337.71,-1208.5C322.73,-1208.5 306.68,-1208.5 292.24,-1208.5"/>
<polygon fill="#63b8ff" stroke="#63b8ff" points="337.89,-1212 347.89,-1208.5 337.89,-1205 337.89,-1212"/>
</a>
</g>
</g>
<!-- Node117 -->
<g id="Node000117" class="node">
<title>Node117</title>
<g id="a_Node000117"><a xlink:href="code__80071F00_8c.html#a6c7938339fa5406ffe336278a92aa7ad" target="_top" xlink:title=" ">
<polygon fill="#fff0f0" stroke="red" points="290,-1181 199,-1181 199,-1162 290,-1162 290,-1181"/>
<text text-anchor="middle" x="244.5" y="-1169" font-family="Helvetica,sans-Serif" font-size="10.00">func_8007E1F4</text>
</a>
</g>
</g>
<!-- Node109&#45;&gt;Node117 -->
<g id="edge53_Node000109_Node000117" class="edge">
<title>Node109&#45;&gt;Node117</title>
<g id="a_edge53_Node000109_Node000117"><a xlink:title=" ">
<path fill="none" stroke="#63b8ff" d="M345.53,-1196.51C325.51,-1191.5 302.59,-1185.77 283.74,-1181.06"/>
<polygon fill="#63b8ff" stroke="#63b8ff" points="344.84,-1199.94 355.39,-1198.97 346.53,-1193.15 344.84,-1199.94"/>
</a>
</g>
</g>
<!-- Node119 -->
<g id="Node000119" class="node">
<title>Node119</title>
<g id="a_Node000119"><a xlink:href="train_8inc_8c.html#a7a57fd958ad862c81447e812d25614bc" target="_top" xlink:title=" ">
<polygon fill="#fff0f0" stroke="red" points="298.5,-1143.5 190.5,-1143.5 190.5,-1113.5 298.5,-1113.5 298.5,-1143.5"/>
<text text-anchor="start" x="198.5" y="-1131.5" font-family="Helvetica,sans-Serif" font-size="10.00">update_actor_train</text>
<text text-anchor="middle" x="244.5" y="-1120.5" font-family="Helvetica,sans-Serif" font-size="10.00">_engine</text>
</a>
</g>
</g>
<!-- Node109&#45;&gt;Node119 -->
<g id="edge55_Node000109_Node000119" class="edge">
<title>Node109&#45;&gt;Node119</title>
<g id="a_edge55_Node000109_Node000119"><a xlink:title=" ">
<path fill="none" stroke="#63b8ff" d="M373.27,-1192.88C357.26,-1181.02 334.01,-1164.87 312,-1153.5 305.1,-1149.94 297.56,-1146.61 290.13,-1143.62"/>
<polygon fill="#63b8ff" stroke="#63b8ff" points="371.27,-1195.76 381.36,-1198.97 375.47,-1190.16 371.27,-1195.76"/>
</a>
</g>
</g>
<!-- Node121 -->
<g id="Node000121" class="node">
<title>Node121</title>
<g id="a_Node000121"><a xlink:href="effects_8c.html#a1ae16ef10ed322ad47b3cff5a8efc83e" target="_top" xlink:title=" ">
<polygon fill="white" stroke="#666666" points="312,-19 177,-19 177,0 312,0 312,-19"/>
<text text-anchor="middle" x="244.5" y="-7" font-family="Helvetica,sans-Serif" font-size="10.00">apply_star_sound_effect</text>
</a>
</g>
</g>
<!-- Node120&#45;&gt;Node121 -->
<g id="edge57_Node000120_Node000121" class="edge">
<title>Node120&#45;&gt;Node121</title>
<g id="a_edge57_Node000120_Node000121"><a xlink:title=" ">
<path fill="none" stroke="#63b8ff" d="M338.17,-21.4C329.71,-20.31 320.9,-19.18 312.23,-18.07"/>
<polygon fill="#63b8ff" stroke="#63b8ff" points="337.93,-24.89 348.29,-22.7 338.82,-17.95 337.93,-24.89"/>
</a>
</g>
</g>
</g>
</svg>
