<?xml version="1.0" encoding="UTF-8" standalone="no"?>
<!DOCTYPE svg PUBLIC "-//W3C//DTD SVG 1.1//EN"
 "http://www.w3.org/Graphics/SVG/1.1/DTD/svg11.dtd">
<!-- Generated by graphviz version 2.43.0 (0)
 -->
<!-- Title: func_800C92CC Pages: 1 -->
<!--zoomable 273 -->

<svg id="main" version="1.1" xmlns="http://www.w3.org/2000/svg" xmlns:xlink="http://www.w3.org/1999/xlink" xml:space="preserve" onload="init(evt)">
<style type="text/css"><![CDATA[
.node, .edge {opacity: 0.7;}
.node.selected, .edge.selected {opacity: 1;}
.edge:hover path { stroke: red; }
.edge:hover polygon { stroke: red; fill: red; }
]]></style>

<defs>
  <circle id="rim" cx="0" cy="0" r="7"/>
  <circle id="rim2" cx="0" cy="0" r="3.5"/>
  <g id="zoomPlus">
    <use xlink:href="#rim" fill="#404040"><set attributeName="fill" to="#808080" begin="zoomplus.mouseover" end="zoomplus.mouseout"/></use>
    <path d="M-4,0h8M0,-4v8" fill="none" stroke="white" stroke-width="1.5" pointer-events="none"/>
  </g>
  <g id="zoomMin">
    <use xlink:href="#rim" fill="#404040"><set attributeName="fill" to="#808080" begin="zoomminus.mouseover" end="zoomminus.mouseout"/></use>
    <path d="M-4,0h8" fill="none" stroke="white" stroke-width="1.5" pointer-events="none"/>
  </g>
  <g id="arrowUp" transform="translate(30 24)">
    <use xlink:href="#rim"/>
    <path pointer-events="none" fill="none" stroke="white" stroke-width="1.5" d="M0,-3.0v7 M-2.5,-0.5L0,-3.0L2.5,-0.5"/>
  </g>
  <g id="arrowRight" transform="rotate(90) translate(36 -43)">
    <use xlink:href="#rim"/>
    <path pointer-events="none" fill="none" stroke="white" stroke-width="1.5" d="M0,-3.0v7 M-2.5,-0.5L0,-3.0L2.5,-0.5"/>
  </g>
  <g id="arrowDown" transform="rotate(180) translate(-30 -48)">
    <use xlink:href="#rim"/>
    <path pointer-events="none" fill="none" stroke="white" stroke-width="1.5" d="M0,-3.0v7 M-2.5,-0.5L0,-3.0L2.5,-0.5"/>
  </g>
  <g id="arrowLeft" transform="rotate(270) translate(-36 17)">
    <use xlink:href="#rim"/>
    <path pointer-events="none" fill="none" stroke="white" stroke-width="1.5" d="M0,-3.0v7 M-2.5,-0.5L0,-3.0L2.5,-0.5"/>
  </g>
  <g id="resetDef">
    <use xlink:href="#rim2" fill="#404040"><set attributeName="fill" to="#808080" begin="reset.mouseover" end="reset.mouseout"/></use>
  </g>
</defs>
<script type="application/ecmascript">
var viewWidth = 567;
var viewHeight = 273;
var sectionId = 'dynsection-96';
</script>
<script type="application/ecmascript" xlink:href="svg.min.js"/>
<svg id="graph" class="graph">
<g id="viewport">
<title>func_800C92CC</title>
<!-- Node1 -->
<g id="Node000001" class="node">
<title>Node1</title>
<g id="a_Node000001"><a xlink:title=" ">
<polygon fill="#999999" stroke="#666666" points="559,-122 466,-122 466,-103 559,-103 559,-122"/>
<text text-anchor="middle" x="512.5" y="-110" font-family="Helvetica,sans-Serif" font-size="10.00">func_800C92CC</text>
</a>
</g>
</g>
<!-- Node2 -->
<g id="Node000002" class="node">
<title>Node2</title>
<g id="a_Node000002"><a xlink:href="code__80005FD0_8c.html#a06783cccfdd317d1f883612230c6cf5c" target="_top" xlink:title=" ">
<polygon fill="white" stroke="#666666" points="430,-141 338,-141 338,-122 430,-122 430,-141"/>
<text text-anchor="middle" x="384" y="-129" font-family="Helvetica,sans-Serif" font-size="10.00">func_800098FC</text>
</a>
</g>
</g>
<!-- Node1&#45;&gt;Node2 -->
<g id="edge1_Node000001_Node000002" class="edge">
<title>Node1&#45;&gt;Node2</title>
<g id="a_edge1_Node000001_Node000002"><a xlink:title=" ">
<path fill="none" stroke="#63b8ff" d="M455.87,-120.86C447.28,-122.15 438.5,-123.46 430.18,-124.71"/>
<polygon fill="#63b8ff" stroke="#63b8ff" points="456.46,-124.31 465.83,-119.36 455.42,-117.38 456.46,-124.31"/>
</a>
</g>
</g>
<!-- Node13 -->
<g id="Node000013" class="node">
<title>Node13</title>
<g id="a_Node000013"><a xlink:href="code__80005FD0_8c.html#ab64e3db39c0df021f9d8d03a00ce58cd" target="_top" xlink:title=" ">
<polygon fill="white" stroke="#666666" points="430,-104 338,-104 338,-85 430,-85 430,-104"/>
<text text-anchor="middle" x="384" y="-92" font-family="Helvetica,sans-Serif" font-size="10.00">func_800099EC</text>
</a>
</g>
</g>
<!-- Node1&#45;&gt;Node13 -->
<g id="edge12_Node000001_Node000013" class="edge">
<title>Node1&#45;&gt;Node13</title>
<g id="a_edge12_Node000001_Node000013"><a xlink:title=" ">
<path fill="none" stroke="#63b8ff" d="M455.87,-104.58C447.28,-103.36 438.5,-102.11 430.18,-100.93"/>
<polygon fill="#63b8ff" stroke="#63b8ff" points="455.44,-108.06 465.83,-106 456.42,-101.13 455.44,-108.06"/>
</a>
</g>
</g>
<!-- Node3 -->
<g id="Node000003" class="node">
<title>Node3</title>
<g id="a_Node000003"><a xlink:href="effects_8c.html#a4db388444870e3607555465cde8d2b69" target="_top" xlink:title=" ">
<polygon fill="white" stroke="#666666" points="302,-264.5 161,-264.5 161,-234.5 302,-234.5 302,-264.5"/>
<text text-anchor="start" x="169" y="-252.5" font-family="Helvetica,sans-Serif" font-size="10.00">apply_hit_by_item_sound</text>
<text text-anchor="middle" x="231.5" y="-241.5" font-family="Helvetica,sans-Serif" font-size="10.00">_effect</text>
</a>
</g>
</g>
<!-- Node2&#45;&gt;Node3 -->
<g id="edge2_Node000002_Node000003" class="edge">
<title>Node2&#45;&gt;Node3</title>
<g id="a_edge2_Node000002_Node000003"><a xlink:title=" ">
<path fill="none" stroke="#63b8ff" d="M371.54,-149.9C357.55,-170.95 331.99,-205.16 302,-225.5 297.03,-228.87 291.55,-231.81 285.9,-234.36"/>
<polygon fill="#63b8ff" stroke="#63b8ff" points="374.65,-151.54 377.13,-141.24 368.77,-147.74 374.65,-151.54"/>
</a>
</g>
</g>
<!-- Node4 -->
<g id="Node000004" class="node">
<title>Node4</title>
<g id="a_Node000004"><a xlink:href="effects_8c.html#aece20fae49c1ae118b247aec04f52f83" target="_top" xlink:title=" ">
<polygon fill="white" stroke="#666666" points="284,-216.5 179,-216.5 179,-186.5 284,-186.5 284,-216.5"/>
<text text-anchor="start" x="187" y="-204.5" font-family="Helvetica,sans-Serif" font-size="10.00">apply_hit_rotating</text>
<text text-anchor="middle" x="231.5" y="-193.5" font-family="Helvetica,sans-Serif" font-size="10.00">_sound_effect</text>
</a>
</g>
</g>
<!-- Node2&#45;&gt;Node4 -->
<g id="edge3_Node000002_Node000004" class="edge">
<title>Node2&#45;&gt;Node4</title>
<g id="a_edge3_Node000002_Node000004"><a xlink:title=" ">
<path fill="none" stroke="#63b8ff" d="M359.59,-146.32C343.73,-155.98 322.08,-168.42 302,-177.5 295.02,-180.65 287.5,-183.65 280.06,-186.38"/>
<polygon fill="#63b8ff" stroke="#63b8ff" points="361.54,-149.23 368.21,-141 357.86,-143.28 361.54,-149.23"/>
</a>
</g>
</g>
<!-- Node5 -->
<g id="Node000005" class="node">
<title>Node5</title>
<g id="a_Node000005"><a xlink:href="effects_8c.html#a5332b3e2f6c9720f7fd0eea6b7af3359" target="_top" xlink:title=" ">
<polygon fill="white" stroke="#666666" points="291.5,-168.5 171.5,-168.5 171.5,-138.5 291.5,-138.5 291.5,-168.5"/>
<text text-anchor="start" x="179.5" y="-156.5" font-family="Helvetica,sans-Serif" font-size="10.00">apply_reverse_sound</text>
<text text-anchor="middle" x="231.5" y="-145.5" font-family="Helvetica,sans-Serif" font-size="10.00">_effect</text>
</a>
</g>
</g>
<!-- Node2&#45;&gt;Node5 -->
<g id="edge4_Node000002_Node000005" class="edge">
<title>Node2&#45;&gt;Node5</title>
<g id="a_edge4_Node000002_Node000005"><a xlink:title=" ">
<path fill="none" stroke="#63b8ff" d="M327.71,-139.58C315.94,-141.3 303.47,-143.13 291.56,-144.87"/>
<polygon fill="#63b8ff" stroke="#63b8ff" points="328.46,-143.01 337.85,-138.1 327.44,-136.08 328.46,-143.01"/>
</a>
</g>
</g>
<!-- Node6 -->
<g id="Node000006" class="node">
<title>Node6</title>
<g id="a_Node000006"><a xlink:href="effects_8c.html#a6fc4c8f6786be15941bfce0c8575b7cf" target="_top" xlink:title=" ">
<polygon fill="white" stroke="#666666" points="277.5,-120 185.5,-120 185.5,-101 277.5,-101 277.5,-120"/>
<text text-anchor="middle" x="231.5" y="-108" font-family="Helvetica,sans-Serif" font-size="10.00">func_8008C528</text>
</a>
</g>
</g>
<!-- Node2&#45;&gt;Node6 -->
<g id="edge5_Node000002_Node000006" class="edge">
<title>Node2&#45;&gt;Node6</title>
<g id="a_edge5_Node000002_Node000006"><a xlink:title=" ">
<path fill="none" stroke="#63b8ff" d="M327.78,-123.8C311.28,-121.49 293.39,-119 277.62,-116.8"/>
<polygon fill="#63b8ff" stroke="#63b8ff" points="327.46,-127.28 337.85,-125.2 328.42,-120.35 327.46,-127.28"/>
</a>
</g>
</g>
<!-- Node7 -->
<g id="Node000007" class="node">
<title>Node7</title>
<g id="a_Node000007"><a xlink:href="effects_8c.html#af25de8f70a7ecb552619235df793b951" target="_top" xlink:title=" ">
<polygon fill="white" stroke="#666666" points="277.5,-83 185.5,-83 185.5,-64 277.5,-64 277.5,-83"/>
<text text-anchor="middle" x="231.5" y="-71" font-family="Helvetica,sans-Serif" font-size="10.00">func_8008C73C</text>
</a>
</g>
</g>
<!-- Node2&#45;&gt;Node7 -->
<g id="edge6_Node000002_Node000007" class="edge">
<title>Node2&#45;&gt;Node7</title>
<g id="a_edge6_Node000002_Node000007"><a xlink:title=" ">
<path fill="none" stroke="#63b8ff" d="M347.71,-117.97C344.4,-116.52 341.12,-115.02 338,-113.5 321.36,-105.37 319.08,-99.67 302,-92.5 293.23,-88.82 283.55,-85.65 274.26,-83.01"/>
<polygon fill="#63b8ff" stroke="#63b8ff" points="346.44,-121.23 357.01,-121.86 349.14,-114.77 346.44,-121.23"/>
</a>
</g>
</g>
<!-- Node11 -->
<g id="Node000011" class="node">
<title>Node11</title>
<g id="a_Node000011"><a xlink:href="effects_8c.html#a91101066503279f64d1972e074533e32" target="_top" xlink:title=" ">
<polygon fill="white" stroke="#666666" points="279,-37 184,-37 184,-18 279,-18 279,-37"/>
<text text-anchor="middle" x="231.5" y="-25" font-family="Helvetica,sans-Serif" font-size="10.00">func_8008DABC</text>
</a>
</g>
</g>
<!-- Node2&#45;&gt;Node11 -->
<g id="edge10_Node000002_Node000011" class="edge">
<title>Node2&#45;&gt;Node11</title>
<g id="a_edge10_Node000002_Node000011"><a xlink:title=" ">
<path fill="none" stroke="#63b8ff" d="M342.76,-117.04C341.1,-115.93 339.5,-114.76 338,-113.5 314.75,-94 325.22,-75.03 302,-55.5 292.34,-47.38 280.03,-41.39 268.45,-37.09"/>
<polygon fill="#63b8ff" stroke="#63b8ff" points="341.09,-120.11 351.53,-121.93 344.5,-114 341.09,-120.11"/>
</a>
</g>
</g>
<!-- Node8 -->
<g id="Node000008" class="node">
<title>Node8</title>
<g id="a_Node000008"><a xlink:href="effects_8c.html#abeb13f8e836713bdee19de586bb6adb9" target="_top" xlink:title=" ">
<polygon fill="white" stroke="#666666" points="109.5,-130 15.5,-130 15.5,-111 109.5,-111 109.5,-130"/>
<text text-anchor="middle" x="62.5" y="-118" font-family="Helvetica,sans-Serif" font-size="10.00">func_8008CDC0</text>
</a>
</g>
</g>
<!-- Node7&#45;&gt;Node8 -->
<g id="edge7_Node000007_Node000008" class="edge">
<title>Node7&#45;&gt;Node8</title>
<g id="a_edge7_Node000007_Node000008"><a xlink:title=" ">
<path fill="none" stroke="#63b8ff" d="M185.39,-85.74C177.27,-87.97 168.88,-90.29 161,-92.5 139.46,-98.54 115.3,-105.47 96.42,-110.93"/>
<polygon fill="#63b8ff" stroke="#63b8ff" points="186.4,-89.09 195.12,-83.08 184.55,-82.34 186.4,-89.09"/>
</a>
</g>
</g>
<!-- Node9 -->
<g id="Node000009" class="node">
<title>Node9</title>
<g id="a_Node000009"><a xlink:href="effects_8c.html#af0e482103261c24d9986452a89c08547" target="_top" xlink:title=" ">
<polygon fill="white" stroke="#666666" points="108.5,-93 16.5,-93 16.5,-74 108.5,-74 108.5,-93"/>
<text text-anchor="middle" x="62.5" y="-81" font-family="Helvetica,sans-Serif" font-size="10.00">func_8008CEB0</text>
</a>
</g>
</g>
<!-- Node7&#45;&gt;Node9 -->
<g id="edge8_Node000007_Node000009" class="edge">
<title>Node7&#45;&gt;Node9</title>
<g id="a_edge8_Node000007_Node000009"><a xlink:title=" ">
<path fill="none" stroke="#63b8ff" d="M175.29,-76.81C153.7,-78.1 129.25,-79.56 108.73,-80.79"/>
<polygon fill="#63b8ff" stroke="#63b8ff" points="175.53,-80.3 185.31,-76.21 175.12,-73.31 175.53,-80.3"/>
</a>
</g>
</g>
<!-- Node10 -->
<g id="Node000010" class="node">
<title>Node10</title>
<g id="a_Node000010"><a xlink:href="effects_8c.html#af88bb4cbfc59690890829535fc793551" target="_top" xlink:title=" ">
<polygon fill="white" stroke="#666666" points="108.5,-56 16.5,-56 16.5,-37 108.5,-37 108.5,-56"/>
<text text-anchor="middle" x="62.5" y="-44" font-family="Helvetica,sans-Serif" font-size="10.00">func_8008D170</text>
</a>
</g>
</g>
<!-- Node7&#45;&gt;Node10 -->
<g id="edge9_Node000007_Node000010" class="edge">
<title>Node7&#45;&gt;Node10</title>
<g id="a_edge9_Node000007_Node000010"><a xlink:title=" ">
<path fill="none" stroke="#63b8ff" d="M175.29,-64.57C153.7,-61.08 129.25,-57.13 108.73,-53.81"/>
<polygon fill="#63b8ff" stroke="#63b8ff" points="174.88,-68.05 185.31,-66.19 175.99,-61.14 174.88,-68.05"/>
</a>
</g>
</g>
<!-- Node12 -->
<g id="Node000012" class="node">
<title>Node12</title>
<g id="a_Node000012"><a xlink:href="effects_8c.html#afcd934606edb08e59bff1545a7e447f7" target="_top" xlink:title=" ">
<polygon fill="white" stroke="#666666" points="125,-19 0,-19 0,0 125,0 125,-19"/>
<text text-anchor="middle" x="62.5" y="-7" font-family="Helvetica,sans-Serif" font-size="10.00">apply_lightning_effect</text>
</a>
</g>
</g>
<!-- Node11&#45;&gt;Node12 -->
<g id="edge11_Node000011_Node000012" class="edge">
<title>Node11&#45;&gt;Node12</title>
<g id="a_edge11_Node000011_Node000012"><a xlink:title=" ">
<path fill="none" stroke="#63b8ff" d="M173.89,-21.4C158.18,-19.71 141.05,-17.86 125.07,-16.14"/>
<polygon fill="#63b8ff" stroke="#63b8ff" points="173.66,-24.89 183.98,-22.49 174.41,-17.93 173.66,-24.89"/>
</a>
</g>
</g>
</g>
</svg>

<g id="navigator" transform="translate(0 0)" fill="#404254">
  <rect fill="#f2f5e9" fill-opacity="0.5" stroke="#606060" stroke-width=".5" x="0" y="0" width="60" height="60"/>
  <use id="zoomplus" xlink:href="#zoomPlus" x="17" y="9" onmousedown="handleZoom(evt,'in')"/>
  <use id="zoomminus" xlink:href="#zoomMin" x="42" y="9" onmousedown="handleZoom(evt,'out')"/>
  <use id="reset" xlink:href="#resetDef" x="30" y="36" onmousedown="handleReset()"/>
   <use id="arrowup" xlink:href="#arrowUp" x="0" y="0" onmousedown="handlePan(0,-1)"/>
  <use id="arrowright" xlink:href="#arrowRight" x="0" y="0" onmousedown="handlePan(1,0)"/>
  <use id="arrowdown" xlink:href="#arrowDown" x="0" y="0" onmousedown="handlePan(0,1)"/>
  <use id="arrowleft" xlink:href="#arrowLeft" x="0" y="0" onmousedown="handlePan(-1,0)"/>
</g>
<svg viewBox="0 0 15 15" width="100%" height="30px" preserveAspectRatio="xMaxYMin meet">
 <g id="arrow_out" transform="scale(0.3 0.3)">
  <a xlink:href="external_8h_a128b41389679aea64ae1304ab268143a_icgraph_org.svg" target="_base">
   <rect id="button" ry="5" rx="5" y="6" x="6" height="38" width="38"
        fill="#f2f5e9" fill-opacity="0.5" stroke="#606060" stroke-width="1.0"/>
   <path id="arrow"
     d="M 11.500037,31.436501 C 11.940474,20.09759 22.043105,11.32322 32.158766,21.979434 L 37.068811,17.246167 C 37.068811,17.246167 37.088388,32 37.088388,32 L 22.160133,31.978069 C 22.160133,31.978069 26.997745,27.140456 26.997745,27.140456 C 18.528582,18.264221 13.291696,25.230495 11.500037,31.436501 z"
     style="fill:#404040;"/>
  </a>
 </g>
</svg>

<style type='text/css'>
<![CDATA[
[data-mouse-over-selected='false'] { opacity: 0.7; }
[data-mouse-over-selected='true']  { opacity: 1.0; }
]]>
</style>
<script type="application/ecmascript"><![CDATA[
document.addEventListener('DOMContentLoaded', (event) => {
  highlightEdges();
  highlightAdjacentNodes();
});
]]></script>
</svg>
