<?xml version="1.0" encoding="UTF-8" standalone="no"?>
<!DOCTYPE svg PUBLIC "-//W3C//DTD SVG 1.1//EN"
 "http://www.w3.org/Graphics/SVG/1.1/DTD/svg11.dtd">
<!-- Generated by graphviz version 2.43.0 (0)
 -->
<!-- Title: func_800CAACC Pages: 1 -->
<svg width="494pt" height="82pt"
 viewBox="0.00 0.00 494.00 82.00" xmlns="http://www.w3.org/2000/svg" xmlns:xlink="http://www.w3.org/1999/xlink">
<g id="graph0" class="graph" transform="scale(1 1) rotate(0) translate(4 78)">
<title>func_800CAACC</title>
<!-- Node1 -->
<g id="Node000001" class="node">
<title>Node1</title>
<g id="a_Node000001"><a xlink:title=" ">
<polygon fill="#999999" stroke="#666666" points="486,-55 391,-55 391,-36 486,-36 486,-55"/>
<text text-anchor="middle" x="438.5" y="-43" font-family="Helvetica,sans-Serif" font-size="10.00">func_800CAACC</text>
</a>
</g>
</g>
<!-- Node2 -->
<g id="Node000002" class="node">
<title>Node2</title>
<g id="a_Node000002"><a xlink:href="effects_8c.html#ab044d6f7bf1cacf740cf0a27ea0902b5" target="_top" xlink:title=" ">
<polygon fill="white" stroke="#666666" points="355,-74 254,-74 254,-55 355,-55 355,-74"/>
<text text-anchor="middle" x="304.5" y="-62" font-family="Helvetica,sans-Serif" font-size="10.00">apply_star_effect</text>
</a>
</g>
</g>
<!-- Node1&#45;&gt;Node2 -->
<g id="edge1_Node000001_Node000002" class="edge">
<title>Node1&#45;&gt;Node2</title>
<g id="a_edge1_Node000001_Node000002"><a xlink:title=" ">
<path fill="none" stroke="#63b8ff" d="M381.02,-53.63C372.43,-54.87 363.63,-56.13 355.2,-57.35"/>
<polygon fill="#63b8ff" stroke="#63b8ff" points="381.56,-57.09 390.96,-52.2 380.57,-50.16 381.56,-57.09"/>
</a>
</g>
</g>
<!-- Node3 -->
<g id="Node000003" class="node">
<title>Node3</title>
<g id="a_Node000003"><a xlink:href="effects_8c.html#ae1bacd987d7f12fc5960f838a7dbe137" target="_top" xlink:title=" ">
<polygon fill="white" stroke="#666666" points="350.5,-37 258.5,-37 258.5,-18 350.5,-18 350.5,-37"/>
<text text-anchor="middle" x="304.5" y="-25" font-family="Helvetica,sans-Serif" font-size="10.00">func_8008F86C</text>
</a>
</g>
</g>
<!-- Node1&#45;&gt;Node3 -->
<g id="edge2_Node000001_Node000003" class="edge">
<title>Node1&#45;&gt;Node3</title>
<g id="a_edge2_Node000001_Node000003"><a xlink:title=" ">
<path fill="none" stroke="#63b8ff" d="M380.99,-37.79C370.88,-36.42 360.47,-35 350.73,-33.67"/>
<polygon fill="#63b8ff" stroke="#63b8ff" points="380.58,-41.27 390.96,-39.15 381.53,-34.33 380.58,-41.27"/>
</a>
</g>
</g>
<!-- Node4 -->
<g id="Node000004" class="node">
<title>Node4</title>
<g id="a_Node000004"><a xlink:href="effects_8c.html#a71c3c746ea434e798865e3256180ee0a" target="_top" xlink:title=" ">
<polygon fill="white" stroke="#666666" points="218,-56 127,-56 127,-37 218,-37 218,-56"/>
<text text-anchor="middle" x="172.5" y="-44" font-family="Helvetica,sans-Serif" font-size="10.00">func_8008F494</text>
</a>
</g>
</g>
<!-- Node3&#45;&gt;Node4 -->
<g id="edge3_Node000003_Node000004" class="edge">
<title>Node3&#45;&gt;Node4</title>
<g id="a_edge3_Node000003_Node000004"><a xlink:title=" ">
<path fill="none" stroke="#63b8ff" d="M248.42,-35.55C238.3,-37.03 227.85,-38.56 218.08,-39.98"/>
<polygon fill="#63b8ff" stroke="#63b8ff" points="249.01,-39 258.4,-34.09 248,-32.08 249.01,-39"/>
</a>
</g>
</g>
<!-- Node5 -->
<g id="Node000005" class="node">
<title>Node5</title>
<g id="a_Node000005"><a xlink:href="effects_8c.html#a17332237b5c2a4249328a35071e23bf7" target="_top" xlink:title=" ">
<polygon fill="white" stroke="#666666" points="218,-19 127,-19 127,0 218,0 218,-19"/>
<text text-anchor="middle" x="172.5" y="-7" font-family="Helvetica,sans-Serif" font-size="10.00">func_80090778</text>
</a>
</g>
</g>
<!-- Node3&#45;&gt;Node5 -->
<g id="edge4_Node000003_Node000005" class="edge">
<title>Node3&#45;&gt;Node5</title>
<g id="a_edge4_Node000003_Node000005"><a xlink:title=" ">
<path fill="none" stroke="#63b8ff" d="M248.42,-19.87C238.3,-18.47 227.85,-17.03 218.08,-15.67"/>
<polygon fill="#63b8ff" stroke="#63b8ff" points="248.01,-23.35 258.4,-21.25 248.97,-16.42 248.01,-23.35"/>
</a>
</g>
</g>
<!-- Node6 -->
<g id="Node000006" class="node">
<title>Node6</title>
<g id="a_Node000006"><a xlink:href="effects_8c.html#afaeabb9e08b6568f56117c24edad5945" target="_top" xlink:title=" ">
<polygon fill="white" stroke="#666666" points="91,-19 0,-19 0,0 91,0 91,-19"/>
<text text-anchor="middle" x="45.5" y="-7" font-family="Helvetica,sans-Serif" font-size="10.00">func_8008F3F4</text>
</a>
</g>
</g>
<!-- Node5&#45;&gt;Node6 -->
<g id="edge5_Node000005_Node000006" class="edge">
<title>Node5&#45;&gt;Node6</title>
<g id="a_edge5_Node000005_Node000006"><a xlink:title=" ">
<path fill="none" stroke="#63b8ff" d="M116.59,-9.5C108.16,-9.5 99.55,-9.5 91.38,-9.5"/>
<polygon fill="#63b8ff" stroke="#63b8ff" points="116.73,-13 126.73,-9.5 116.73,-6 116.73,-13"/>
</a>
</g>
</g>
</g>
</svg>
