<?xml version="1.0" encoding="UTF-8" standalone="no"?>
<!DOCTYPE svg PUBLIC "-//W3C//DTD SVG 1.1//EN"
 "http://www.w3.org/Graphics/SVG/1.1/DTD/svg11.dtd">
<!-- Generated by graphviz version 2.43.0 (0)
 -->
<!-- Title: func_800C3508 Pages: 1 -->
<svg width="1811pt" height="301pt"
 viewBox="0.00 0.00 1811.00 301.11" xmlns="http://www.w3.org/2000/svg" xmlns:xlink="http://www.w3.org/1999/xlink">
<g id="graph0" class="graph" transform="scale(1 1) rotate(0) translate(4 297.11)">
<title>func_800C3508</title>
<!-- Node1 -->
<g id="Node000001" class="node">
<title>Node1</title>
<g id="a_Node000001"><a xlink:title=" ">
<polygon fill="#999999" stroke="#666666" points="1803,-129 1711,-129 1711,-110 1803,-110 1803,-129"/>
<text text-anchor="middle" x="1757" y="-117" font-family="Helvetica,sans-Serif" font-size="10.00">func_800C3508</text>
</a>
</g>
</g>
<!-- Node2 -->
<g id="Node000002" class="node">
<title>Node2</title>
<g id="a_Node000002"><a xlink:href="external_8c.html#a9bc9f57fb83f73d37b56721df044d722" target="_top" xlink:title=" ">
<polygon fill="white" stroke="#666666" points="1524.5,-167 1432.5,-167 1432.5,-148 1524.5,-148 1524.5,-167"/>
<text text-anchor="middle" x="1478.5" y="-155" font-family="Helvetica,sans-Serif" font-size="10.00">func_800C76C0</text>
</a>
</g>
</g>
<!-- Node1&#45;&gt;Node2 -->
<g id="edge1_Node000001_Node000002" class="edge">
<title>Node1&#45;&gt;Node2</title>
<g id="a_edge1_Node000001_Node000002"><a xlink:title=" ">
<path fill="none" stroke="#63b8ff" d="M1731.95,-134.21C1716.34,-142.87 1695.21,-152.99 1675,-157.5 1624.48,-168.76 1564.77,-166.61 1524.75,-163.02"/>
<polygon fill="#63b8ff" stroke="#63b8ff" points="1733.97,-137.09 1740.9,-129.07 1730.49,-131.02 1733.97,-137.09"/>
</a>
</g>
</g>
<!-- Node20 -->
<g id="Node000020" class="node">
<title>Node20</title>
<g id="a_Node000020"><a xlink:href="external_8c.html#ad28e21da8a996f75d6ebca012e526e47" target="_top" xlink:title=" ">
<polygon fill="white" stroke="#666666" points="1674.5,-148 1582.5,-148 1582.5,-129 1674.5,-129 1674.5,-148"/>
<text text-anchor="middle" x="1628.5" y="-136" font-family="Helvetica,sans-Serif" font-size="10.00">func_800CA414</text>
</a>
</g>
</g>
<!-- Node1&#45;&gt;Node20 -->
<g id="edge25_Node000001_Node000020" class="edge">
<title>Node1&#45;&gt;Node20</title>
<g id="a_edge25_Node000001_Node000020"><a xlink:title=" ">
<path fill="none" stroke="#63b8ff" d="M1700.71,-127.8C1692.09,-129.1 1683.28,-130.42 1674.92,-131.68"/>
<polygon fill="#63b8ff" stroke="#63b8ff" points="1701.32,-131.25 1710.69,-126.31 1700.28,-124.33 1701.32,-131.25"/>
</a>
</g>
</g>
<!-- Node21 -->
<g id="Node000021" class="node">
<title>Node21</title>
<g id="a_Node000021"><a xlink:href="external_8c.html#aac0d64d382e8e46860f0f987899ecdf0" target="_top" xlink:title=" ">
<polygon fill="white" stroke="#666666" points="1675,-111 1582,-111 1582,-92 1675,-92 1675,-111"/>
<text text-anchor="middle" x="1628.5" y="-99" font-family="Helvetica,sans-Serif" font-size="10.00">func_800CA59C</text>
</a>
</g>
</g>
<!-- Node1&#45;&gt;Node21 -->
<g id="edge27_Node000001_Node000021" class="edge">
<title>Node1&#45;&gt;Node21</title>
<g id="a_edge27_Node000001_Node000021"><a xlink:title=" ">
<path fill="none" stroke="#63b8ff" d="M1700.55,-111.61C1692.14,-110.41 1683.53,-109.19 1675.35,-108.02"/>
<polygon fill="#63b8ff" stroke="#63b8ff" points="1700.29,-115.11 1710.69,-113.05 1701.28,-108.18 1700.29,-115.11"/>
</a>
</g>
</g>
<!-- Node23 -->
<g id="Node000023" class="node">
<title>Node23</title>
<g id="a_Node000023"><a xlink:href="external_8c.html#ac32b332e8b9a73af543741393186060d" target="_top" xlink:title=" ">
<polygon fill="white" stroke="#666666" points="1674.5,-74 1582.5,-74 1582.5,-55 1674.5,-55 1674.5,-74"/>
<text text-anchor="middle" x="1628.5" y="-62" font-family="Helvetica,sans-Serif" font-size="10.00">func_800CA730</text>
</a>
</g>
</g>
<!-- Node1&#45;&gt;Node23 -->
<g id="edge29_Node000001_Node000023" class="edge">
<title>Node1&#45;&gt;Node23</title>
<g id="a_edge29_Node000001_Node000023"><a xlink:title=" ">
<path fill="none" stroke="#63b8ff" d="M1725.35,-105.68C1710.23,-98.91 1691.69,-90.69 1675,-83.5 1667.77,-80.38 1659.86,-77.05 1652.69,-74.06"/>
<polygon fill="#63b8ff" stroke="#63b8ff" points="1724.18,-108.99 1734.74,-109.89 1727.05,-102.61 1724.18,-108.99"/>
</a>
</g>
</g>
<!-- Node3 -->
<g id="Node000003" class="node">
<title>Node3</title>
<g id="a_Node000003"><a xlink:href="external_8c.html#aebe0a7e33d0961a0ad7e4ba40a49a032" target="_top" xlink:title=" ">
<polygon fill="white" stroke="#666666" points="1375,-167 1281,-167 1281,-148 1375,-148 1375,-167"/>
<text text-anchor="middle" x="1328" y="-155" font-family="Helvetica,sans-Serif" font-size="10.00">func_800C8CCC</text>
</a>
</g>
</g>
<!-- Node2&#45;&gt;Node3 -->
<g id="edge2_Node000002_Node000003" class="edge">
<title>Node2&#45;&gt;Node3</title>
<g id="a_edge2_Node000002_Node000003"><a xlink:title=" ">
<path fill="none" stroke="#63b8ff" d="M1421.72,-157.5C1406.35,-157.5 1389.86,-157.5 1375.11,-157.5"/>
<polygon fill="#63b8ff" stroke="#63b8ff" points="1422.14,-161 1432.14,-157.5 1422.14,-154 1422.14,-161"/>
</a>
</g>
</g>
<!-- Node4 -->
<g id="Node000004" class="node">
<title>Node4</title>
<g id="a_Node000004"><a xlink:href="external_8c.html#a12c3e6c147828cc102e748904808ea4a" target="_top" xlink:title=" ">
<polygon fill="white" stroke="#666666" points="1245,-167 1152,-167 1152,-148 1245,-148 1245,-167"/>
<text text-anchor="middle" x="1198.5" y="-155" font-family="Helvetica,sans-Serif" font-size="10.00">func_800CB2C4</text>
</a>
</g>
</g>
<!-- Node3&#45;&gt;Node4 -->
<g id="edge3_Node000003_Node000004" class="edge">
<title>Node3&#45;&gt;Node4</title>
<g id="a_edge3_Node000003_Node000004"><a xlink:title=" ">
<path fill="none" stroke="#63b8ff" d="M1270.93,-157.5C1262.28,-157.5 1253.43,-157.5 1245.04,-157.5"/>
<polygon fill="#63b8ff" stroke="#63b8ff" points="1270.97,-161 1280.97,-157.5 1270.97,-154 1270.97,-161"/>
</a>
</g>
</g>
<!-- Node5 -->
<g id="Node000005" class="node">
<title>Node5</title>
<g id="a_Node000005"><a xlink:href="menus_8c.html#a7e237b5fa61d543f8aedfd821d4aa48b" target="_top" xlink:title=" ">
<polygon fill="white" stroke="#666666" points="1116,-167 1024,-167 1024,-148 1116,-148 1116,-167"/>
<text text-anchor="middle" x="1070" y="-155" font-family="Helvetica,sans-Serif" font-size="10.00">func_800B3F74</text>
</a>
</g>
</g>
<!-- Node4&#45;&gt;Node5 -->
<g id="edge4_Node000004_Node000005" class="edge">
<title>Node4&#45;&gt;Node5</title>
<g id="a_edge4_Node000004_Node000005"><a xlink:title=" ">
<path fill="none" stroke="#63b8ff" d="M1141.59,-157.5C1133.09,-157.5 1124.41,-157.5 1116.18,-157.5"/>
<polygon fill="#63b8ff" stroke="#63b8ff" points="1141.83,-161 1151.83,-157.5 1141.83,-154 1141.83,-161"/>
</a>
</g>
</g>
<!-- Node10 -->
<g id="Node000010" class="node">
<title>Node10</title>
<g id="a_Node000010"><a xlink:href="main_8c.html#a633ed517e458daeb768f5361895dcac9" target="_top" xlink:title=" ">
<polygon fill="white" stroke="#666666" points="452,-111 339,-111 339,-92 452,-92 452,-111"/>
<text text-anchor="middle" x="395.5" y="-99" font-family="Helvetica,sans-Serif" font-size="10.00">thread5_game_loop</text>
</a>
</g>
</g>
<!-- Node4&#45;&gt;Node10 -->
<g id="edge24_Node000004_Node000010" class="edge">
<title>Node4&#45;&gt;Node10</title>
<g id="a_edge24_Node000004_Node000010"><a xlink:title=" ">
<path fill="none" stroke="#63b8ff" d="M1174.32,-142.59C1130.81,-116.07 1033.18,-63.5 943,-63.5 943,-63.5 943,-63.5 685,-63.5 598.11,-63.5 497.74,-80.65 441.23,-91.91"/>
<polygon fill="#63b8ff" stroke="#63b8ff" points="1172.65,-145.67 1183,-147.97 1176.34,-139.72 1172.65,-145.67"/>
</a>
</g>
</g>
<!-- Node19 -->
<g id="Node000019" class="node">
<title>Node19</title>
<g id="a_Node000019"><a xlink:href="code__800029B0_8c.html#aca6165112fc92e65ad6477e785a7098c" target="_top" xlink:title=" ">
<polygon fill="white" stroke="#666666" points="977,-288 907,-288 907,-269 977,-269 977,-288"/>
<text text-anchor="middle" x="942" y="-276" font-family="Helvetica,sans-Serif" font-size="10.00">setup_race</text>
</a>
</g>
</g>
<!-- Node4&#45;&gt;Node19 -->
<g id="edge22_Node000004_Node000019" class="edge">
<title>Node4&#45;&gt;Node19</title>
<g id="a_edge22_Node000004_Node000019"><a xlink:title=" ">
<path fill="none" stroke="#63b8ff" d="M1168,-171.52C1115.67,-196.41 1007.87,-247.66 963.14,-268.92"/>
<polygon fill="#63b8ff" stroke="#63b8ff" points="1169.58,-174.65 1177.1,-167.2 1166.57,-168.33 1169.58,-174.65"/>
</a>
</g>
</g>
<!-- Node6 -->
<g id="Node000006" class="node">
<title>Node6</title>
<g id="a_Node000006"><a xlink:href="code__80091750_8c.html#afbc00b3a80fed334c4f3d05f4502393e" target="_top" xlink:title=" ">
<polygon fill="white" stroke="#666666" points="988,-167 896,-167 896,-148 988,-148 988,-167"/>
<text text-anchor="middle" x="942" y="-155" font-family="Helvetica,sans-Serif" font-size="10.00">func_80094C60</text>
</a>
</g>
</g>
<!-- Node5&#45;&gt;Node6 -->
<g id="edge5_Node000005_Node000006" class="edge">
<title>Node5&#45;&gt;Node6</title>
<g id="a_edge5_Node000005_Node000006"><a xlink:title=" ">
<path fill="none" stroke="#63b8ff" d="M1013.65,-157.5C1005.16,-157.5 996.48,-157.5 988.24,-157.5"/>
<polygon fill="#63b8ff" stroke="#63b8ff" points="1013.87,-161 1023.87,-157.5 1013.87,-154 1013.87,-161"/>
</a>
</g>
</g>
<!-- Node7 -->
<g id="Node000007" class="node">
<title>Node7</title>
<g id="a_Node000007"><a xlink:href="code__80091750_8c.html#a4c171632ff32db3cbe13719e6478d536" target="_top" xlink:title=" ">
<polygon fill="white" stroke="#666666" points="860,-186 768,-186 768,-167 860,-167 860,-186"/>
<text text-anchor="middle" x="814" y="-174" font-family="Helvetica,sans-Serif" font-size="10.00">func_80091B78</text>
</a>
</g>
</g>
<!-- Node6&#45;&gt;Node7 -->
<g id="edge6_Node000006_Node000007" class="edge">
<title>Node6&#45;&gt;Node7</title>
<g id="a_edge6_Node000006_Node000007"><a xlink:title=" ">
<path fill="none" stroke="#63b8ff" d="M885.93,-165.8C877.35,-167.1 868.57,-168.42 860.24,-169.68"/>
<polygon fill="#63b8ff" stroke="#63b8ff" points="886.5,-169.26 895.87,-164.31 885.46,-162.34 886.5,-169.26"/>
</a>
</g>
</g>
<!-- Node17 -->
<g id="Node000017" class="node">
<title>Node17</title>
<g id="a_Node000017"><a xlink:href="code__80091750_8c.html#ac51ad7c4cba535e4821a618a8cfe1e3e" target="_top" xlink:title=" ">
<polygon fill="white" stroke="#666666" points="860,-130 768,-130 768,-111 860,-111 860,-130"/>
<text text-anchor="middle" x="814" y="-118" font-family="Helvetica,sans-Serif" font-size="10.00">func_80094A64</text>
</a>
</g>
</g>
<!-- Node6&#45;&gt;Node17 -->
<g id="edge19_Node000006_Node000017" class="edge">
<title>Node6&#45;&gt;Node17</title>
<g id="a_edge19_Node000006_Node000017"><a xlink:title=" ">
<path fill="none" stroke="#63b8ff" d="M898.56,-145.04C881.98,-140.17 863.28,-134.68 847.78,-130.12"/>
<polygon fill="#63b8ff" stroke="#63b8ff" points="897.97,-148.51 908.55,-147.97 899.94,-141.8 897.97,-148.51"/>
</a>
</g>
</g>
<!-- Node8 -->
<g id="Node000008" class="node">
<title>Node8</title>
<g id="a_Node000008"><a xlink:href="main_8c.html#a8ccd4f2ae1a9502071e1b43ab07a78d3" target="_top" xlink:title=" ">
<polygon fill="white" stroke="#666666" points="732,-260 640,-260 640,-241 732,-241 732,-260"/>
<text text-anchor="middle" x="686" y="-248" font-family="Helvetica,sans-Serif" font-size="10.00">func_800025D4</text>
</a>
</g>
</g>
<!-- Node7&#45;&gt;Node8 -->
<g id="edge7_Node000007_Node000008" class="edge">
<title>Node7&#45;&gt;Node8</title>
<g id="a_edge7_Node000007_Node000008"><a xlink:title=" ">
<path fill="none" stroke="#63b8ff" d="M792.88,-192.31C776.97,-204.34 753.86,-220.76 732,-232.5 726.22,-235.6 719.78,-238.49 713.63,-241"/>
<polygon fill="#63b8ff" stroke="#63b8ff" points="795.12,-195 800.93,-186.14 790.86,-189.45 795.12,-195"/>
</a>
</g>
</g>
<!-- Node14 -->
<g id="Node000014" class="node">
<title>Node14</title>
<g id="a_Node000014"><a xlink:href="main_8c.html#a1399390ccfb8062de2a77e48df769faf" target="_top" xlink:title=" ">
<polygon fill="white" stroke="#666666" points="731.5,-223 640.5,-223 640.5,-204 731.5,-204 731.5,-223"/>
<text text-anchor="middle" x="686" y="-211" font-family="Helvetica,sans-Serif" font-size="10.00">func_80002600</text>
</a>
</g>
</g>
<!-- Node7&#45;&gt;Node14 -->
<g id="edge13_Node000007_Node000014" class="edge">
<title>Node7&#45;&gt;Node14</title>
<g id="a_edge13_Node000007_Node000014"><a xlink:title=" ">
<path fill="none" stroke="#63b8ff" d="M770.56,-188.96C753.98,-193.83 735.28,-199.32 719.78,-203.88"/>
<polygon fill="#63b8ff" stroke="#63b8ff" points="771.94,-192.2 780.55,-186.03 769.97,-185.49 771.94,-192.2"/>
</a>
</g>
</g>
<!-- Node15 -->
<g id="Node000015" class="node">
<title>Node15</title>
<g id="a_Node000015"><a xlink:href="main_8c.html#a26a29858c220d867684f0385abacfde8" target="_top" xlink:title=" ">
<polygon fill="white" stroke="#666666" points="732,-186 640,-186 640,-167 732,-167 732,-186"/>
<text text-anchor="middle" x="686" y="-174" font-family="Helvetica,sans-Serif" font-size="10.00">func_8000262C</text>
</a>
</g>
</g>
<!-- Node7&#45;&gt;Node15 -->
<g id="edge15_Node000007_Node000015" class="edge">
<title>Node7&#45;&gt;Node15</title>
<g id="a_edge15_Node000007_Node000015"><a xlink:title=" ">
<path fill="none" stroke="#63b8ff" d="M757.65,-176.5C749.16,-176.5 740.48,-176.5 732.24,-176.5"/>
<polygon fill="#63b8ff" stroke="#63b8ff" points="757.87,-180 767.87,-176.5 757.87,-173 757.87,-180"/>
</a>
</g>
</g>
<!-- Node16 -->
<g id="Node000016" class="node">
<title>Node16</title>
<g id="a_Node000016"><a xlink:href="main_8c.html#a3a0697cf1e2b0c4ec6ddbf605926eac4" target="_top" xlink:title=" ">
<polygon fill="white" stroke="#666666" points="731.5,-149 640.5,-149 640.5,-130 731.5,-130 731.5,-149"/>
<text text-anchor="middle" x="686" y="-137" font-family="Helvetica,sans-Serif" font-size="10.00">func_80002658</text>
</a>
</g>
</g>
<!-- Node7&#45;&gt;Node16 -->
<g id="edge17_Node000007_Node000016" class="edge">
<title>Node7&#45;&gt;Node16</title>
<g id="a_edge17_Node000007_Node000016"><a xlink:title=" ">
<path fill="none" stroke="#63b8ff" d="M770.56,-164.04C753.98,-159.17 735.28,-153.68 719.78,-149.12"/>
<polygon fill="#63b8ff" stroke="#63b8ff" points="769.97,-167.51 780.55,-166.97 771.94,-160.8 769.97,-167.51"/>
</a>
</g>
</g>
<!-- Node9 -->
<g id="Node000009" class="node">
<title>Node9</title>
<g id="a_Node000009"><a xlink:href="main_8c.html#ad0625ed56ac663d3ec7ae8f1ba50c735" target="_top" xlink:title=" ">
<polygon fill="white" stroke="#666666" points="600,-204 492,-204 492,-185 600,-185 600,-204"/>
<text text-anchor="middle" x="546" y="-192" font-family="Helvetica,sans-Serif" font-size="10.00">update_gamestate</text>
</a>
</g>
</g>
<!-- Node8&#45;&gt;Node9 -->
<g id="edge8_Node000008_Node000009" class="edge">
<title>Node8&#45;&gt;Node9</title>
<g id="a_edge8_Node000008_Node000009"><a xlink:title=" ">
<path fill="none" stroke="#63b8ff" d="M651.33,-237.06C647.51,-235.53 643.67,-233.98 640,-232.5 616.23,-222.89 589.09,-211.79 570.29,-204.07"/>
<polygon fill="#63b8ff" stroke="#63b8ff" points="650.11,-240.35 660.7,-240.82 652.72,-233.85 650.11,-240.35"/>
</a>
</g>
</g>
<!-- Node9&#45;&gt;Node10 -->
<g id="edge9_Node000009_Node000010" class="edge">
<title>Node9&#45;&gt;Node10</title>
<g id="a_edge9_Node000009_Node000010"><a xlink:title=" ">
<path fill="none" stroke="#63b8ff" d="M520.87,-179.39C490.12,-160.13 437.86,-127.4 411.97,-111.19"/>
<polygon fill="#63b8ff" stroke="#63b8ff" points="519.33,-182.56 529.67,-184.9 523.05,-176.62 519.33,-182.56"/>
</a>
</g>
</g>
<!-- Node11 -->
<g id="Node000011" class="node">
<title>Node11</title>
<g id="a_Node000011"><a xlink:href="main_8c.html#a023b8f272e4efbd33f371e91ffff6b30" target="_top" xlink:title=" ">
<polygon fill="white" stroke="#666666" points="303,-111 217,-111 217,-92 303,-92 303,-111"/>
<text text-anchor="middle" x="260" y="-99" font-family="Helvetica,sans-Serif" font-size="10.00">thread3_video</text>
</a>
</g>
</g>
<!-- Node10&#45;&gt;Node11 -->
<g id="edge10_Node000010_Node000011" class="edge">
<title>Node10&#45;&gt;Node11</title>
<g id="a_edge10_Node000010_Node000011"><a xlink:title=" ">
<path fill="none" stroke="#63b8ff" d="M328.57,-101.5C319.94,-101.5 311.3,-101.5 303.21,-101.5"/>
<polygon fill="#63b8ff" stroke="#63b8ff" points="328.66,-105 338.66,-101.5 328.66,-98 328.66,-105"/>
</a>
</g>
</g>
<!-- Node12 -->
<g id="Node000012" class="node">
<title>Node12</title>
<g id="a_Node000012"><a xlink:href="main_8c.html#a1e35d2b842121e6aea373f09381616e5" target="_top" xlink:title=" ">
<polygon fill="white" stroke="#666666" points="181,-111 104,-111 104,-92 181,-92 181,-111"/>
<text text-anchor="middle" x="142.5" y="-99" font-family="Helvetica,sans-Serif" font-size="10.00">thread1_idle</text>
</a>
</g>
</g>
<!-- Node11&#45;&gt;Node12 -->
<g id="edge11_Node000011_Node000012" class="edge">
<title>Node11&#45;&gt;Node12</title>
<g id="a_edge11_Node000011_Node000012"><a xlink:title=" ">
<path fill="none" stroke="#63b8ff" d="M206.9,-101.5C198.2,-101.5 189.33,-101.5 181.09,-101.5"/>
<polygon fill="#63b8ff" stroke="#63b8ff" points="206.98,-105 216.98,-101.5 206.98,-98 206.98,-105"/>
</a>
</g>
</g>
<!-- Node13 -->
<g id="Node000013" class="node">
<title>Node13</title>
<g id="a_Node000013"><a xlink:href="main_8c.html#a4f87d43525fe95f60ea92bc8a3b70e62" target="_top" xlink:title=" ">
<polygon fill="white" stroke="#666666" points="68,-111 0,-111 0,-92 68,-92 68,-111"/>
<text text-anchor="middle" x="34" y="-99" font-family="Helvetica,sans-Serif" font-size="10.00">main_func</text>
</a>
</g>
</g>
<!-- Node12&#45;&gt;Node13 -->
<g id="edge12_Node000012_Node000013" class="edge">
<title>Node12&#45;&gt;Node13</title>
<g id="a_edge12_Node000012_Node000013"><a xlink:title=" ">
<path fill="none" stroke="#63b8ff" d="M93.95,-101.5C85.29,-101.5 76.44,-101.5 68.31,-101.5"/>
<polygon fill="#63b8ff" stroke="#63b8ff" points="93.95,-105 103.95,-101.5 93.95,-98 93.95,-105"/>
</a>
</g>
</g>
<!-- Node14&#45;&gt;Node9 -->
<g id="edge14_Node000014_Node000009" class="edge">
<title>Node14&#45;&gt;Node9</title>
<g id="a_edge14_Node000014_Node000009"><a xlink:title=" ">
<path fill="none" stroke="#63b8ff" d="M630.12,-205.94C620.28,-204.59 610.03,-203.18 600.24,-201.83"/>
<polygon fill="#63b8ff" stroke="#63b8ff" points="629.81,-209.43 640.2,-207.33 630.77,-202.5 629.81,-209.43"/>
</a>
</g>
</g>
<!-- Node15&#45;&gt;Node9 -->
<g id="edge16_Node000015_Node000009" class="edge">
<title>Node15&#45;&gt;Node9</title>
<g id="a_edge16_Node000015_Node000009"><a xlink:title=" ">
<path fill="none" stroke="#63b8ff" d="M629.88,-183.69C620.18,-184.95 610.1,-186.27 600.45,-187.53"/>
<polygon fill="#63b8ff" stroke="#63b8ff" points="630.35,-187.16 639.81,-182.39 629.44,-180.22 630.35,-187.16"/>
</a>
</g>
</g>
<!-- Node16&#45;&gt;Node9 -->
<g id="edge18_Node000016_Node000009" class="edge">
<title>Node16&#45;&gt;Node9</title>
<g id="a_edge18_Node000016_Node000009"><a xlink:title=" ">
<path fill="none" stroke="#63b8ff" d="M651.57,-152.82C626.77,-162.71 593.51,-175.96 571.23,-184.84"/>
<polygon fill="#63b8ff" stroke="#63b8ff" points="652.97,-156.03 660.96,-149.08 650.38,-149.53 652.97,-156.03"/>
</a>
</g>
</g>
<!-- Node18 -->
<g id="Node000018" class="node">
<title>Node18</title>
<g id="a_Node000018"><a xlink:href="main_8c.html#ae04143ce8113cdafa007c642eb620bc8" target="_top" xlink:title=" ">
<polygon fill="white" stroke="#666666" points="604,-111 488,-111 488,-92 604,-92 604,-111"/>
<text text-anchor="middle" x="546" y="-99" font-family="Helvetica,sans-Serif" font-size="10.00">game_state_handler</text>
</a>
</g>
</g>
<!-- Node17&#45;&gt;Node18 -->
<g id="edge20_Node000017_Node000018" class="edge">
<title>Node17&#45;&gt;Node18</title>
<g id="a_edge20_Node000017_Node000018"><a xlink:title=" ">
<path fill="none" stroke="#63b8ff" d="M757.74,-116.55C712.89,-113.35 649.86,-108.85 604.43,-105.6"/>
<polygon fill="#63b8ff" stroke="#63b8ff" points="757.65,-120.06 767.88,-117.28 758.15,-113.07 757.65,-120.06"/>
</a>
</g>
</g>
<!-- Node18&#45;&gt;Node10 -->
<g id="edge21_Node000018_Node000010" class="edge">
<title>Node18&#45;&gt;Node10</title>
<g id="a_edge21_Node000018_Node000010"><a xlink:title=" ">
<path fill="none" stroke="#63b8ff" d="M477.42,-101.5C469.02,-101.5 460.5,-101.5 452.3,-101.5"/>
<polygon fill="#63b8ff" stroke="#63b8ff" points="477.59,-105 487.59,-101.5 477.59,-98 477.59,-105"/>
</a>
</g>
</g>
<!-- Node19&#45;&gt;Node9 -->
<g id="edge23_Node000019_Node000009" class="edge">
<title>Node19&#45;&gt;Node9</title>
<g id="a_edge23_Node000019_Node000009"><a xlink:title=" ">
<path fill="none" stroke="#63b8ff" d="M896.78,-285.72C836.58,-293.68 726.45,-301.48 640,-269.5 603.04,-255.83 569.71,-221.14 554.99,-204.16"/>
<polygon fill="#63b8ff" stroke="#63b8ff" points="897.29,-289.19 906.71,-284.35 896.33,-282.25 897.29,-289.19"/>
</a>
</g>
</g>
<!-- Node20&#45;&gt;Node2 -->
<g id="edge26_Node000020_Node000002" class="edge">
<title>Node20&#45;&gt;Node2</title>
<g id="a_edge26_Node000020_Node000002"><a xlink:title=" ">
<path fill="none" stroke="#63b8ff" d="M1572.2,-145.6C1556.54,-147.61 1539.68,-149.77 1524.69,-151.7"/>
<polygon fill="#63b8ff" stroke="#63b8ff" points="1572.82,-149.05 1582.29,-144.3 1571.93,-142.11 1572.82,-149.05"/>
</a>
</g>
</g>
<!-- Node22 -->
<g id="Node000022" class="node">
<title>Node22</title>
<g id="a_Node000022"><a xlink:href="effects_8c.html#a1ae16ef10ed322ad47b3cff5a8efc83e" target="_top" xlink:title=" ">
<polygon fill="white" stroke="#666666" points="1546,-111 1411,-111 1411,-92 1546,-92 1546,-111"/>
<text text-anchor="middle" x="1478.5" y="-99" font-family="Helvetica,sans-Serif" font-size="10.00">apply_star_sound_effect</text>
</a>
</g>
</g>
<!-- Node21&#45;&gt;Node22 -->
<g id="edge28_Node000021_Node000022" class="edge">
<title>Node21&#45;&gt;Node22</title>
<g id="a_edge28_Node000021_Node000022"><a xlink:title=" ">
<path fill="none" stroke="#63b8ff" d="M1571.86,-101.5C1563.48,-101.5 1554.76,-101.5 1546.18,-101.5"/>
<polygon fill="#63b8ff" stroke="#63b8ff" points="1571.89,-105 1581.89,-101.5 1571.89,-98 1571.89,-105"/>
</a>
</g>
</g>
<!-- Node24 -->
<g id="Node000024" class="node">
<title>Node24</title>
<g id="a_Node000024"><a xlink:href="effects_8c.html#ab044d6f7bf1cacf740cf0a27ea0902b5" target="_top" xlink:title=" ">
<polygon fill="white" stroke="#666666" points="1529,-74 1428,-74 1428,-55 1529,-55 1529,-74"/>
<text text-anchor="middle" x="1478.5" y="-62" font-family="Helvetica,sans-Serif" font-size="10.00">apply_star_effect</text>
</a>
</g>
</g>
<!-- Node23&#45;&gt;Node24 -->
<g id="edge30_Node000023_Node000024" class="edge">
<title>Node23&#45;&gt;Node24</title>
<g id="a_edge30_Node000023_Node000024"><a xlink:title=" ">
<path fill="none" stroke="#63b8ff" d="M1572.19,-64.5C1558.04,-64.5 1542.91,-64.5 1529.07,-64.5"/>
<polygon fill="#63b8ff" stroke="#63b8ff" points="1572.29,-68 1582.29,-64.5 1572.29,-61 1572.29,-68"/>
</a>
</g>
</g>
<!-- Node25 -->
<g id="Node000025" class="node">
<title>Node25</title>
<g id="a_Node000025"><a xlink:href="effects_8c.html#ae1bacd987d7f12fc5960f838a7dbe137" target="_top" xlink:title=" ">
<polygon fill="white" stroke="#666666" points="1524.5,-37 1432.5,-37 1432.5,-18 1524.5,-18 1524.5,-37"/>
<text text-anchor="middle" x="1478.5" y="-25" font-family="Helvetica,sans-Serif" font-size="10.00">func_8008F86C</text>
</a>
</g>
</g>
<!-- Node23&#45;&gt;Node25 -->
<g id="edge31_Node000023_Node000025" class="edge">
<title>Node23&#45;&gt;Node25</title>
<g id="a_edge31_Node000023_Node000025"><a xlink:title=" ">
<path fill="none" stroke="#63b8ff" d="M1579.53,-52.51C1559.51,-47.5 1536.59,-41.77 1517.74,-37.06"/>
<polygon fill="#63b8ff" stroke="#63b8ff" points="1578.84,-55.94 1589.39,-54.97 1580.53,-49.15 1578.84,-55.94"/>
</a>
</g>
</g>
<!-- Node26 -->
<g id="Node000026" class="node">
<title>Node26</title>
<g id="a_Node000026"><a xlink:href="effects_8c.html#a71c3c746ea434e798865e3256180ee0a" target="_top" xlink:title=" ">
<polygon fill="white" stroke="#666666" points="1373.5,-19 1282.5,-19 1282.5,0 1373.5,0 1373.5,-19"/>
<text text-anchor="middle" x="1328" y="-7" font-family="Helvetica,sans-Serif" font-size="10.00">func_8008F494</text>
</a>
</g>
</g>
<!-- Node25&#45;&gt;Node26 -->
<g id="edge32_Node000025_Node000026" class="edge">
<title>Node25&#45;&gt;Node26</title>
<g id="a_edge32_Node000025_Node000026"><a xlink:title=" ">
<path fill="none" stroke="#63b8ff" d="M1421.87,-20.76C1405.93,-18.82 1388.76,-16.74 1373.57,-14.9"/>
<polygon fill="#63b8ff" stroke="#63b8ff" points="1421.79,-24.27 1432.14,-22 1422.63,-17.32 1421.79,-24.27"/>
</a>
</g>
</g>
<!-- Node27 -->
<g id="Node000027" class="node">
<title>Node27</title>
<g id="a_Node000027"><a xlink:href="effects_8c.html#a17332237b5c2a4249328a35071e23bf7" target="_top" xlink:title=" ">
<polygon fill="white" stroke="#666666" points="1373.5,-56 1282.5,-56 1282.5,-37 1373.5,-37 1373.5,-56"/>
<text text-anchor="middle" x="1328" y="-44" font-family="Helvetica,sans-Serif" font-size="10.00">func_80090778</text>
</a>
</g>
</g>
<!-- Node25&#45;&gt;Node27 -->
<g id="edge33_Node000025_Node000027" class="edge">
<title>Node25&#45;&gt;Node27</title>
<g id="a_edge33_Node000025_Node000027"><a xlink:title=" ">
<path fill="none" stroke="#63b8ff" d="M1421.87,-34.62C1405.93,-36.66 1388.76,-38.85 1373.57,-40.8"/>
<polygon fill="#63b8ff" stroke="#63b8ff" points="1422.66,-38.04 1432.14,-33.3 1421.77,-31.1 1422.66,-38.04"/>
</a>
</g>
</g>
<!-- Node28 -->
<g id="Node000028" class="node">
<title>Node28</title>
<g id="a_Node000028"><a xlink:href="effects_8c.html#afaeabb9e08b6568f56117c24edad5945" target="_top" xlink:title=" ">
<polygon fill="white" stroke="#666666" points="1244,-56 1153,-56 1153,-37 1244,-37 1244,-56"/>
<text text-anchor="middle" x="1198.5" y="-44" font-family="Helvetica,sans-Serif" font-size="10.00">func_8008F3F4</text>
</a>
</g>
</g>
<!-- Node27&#45;&gt;Node28 -->
<g id="edge34_Node000027_Node000028" class="edge">
<title>Node27&#45;&gt;Node28</title>
<g id="a_edge34_Node000027_Node000028"><a xlink:title=" ">
<path fill="none" stroke="#63b8ff" d="M1272.38,-46.5C1263.01,-46.5 1253.36,-46.5 1244.28,-46.5"/>
<polygon fill="#63b8ff" stroke="#63b8ff" points="1272.41,-50 1282.41,-46.5 1272.41,-43 1272.41,-50"/>
</a>
</g>
</g>
</g>
</svg>
