<?xml version="1.0" encoding="UTF-8" standalone="no"?>
<!DOCTYPE svg PUBLIC "-//W3C//DTD SVG 1.1//EN"
 "http://www.w3.org/Graphics/SVG/1.1/DTD/svg11.dtd">
<!-- Generated by graphviz version 2.43.0 (0)
 -->
<!-- Title: func_800C8EF8 Pages: 1 -->
<!--zoomable 369 -->

<svg id="main" version="1.1" xmlns="http://www.w3.org/2000/svg" xmlns:xlink="http://www.w3.org/1999/xlink" xml:space="preserve" onload="init(evt)">
<style type="text/css"><![CDATA[
.node, .edge {opacity: 0.7;}
.node.selected, .edge.selected {opacity: 1;}
.edge:hover path { stroke: red; }
.edge:hover polygon { stroke: red; fill: red; }
]]></style>

<defs>
  <circle id="rim" cx="0" cy="0" r="7"/>
  <circle id="rim2" cx="0" cy="0" r="3.5"/>
  <g id="zoomPlus">
    <use xlink:href="#rim" fill="#404040"><set attributeName="fill" to="#808080" begin="zoomplus.mouseover" end="zoomplus.mouseout"/></use>
    <path d="M-4,0h8M0,-4v8" fill="none" stroke="white" stroke-width="1.5" pointer-events="none"/>
  </g>
  <g id="zoomMin">
    <use xlink:href="#rim" fill="#404040"><set attributeName="fill" to="#808080" begin="zoomminus.mouseover" end="zoomminus.mouseout"/></use>
    <path d="M-4,0h8" fill="none" stroke="white" stroke-width="1.5" pointer-events="none"/>
  </g>
  <g id="arrowUp" transform="translate(30 24)">
    <use xlink:href="#rim"/>
    <path pointer-events="none" fill="none" stroke="white" stroke-width="1.5" d="M0,-3.0v7 M-2.5,-0.5L0,-3.0L2.5,-0.5"/>
  </g>
  <g id="arrowRight" transform="rotate(90) translate(36 -43)">
    <use xlink:href="#rim"/>
    <path pointer-events="none" fill="none" stroke="white" stroke-width="1.5" d="M0,-3.0v7 M-2.5,-0.5L0,-3.0L2.5,-0.5"/>
  </g>
  <g id="arrowDown" transform="rotate(180) translate(-30 -48)">
    <use xlink:href="#rim"/>
    <path pointer-events="none" fill="none" stroke="white" stroke-width="1.5" d="M0,-3.0v7 M-2.5,-0.5L0,-3.0L2.5,-0.5"/>
  </g>
  <g id="arrowLeft" transform="rotate(270) translate(-36 17)">
    <use xlink:href="#rim"/>
    <path pointer-events="none" fill="none" stroke="white" stroke-width="1.5" d="M0,-3.0v7 M-2.5,-0.5L0,-3.0L2.5,-0.5"/>
  </g>
  <g id="resetDef">
    <use xlink:href="#rim2" fill="#404040"><set attributeName="fill" to="#808080" begin="reset.mouseover" end="reset.mouseout"/></use>
  </g>
</defs>
<script type="application/ecmascript">
var viewWidth = 1775;
var viewHeight = 369;
var sectionId = 'dynsection-84';
</script>
<script type="application/ecmascript" xlink:href="svg.min.js"/>
<svg id="graph" class="graph">
<g id="viewport">
<title>func_800C8EF8</title>
<!-- Node1 -->
<g id="Node000001" class="node">
<title>Node1</title>
<g id="a_Node000001"><a xlink:title=" ">
<polygon fill="#999999" stroke="#666666" points="1767,-148 1675,-148 1675,-129 1767,-129 1767,-148"/>
<text text-anchor="middle" x="1721" y="-136" font-family="Helvetica,sans-Serif" font-size="10.00">func_800C8EF8</text>
</a>
</g>
</g>
<!-- Node2 -->
<g id="Node000002" class="node">
<title>Node2</title>
<g id="a_Node000002"><a xlink:href="external_8c.html#a9bc9f57fb83f73d37b56721df044d722" target="_top" xlink:title=" ">
<polygon fill="white" stroke="#666666" points="1638.5,-289 1546.5,-289 1546.5,-270 1638.5,-270 1638.5,-289"/>
<text text-anchor="middle" x="1592.5" y="-277" font-family="Helvetica,sans-Serif" font-size="10.00">func_800C76C0</text>
</a>
</g>
</g>
<!-- Node1&#45;&gt;Node2 -->
<g id="edge1_Node000001_Node000002" class="edge">
<title>Node1&#45;&gt;Node2</title>
<g id="a_edge1_Node000001_Node000002"><a xlink:title=" ">
<path fill="none" stroke="#63b8ff" d="M1710.17,-156.91C1696.6,-181.06 1670.24,-223.73 1639,-252.5 1631.57,-259.34 1622.12,-265.29 1613.77,-269.85"/>
<polygon fill="#63b8ff" stroke="#63b8ff" points="1713.28,-158.52 1715.03,-148.07 1707.14,-155.15 1713.28,-158.52"/>
</a>
</g>
</g>
<!-- Node20 -->
<g id="Node000020" class="node">
<title>Node20</title>
<g id="a_Node000020"><a xlink:href="external_8c.html#a0ea06bff336c27580a0e3da471bda115" target="_top" xlink:title=" ">
<polygon fill="white" stroke="#666666" points="1639,-243 1546,-243 1546,-224 1639,-224 1639,-243"/>
<text text-anchor="middle" x="1592.5" y="-231" font-family="Helvetica,sans-Serif" font-size="10.00">func_800CA49C</text>
</a>
</g>
</g>
<!-- Node1&#45;&gt;Node20 -->
<g id="edge25_Node000001_Node000020" class="edge">
<title>Node1&#45;&gt;Node20</title>
<g id="a_edge25_Node000001_Node000020"><a xlink:title=" ">
<path fill="none" stroke="#63b8ff" d="M1703.27,-155.27C1687.53,-170.51 1662.88,-193.07 1639,-209.5 1631.2,-214.87 1622.06,-219.9 1614.02,-223.96"/>
<polygon fill="#63b8ff" stroke="#63b8ff" points="1705.96,-157.54 1710.64,-148.03 1701.05,-152.54 1705.96,-157.54"/>
</a>
</g>
</g>
<!-- Node22 -->
<g id="Node000022" class="node">
<title>Node22</title>
<g id="a_Node000022"><a xlink:href="race__logic_8c.html#a7f21a1ef55b61f5678170da62e5e51dc" target="_top" xlink:title=" ">
<polygon fill="white" stroke="#666666" points="1339,-205 1246,-205 1246,-186 1339,-186 1339,-205"/>
<text text-anchor="middle" x="1292.5" y="-193" font-family="Helvetica,sans-Serif" font-size="10.00">func_8028FCBC</text>
</a>
</g>
</g>
<!-- Node1&#45;&gt;Node22 -->
<g id="edge47_Node000001_Node000022" class="edge">
<title>Node1&#45;&gt;Node22</title>
<g id="a_edge47_Node000001_Node000022"><a xlink:title=" ">
<path fill="none" stroke="#63b8ff" d="M1695.28,-153.15C1679.69,-161.59 1658.83,-171.5 1639,-176.5 1534.14,-202.92 1405.93,-201.58 1339.05,-198.46"/>
<polygon fill="#63b8ff" stroke="#63b8ff" points="1697.22,-156.07 1704.24,-148.13 1693.8,-149.96 1697.22,-156.07"/>
</a>
</g>
</g>
<!-- Node24 -->
<g id="Node000024" class="node">
<title>Node24</title>
<g id="a_Node000024"><a xlink:href="external_8c.html#aac0d64d382e8e46860f0f987899ecdf0" target="_top" xlink:title=" ">
<polygon fill="white" stroke="#666666" points="1639,-167 1546,-167 1546,-148 1639,-148 1639,-167"/>
<text text-anchor="middle" x="1592.5" y="-155" font-family="Helvetica,sans-Serif" font-size="10.00">func_800CA59C</text>
</a>
</g>
</g>
<!-- Node1&#45;&gt;Node24 -->
<g id="edge30_Node000001_Node000024" class="edge">
<title>Node1&#45;&gt;Node24</title>
<g id="a_edge30_Node000001_Node000024"><a xlink:title=" ">
<path fill="none" stroke="#63b8ff" d="M1664.55,-146.83C1656.14,-148.09 1647.53,-149.38 1639.35,-150.61"/>
<polygon fill="#63b8ff" stroke="#63b8ff" points="1665.32,-150.25 1674.69,-145.31 1664.28,-143.33 1665.32,-150.25"/>
</a>
</g>
</g>
<!-- Node26 -->
<g id="Node000026" class="node">
<title>Node26</title>
<g id="a_Node000026"><a xlink:href="external_8c.html#ae71450546a81c5fa5a5ec8b5a529a5ef" target="_top" xlink:title=" ">
<polygon fill="white" stroke="#666666" points="1639,-130 1546,-130 1546,-111 1639,-111 1639,-130"/>
<text text-anchor="middle" x="1592.5" y="-118" font-family="Helvetica,sans-Serif" font-size="10.00">func_800CB14C</text>
</a>
</g>
</g>
<!-- Node1&#45;&gt;Node26 -->
<g id="edge32_Node000001_Node000026" class="edge">
<title>Node1&#45;&gt;Node26</title>
<g id="a_edge32_Node000001_Node000026"><a xlink:title=" ">
<path fill="none" stroke="#63b8ff" d="M1664.55,-130.61C1656.14,-129.41 1647.53,-128.19 1639.35,-127.02"/>
<polygon fill="#63b8ff" stroke="#63b8ff" points="1664.29,-134.11 1674.69,-132.05 1665.28,-127.18 1664.29,-134.11"/>
</a>
</g>
</g>
<!-- Node33 -->
<g id="Node000033" class="node">
<title>Node33</title>
<g id="a_Node000033"><a xlink:href="ceremony__and__credits_8c.html#a90150ca36915577e9cecb99c0e864068" target="_top" xlink:title=" ">
<polygon fill="white" stroke="#666666" points="1638.5,-93 1546.5,-93 1546.5,-74 1638.5,-74 1638.5,-93"/>
<text text-anchor="middle" x="1592.5" y="-81" font-family="Helvetica,sans-Serif" font-size="10.00">func_80283BF0</text>
</a>
</g>
</g>
<!-- Node1&#45;&gt;Node33 -->
<g id="edge41_Node000001_Node000033" class="edge">
<title>Node1&#45;&gt;Node33</title>
<g id="a_edge41_Node000001_Node000033"><a xlink:title=" ">
<path fill="none" stroke="#63b8ff" d="M1689.35,-124.68C1674.23,-117.91 1655.69,-109.69 1639,-102.5 1631.77,-99.38 1623.86,-96.05 1616.69,-93.06"/>
<polygon fill="#63b8ff" stroke="#63b8ff" points="1688.18,-127.99 1698.74,-128.89 1691.05,-121.61 1688.18,-127.99"/>
</a>
</g>
</g>
<!-- Node35 -->
<g id="Node000035" class="node">
<title>Node35</title>
<g id="a_Node000035"><a xlink:href="ceremony__and__credits_8c.html#abff7c3137a48493b73b025ed1408a971" target="_top" xlink:title=" ">
<polygon fill="white" stroke="#666666" points="1638.5,-56 1546.5,-56 1546.5,-37 1638.5,-37 1638.5,-56"/>
<text text-anchor="middle" x="1592.5" y="-44" font-family="Helvetica,sans-Serif" font-size="10.00">func_80283C14</text>
</a>
</g>
</g>
<!-- Node1&#45;&gt;Node35 -->
<g id="edge43_Node000001_Node000035" class="edge">
<title>Node1&#45;&gt;Node35</title>
<g id="a_edge43_Node000001_Node000035"><a xlink:title=" ">
<path fill="none" stroke="#63b8ff" d="M1704.2,-121.23C1688.79,-105.16 1664.06,-81.37 1639,-65.5 1633.36,-61.93 1626.93,-58.77 1620.72,-56.1"/>
<polygon fill="#63b8ff" stroke="#63b8ff" points="1701.97,-123.96 1711.37,-128.85 1707.06,-119.17 1701.97,-123.96"/>
</a>
</g>
</g>
<!-- Node37 -->
<g id="Node000037" class="node">
<title>Node37</title>
<g id="a_Node000037"><a xlink:href="ceremony__and__credits_8c.html#ae491b7ab147c4bef215fd3a6f5e8f5dc" target="_top" xlink:title=" ">
<polygon fill="white" stroke="#666666" points="1638.5,-19 1546.5,-19 1546.5,0 1638.5,0 1638.5,-19"/>
<text text-anchor="middle" x="1592.5" y="-7" font-family="Helvetica,sans-Serif" font-size="10.00">func_80283C78</text>
</a>
</g>
</g>
<!-- Node1&#45;&gt;Node37 -->
<g id="edge45_Node000001_Node000037" class="edge">
<title>Node1&#45;&gt;Node37</title>
<g id="a_edge45_Node000001_Node000037"><a xlink:title=" ">
<path fill="none" stroke="#63b8ff" d="M1710.7,-119.83C1697.72,-95.49 1672,-53.03 1639,-27.5 1634.7,-24.17 1629.71,-21.38 1624.63,-19.07"/>
<polygon fill="#63b8ff" stroke="#63b8ff" points="1707.62,-121.49 1715.33,-128.76 1713.84,-118.27 1707.62,-121.49"/>
</a>
</g>
</g>
<!-- Node3 -->
<g id="Node000003" class="node">
<title>Node3</title>
<g id="a_Node000003"><a xlink:href="external_8c.html#aebe0a7e33d0961a0ad7e4ba40a49a032" target="_top" xlink:title=" ">
<polygon fill="white" stroke="#666666" points="1489.5,-307 1395.5,-307 1395.5,-288 1489.5,-288 1489.5,-307"/>
<text text-anchor="middle" x="1442.5" y="-295" font-family="Helvetica,sans-Serif" font-size="10.00">func_800C8CCC</text>
</a>
</g>
</g>
<!-- Node2&#45;&gt;Node3 -->
<g id="edge2_Node000002_Node000003" class="edge">
<title>Node2&#45;&gt;Node3</title>
<g id="a_edge2_Node000002_Node000003"><a xlink:title=" ">
<path fill="none" stroke="#63b8ff" d="M1535.95,-286.26C1520.72,-288.11 1504.36,-290.1 1489.71,-291.88"/>
<polygon fill="#63b8ff" stroke="#63b8ff" points="1536.79,-289.68 1546.29,-285 1535.94,-282.73 1536.79,-289.68"/>
</a>
</g>
</g>
<!-- Node4 -->
<g id="Node000004" class="node">
<title>Node4</title>
<g id="a_Node000004"><a xlink:href="external_8c.html#a12c3e6c147828cc102e748904808ea4a" target="_top" xlink:title=" ">
<polygon fill="white" stroke="#666666" points="1339,-307 1246,-307 1246,-288 1339,-288 1339,-307"/>
<text text-anchor="middle" x="1292.5" y="-295" font-family="Helvetica,sans-Serif" font-size="10.00">func_800CB2C4</text>
</a>
</g>
</g>
<!-- Node3&#45;&gt;Node4 -->
<g id="edge3_Node000003_Node000004" class="edge">
<title>Node3&#45;&gt;Node4</title>
<g id="a_edge3_Node000003_Node000004"><a xlink:title=" ">
<path fill="none" stroke="#63b8ff" d="M1385.18,-297.5C1369.99,-297.5 1353.76,-297.5 1339.23,-297.5"/>
<polygon fill="#63b8ff" stroke="#63b8ff" points="1385.48,-301 1395.48,-297.5 1385.48,-294 1385.48,-301"/>
</a>
</g>
</g>
<!-- Node5 -->
<g id="Node000005" class="node">
<title>Node5</title>
<g id="a_Node000005"><a xlink:href="menus_8c.html#a7e237b5fa61d543f8aedfd821d4aa48b" target="_top" xlink:title=" ">
<polygon fill="white" stroke="#666666" points="1210,-290 1118,-290 1118,-271 1210,-271 1210,-290"/>
<text text-anchor="middle" x="1164" y="-278" font-family="Helvetica,sans-Serif" font-size="10.00">func_800B3F74</text>
</a>
</g>
</g>
<!-- Node4&#45;&gt;Node5 -->
<g id="edge4_Node000004_Node000005" class="edge">
<title>Node4&#45;&gt;Node5</title>
<g id="a_edge4_Node000004_Node000005"><a xlink:title=" ">
<path fill="none" stroke="#63b8ff" d="M1235.87,-290.02C1227.28,-288.87 1218.5,-287.69 1210.18,-286.57"/>
<polygon fill="#63b8ff" stroke="#63b8ff" points="1235.45,-293.5 1245.83,-291.36 1236.39,-286.56 1235.45,-293.5"/>
</a>
</g>
</g>
<!-- Node10 -->
<g id="Node000010" class="node">
<title>Node10</title>
<g id="a_Node000010"><a xlink:href="main_8c.html#a633ed517e458daeb768f5361895dcac9" target="_top" xlink:title=" ">
<polygon fill="white" stroke="#666666" points="452,-257 339,-257 339,-238 452,-238 452,-257"/>
<text text-anchor="middle" x="395.5" y="-245" font-family="Helvetica,sans-Serif" font-size="10.00">thread5_game_loop</text>
</a>
</g>
</g>
<!-- Node4&#45;&gt;Node10 -->
<g id="edge24_Node000004_Node000010" class="edge">
<title>Node4&#45;&gt;Node10</title>
<g id="a_edge24_Node000004_Node000010"><a xlink:title=" ">
<path fill="none" stroke="#63b8ff" d="M1268.32,-312.36C1252.52,-321.75 1230.77,-333.24 1210,-339.5 1128.23,-364.14 1104.4,-360.5 1019,-360.5 1019,-360.5 1019,-360.5 689,-360.5 574.68,-360.5 451.09,-284.46 410.36,-257.13"/>
<polygon fill="#63b8ff" stroke="#63b8ff" points="1270.17,-315.33 1276.88,-307.14 1266.52,-309.36 1270.17,-315.33"/>
</a>
</g>
</g>
<!-- Node19 -->
<g id="Node000019" class="node">
<title>Node19</title>
<g id="a_Node000019"><a xlink:href="code__800029B0_8c.html#aca6165112fc92e65ad6477e785a7098c" target="_top" xlink:title=" ">
<polygon fill="white" stroke="#666666" points="1199,-330 1129,-330 1129,-311 1199,-311 1199,-330"/>
<text text-anchor="middle" x="1164" y="-318" font-family="Helvetica,sans-Serif" font-size="10.00">setup_race</text>
</a>
</g>
</g>
<!-- Node4&#45;&gt;Node19 -->
<g id="edge22_Node000004_Node000019" class="edge">
<title>Node4&#45;&gt;Node19</title>
<g id="a_edge22_Node000004_Node000019"><a xlink:title=" ">
<path fill="none" stroke="#63b8ff" d="M1235.9,-307.61C1223.37,-309.89 1210.43,-312.24 1199.09,-314.3"/>
<polygon fill="#63b8ff" stroke="#63b8ff" points="1236.62,-311.04 1245.83,-305.8 1235.37,-304.15 1236.62,-311.04"/>
</a>
</g>
</g>
<!-- Node6 -->
<g id="Node000006" class="node">
<title>Node6</title>
<g id="a_Node000006"><a xlink:href="code__80091750_8c.html#afbc00b3a80fed334c4f3d05f4502393e" target="_top" xlink:title=" ">
<polygon fill="white" stroke="#666666" points="1064,-258 972,-258 972,-239 1064,-239 1064,-258"/>
<text text-anchor="middle" x="1018" y="-246" font-family="Helvetica,sans-Serif" font-size="10.00">func_80094C60</text>
</a>
</g>
</g>
<!-- Node5&#45;&gt;Node6 -->
<g id="edge5_Node000005_Node000006" class="edge">
<title>Node5&#45;&gt;Node6</title>
<g id="a_edge5_Node000005_Node000006"><a xlink:title=" ">
<path fill="none" stroke="#63b8ff" d="M1110,-268.72C1094.16,-265.2 1077,-261.39 1061.9,-258.03"/>
<polygon fill="#63b8ff" stroke="#63b8ff" points="1109.66,-272.23 1120.19,-270.99 1111.18,-265.4 1109.66,-272.23"/>
</a>
</g>
</g>
<!-- Node7 -->
<g id="Node000007" class="node">
<title>Node7</title>
<g id="a_Node000007"><a xlink:href="code__80091750_8c.html#a4c171632ff32db3cbe13719e6478d536" target="_top" xlink:title=" ">
<polygon fill="white" stroke="#666666" points="897,-258 805,-258 805,-239 897,-239 897,-258"/>
<text text-anchor="middle" x="851" y="-246" font-family="Helvetica,sans-Serif" font-size="10.00">func_80091B78</text>
</a>
</g>
</g>
<!-- Node6&#45;&gt;Node7 -->
<g id="edge6_Node000006_Node000007" class="edge">
<title>Node6&#45;&gt;Node7</title>
<g id="a_edge6_Node000006_Node000007"><a xlink:title=" ">
<path fill="none" stroke="#63b8ff" d="M961.82,-248.5C940.76,-248.5 917.03,-248.5 897.03,-248.5"/>
<polygon fill="#63b8ff" stroke="#63b8ff" points="961.91,-252 971.91,-248.5 961.91,-245 961.91,-252"/>
</a>
</g>
</g>
<!-- Node17 -->
<g id="Node000017" class="node">
<title>Node17</title>
<g id="a_Node000017"><a xlink:href="code__80091750_8c.html#ac51ad7c4cba535e4821a618a8cfe1e3e" target="_top" xlink:title=" ">
<polygon fill="white" stroke="#666666" points="897,-221 805,-221 805,-202 897,-202 897,-221"/>
<text text-anchor="middle" x="851" y="-209" font-family="Helvetica,sans-Serif" font-size="10.00">func_80094A64</text>
</a>
</g>
</g>
<!-- Node6&#45;&gt;Node17 -->
<g id="edge19_Node000006_Node000017" class="edge">
<title>Node6&#45;&gt;Node17</title>
<g id="a_edge19_Node000006_Node000017"><a xlink:title=" ">
<path fill="none" stroke="#63b8ff" d="M964.73,-236.78C942.14,-231.71 916.03,-225.86 894.63,-221.06"/>
<polygon fill="#63b8ff" stroke="#63b8ff" points="963.98,-240.2 974.51,-238.97 965.52,-233.37 963.98,-240.2"/>
</a>
</g>
</g>
<!-- Node8 -->
<g id="Node000008" class="node">
<title>Node8</title>
<g id="a_Node000008"><a xlink:href="main_8c.html#a8ccd4f2ae1a9502071e1b43ab07a78d3" target="_top" xlink:title=" ">
<polygon fill="white" stroke="#666666" points="736,-257 644,-257 644,-238 736,-238 736,-257"/>
<text text-anchor="middle" x="690" y="-245" font-family="Helvetica,sans-Serif" font-size="10.00">func_800025D4</text>
</a>
</g>
</g>
<!-- Node7&#45;&gt;Node8 -->
<g id="edge7_Node000007_Node000008" class="edge">
<title>Node7&#45;&gt;Node8</title>
<g id="a_edge7_Node000007_Node000008"><a xlink:title=" ">
<path fill="none" stroke="#63b8ff" d="M794.78,-248.15C775.67,-248.03 754.47,-247.9 736.25,-247.78"/>
<polygon fill="#63b8ff" stroke="#63b8ff" points="794.84,-251.65 804.86,-248.22 794.88,-244.65 794.84,-251.65"/>
</a>
</g>
</g>
<!-- Node14 -->
<g id="Node000014" class="node">
<title>Node14</title>
<g id="a_Node000014"><a xlink:href="main_8c.html#a1399390ccfb8062de2a77e48df769faf" target="_top" xlink:title=" ">
<polygon fill="white" stroke="#666666" points="735.5,-220 644.5,-220 644.5,-201 735.5,-201 735.5,-220"/>
<text text-anchor="middle" x="690" y="-208" font-family="Helvetica,sans-Serif" font-size="10.00">func_80002600</text>
</a>
</g>
</g>
<!-- Node7&#45;&gt;Node14 -->
<g id="edge13_Node000007_Node000014" class="edge">
<title>Node7&#45;&gt;Node14</title>
<g id="a_edge13_Node000007_Node000014"><a xlink:title=" ">
<path fill="none" stroke="#63b8ff" d="M799.92,-236.53C777.64,-231.21 751.77,-225.02 730.83,-220.02"/>
<polygon fill="#63b8ff" stroke="#63b8ff" points="799.34,-239.99 809.88,-238.91 800.97,-233.18 799.34,-239.99"/>
</a>
</g>
</g>
<!-- Node15 -->
<g id="Node000015" class="node">
<title>Node15</title>
<g id="a_Node000015"><a xlink:href="main_8c.html#a26a29858c220d867684f0385abacfde8" target="_top" xlink:title=" ">
<polygon fill="white" stroke="#666666" points="736,-183 644,-183 644,-164 736,-164 736,-183"/>
<text text-anchor="middle" x="690" y="-171" font-family="Helvetica,sans-Serif" font-size="10.00">func_8000262C</text>
</a>
</g>
</g>
<!-- Node7&#45;&gt;Node15 -->
<g id="edge15_Node000007_Node000015" class="edge">
<title>Node7&#45;&gt;Node15</title>
<g id="a_edge15_Node000007_Node000015"><a xlink:title=" ">
<path fill="none" stroke="#63b8ff" d="M795.49,-236.25C791.49,-234.57 787.61,-232.66 784,-230.5 764.04,-218.55 767.62,-205 748,-192.5 742.02,-188.69 735.19,-185.56 728.39,-183.03"/>
<polygon fill="#63b8ff" stroke="#63b8ff" points="794.38,-239.58 804.97,-239.79 796.82,-233.02 794.38,-239.58"/>
</a>
</g>
</g>
<!-- Node16 -->
<g id="Node000016" class="node">
<title>Node16</title>
<g id="a_Node000016"><a xlink:href="main_8c.html#a3a0697cf1e2b0c4ec6ddbf605926eac4" target="_top" xlink:title=" ">
<polygon fill="white" stroke="#666666" points="735.5,-294 644.5,-294 644.5,-275 735.5,-275 735.5,-294"/>
<text text-anchor="middle" x="690" y="-282" font-family="Helvetica,sans-Serif" font-size="10.00">func_80002658</text>
</a>
</g>
</g>
<!-- Node7&#45;&gt;Node16 -->
<g id="edge17_Node000007_Node000016" class="edge">
<title>Node7&#45;&gt;Node16</title>
<g id="a_edge17_Node000007_Node000016"><a xlink:title=" ">
<path fill="none" stroke="#63b8ff" d="M797.77,-260.32C776.8,-265.07 752.95,-270.47 733.11,-274.97"/>
<polygon fill="#63b8ff" stroke="#63b8ff" points="798.83,-263.67 807.81,-258.05 797.28,-256.85 798.83,-263.67"/>
</a>
</g>
</g>
<!-- Node9 -->
<g id="Node000009" class="node">
<title>Node9</title>
<g id="a_Node000009"><a xlink:href="main_8c.html#ad0625ed56ac663d3ec7ae8f1ba50c735" target="_top" xlink:title=" ">
<polygon fill="white" stroke="#666666" points="596,-257 488,-257 488,-238 596,-238 596,-257"/>
<text text-anchor="middle" x="542" y="-245" font-family="Helvetica,sans-Serif" font-size="10.00">update_gamestate</text>
</a>
</g>
</g>
<!-- Node8&#45;&gt;Node9 -->
<g id="edge8_Node000008_Node000009" class="edge">
<title>Node8&#45;&gt;Node9</title>
<g id="a_edge8_Node000008_Node000009"><a xlink:title=" ">
<path fill="none" stroke="#63b8ff" d="M633.49,-247.5C621.2,-247.5 608.22,-247.5 596.04,-247.5"/>
<polygon fill="#63b8ff" stroke="#63b8ff" points="633.61,-251 643.61,-247.5 633.6,-244 633.61,-251"/>
</a>
</g>
</g>
<!-- Node9&#45;&gt;Node10 -->
<g id="edge9_Node000009_Node000010" class="edge">
<title>Node9&#45;&gt;Node10</title>
<g id="a_edge9_Node000009_Node000010"><a xlink:title=" ">
<path fill="none" stroke="#63b8ff" d="M477.42,-247.5C468.98,-247.5 460.39,-247.5 452.1,-247.5"/>
<polygon fill="#63b8ff" stroke="#63b8ff" points="477.6,-251 487.6,-247.5 477.6,-244 477.6,-251"/>
</a>
</g>
</g>
<!-- Node11 -->
<g id="Node000011" class="node">
<title>Node11</title>
<g id="a_Node000011"><a xlink:href="main_8c.html#a023b8f272e4efbd33f371e91ffff6b30" target="_top" xlink:title=" ">
<polygon fill="white" stroke="#666666" points="303,-257 217,-257 217,-238 303,-238 303,-257"/>
<text text-anchor="middle" x="260" y="-245" font-family="Helvetica,sans-Serif" font-size="10.00">thread3_video</text>
</a>
</g>
</g>
<!-- Node10&#45;&gt;Node11 -->
<g id="edge10_Node000010_Node000011" class="edge">
<title>Node10&#45;&gt;Node11</title>
<g id="a_edge10_Node000010_Node000011"><a xlink:title=" ">
<path fill="none" stroke="#63b8ff" d="M328.57,-247.5C319.94,-247.5 311.3,-247.5 303.21,-247.5"/>
<polygon fill="#63b8ff" stroke="#63b8ff" points="328.66,-251 338.66,-247.5 328.66,-244 328.66,-251"/>
</a>
</g>
</g>
<!-- Node12 -->
<g id="Node000012" class="node">
<title>Node12</title>
<g id="a_Node000012"><a xlink:href="main_8c.html#a1e35d2b842121e6aea373f09381616e5" target="_top" xlink:title=" ">
<polygon fill="white" stroke="#666666" points="181,-257 104,-257 104,-238 181,-238 181,-257"/>
<text text-anchor="middle" x="142.5" y="-245" font-family="Helvetica,sans-Serif" font-size="10.00">thread1_idle</text>
</a>
</g>
</g>
<!-- Node11&#45;&gt;Node12 -->
<g id="edge11_Node000011_Node000012" class="edge">
<title>Node11&#45;&gt;Node12</title>
<g id="a_edge11_Node000011_Node000012"><a xlink:title=" ">
<path fill="none" stroke="#63b8ff" d="M206.9,-247.5C198.2,-247.5 189.33,-247.5 181.09,-247.5"/>
<polygon fill="#63b8ff" stroke="#63b8ff" points="206.98,-251 216.98,-247.5 206.98,-244 206.98,-251"/>
</a>
</g>
</g>
<!-- Node13 -->
<g id="Node000013" class="node">
<title>Node13</title>
<g id="a_Node000013"><a xlink:href="main_8c.html#a4f87d43525fe95f60ea92bc8a3b70e62" target="_top" xlink:title=" ">
<polygon fill="white" stroke="#666666" points="68,-257 0,-257 0,-238 68,-238 68,-257"/>
<text text-anchor="middle" x="34" y="-245" font-family="Helvetica,sans-Serif" font-size="10.00">main_func</text>
</a>
</g>
</g>
<!-- Node12&#45;&gt;Node13 -->
<g id="edge12_Node000012_Node000013" class="edge">
<title>Node12&#45;&gt;Node13</title>
<g id="a_edge12_Node000012_Node000013"><a xlink:title=" ">
<path fill="none" stroke="#63b8ff" d="M93.95,-247.5C85.29,-247.5 76.44,-247.5 68.31,-247.5"/>
<polygon fill="#63b8ff" stroke="#63b8ff" points="93.95,-251 103.95,-247.5 93.95,-244 93.95,-251"/>
</a>
</g>
</g>
<!-- Node14&#45;&gt;Node9 -->
<g id="edge14_Node000014_Node000009" class="edge">
<title>Node14&#45;&gt;Node9</title>
<g id="a_edge14_Node000014_Node000009"><a xlink:title=" ">
<path fill="none" stroke="#63b8ff" d="M641.67,-222.49C621.93,-227.5 599.32,-233.23 580.72,-237.94"/>
<polygon fill="#63b8ff" stroke="#63b8ff" points="642.57,-225.88 651.4,-220.03 640.85,-219.09 642.57,-225.88"/>
</a>
</g>
</g>
<!-- Node15&#45;&gt;Node9 -->
<g id="edge16_Node000015_Node000009" class="edge">
<title>Node15&#45;&gt;Node9</title>
<g id="a_edge16_Node000015_Node000009"><a xlink:title=" ">
<path fill="none" stroke="#63b8ff" d="M646.47,-186.46C641.52,-188.32 636.61,-190.34 632,-192.5 603.7,-205.74 573.25,-226.02 556.32,-237.9"/>
<polygon fill="#63b8ff" stroke="#63b8ff" points="647.7,-189.74 655.94,-183.08 645.34,-183.14 647.7,-189.74"/>
</a>
</g>
</g>
<!-- Node16&#45;&gt;Node9 -->
<g id="edge18_Node000016_Node000009" class="edge">
<title>Node16&#45;&gt;Node9</title>
<g id="a_edge18_Node000016_Node000009"><a xlink:title=" ">
<path fill="none" stroke="#63b8ff" d="M641.67,-272.51C621.93,-267.5 599.32,-261.77 580.72,-257.06"/>
<polygon fill="#63b8ff" stroke="#63b8ff" points="640.85,-275.91 651.4,-274.97 642.57,-269.12 640.85,-275.91"/>
</a>
</g>
</g>
<!-- Node18 -->
<g id="Node000018" class="node">
<title>Node18</title>
<g id="a_Node000018"><a xlink:href="main_8c.html#ae04143ce8113cdafa007c642eb620bc8" target="_top" xlink:title=" ">
<polygon fill="white" stroke="#666666" points="748,-146 632,-146 632,-127 748,-127 748,-146"/>
<text text-anchor="middle" x="690" y="-134" font-family="Helvetica,sans-Serif" font-size="10.00">game_state_handler</text>
</a>
</g>
</g>
<!-- Node17&#45;&gt;Node18 -->
<g id="edge20_Node000017_Node000018" class="edge">
<title>Node17&#45;&gt;Node18</title>
<g id="a_edge20_Node000017_Node000018"><a xlink:title=" ">
<path fill="none" stroke="#63b8ff" d="M806.61,-198.39C798.84,-195.3 791,-191.67 784,-187.5 765.61,-176.54 766.53,-166.21 748,-155.5 741.5,-151.74 734.14,-148.59 726.93,-146.01"/>
<polygon fill="#63b8ff" stroke="#63b8ff" points="805.39,-201.67 815.99,-201.88 807.84,-195.11 805.39,-201.67"/>
</a>
</g>
</g>
<!-- Node18&#45;&gt;Node10 -->
<g id="edge21_Node000018_Node000010" class="edge">
<title>Node18&#45;&gt;Node10</title>
<g id="a_edge21_Node000018_Node000010"><a xlink:title=" ">
<path fill="none" stroke="#63b8ff" d="M649.56,-149.36C643.65,-151.37 637.66,-153.45 632,-155.5 553.57,-183.87 461.84,-220.81 419.75,-237.96"/>
<polygon fill="#63b8ff" stroke="#63b8ff" points="650.95,-152.58 659.32,-146.08 648.72,-145.95 650.95,-152.58"/>
</a>
</g>
</g>
<!-- Node19&#45;&gt;Node9 -->
<g id="edge23_Node000019_Node000009" class="edge">
<title>Node19&#45;&gt;Node9</title>
<g id="a_edge23_Node000019_Node000009"><a xlink:title=" ">
<path fill="none" stroke="#63b8ff" d="M1118.61,-326.73C1025.8,-338.12 805.47,-356.55 632,-303.5 600.75,-293.94 569.69,-270.37 553.83,-257.06"/>
<polygon fill="#63b8ff" stroke="#63b8ff" points="1119.28,-330.18 1128.76,-325.45 1118.4,-323.23 1119.28,-330.18"/>
</a>
</g>
</g>
<!-- Node21 -->
<g id="Node000021" class="node">
<title>Node21</title>
<g id="a_Node000021"><a xlink:href="race__logic_8c.html#a2645116d52469ec9b45c668d694e98c4" target="_top" xlink:title=" ">
<polygon fill="white" stroke="#666666" points="1488,-243 1397,-243 1397,-224 1488,-224 1488,-243"/>
<text text-anchor="middle" x="1442.5" y="-231" font-family="Helvetica,sans-Serif" font-size="10.00">func_8028EF28</text>
</a>
</g>
</g>
<!-- Node20&#45;&gt;Node21 -->
<g id="edge26_Node000020_Node000021" class="edge">
<title>Node20&#45;&gt;Node21</title>
<g id="a_edge26_Node000020_Node000021"><a xlink:title=" ">
<path fill="none" stroke="#63b8ff" d="M1535.76,-233.5C1520.05,-233.5 1503.17,-233.5 1488.2,-233.5"/>
<polygon fill="#63b8ff" stroke="#63b8ff" points="1535.89,-237 1545.89,-233.5 1535.89,-230 1535.89,-237"/>
</a>
</g>
</g>
<!-- Node21&#45;&gt;Node22 -->
<g id="edge27_Node000021_Node000022" class="edge">
<title>Node21&#45;&gt;Node22</title>
<g id="a_edge27_Node000021_Node000022"><a xlink:title=" ">
<path fill="none" stroke="#63b8ff" d="M1394.33,-221.39C1373.71,-216.1 1349.89,-209.98 1330.58,-205.02"/>
<polygon fill="#63b8ff" stroke="#63b8ff" points="1393.6,-224.81 1404.15,-223.91 1395.34,-218.03 1393.6,-224.81"/>
</a>
</g>
</g>
<!-- Node23 -->
<g id="Node000023" class="node">
<title>Node23</title>
<g id="a_Node000023"><a xlink:href="main_8c.html#afff87ffcbfee4f1f37d443110aa7b52a" target="_top" xlink:title=" ">
<polygon fill="white" stroke="#666666" points="1064,-195 972,-195 972,-176 1064,-176 1064,-195"/>
<text text-anchor="middle" x="1018" y="-183" font-family="Helvetica,sans-Serif" font-size="10.00">race_logic_loop</text>
</a>
</g>
</g>
<!-- Node22&#45;&gt;Node23 -->
<g id="edge28_Node000022_Node000023" class="edge">
<title>Node22&#45;&gt;Node23</title>
<g id="a_edge28_Node000022_Node000023"><a xlink:title=" ">
<path fill="none" stroke="#63b8ff" d="M1235.77,-193.45C1185.15,-191.6 1111.39,-188.89 1064.3,-187.16"/>
<polygon fill="#63b8ff" stroke="#63b8ff" points="1235.77,-196.96 1245.89,-193.83 1236.02,-189.96 1235.77,-196.96"/>
</a>
</g>
</g>
<!-- Node23&#45;&gt;Node18 -->
<g id="edge29_Node000023_Node000018" class="edge">
<title>Node23&#45;&gt;Node18</title>
<g id="a_edge29_Node000023_Node000018"><a xlink:title=" ">
<path fill="none" stroke="#63b8ff" d="M961.75,-179.08C914.45,-173.36 844.6,-164.39 784,-154.5 768.74,-152.01 752.15,-148.92 737.26,-146.01"/>
<polygon fill="#63b8ff" stroke="#63b8ff" points="961.43,-182.57 971.78,-180.28 962.27,-175.62 961.43,-182.57"/>
</a>
</g>
</g>
<!-- Node25 -->
<g id="Node000025" class="node">
<title>Node25</title>
<g id="a_Node000025"><a xlink:href="effects_8c.html#a1ae16ef10ed322ad47b3cff5a8efc83e" target="_top" xlink:title=" ">
<polygon fill="white" stroke="#666666" points="1510,-167 1375,-167 1375,-148 1510,-148 1510,-167"/>
<text text-anchor="middle" x="1442.5" y="-155" font-family="Helvetica,sans-Serif" font-size="10.00">apply_star_sound_effect</text>
</a>
</g>
</g>
<!-- Node24&#45;&gt;Node25 -->
<g id="edge31_Node000024_Node000025" class="edge">
<title>Node24&#45;&gt;Node25</title>
<g id="a_edge31_Node000024_Node000025"><a xlink:title=" ">
<path fill="none" stroke="#63b8ff" d="M1535.86,-157.5C1527.48,-157.5 1518.76,-157.5 1510.18,-157.5"/>
<polygon fill="#63b8ff" stroke="#63b8ff" points="1535.89,-161 1545.89,-157.5 1535.89,-154 1535.89,-161"/>
</a>
</g>
</g>
<!-- Node27 -->
<g id="Node000027" class="node">
<title>Node27</title>
<g id="a_Node000027"><a xlink:href="ceremony__and__credits_8c.html#a445e8065f08ba8f9cd2377e5d0a501fb" target="_top" xlink:title=" ">
<polygon fill="white" stroke="#666666" points="1488.5,-130 1396.5,-130 1396.5,-111 1488.5,-111 1488.5,-130"/>
<text text-anchor="middle" x="1442.5" y="-118" font-family="Helvetica,sans-Serif" font-size="10.00">func_80283C58</text>
</a>
</g>
</g>
<!-- Node26&#45;&gt;Node27 -->
<g id="edge33_Node000026_Node000027" class="edge">
<title>Node26&#45;&gt;Node27</title>
<g id="a_edge33_Node000026_Node000027"><a xlink:title=" ">
<path fill="none" stroke="#63b8ff" d="M1535.86,-120.5C1520.3,-120.5 1503.58,-120.5 1488.71,-120.5"/>
<polygon fill="#63b8ff" stroke="#63b8ff" points="1535.89,-124 1545.89,-120.5 1535.89,-117 1535.89,-124"/>
</a>
</g>
</g>
<!-- Node28 -->
<g id="Node000028" class="node">
<title>Node28</title>
<g id="a_Node000028"><a xlink:href="ceremony__and__credits_8c.html#a2852fa12f61b0e487abbeeebdd0419b6" target="_top" xlink:title=" ">
<polygon fill="white" stroke="#666666" points="1335.5,-130 1249.5,-130 1249.5,-111 1335.5,-111 1335.5,-130"/>
<text text-anchor="middle" x="1292.5" y="-118" font-family="Helvetica,sans-Serif" font-size="10.00">play_cutscene</text>
</a>
</g>
</g>
<!-- Node27&#45;&gt;Node28 -->
<g id="edge34_Node000027_Node000028" class="edge">
<title>Node27&#45;&gt;Node28</title>
<g id="a_edge34_Node000027_Node000028"><a xlink:title=" ">
<path fill="none" stroke="#63b8ff" d="M1386.1,-120.5C1369.4,-120.5 1351.35,-120.5 1335.65,-120.5"/>
<polygon fill="#63b8ff" stroke="#63b8ff" points="1386.29,-124 1396.29,-120.5 1386.29,-117 1386.29,-124"/>
</a>
</g>
</g>
<!-- Node29 -->
<g id="Node000029" class="node">
<title>Node29</title>
<g id="a_Node000029"><a xlink:href="ceremony__and__credits_8c.html#ae68f2b462a9b90f0a251c466859df0c7" target="_top" xlink:title=" ">
<polygon fill="white" stroke="#666666" points="1209.5,-130 1118.5,-130 1118.5,-111 1209.5,-111 1209.5,-130"/>
<text text-anchor="middle" x="1164" y="-118" font-family="Helvetica,sans-Serif" font-size="10.00">func_80283648</text>
</a>
</g>
</g>
<!-- Node28&#45;&gt;Node29 -->
<g id="edge35_Node000028_Node000029" class="edge">
<title>Node28&#45;&gt;Node29</title>
<g id="a_edge35_Node000028_Node000029"><a xlink:title=" ">
<path fill="none" stroke="#63b8ff" d="M1239.26,-120.5C1229.39,-120.5 1219.15,-120.5 1209.54,-120.5"/>
<polygon fill="#63b8ff" stroke="#63b8ff" points="1239.38,-124 1249.38,-120.5 1239.38,-117 1239.38,-124"/>
</a>
</g>
</g>
<!-- Node30 -->
<g id="Node000030" class="node">
<title>Node30</title>
<g id="a_Node000030"><a xlink:href="code__80280000_8c.html#aa28a69be4eda3b8667366c6c7b556024" target="_top" xlink:title=" ">
<polygon fill="white" stroke="#666666" points="889,-145 813,-145 813,-126 889,-126 889,-145"/>
<text text-anchor="middle" x="851" y="-133" font-family="Helvetica,sans-Serif" font-size="10.00">credits_loop</text>
</a>
</g>
</g>
<!-- Node29&#45;&gt;Node30 -->
<g id="edge36_Node000029_Node000030" class="edge">
<title>Node29&#45;&gt;Node30</title>
<g id="a_edge36_Node000029_Node000030"><a xlink:title=" ">
<path fill="none" stroke="#63b8ff" d="M1108.3,-123.14C1045.33,-126.18 943.6,-131.08 889.17,-133.71"/>
<polygon fill="#63b8ff" stroke="#63b8ff" points="1108.62,-126.63 1118.44,-122.65 1108.28,-119.64 1108.62,-126.63"/>
</a>
</g>
</g>
<!-- Node31 -->
<g id="Node000031" class="node">
<title>Node31</title>
<g id="a_Node000031"><a xlink:href="camera__junk_8c.html#a51d9ed8208040465ff736fdfce39d918" target="_top" xlink:title=" ">
<polygon fill="white" stroke="#666666" points="1082,-110.5 954,-110.5 954,-80.5 1082,-80.5 1082,-110.5"/>
<text text-anchor="start" x="962" y="-98.5" font-family="Helvetica,sans-Serif" font-size="10.00">setup_camera_podium</text>
<text text-anchor="middle" x="1018" y="-87.5" font-family="Helvetica,sans-Serif" font-size="10.00">_ceremony</text>
</a>
</g>
</g>
<!-- Node29&#45;&gt;Node31 -->
<g id="edge38_Node000029_Node000031" class="edge">
<title>Node29&#45;&gt;Node31</title>
<g id="a_edge38_Node000029_Node000031"><a xlink:title=" ">
<path fill="none" stroke="#63b8ff" d="M1108.11,-110.97C1099.66,-109.5 1090.87,-107.98 1082.25,-106.48"/>
<polygon fill="#63b8ff" stroke="#63b8ff" points="1107.78,-114.46 1118.23,-112.73 1108.97,-107.57 1107.78,-114.46"/>
</a>
</g>
</g>
<!-- Node30&#45;&gt;Node18 -->
<g id="edge37_Node000030_Node000018" class="edge">
<title>Node30&#45;&gt;Node18</title>
<g id="a_edge37_Node000030_Node000018"><a xlink:title=" ">
<path fill="none" stroke="#63b8ff" d="M802.46,-135.8C785.42,-135.91 766.05,-136.03 748.28,-136.14"/>
<polygon fill="#63b8ff" stroke="#63b8ff" points="802.74,-139.3 812.72,-135.73 802.7,-132.3 802.74,-139.3"/>
</a>
</g>
</g>
<!-- Node32 -->
<g id="Node000032" class="node">
<title>Node32</title>
<g id="a_Node000032"><a xlink:href="podium__ceremony__actors_8c.html#a7ea229c65f264670fc828b95e8321154" target="_top" xlink:title=" ">
<polygon fill="white" stroke="#666666" points="918,-107 784,-107 784,-88 918,-88 918,-107"/>
<text text-anchor="middle" x="851" y="-95" font-family="Helvetica,sans-Serif" font-size="10.00">podium_ceremony_loop</text>
</a>
</g>
</g>
<!-- Node31&#45;&gt;Node32 -->
<g id="edge39_Node000031_Node000032" class="edge">
<title>Node31&#45;&gt;Node32</title>
<g id="a_edge39_Node000031_Node000032"><a xlink:title=" ">
<path fill="none" stroke="#63b8ff" d="M943.48,-96.39C935.05,-96.49 926.49,-96.6 918.16,-96.7"/>
<polygon fill="#63b8ff" stroke="#63b8ff" points="943.72,-99.89 953.68,-96.27 943.64,-92.89 943.72,-99.89"/>
</a>
</g>
</g>
<!-- Node32&#45;&gt;Node18 -->
<g id="edge40_Node000032_Node000018" class="edge">
<title>Node32&#45;&gt;Node18</title>
<g id="a_edge40_Node000032_Node000018"><a xlink:title=" ">
<path fill="none" stroke="#63b8ff" d="M801.21,-109.47C778.27,-115.09 751.29,-121.71 729.77,-126.99"/>
<polygon fill="#63b8ff" stroke="#63b8ff" points="802.23,-112.82 811.1,-107.04 800.56,-106.02 802.23,-112.82"/>
</a>
</g>
</g>
<!-- Node34 -->
<g id="Node000034" class="node">
<title>Node34</title>
<g id="a_Node000034"><a xlink:href="ceremony__and__credits_8c.html#a8935b9d0429d95b9c52b0e53fb66622d" target="_top" xlink:title=" ">
<polygon fill="white" stroke="#666666" points="1489,-93 1396,-93 1396,-74 1489,-74 1489,-93"/>
<text text-anchor="middle" x="1442.5" y="-81" font-family="Helvetica,sans-Serif" font-size="10.00">func_80283D2C</text>
</a>
</g>
</g>
<!-- Node33&#45;&gt;Node34 -->
<g id="edge42_Node000033_Node000034" class="edge">
<title>Node33&#45;&gt;Node34</title>
<g id="a_edge42_Node000033_Node000034"><a xlink:title=" ">
<path fill="none" stroke="#63b8ff" d="M1535.85,-83.5C1520.47,-83.5 1503.95,-83.5 1489.2,-83.5"/>
<polygon fill="#63b8ff" stroke="#63b8ff" points="1536.29,-87 1546.29,-83.5 1536.29,-80 1536.29,-87"/>
</a>
</g>
</g>
<!-- Node36 -->
<g id="Node000036" class="node">
<title>Node36</title>
<g id="a_Node000036"><a xlink:href="ceremony__and__credits_8c.html#acc03328fb9aab7ca6beb3033035f598c" target="_top" xlink:title=" ">
<polygon fill="white" stroke="#666666" points="1488.5,-56 1396.5,-56 1396.5,-37 1488.5,-37 1488.5,-56"/>
<text text-anchor="middle" x="1442.5" y="-44" font-family="Helvetica,sans-Serif" font-size="10.00">func_802840C8</text>
</a>
</g>
</g>
<!-- Node35&#45;&gt;Node36 -->
<g id="edge44_Node000035_Node000036" class="edge">
<title>Node35&#45;&gt;Node36</title>
<g id="a_edge44_Node000035_Node000036"><a xlink:title=" ">
<path fill="none" stroke="#63b8ff" d="M1536.2,-46.5C1520.54,-46.5 1503.68,-46.5 1488.69,-46.5"/>
<polygon fill="#63b8ff" stroke="#63b8ff" points="1536.29,-50 1546.29,-46.5 1536.29,-43 1536.29,-50"/>
</a>
</g>
</g>
<!-- Node38 -->
<g id="Node000038" class="node">
<title>Node38</title>
<g id="a_Node000038"><a xlink:href="ceremony__and__credits_8c.html#a660fba86a90850e23820a49fb13f434b" target="_top" xlink:title=" ">
<polygon fill="white" stroke="#666666" points="1488.5,-19 1396.5,-19 1396.5,0 1488.5,0 1488.5,-19"/>
<text text-anchor="middle" x="1442.5" y="-7" font-family="Helvetica,sans-Serif" font-size="10.00">func_802847CC</text>
</a>
</g>
</g>
<!-- Node37&#45;&gt;Node38 -->
<g id="edge46_Node000037_Node000038" class="edge">
<title>Node37&#45;&gt;Node38</title>
<g id="a_edge46_Node000037_Node000038"><a xlink:title=" ">
<path fill="none" stroke="#63b8ff" d="M1536.2,-9.5C1520.54,-9.5 1503.68,-9.5 1488.69,-9.5"/>
<polygon fill="#63b8ff" stroke="#63b8ff" points="1536.29,-13 1546.29,-9.5 1536.29,-6 1536.29,-13"/>
</a>
</g>
</g>
</g>
</svg>

<g id="navigator" transform="translate(0 0)" fill="#404254">
  <rect fill="#f2f5e9" fill-opacity="0.5" stroke="#606060" stroke-width=".5" x="0" y="0" width="60" height="60"/>
  <use id="zoomplus" xlink:href="#zoomPlus" x="17" y="9" onmousedown="handleZoom(evt,'in')"/>
  <use id="zoomminus" xlink:href="#zoomMin" x="42" y="9" onmousedown="handleZoom(evt,'out')"/>
  <use id="reset" xlink:href="#resetDef" x="30" y="36" onmousedown="handleReset()"/>
   <use id="arrowup" xlink:href="#arrowUp" x="0" y="0" onmousedown="handlePan(0,-1)"/>
  <use id="arrowright" xlink:href="#arrowRight" x="0" y="0" onmousedown="handlePan(1,0)"/>
  <use id="arrowdown" xlink:href="#arrowDown" x="0" y="0" onmousedown="handlePan(0,1)"/>
  <use id="arrowleft" xlink:href="#arrowLeft" x="0" y="0" onmousedown="handlePan(-1,0)"/>
</g>
<svg viewBox="0 0 15 15" width="100%" height="30px" preserveAspectRatio="xMaxYMin meet">
 <g id="arrow_out" transform="scale(0.3 0.3)">
  <a xlink:href="external_8h_a92391350c9e174c952bc6cf38678406d_icgraph_org.svg" target="_base">
   <rect id="button" ry="5" rx="5" y="6" x="6" height="38" width="38"
        fill="#f2f5e9" fill-opacity="0.5" stroke="#606060" stroke-width="1.0"/>
   <path id="arrow"
     d="M 11.500037,31.436501 C 11.940474,20.09759 22.043105,11.32322 32.158766,21.979434 L 37.068811,17.246167 C 37.068811,17.246167 37.088388,32 37.088388,32 L 22.160133,31.978069 C 22.160133,31.978069 26.997745,27.140456 26.997745,27.140456 C 18.528582,18.264221 13.291696,25.230495 11.500037,31.436501 z"
     style="fill:#404040;"/>
  </a>
 </g>
</svg>

<style type='text/css'>
<![CDATA[
[data-mouse-over-selected='false'] { opacity: 0.7; }
[data-mouse-over-selected='true']  { opacity: 1.0; }
]]>
</style>
<script type="application/ecmascript"><![CDATA[
document.addEventListener('DOMContentLoaded', (event) => {
  highlightEdges();
  highlightAdjacentNodes();
});
]]></script>
</svg>
